  0
SECTION
  2
HEADER
  9
$ACADVER
  1
AC1015
  9
$ACADMAINTVER
 70
6
  9
$DWGCODEPAGE
  3
ANSI_1252
  9
$INSBASE
 10
0.0
 20
0.0
 30
0.0
  9
$EXTMIN
 10
1e+20
 20
1e+20
 30
1e+20
  9
$EXTMAX
 10
-1e+20
 20
-1e+20
 30
-1e+20
  9
$LIMMIN
 10
0.0
 20
0.0
  9
$LIMMAX
 10
420.0
 20
297.0
  9
$ORTHOMODE
 70
0
  9
$REGENMODE
 70
1
  9
$FILLMODE
 70
1
  9
$QTEXTMODE
 70
0
  9
$MIRRTEXT
 70
1
  9
$LTSCALE
 40
1.0
  9
$ATTMODE
 70
1
  9
$TEXTSIZE
 40
2.5
  9
$TRACEWID
 40
1.0
  9
$TEXTSTYLE
  7
Standard
  9
$CLAYER
  8
0
  9
$CELTYPE
  6
ByLayer
  9
$CECOLOR
 62
256
  9
$CELTSCALE
 40
1.0
  9
$DISPSILH
 70
0
  9
$DIMSCALE
 40
1.0
  9
$DIMASZ
 40
2.5
  9
$DIMEXO
 40
0.625
  9
$DIMDLI
 40
3.75
  9
$DIMRND
 40
0.0
  9
$DIMDLE
 40
0.0
  9
$DIMEXE
 40
1.25
  9
$DIMTP
 40
0.0
  9
$DIMTM
 40
0.0
  9
$DIMTXT
 40
2.5
  9
$DIMCEN
 40
2.5
  9
$DIMTSZ
 40
0.0
  9
$DIMTOL
 70
0
  9
$DIMLIM
 70
0
  9
$DIMTIH
 70
0
  9
$DIMTOH
 70
0
  9
$DIMSE1
 70
0
  9
$DIMSE2
 70
0
  9
$DIMTAD
 70
1
  9
$DIMZIN
 70
8
  9
$DIMBLK
  1

  9
$DIMASO
 70
1
  9
$DIMSHO
 70
1
  9
$DIMPOST
  1

  9
$DIMAPOST
  1

  9
$DIMALT
 70
0
  9
$DIMALTD
 70
3
  9
$DIMALTF
 40
0.03937007874
  9
$DIMLFAC
 40
1.0
  9
$DIMTOFL
 70
1
  9
$DIMTVP
 40
0.0
  9
$DIMTIX
 70
0
  9
$DIMSOXD
 70
0
  9
$DIMSAH
 70
0
  9
$DIMBLK1
  1

  9
$DIMBLK2
  1

  9
$DIMSTYLE
  2
ISO-25
  9
$DIMCLRD
 70
0
  9
$DIMCLRE
 70
0
  9
$DIMCLRT
 70
0
  9
$DIMTFAC
 40
1.0
  9
$DIMGAP
 40
0.625
  9
$DIMJUST
 70
0
  9
$DIMSD1
 70
0
  9
$DIMSD2
 70
0
  9
$DIMTOLJ
 70
0
  9
$DIMTZIN
 70
8
  9
$DIMALTZ
 70
0
  9
$DIMALTTZ
 70
0
  9
$DIMUPT
 70
0
  9
$DIMDEC
 70
2
  9
$DIMTDEC
 70
2
  9
$DIMALTU
 70
2
  9
$DIMALTTD
 70
3
  9
$DIMTXSTY
  7
Standard
  9
$DIMAUNIT
 70
0
  9
$DIMADEC
 70
0
  9
$DIMALTRND
 40
0.0
  9
$DIMAZIN
 70
0
  9
$DIMDSEP
 70
44
  9
$DIMATFIT
 70
3
  9
$DIMFRAC
 70
0
  9
$DIMLDRBLK
  1

  9
$DIMLUNIT
 70
2
  9
$DIMLWD
 70
-2
  9
$DIMLWE
 70
-2
  9
$DIMTMOVE
 70
0
  9
$LUNITS
 70
2
  9
$LUPREC
 70
4
  9
$SKETCHINC
 40
1.0
  9
$FILLETRAD
 40
10.0
  9
$AUNITS
 70
0
  9
$AUPREC
 70
2
  9
$MENU
  1
.
  9
$ELEVATION
 40
0.0
  9
$PELEVATION
 40
0.0
  9
$THICKNESS
 40
0.0
  9
$LIMCHECK
 70
0
  9
$CHAMFERA
 40
0.0
  9
$CHAMFERB
 40
0.0
  9
$CHAMFERC
 40
0.0
  9
$CHAMFERD
 40
0.0
  9
$SKPOLY
 70
0
  9
$TDCREATE
 40
2461251.6239583334
  9
$TDUCREATE
 40
2458532.153996898
  9
$TDUPDATE
 40
2461251.6239583334
  9
$TDUUPDATE
 40
2458532.1544311
  9
$TDINDWG
 40
0.0
  9
$TDUSRTIMER
 40
0.0
  9
$USRTIMER
 70
1
  9
$ANGBASE
 50
0.0
  9
$ANGDIR
 70
0
  9
$PDMODE
 70
0
  9
$PDSIZE
 40
0.0
  9
$PLINEWID
 40
0.0
  9
$SPLFRAME
 70
0
  9
$SPLINETYPE
 70
6
  9
$SPLINESEGS
 70
8
  9
$HANDSEED
  5
4E
  9
$SURFTAB1
 70
6
  9
$SURFTAB2
 70
6
  9
$SURFTYPE
 70
6
  9
$SURFU
 70
6
  9
$SURFV
 70
6
  9
$UCSBASE
  2

  9
$UCSNAME
  2

  9
$UCSORG
 10
0.0
 20
0.0
 30
0.0
  9
$UCSXDIR
 10
1.0
 20
0.0
 30
0.0
  9
$UCSYDIR
 10
0.0
 20
1.0
 30
0.0
  9
$UCSORTHOREF
  2

  9
$UCSORTHOVIEW
 70
0
  9
$UCSORGTOP
 10
0.0
 20
0.0
 30
0.0
  9
$UCSORGBOTTOM
 10
0.0
 20
0.0
 30
0.0
  9
$UCSORGLEFT
 10
0.0
 20
0.0
 30
0.0
  9
$UCSORGRIGHT
 10
0.0
 20
0.0
 30
0.0
  9
$UCSORGFRONT
 10
0.0
 20
0.0
 30
0.0
  9
$UCSORGBACK
 10
0.0
 20
0.0
 30
0.0
  9
$PUCSBASE
  2

  9
$PUCSNAME
  2

  9
$PUCSORG
 10
0.0
 20
0.0
 30
0.0
  9
$PUCSXDIR
 10
1.0
 20
0.0
 30
0.0
  9
$PUCSYDIR
 10
0.0
 20
1.0
 30
0.0
  9
$PUCSORTHOREF
  2

  9
$PUCSORTHOVIEW
 70
0
  9
$PUCSORGTOP
 10
0.0
 20
0.0
 30
0.0
  9
$PUCSORGBOTTOM
 10
0.0
 20
0.0
 30
0.0
  9
$PUCSORGLEFT
 10
0.0
 20
0.0
 30
0.0
  9
$PUCSORGRIGHT
 10
0.0
 20
0.0
 30
0.0
  9
$PUCSORGFRONT
 10
0.0
 20
0.0
 30
0.0
  9
$PUCSORGBACK
 10
0.0
 20
0.0
 30
0.0
  9
$USERI1
 70
0
  9
$USERI2
 70
0
  9
$USERI3
 70
0
  9
$USERI4
 70
0
  9
$USERI5
 70
0
  9
$USERR1
 40
0.0
  9
$USERR2
 40
0.0
  9
$USERR3
 40
0.0
  9
$USERR4
 40
0.0
  9
$USERR5
 40
0.0
  9
$WORLDVIEW
 70
1
  9
$SHADEDGE
 70
3
  9
$SHADEDIF
 70
70
  9
$TILEMODE
 70
1
  9
$MAXACTVP
 70
64
  9
$PINSBASE
 10
0.0
 20
0.0
 30
0.0
  9
$PLIMCHECK
 70
0
  9
$PEXTMIN
 10
1e+20
 20
1e+20
 30
1e+20
  9
$PEXTMAX
 10
-1e+20
 20
-1e+20
 30
-1e+20
  9
$PLIMMIN
 10
0.0
 20
0.0
  9
$PLIMMAX
 10
420.0
 20
297.0
  9
$UNITMODE
 70
0
  9
$VISRETAIN
 70
1
  9
$PLINEGEN
 70
0
  9
$PSLTSCALE
 70
1
  9
$TREEDEPTH
 70
3020
  9
$CMLSTYLE
  2
Standard
  9
$CMLJUST
 70
0
  9
$CMLSCALE
 40
20.0
  9
$PROXYGRAPHICS
 70
1
  9
$MEASUREMENT
 70
1
  9
$CELWEIGHT
370
-1
  9
$ENDCAPS
280
0
  9
$JOINSTYLE
280
0
  9
$LWDISPLAY
290
0
  9
$INSUNITS
 70
4
  9
$HYPERLINKBASE
  1

  9
$STYLESHEET
  1

  9
$XEDIT
290
1
  9
$CEPSNTYPE
380
0
  9
$PSTYLEMODE
290
1
  9
$FINGERPRINTGUID
  2
{C9772CC2-D6DD-41E1-9903-3E4754A28B8C}
  9
$VERSIONGUID
  2
{D23B6B41-FB5B-4981-9163-95978A378202}
  9
$EXTNAMES
290
1
  9
$PSVPSCALE
 40
0.0
  9
$OLESTARTUP
290
0
  0
ENDSEC
  0
SECTION
  2
CLASSES
  0
CLASS
  1
ACDBDICTIONARYWDFLT
  2
AcDbDictionaryWithDefault
  3
ObjectDBX Classes
 90
0
280
0
281
0
  0
CLASS
  1
SUN
  2
AcDbSun
  3
SCENEOE
 90
1153
280
0
281
0
  0
CLASS
  1
VISUALSTYLE
  2
AcDbVisualStyle
  3
ObjectDBX Classes
 90
4095
280
0
281
0
  0
CLASS
  1
MATERIAL
  2
AcDbMaterial
  3
ObjectDBX Classes
 90
1153
280
0
281
0
  0
CLASS
  1
SCALE
  2
AcDbScale
  3
ObjectDBX Classes
 90
1153
280
0
281
0
  0
CLASS
  1
TABLESTYLE
  2
AcDbTableStyle
  3
ObjectDBX Classes
 90
4095
280
0
281
0
  0
CLASS
  1
MLEADERSTYLE
  2
AcDbMLeaderStyle
  3
ACDB_MLEADERSTYLE_CLASS
 90
4095
280
0
281
0
  0
CLASS
  1
DICTIONARYVAR
  2
AcDbDictionaryVar
  3
ObjectDBX Classes
 90
0
280
0
281
0
  0
CLASS
  1
CELLSTYLEMAP
  2
AcDbCellStyleMap
  3
ObjectDBX Classes
 90
1152
280
0
281
0
  0
CLASS
  1
MENTALRAYRENDERSETTINGS
  2
AcDbMentalRayRenderSettings
  3
SCENEOE
 90
1024
280
0
281
0
  0
CLASS
  1
ACDBDETAILVIEWSTYLE
  2
AcDbDetailViewStyle
  3
ObjectDBX Classes
 90
1025
280
0
281
0
  0
CLASS
  1
ACDBSECTIONVIEWSTYLE
  2
AcDbSectionViewStyle
  3
ObjectDBX Classes
 90
1025
280
0
281
0
  0
CLASS
  1
RASTERVARIABLES
  2
AcDbRasterVariables
  3
ISM
 90
0
280
0
281
0
  0
CLASS
  1
ACDBPLACEHOLDER
  2
AcDbPlaceHolder
  3
ObjectDBX Classes
 90
0
280
0
281
0
  0
CLASS
  1
LAYOUT
  2
AcDbLayout
  3
ObjectDBX Classes
 90
0
280
0
281
0
  0
ENDSEC
  0
SECTION
  2
TABLES
  0
TABLE
  2
VPORT
  5
8
330
0
100
AcDbSymbolTable
 70
1
  0
VPORT
  5
23
330
8
100
AcDbSymbolTableRecord
100
AcDbViewportTableRecord
  2
*Active
 70
0
 10
0.0
 20
0.0
 11
1.0
 21
1.0
 12
0.0
 22
0.0
 13
0.0
 23
0.0
 14
0.5
 24
0.5
 15
0.5
 25
0.5
 16
0.0
 26
0.0
 36
1.0
 17
0.0
 27
0.0
 37
0.0
 40
1000.0
 41
1.34
 42
50.0
 43
0.0
 44
0.0
 50
0.0
 51
0.0
 71
0
 72
1000
 73
1
 74
3
 75
0
 76
0
 77
0
 78
0
281
0
 65
0
146
0.0
  0
ENDTAB
  0
TABLE
  2
LTYPE
  5
2
330
0
100
AcDbSymbolTable
 70
3
  0
LTYPE
  5
24
330
2
100
AcDbSymbolTableRecord
100
AcDbLinetypeTableRecord
  2
ByBlock
 70
0
  3

 72
65
 73
0
 40
0.0
  0
LTYPE
  5
25
330
2
100
AcDbSymbolTableRecord
100
AcDbLinetypeTableRecord
  2
ByLayer
 70
0
  3

 72
65
 73
0
 40
0.0
  0
LTYPE
  5
26
330
2
100
AcDbSymbolTableRecord
100
AcDbLinetypeTableRecord
  2
Continuous
 70
0
  3

 72
65
 73
0
 40
0.0
  0
ENDTAB
  0
TABLE
  2
LAYER
  5
1
330
0
100
AcDbSymbolTable
 70
3
  0
LAYER
  5
27
330
1
100
AcDbSymbolTableRecord
100
AcDbLayerTableRecord
  2
0
 70
0
 62
7
  6
Continuous
370
-3
390
13
  0
LAYER
  5
28
330
1
100
AcDbSymbolTableRecord
100
AcDbLayerTableRecord
  2
Defpoints
 70
0
 62
7
  6
Continuous
290
0
370
-3
390
13
  0
LAYER
  5
2F
330
1
100
AcDbSymbolTableRecord
100
AcDbLayerTableRecord
  2
0.0mm
 70
0
 62
7
  6
Continuous
370
-3
390
13
  0
ENDTAB
  0
TABLE
  2
STYLE
  5
5
330
0
100
AcDbSymbolTable
 70
1
  0
STYLE
  5
29
330
5
100
AcDbSymbolTableRecord
100
AcDbTextStyleTableRecord
  2
Standard
 70
0
 40
0.0
 41
1.0
 50
0.0
 71
0
 42
2.5
  3
txt
  4

  0
ENDTAB
  0
TABLE
  2
VIEW
  5
7
330
0
100
AcDbSymbolTable
 70
0
  0
ENDTAB
  0
TABLE
  2
UCS
  5
6
330
0
100
AcDbSymbolTable
 70
0
  0
ENDTAB
  0
TABLE
  2
APPID
  5
3
330
0
100
AcDbSymbolTable
 70
3
  0
APPID
  5
2A
330
3
100
AcDbSymbolTableRecord
100
AcDbRegAppTableRecord
  2
ACAD
 70
0
  0
APPID
  5
4B
330
3
100
AcDbSymbolTableRecord
100
AcDbRegAppTableRecord
  2
HATCHBACKGROUNDCOLOR
 70
0
  0
APPID
  5
4C
330
3
100
AcDbSymbolTableRecord
100
AcDbRegAppTableRecord
  2
EZDXF
 70
0
  0
ENDTAB
  0
TABLE
  2
DIMSTYLE
  5
4
330
0
100
AcDbSymbolTable
 70
1
100
AcDbDimStyleTable
  0
DIMSTYLE
105
2B
330
4
100
AcDbSymbolTableRecord
100
AcDbDimStyleTableRecord
  2
Standard
 70
0
  3

  4

 40
1.0
 41
2.5
 42
0.625
 43
3.75
 44
1.25
 45
0.0
 46
0.0
 47
0.0
 48
0.0
140
2.5
141
2.5
142
0.0
143
0.03937007874
144
1.0
145
0.0
146
1.0
147
0.625
148
0.0
 71
0
 72
0
 73
0
 74
0
 75
0
 76
0
 77
1
 78
8
 79
3
170
0
171
3
172
1
173
0
174
0
175
0
176
0
177
0
178
0
179
2
271
2
272
2
273
2
274
3
275
0
276
0
277
2
278
44
279
0
280
0
281
0
282
0
283
0
284
8
285
0
286
0
288
0
289
3
371
-2
372
-2
  0
ENDTAB
  0
TABLE
  2
BLOCK_RECORD
  5
9
330
0
100
AcDbSymbolTable
 70
2
  0
BLOCK_RECORD
  5
17
330
9
100
AcDbSymbolTableRecord
100
AcDbBlockTableRecord
  2
*Model_Space
340
1A
  0
BLOCK_RECORD
  5
1B
330
9
100
AcDbSymbolTableRecord
100
AcDbBlockTableRecord
  2
*Paper_Space
340
1E
  0
ENDTAB
  0
ENDSEC
  0
SECTION
  2
BLOCKS
  0
BLOCK
  5
18
330
17
100
AcDbEntity
  8
0
100
AcDbBlockBegin
  2
*Model_Space
 70
0
 10
0.0
 20
0.0
 30
0.0
  3
*Model_Space
  1

  0
ENDBLK
  5
19
330
17
100
AcDbEntity
  8
0
100
AcDbBlockEnd
  0
BLOCK
  5
1C
330
1B
100
AcDbEntity
  8
0
100
AcDbBlockBegin
  2
*Paper_Space
 70
0
 10
0.0
 20
0.0
 30
0.0
  3
*Paper_Space
  1

  0
ENDBLK
  5
1D
330
1B
100
AcDbEntity
  8
0
100
AcDbBlockEnd
  0
ENDSEC
  0
SECTION
  2
ENTITIES
  0
LWPOLYLINE
  5
30
330
17
100
AcDbEntity
  8
0.0mm
100
AcDbPolyline
 90
5
 70
0
 10
0.0
 20
50.0
 10
400.0
 20
50.0
 10
400.0
 20
900.0
 10
0.0
 20
900.0
 10
0.0
 20
50.0
  0
TEXT
  5
31
330
17
100
AcDbEntity
  8
0.0mm
100
AcDbText
 10
200.0
 20
910.0
 30
0.0
 40
15.0
  1
400*850*0.0
100
AcDbText
  0
LWPOLYLINE
  5
32
330
17
100
AcDbEntity
  8
0.0mm
100
AcDbPolyline
 90
117
 70
0
 10
151.84439999999995
 20
145.2347
 10
153.80909999999994
 20
140.7325
 10
155.94889999999987
 20
136.31929999999997
 10
157.4131
 20
133.58399999999997
 10
162.0193999999999
 20
125.46369999999999
 10
164.0933
 20
121.54349999999997
 10
165.60079999999994
 20
118.19339999999997
 10
166.24289999999996
 20
116.47400000000002
 10
166.78849999999989
 20
114.72569999999999
 10
167.35379999999986
 20
112.33439999999999
 10
167.8485999999998
 20
109.1328
 10
168.18819999999982
 20
104.95779999999999
 10
168.30319999999983
 20
100.96289999999996
 10
168.23079999999982
 20
97.97459999999998
 10
167.93819999999982
 20
94.63129999999998
 10
167.48869999999988
 20
91.8674
 10
166.8209999999999
 20
89.13039999999998
 10
166.0954999999999
 20
86.9176
 10
164.8995
 20
84.083
 10
163.5193999999999
 20
81.50969999999998
 10
162.0918999999999
 20
79.34
 10
160.90429999999992
 20
77.81049999999999
 10
159.07029999999986
 20
75.82759999999999
 10
156.76869999999985
 20
73.85749999999999
 10
155.0646999999999
 20
72.69899999999998
 10
152.69039999999995
 20
71.3956
 10
149.9749999999999
 20
70.22319999999999
 10
146.7899
 20
69.1472
 10
144.06969999999978
 20
68.40209999999999
 10
141.32399999999984
 20
67.75489999999999
 10
135.38279999999986
 20
66.5598
 10
128.7244999999998
 20
65.45649999999998
 10
115.35169999999994
 20
63.5702
 10
111.38349999999991
 20
67.18689999999998
 10
93.52429999999981
 20
64.0977
 10
81.25009999999997
 20
62.1849
 10
74.99209999999994
 20
61.34439999999998
 10
68.70449999999983
 20
60.64229999999998
 10
62.872899999999845
 20
60.16919999999999
 10
58.490999999999985
 20
60.0
 10
55.20629999999983
 20
60.018699999999995
 10
51.51859999999988
 20
60.2244
 10
48.45539999999983
 20
60.570599999999985
 10
45.40499999999997
 20
61.0984
 10
41.918699999999944
 20
61.9598
 10
39.3605
 20
62.801799999999986
 10
36.5813999999998
 20
63.967899999999986
 10
34.375099999999975
 20
65.12979999999999
 10
32.294599999999946
 20
66.47629999999998
 10
30.4070999999999
 20
67.97019999999998
 10
28.86499999999978
 20
69.4125
 10
26.984899999999925
 20
71.47139999999999
 10
25.117099999999937
 20
73.87959999999998
 10
23.2032999999999
 20
76.75899999999999
 10
21.74219999999991
 20
79.255
 10
20.386399999999867
 20
81.8022
 10
18.27819999999997
 20
86.18349999999998
 10
16.35669999999982
 20
90.59970000000001
 10
17.828599999999824
 20
92.26789999999997
 10
15.615699999999833
 20
92.44649999999999
 10
13.949599999999919
 20
96.97049999999999
 10
12.442899999999781
 20
101.59869999999998
 10
11.310899999999947
 20
105.7809
 10
10.541799999999967
 20
109.571
 10
10.166799999999967
 20
112.42659999999998
 10
10.0
 20
115.63239999999999
 10
10.102299999999786
 20
118.2841
 10
10.4545999999998
 20
120.90509999999998
 10
11.073599999999942
 20
123.47540000000001
 10
12.021599999999808
 20
126.19929999999997
 10
12.899099999999862
 20
128.19249999999997
 10
14.443199999999933
 20
131.08829999999998
 10
16.211599999999862
 20
133.85369999999998
 10
17.952299999999923
 20
136.21759999999998
 10
20.419599999999946
 20
139.15399999999997
 10
23.291099999999915
 20
142.14919999999998
 10
26.717899999999872
 20
145.32629999999997
 10
29.69069999999988
 20
147.8497
 10
32.73339999999985
 20
150.28829999999996
 10
37.72309999999993
 20
154.0979
 10
45.33939999999984
 20
159.5997
 10
60.551299999999856
 20
170.04080000000002
 10
68.0985999999998
 20
175.059
 10
68.46659999999997
 20
180.4165
 10
80.1232
 20
188.77899999999997
 10
85.04759999999987
 20
192.12749999999997
 10
90.12779999999998
 20
195.34459999999999
 10
93.7942999999998
 20
197.46039999999996
 10
96.61839999999984
 20
198.88929999999996
 10
98.7802999999999
 20
199.82449999999997
 10
101.25949999999989
 20
200.69570000000002
 10
103.36479999999983
 20
201.246
 10
105.50699999999983
 20
201.61029999999997
 10
107.7808
 20
201.7723
 10
109.78999999999996
 20
201.7356
 10
112.43379999999979
 20
201.44910000000002
 10
115.27689999999984
 20
200.8536
 10
117.37419999999997
 20
200.22619999999998
 10
120.24159999999983
 20
199.10299999999998
 10
123.3282999999999
 20
197.5219
 10
125.85569999999984
 20
195.89809999999997
 10
128.4174999999998
 20
193.92350000000002
 10
131.11149999999998
 20
191.48049999999998
 10
133.2301
 20
189.3027
 10
135.25659999999993
 20
187.02939999999998
 10
137.6153999999999
 20
184.14699999999996
 10
139.62739999999985
 20
181.31609999999998
 10
140.99669999999992
 20
179.0031
 10
142.25339999999983
 20
176.3611
 10
143.4192999999998
 20
173.26590000000002
 10
144.97279999999978
 20
167.9469
 10
147.25699999999983
 20
158.8948
 10
148.0895999999998
 20
155.90599999999998
 10
149.5949999999998
 20
151.23409999999998
 10
151.28869999999984
 20
146.619
 10
152.9478999999999
 20
146.4854
 10
151.84439999999995
 20
145.2347
  0
LWPOLYLINE
  5
33
330
17
100
AcDbEntity
  8
0.0mm
100
AcDbPolyline
 90
4
 70
0
 10
158.08249999999998
 20
132.38309999999998
 10
116.5166999999999
 20
115.7046
 10
110.93069999999989
 20
129.62569999999997
 10
158.08249999999998
 20
132.38309999999998
  0
LWPOLYLINE
  5
34
330
17
100
AcDbEntity
  8
0.0mm
100
AcDbPolyline
 90
4
 70
0
 10
110.93069999999989
 20
129.6256
 10
105.3451
 20
143.5465
 10
146.91059999999993
 20
160.2254
 10
110.93069999999989
 20
129.6256
  0
LWPOLYLINE
  5
35
330
17
100
AcDbEntity
  8
0.0mm
100
AcDbPolyline
 90
12
 70
0
 10
37.55269999999996
 20
83.41219999999998
 10
34.72409999999991
 20
82.5974
 10
32.88609999999994
 20
82.3699
 10
31.58829999999989
 20
82.54499999999999
 10
30.708899999999858
 20
82.9519
 10
30.037399999999934
 20
83.51079999999999
 10
29.271199999999908
 20
84.44909999999999
 10
28.241199999999935
 20
86.17159999999998
 10
26.76209999999992
 20
89.1919
 10
25.05269999999996
 20
93.21559999999997
 10
23.81359999999995
 20
96.40039999999996
 10
37.55269999999996
 20
83.41219999999998
  0
LWPOLYLINE
  5
36
330
17
100
AcDbEntity
  8
0.0mm
100
AcDbPolyline
 90
12
 70
0
 10
25.010099999999966
 20
93.41849999999997
 10
22.83809999999994
 20
98.79009999999997
 10
21.565099999999802
 20
102.45609999999996
 10
20.84349999999995
 20
105.03349999999998
 10
20.61759999999981
 20
106.46509999999998
 10
20.622199999999793
 20
107.44609999999997
 10
20.853799999999865
 20
108.39169999999999
 10
21.48909999999978
 20
109.42029999999997
 10
22.29209999999989
 20
110.19429999999997
 10
23.93399999999997
 20
111.26680000000002
 10
25.960799999999836
 20
112.30109999999999
 10
25.010099999999966
 20
93.41849999999997
  0
LWPOLYLINE
  5
37
330
17
100
AcDbEntity
  8
0.0mm
100
AcDbPolyline
 90
115
 70
0
 10
316.3634999999998
 20
143.29869999999997
 10
318.27009999999973
 20
138.90630000000002
 10
320.3466999999998
 20
134.6
 10
321.76999999999975
 20
131.9265
 10
326.2476999999998
 20
123.989
 10
328.26379999999983
 20
120.15610000000001
 10
329.7420999999998
 20
116.84900000000002
 10
330.88329999999974
 20
113.49289999999999
 10
331.43309999999974
 20
111.15489999999997
 10
331.9141999999998
 20
108.02529999999999
 10
332.2440999999998
 20
103.9451
 10
332.3557999999998
 20
100.0411
 10
332.28549999999973
 20
97.1207
 10
332.0010999999997
 20
93.8529
 10
331.5640999999998
 20
91.15089999999998
 10
330.91499999999974
 20
88.4744
 10
330.21079999999984
 20
86.3132
 10
329.0500999999998
 20
83.54389999999998
 10
327.70989999999983
 20
81.0289
 10
326.3228999999998
 20
78.90779999999998
 10
325.16849999999977
 20
77.41219999999998
 10
323.3217999999998
 20
75.4119
 10
321.14359999999976
 20
73.54559999999998
 10
319.48879999999974
 20
72.4153
 10
317.1818999999998
 20
71.14249999999998
 10
314.54259999999977
 20
69.9967
 10
311.4459999999998
 20
68.94399999999999
 10
306.13059999999973
 20
67.5805
 10
300.3557999999998
 20
66.41119999999998
 10
293.88369999999975
 20
65.3329
 10
280.88419999999974
 20
63.49029999999999
 10
277.0269999999998
 20
67.02539999999999
 10
259.6668999999998
 20
64.00569999999999
 10
247.59519999999975
 20
62.11579999999998
 10
241.5822999999998
 20
61.3057
 10
235.54079999999976
 20
60.62819999999999
 10
229.87179999999978
 20
60.16549999999998
 10
225.61189999999976
 20
60.0
 10
222.41889999999978
 20
60.01819999999998
 10
218.23789999999974
 20
60.273799999999994
 10
215.55989999999974
 20
60.6011
 10
212.8925999999998
 20
61.073999999999984
 10
209.5021999999998
 20
61.91719999999998
 10
207.01489999999978
 20
62.74089999999998
 10
204.31359999999972
 20
63.8811
 10
202.16959999999983
 20
65.0162
 10
200.1483999999998
 20
66.33069999999998
 10
198.31079999999974
 20
67.79229999999998
 10
196.81039999999973
 20
69.2029
 10
194.98209999999983
 20
71.21619999999999
 10
193.16679999999974
 20
73.5703
 10
191.30799999999977
 20
76.3843
 10
189.88929999999982
 20
78.82309999999998
 10
188.57309999999973
 20
81.31129999999999
 10
186.5288999999998
 20
85.5838
 10
184.6655999999998
 20
89.88899999999998
 10
186.13789999999983
 20
91.5618
 10
183.91999999999973
 20
91.738
 10
182.27199999999982
 20
96.1337
 10
180.77739999999983
 20
100.63179999999997
 10
179.5754999999998
 20
104.9983
 10
178.83439999999973
 20
108.61889999999997
 10
178.47059999999976
 20
111.34639999999999
 10
178.30319999999983
 20
114.4091
 10
178.3911999999998
 20
116.9437
 10
178.71479999999974
 20
119.45079999999999
 10
179.30179999999973
 20
121.95500000000001
 10
180.20809999999983
 20
124.61049999999997
 10
181.0501999999998
 20
126.5547
 10
182.53629999999976
 20
129.3805
 10
184.2421999999998
 20
132.07989999999998
 10
185.9228999999998
 20
134.38589999999996
 10
188.30819999999983
 20
137.251
 10
191.0876999999998
 20
140.17389999999997
 10
194.40739999999983
 20
143.27489999999997
 10
197.28889999999978
 20
145.7381
 10
200.2389999999998
 20
148.11870000000002
 10
205.07809999999984
 20
151.83790000000002
 10
212.46559999999977
 20
157.20950000000002
 10
227.22389999999973
 20
167.4037
 10
234.5474999999998
 20
172.30370000000002
 10
234.87139999999977
 20
177.5268
 10
246.17799999999977
 20
185.6924
 10
250.9559999999998
 20
188.9618
 10
255.88699999999983
 20
192.10240000000002
 10
259.44949999999983
 20
194.1686
 10
262.1941999999998
 20
195.56429999999997
 10
264.29579999999976
 20
196.4781
 10
266.7058999999998
 20
197.32989999999998
 10
268.75279999999975
 20
197.8688
 10
270.83579999999984
 20
198.2266
 10
273.0537999999998
 20
198.388
 10
275.0139999999998
 20
198.3547
 10
277.5935999999998
 20
198.07789999999997
 10
280.36829999999975
 20
197.49960000000002
 10
282.4156999999998
 20
196.8896
 10
285.21579999999983
 20
195.7972
 10
288.23149999999976
 20
194.2596
 10
290.7063999999998
 20
192.67839999999998
 10
293.21609999999976
 20
190.75589999999997
 10
295.8572999999998
 20
188.37730000000002
 10
297.93579999999974
 20
186.25699999999998
 10
299.9250999999998
 20
184.04330000000002
 10
302.24239999999975
 20
181.2365
 10
304.01409999999976
 20
178.7925
 10
305.5714999999998
 20
176.2248
 10
306.8128999999998
 20
173.65130000000002
 10
307.9691999999998
 20
170.6353
 10
309.51819999999975
 20
165.4508
 10
311.80299999999977
 20
156.62839999999997
 10
312.63369999999975
 20
153.71579999999997
 10
314.12779999999975
 20
149.172
 10
315.8042999999998
 20
144.68449999999999
 10
317.46749999999975
 20
144.55229999999997
 10
316.3634999999998
 20
143.29869999999997
  0
LWPOLYLINE
  5
38
330
17
100
AcDbEntity
  8
0.0mm
100
AcDbPolyline
 90
4
 70
0
 10
275.4771999999998
 20
127.60909999999998
 10
269.8640999999998
 20
141.5198
 10
311.3676999999998
 20
158.26609999999997
 10
275.4771999999998
 20
127.60909999999998
  0
LWPOLYLINE
  5
39
330
17
100
AcDbEntity
  8
0.0mm
100
AcDbPolyline
 90
4
 70
0
 10
322.5930999999998
 20
130.44539999999998
 10
281.0891999999998
 20
113.69890000000001
 10
275.4768999999998
 20
127.6097
 10
322.5930999999998
 20
130.44539999999998
  0
LWPOLYLINE
  5
3A
330
17
100
AcDbEntity
  8
0.0mm
100
AcDbPolyline
 90
12
 70
0
 10
205.59879999999976
 20
83.06709999999998
 10
202.7901999999998
 20
82.23169999999999
 10
200.96939999999972
 20
81.9863
 10
199.68849999999975
 20
82.1437
 10
198.82529999999974
 20
82.53389999999999
 10
198.16999999999973
 20
83.0761
 10
197.4278999999998
 20
83.98939999999999
 10
196.43249999999978
 20
85.6722
 10
194.9935999999998
 20
88.61789999999999
 10
193.3363999999998
 20
92.54499999999999
 10
192.13699999999983
 20
95.65629999999999
 10
205.59879999999976
 20
83.06709999999998
  0
LWPOLYLINE
  5
3B
330
17
100
AcDbEntity
  8
0.0mm
100
AcDbPolyline
 90
12
 70
0
 10
193.29869999999983
 20
92.77709999999999
 10
191.1443999999998
 20
98.00299999999999
 10
189.8834999999998
 20
101.56980000000001
 10
189.1646999999998
 20
104.07759999999999
 10
188.9332999999998
 20
105.46809999999996
 10
188.93409999999983
 20
106.4231
 10
189.16209999999978
 20
107.3452
 10
189.79349999999977
 20
108.35150000000002
 10
190.59339999999975
 20
109.10959999999997
 10
192.23119999999983
 20
110.16479999999999
 10
194.25409999999977
 20
111.18350000000001
 10
193.29869999999983
 20
92.77709999999999
  0
LWPOLYLINE
  5
3C
330
17
100
AcDbEntity
  8
0.0mm
100
AcDbPolyline
 90
115
 70
0
 10
312.5800999999999
 20
289.7497
 10
314.4282999999999
 20
285.4677
 10
316.44169999999986
 20
281.2687
 10
317.82399999999984
 20
278.657
 10
322.1729999999999
 20
270.9023
 10
324.13139999999987
 20
267.1568
 10
325.57719999999983
 20
263.9005
 10
326.6752999999999
 20
260.6482
 10
327.2094999999998
 20
258.3635
 10
327.67669999999987
 20
255.306
 10
327.99699999999984
 20
251.3205
 10
328.1053999999999
 20
247.5073
 10
328.03719999999987
 20
244.6548
 10
327.76099999999985
 20
241.4626
 10
327.33659999999986
 20
238.8224
 10
326.7060999999999
 20
236.2063
 10
326.02329999999984
 20
234.0969
 10
324.8975999999999
 20
231.3927
 10
323.49609999999984
 20
228.7657
 10
322.1647999999999
 20
226.7436
 10
320.47299999999984
 20
224.6369
 10
318.91129999999987
 20
223.0437
 10
317.2155999999999
 20
221.6217
 10
315.6098999999999
 20
220.5196
 10
313.3704999999999
 20
219.2776
 10
310.8072999999998
 20
218.1583
 10
307.7991999999999
 20
217.1288
 10
302.6342999999998
 20
215.7941
 10
297.02599999999984
 20
214.6507
 10
290.74009999999987
 20
213.5972
 10
278.11379999999986
 20
211.7984
 10
274.36739999999986
 20
215.2518
 10
257.50649999999985
 20
212.3017
 10
245.7367999999999
 20
210.4489
 10
239.91949999999986
 20
209.6613
 10
234.07399999999984
 20
209.002
 10
228.56759999999986
 20
208.5499
 10
224.4297999999999
 20
208.388
 10
221.32839999999987
 20
208.4057
 10
217.26769999999988
 20
208.6554
 10
214.6670999999999
 20
208.9753
 10
212.07699999999988
 20
209.4376
 10
208.78269999999986
 20
210.2625
 10
206.36639999999989
 20
211.0681
 10
203.74279999999987
 20
212.1822
 10
201.66109999999992
 20
213.2906
 10
199.69929999999988
 20
214.5731
 10
197.9115999999999
 20
216.0023
 10
196.4527999999999
 20
217.3813
 10
194.67629999999986
 20
219.3489
 10
192.91359999999986
 20
221.649
 10
191.10969999999986
 20
224.3976
 10
189.73349999999982
 20
226.7792
 10
188.45679999999993
 20
229.2084
 10
186.4767999999999
 20
233.37199999999999
 10
184.67139999999984
 20
237.5662
 10
186.1439999999999
 20
239.2437
 10
183.92039999999986
 20
239.4171
 10
182.29109999999991
 20
243.6848
 10
180.80869999999993
 20
248.0524
 10
179.60789999999986
 20
252.3013
 10
178.86069999999984
 20
255.8257
 10
178.4872999999999
 20
258.48199999999997
 10
178.30319999999983
 20
261.4662
 10
178.3721999999999
 20
263.9374
 10
178.6715999999999
 20
266.3832
 10
179.22649999999987
 20
268.8213
 10
180.09089999999992
 20
271.4084
 10
181.34669999999983
 20
274.2345
 10
182.58609999999987
 20
276.5072
 10
183.9690999999999
 20
278.6925
 10
185.58969999999988
 20
280.9406
 10
187.89319999999987
 20
283.7343
 10
190.58049999999992
 20
286.5848
 10
193.79309999999987
 20
289.6096
 10
196.5832999999999
 20
292.0126
 10
199.44069999999988
 20
294.3351
 10
204.12909999999988
 20
297.964
 10
211.28779999999983
 20
303.2051
 10
225.59249999999986
 20
313.1523
 10
232.69229999999982
 20
317.934
 10
232.97219999999993
 20
323.0217
 10
244.0007999999999
 20
331.0421
 10
248.59719999999993
 20
334.2061
 10
253.34199999999987
 20
337.2453
 10
256.80049999999983
 20
339.2621
 10
259.46579999999983
 20
340.6245
 10
261.50689999999986
 20
341.5168
 10
264.2429999999998
 20
342.4677
 10
266.0373999999998
 20
342.9201
 10
267.8602999999998
 20
343.2282
 10
270.0224999999999
 20
343.389
 10
271.93369999999993
 20
343.359
 10
274.4491999999999
 20
343.092
 10
277.1555999999998
 20
342.531
 10
279.15319999999986
 20
341.9384
 10
281.9750999999999
 20
340.8373
 10
284.83079999999984
 20
339.383
 10
287.25289999999984
 20
337.8445
 10
289.71079999999984
 20
335.9741
 10
292.29909999999984
 20
333.6601
 10
294.33759999999984
 20
331.5973
 10
296.2898999999999
 20
329.4435
 10
298.5656999999999
 20
326.7123
 10
300.3079999999999
 20
324.3334
 10
301.8426999999999
 20
321.8331
 10
303.06889999999987
 20
319.3282
 10
304.2155999999999
 20
316.3916
 10
305.7601999999998
 20
311.34159999999997
 10
308.0457999999999
 20
302.7494
 10
308.8745999999999
 20
299.9131
 10
310.35749999999985
 20
295.4975
 10
312.0167999999999
 20
291.1375
 10
313.68409999999983
 20
291.0072
 10
312.5800999999999
 20
289.7497
  0
LWPOLYLINE
  5
3D
330
17
100
AcDbEntity
  8
0.0mm
100
AcDbPolyline
 90
4
 70
0
 10
318.79909999999984
 20
276.8949
 10
277.36429999999984
 20
260.0782
 10
271.7223999999999
 20
273.9767
 10
318.79909999999984
 20
276.8949
  0
LWPOLYLINE
  5
3E
330
17
100
AcDbEntity
  8
0.0mm
100
AcDbPolyline
 90
4
 70
0
 10
271.7223999999999
 20
273.9767
 10
266.0822999999999
 20
287.8757
 10
307.5170999999999
 20
304.6927
 10
271.7223999999999
 20
273.9767
  0
LWPOLYLINE
  5
3F
330
17
100
AcDbEntity
  8
0.0mm
100
AcDbPolyline
 90
11
 70
0
 10
193.28339999999992
 20
240.5256
 10
191.1466999999999
 20
245.6055
 10
189.8979999999999
 20
249.0731
 10
189.02549999999985
 20
252.2598
 10
188.94209999999987
 20
253.7894
 10
189.16649999999993
 20
254.6881
 10
189.79379999999992
 20
255.6721
 10
190.59079999999983
 20
256.4144
 10
192.22439999999983
 20
257.4527
 10
194.2431999999999
 20
258.45640000000003
 10
193.28339999999992
 20
240.5256
  0
LWPOLYLINE
  5
40
330
17
100
AcDbEntity
  8
0.0mm
100
AcDbPolyline
 90
11
 70
0
 10
205.34199999999987
 20
231.10999999999999
 10
202.55319999999983
 20
230.254
 10
200.74959999999987
 20
229.9907
 10
199.4858999999999
 20
230.1305
 10
198.63879999999983
 20
230.5039
 10
197.99959999999987
 20
231.0293
 10
197.2815999999999
 20
231.9176
 10
195.6864999999999
 20
234.811
 10
194.1652999999999
 20
238.168
 10
192.15729999999985
 20
243.3001
 10
205.34199999999987
 20
231.10999999999999
  0
LWPOLYLINE
  5
41
330
17
100
AcDbEntity
  8
0.0mm
100
AcDbPolyline
 90
113
 70
0
 10
140.49309999999997
 20
291.198
 10
142.2833
 20
287.0258
 10
144.23360000000002
 20
282.9338
 10
149.79520000000002
 20
272.812
 10
151.6959
 20
269.1539
 10
153.11829999999998
 20
265.9248
 10
154.16429999999997
 20
262.7998
 10
154.68290000000002
 20
260.5685
 10
155.13619999999997
 20
257.58299999999997
 10
155.4468
 20
253.6922
 10
155.55200000000002
 20
249.9699
 10
155.48579999999998
 20
247.1853
 10
155.2178
 20
244.0686
 10
154.80599999999998
 20
241.4904
 10
154.1941
 20
238.9347
 10
153.5326
 20
236.8769
 10
152.44209999999998
 20
234.238
 10
151.0836
 20
231.6733
 10
149.7923
 20
229.6986
 10
148.15030000000002
 20
227.6407
 10
146.6331
 20
226.084
 10
144.9846
 20
224.6942
 10
143.42790000000002
 20
223.62030000000001
 10
141.25599999999997
 20
222.409
 10
138.769
 20
221.3163
 10
135.84929999999997
 20
220.31
 10
130.8349
 20
219.0041
 10
125.3931
 20
217.8866
 10
119.29329999999999
 20
216.858
 10
107.04019999999997
 20
215.1028
 10
103.4049
 20
218.4746
 10
87.04309999999998
 20
215.5941
 10
75.53370000000001
 20
213.7722
 10
69.93279999999999
 20
213.0105
 10
64.30430000000001
 20
212.3723
 10
58.960500000000025
 20
211.9306
 10
54.94470000000001
 20
211.7723
 10
51.93489999999997
 20
211.7896
 10
47.994500000000016
 20
212.0334
 10
45.47120000000001
 20
212.346
 10
42.958500000000015
 20
212.7975
 10
39.7602
 20
213.6042
 10
37.41489999999999
 20
214.3916
 10
34.86899999999997
 20
215.4798
 10
32.84949999999998
 20
216.5615
 10
30.94720000000001
 20
217.812
 10
29.20949999999999
 20
219.2088
 10
27.79230000000001
 20
220.5562
 10
26.067499999999995
 20
222.4781
 10
24.357399999999984
 20
224.7241
 10
22.608400000000017
 20
227.4074
 10
21.27460000000002
 20
229.7317
 10
20.037500000000023
 20
232.1019
 10
18.121399999999994
 20
236.157
 10
16.373800000000017
 20
240.2408
 10
17.846900000000005
 20
241.9224
 10
15.617099999999994
 20
242.0942
 10
14.006700000000023
 20
246.2327
 10
12.536900000000003
 20
250.469
 10
11.337199999999996
 20
254.6
 10
10.583700000000022
 20
258.0281
 10
10.200699999999983
 20
260.613
 10
10.0
 20
263.5186
 10
10.049800000000005
 20
265.9262
 10
10.324799999999982
 20
268.3109
 10
10.8476
 20
270.6826
 10
11.670299999999997
 20
273.2012
 10
12.871899999999982
 20
275.9543
 10
14.061800000000005
 20
278.1693
 10
15.39240000000001
 20
280.2999
 10
16.952799999999968
 20
282.49
 10
19.174300000000017
 20
285.212
 10
21.769499999999994
 20
287.99019999999996
 10
24.87489999999997
 20
290.93870000000004
 10
27.573800000000006
 20
293.28139999999996
 10
30.33850000000001
 20
295.5457
 10
34.87619999999998
 20
299.0843
 10
41.80619999999999
 20
304.19489999999996
 10
55.657100000000014
 20
313.8949
 10
62.533000000000015
 20
318.55809999999997
 10
62.7688
 20
323.51120000000003
 10
73.445
 20
331.33309999999994
 10
77.89589999999998
 20
334.4185
 10
82.49270000000001
 20
337.3817
 10
85.84719999999999
 20
339.34889999999996
 10
88.43310000000002
 20
340.6779
 10
90.41390000000001
 20
341.5488
 10
93.06939999999997
 20
342.4778
 10
94.81110000000001
 20
342.92060000000004
 10
96.5806
 20
343.22310000000004
 10
98.68709999999999
 20
343.38340000000005
 10
100.54919999999998
 20
343.3568
 10
103.0007
 20
343.0997
 10
105.6388
 20
342.55600000000004
 10
107.58639999999997
 20
341.981
 10
110.38240000000002
 20
340.89250000000004
 10
113.1259
 20
339.50019999999995
 10
115.49549999999999
 20
338.0045
 10
117.9015
 20
336.18629999999996
 10
120.43720000000002
 20
333.9371
 10
122.43560000000002
 20
331.93190000000004
 10
124.35079999999999
 20
329.83810000000005
 10
126.94099999999997
 20
326.7282
 10
128.45960000000002
 20
324.63149999999996
 10
129.81029999999998
 20
322.43629999999996
 10
131.0213
 20
320.0001
 10
132.1585
 20
317.14300000000003
 10
133.6988
 20
312.2279
 10
136.81239999999997
 20
301.10630000000003
 10
138.28390000000002
 20
296.8194
 10
139.9257
 20
292.5874
 10
141.5976
 20
292.4588
 10
140.49309999999997
 20
291.198
  0
LWPOLYLINE
  5
42
330
17
100
AcDbEntity
  8
0.0mm
100
AcDbPolyline
 90
4
 70
0
 10
146.7015
 20
278.3406
 10
105.33789999999999
 20
261.4489
 10
99.6669
 20
275.33579999999995
 10
146.7015
 20
278.3406
  0
LWPOLYLINE
  5
43
330
17
100
AcDbEntity
  8
0.0mm
100
AcDbPolyline
 90
4
 70
0
 10
99.66719999999998
 20
275.33529999999996
 10
93.99630000000002
 20
289.2223
 10
135.3596
 20
306.11400000000003
 10
99.66719999999998
 20
275.33529999999996
  0
LWPOLYLINE
  5
44
330
17
100
AcDbEntity
  8
0.0mm
100
AcDbPolyline
 90
11
 70
0
 10
24.964099999999974
 20
243.2725
 10
22.845100000000002
 20
248.2061
 10
21.608499999999992
 20
251.5744
 10
20.735799999999983
 20
254.6685
 10
20.646299999999997
 20
256.15340000000003
 10
20.866899999999987
 20
257.02869999999996
 10
21.490200000000016
 20
257.9906
 10
22.2842
 20
258.7174
 10
23.913400000000024
 20
259.7392
 10
25.928099999999972
 20
260.7282
 10
24.964099999999974
 20
243.2725
  0
LWPOLYLINE
  5
45
330
17
100
AcDbEntity
  8
0.0mm
100
AcDbPolyline
 90
11
 70
0
 10
36.782100000000014
 20
234.1494
 10
34.01319999999998
 20
233.2728
 10
32.2269
 20
232.9916
 10
30.980199999999968
 20
233.1136
 10
30.149200000000008
 20
233.4703
 10
29.526099999999985
 20
233.979
 10
28.832299999999975
 20
234.8423
 10
27.289600000000007
 20
237.6628
 10
25.814900000000023
 20
240.9338
 10
23.87470000000002
 20
245.9404
 10
36.782100000000014
 20
234.1494
  0
LWPOLYLINE
  5
46
330
17
100
AcDbEntity
  8
0.0mm
100
AcDbPolyline
 90
111
 70
0
 10
136.71160000000003
 20
430.87260000000003
 10
138.44350000000003
 20
426.8106
 10
140.3308
 20
422.82560000000007
 10
145.72270000000003
 20
412.94840000000005
 10
147.56580000000002
 20
409.37760000000003
 10
148.9447
 20
406.2266000000001
 10
149.95850000000002
 20
403.17820000000006
 10
150.4615
 20
401.00020000000006
 10
150.901
 20
398.08670000000006
 10
151.20190000000002
 20
394.2907
 10
151.30380000000002
 20
390.65920000000006
 10
151.23970000000003
 20
387.94250000000005
 10
150.98000000000002
 20
384.9014000000001
 10
150.58069999999998
 20
382.38500000000005
 10
149.9875
 20
379.88980000000004
 10
149.3474
 20
377.88360000000006
 10
148.2919
 20
375.3099000000001
 10
146.92849999999999
 20
372.7268
 10
145.6845
 20
370.8233
 10
144.10410000000002
 20
368.8387
 10
142.64460000000003
 20
367.33630000000005
 10
141.0589
 20
365.99340000000007
 10
139.55130000000003
 20
364.94770000000005
 10
137.44670000000002
 20
363.76720000000006
 10
135.03590000000003
 20
362.701
 10
132.2047
 20
361.71790000000004
 10
127.34090000000002
 20
360.4408000000001
 10
122.0656
 20
359.34920000000005
 10
116.1518
 20
358.34540000000004
 10
104.27140000000001
 20
356.63390000000004
 10
100.74760000000002
 20
359.92410000000007
 10
84.885
 20
357.11320000000006
 10
73.5553
 20
355.3104000000001
 10
68.21090000000001
 20
354.58130000000006
 10
62.8399
 20
353.9693000000001
 10
57.65860000000001
 20
353.538
 10
53.76490000000001
 20
353.38340000000005
 10
50.84670000000001
 20
353.40020000000004
 10
47.0266
 20
353.63820000000004
 10
44.580600000000004
 20
353.9433
 10
42.145300000000006
 20
354.3842000000001
 10
39.043000000000006
 20
355.1727000000001
 10
36.76870000000001
 20
355.94190000000003
 10
34.3005
 20
357.00410000000005
 10
32.34330000000001
 20
358.0590000000001
 10
30.500400000000013
 20
359.27750000000003
 10
28.812600000000003
 20
360.64200000000005
 10
27.437000000000012
 20
361.95770000000005
 10
25.49900000000001
 20
364.16130000000004
 10
23.924800000000005
 20
366.28790000000004
 10
21.991500000000002
 20
369.35650000000004
 10
19.923500000000004
 20
373.22210000000007
 10
18.0715
 20
377.16800000000006
 10
16.3819
 20
381.1405000000001
 10
17.855000000000004
 20
382.8280000000001
 10
15.619200000000006
 20
382.9963
 10
14.027600000000007
 20
387.0063
 10
12.570000000000007
 20
391.1118
 10
11.33590000000001
 20
395.2599
 10
10.592400000000012
 20
398.5588
 10
10.209700000000012
 20
401.04670000000004
 10
10.0
 20
403.8446
 10
10.033500000000004
 20
406.16440000000006
 10
10.282600000000002
 20
408.46380000000005
 10
10.773300000000006
 20
410.7691000000001
 10
11.554200000000009
 20
413.21920000000006
 10
12.701600000000013
 20
415.8991000000001
 10
13.84190000000001
 20
418.05640000000005
 10
15.120000000000005
 20
420.13200000000006
 10
16.620400000000004
 20
422.264
 10
18.759800000000013
 20
424.91440000000006
 10
21.26270000000001
 20
427.62000000000006
 10
24.26100000000001
 20
430.4922
 10
29.540600000000012
 20
434.98080000000004
 10
33.92750000000001
 20
438.42890000000006
 10
40.62870000000001
 20
443.40880000000004
 10
54.025800000000004
 20
452.86150000000004
 10
60.6777
 20
457.40620000000007
 10
60.86930000000001
 20
462.2243
 10
71.32800000000002
 20
469.94450000000006
 10
75.56780000000002
 20
472.90130000000005
 10
79.9472
 20
475.74150000000003
 10
83.19770000000001
 20
477.6591000000001
 10
85.7042
 20
478.95490000000007
 10
87.6245
 20
479.80430000000007
 10
90.19940000000001
 20
480.71130000000005
 10
91.8884
 20
481.1444000000001
 10
93.6047
 20
481.44140000000004
 10
95.6553
 20
481.60120000000006
 10
97.46850000000002
 20
481.57810000000006
 10
99.8559
 20
481.33090000000004
 10
102.42570000000002
 20
480.80480000000006
 10
104.32360000000001
 20
480.2474
 10
107.09150000000001
 20
479.17280000000005
 10
109.72510000000001
 20
477.84130000000005
 10
112.04210000000002
 20
476.3885000000001
 10
114.39630000000001
 20
474.62280000000004
 10
116.87930000000001
 20
472.43850000000003
 10
118.8377
 20
470.49100000000004
 10
120.7161
 20
468.45730000000003
 10
123.25860000000002
 20
465.4363000000001
 10
124.75170000000001
 20
463.39880000000005
 10
126.08239999999999
 20
461.26460000000003
 10
127.27830000000002
 20
458.89720000000005
 10
128.406
 20
456.11980000000005
 10
129.94209999999998
 20
451.3398
 10
133.0552
 20
440.52580000000006
 10
134.5152
 20
436.36780000000005
 10
136.13960000000003
 20
432.26410000000004
 10
137.8163
 20
432.13740000000007
 10
136.71160000000003
 20
430.87260000000003
  0
LWPOLYLINE
  5
47
330
17
100
AcDbEntity
  8
0.0mm
100
AcDbPolyline
 90
4
 70
0
 10
142.9078
 20
418.01250000000005
 10
101.6212
 20
401.04190000000006
 10
95.9192
 20
414.9163000000001
 10
142.9078
 20
418.01250000000005
  0
LWPOLYLINE
  5
48
330
17
100
AcDbEntity
  8
0.0mm
100
AcDbPolyline
 90
4
 70
0
 10
95.91950000000001
 20
414.91560000000004
 10
90.216
 20
428.78920000000005
 10
131.50240000000002
 20
445.7599000000001
 10
95.91950000000001
 20
414.91560000000004
  0
LWPOLYLINE
  5
49
330
17
100
AcDbEntity
  8
0.0mm
100
AcDbPolyline
 90
11
 70
0
 10
24.9491
 20
384.2483000000001
 10
22.847700000000003
 20
389.0354000000001
 10
21.62320000000001
 20
392.30410000000006
 10
20.750200000000007
 20
395.30550000000005
 10
20.654500000000013
 20
396.74580000000003
 10
20.87140000000001
 20
397.59770000000003
 10
21.4906
 20
398.53760000000005
 10
22.28150000000001
 20
399.249
 10
23.906400000000005
 20
400.25470000000007
 10
25.91680000000001
 20
401.22960000000006
 10
24.9491
 20
384.2483000000001
  0
LWPOLYLINE
  5
4A
330
17
100
AcDbEntity
  8
0.0mm
100
AcDbPolyline
 90
11
 70
0
 10
36.52760000000001
 20
375.4154000000001
 10
33.77850000000001
 20
374.5182000000001
 10
32.0095
 20
374.2191
 10
30.77980000000001
 20
374.32340000000005
 10
29.9649
 20
374.6634
 10
29.358000000000004
 20
375.15540000000004
 10
28.688300000000012
 20
375.9936
 10
27.19810000000001
 20
378.7413
 10
25.769900000000007
 20
381.92620000000005
 10
23.8973
 20
386.80740000000003
 10
36.52760000000001
 20
375.4154000000001
  0
ENDSEC
  0
SECTION
  2
OBJECTS
  0
DICTIONARY
  5
A
330
0
100
AcDbDictionary
281
1
  3
ACAD_COLOR
350
B
  3
ACAD_GROUP
350
C
  3
ACAD_LAYOUT
350
D
  3
ACAD_MATERIAL
350
E
  3
ACAD_MLEADERSTYLE
350
F
  3
ACAD_MLINESTYLE
350
10
  3
ACAD_PLOTSETTINGS
350
11
  3
ACAD_PLOTSTYLENAME
350
12
  3
ACAD_SCALELIST
350
14
  3
ACAD_TABLESTYLE
350
15
  3
ACAD_VISUALSTYLE
350
16
  3
EZDXF_META
350
2D
  0
DICTIONARY
  5
B
330
A
100
AcDbDictionary
281
1
  0
DICTIONARY
  5
C
330
A
100
AcDbDictionary
281
1
  0
DICTIONARY
  5
D
330
A
100
AcDbDictionary
281
1
  3
Model
350
1A
  3
Layout1
350
1E
  0
DICTIONARY
  5
E
330
A
100
AcDbDictionary
281
1
  3
ByBlock
350
1F
  3
ByLayer
350
20
  3
Global
350
21
  0
DICTIONARY
  5
F
330
A
100
AcDbDictionary
281
1
  3
Standard
350
2C
  0
DICTIONARY
  5
10
330
A
100
AcDbDictionary
281
1
  3
Standard
350
22
  0
DICTIONARY
  5
11
330
A
100
AcDbDictionary
281
1
  0
ACDBDICTIONARYWDFLT
  5
12
330
A
100
AcDbDictionary
281
1
  3
Normal
350
13
100
AcDbDictionaryWithDefault
340
13
  0
ACDBPLACEHOLDER
  5
13
330
12
  0
DICTIONARY
  5
14
330
A
100
AcDbDictionary
281
1
  0
DICTIONARY
  5
15
330
A
100
AcDbDictionary
281
1
  0
DICTIONARY
  5
16
330
A
100
AcDbDictionary
281
1
  0
LAYOUT
  5
1A
330
D
100
AcDbPlotSettings
  1

  4
A3
  6

 40
7.5
 41
20.0
 42
7.5
 43
20.0
 44
420.0
 45
297.0
 46
0.0
 47
0.0
 48
0.0
 49
0.0
140
0.0
141
0.0
142
1.0
143
1.0
 70
1024
 72
1
 73
0
 74
5
  7

 75
16
 76
0
 77
2
 78
300
147
1.0
148
0.0
149
0.0
100
AcDbLayout
  1
Model
 70
1
 71
0
 10
0.0
 20
0.0
 11
420.0
 21
297.0
 12
0.0
 22
0.0
 32
0.0
 14
1e+20
 24
1e+20
 34
1e+20
 15
-1e+20
 25
-1e+20
 35
-1e+20
146
0.0
 13
0.0
 23
0.0
 33
0.0
 16
1.0
 26
0.0
 36
0.0
 17
0.0
 27
1.0
 37
0.0
 76
1
330
17
  0
LAYOUT
  5
1E
330
D
100
AcDbPlotSettings
  1

  4
A3
  6

 40
7.5
 41
20.0
 42
7.5
 43
20.0
 44
420.0
 45
297.0
 46
0.0
 47
0.0
 48
0.0
 49
0.0
140
0.0
141
0.0
142
1.0
143
1.0
 70
0
 72
1
 73
0
 74
5
  7

 75
16
 76
0
 77
2
 78
300
147
1.0
148
0.0
149
0.0
100
AcDbLayout
  1
Layout1
 70
1
 71
1
 10
0.0
 20
0.0
 11
420.0
 21
297.0
 12
0.0
 22
0.0
 32
0.0
 14
1e+20
 24
1e+20
 34
1e+20
 15
-1e+20
 25
-1e+20
 35
-1e+20
146
0.0
 13
0.0
 23
0.0
 33
0.0
 16
1.0
 26
0.0
 36
0.0
 17
0.0
 27
1.0
 37
0.0
 76
1
330
1B
  0
MATERIAL
  5
1F
102
{ACAD_REACTORS
330
E
102
}
330
E
100
AcDbMaterial
  1
ByBlock
  2

 70
0
 40
1.0
 71
1
 41
1.0
 91
-1023410177
 42
1.0
 72
1
  3

 73
1
 74
1
 75
1
 44
0.5
 73
0
 45
1.0
 46
1.0
 77
1
  4

 78
1
 79
1
170
1
 48
1.0
171
1
  6

172
1
173
1
174
1
140
1.0
141
1.0
175
1
  7

176
1
177
1
178
1
143
1.0
179
1
  8

270
1
271
1
272
1
145
1.0
146
1.0
273
1
  9

274
1
275
1
276
1
 42
1.0
 72
1
  3

 73
1
 74
1
 75
1
 94
63
  0
MATERIAL
  5
20
102
{ACAD_REACTORS
330
E
102
}
330
E
100
AcDbMaterial
  1
ByLayer
  2

 70
0
 40
1.0
 71
1
 41
1.0
 91
-1023410177
 42
1.0
 72
1
  3

 73
1
 74
1
 75
1
 44
0.5
 73
0
 45
1.0
 46
1.0
 77
1
  4

 78
1
 79
1
170
1
 48
1.0
171
1
  6

172
1
173
1
174
1
140
1.0
141
1.0
175
1
  7

176
1
177
1
178
1
143
1.0
179
1
  8

270
1
271
1
272
1
145
1.0
146
1.0
273
1
  9

274
1
275
1
276
1
 42
1.0
 72
1
  3

 73
1
 74
1
 75
1
 94
63
  0
MATERIAL
  5
21
102
{ACAD_REACTORS
330
E
102
}
330
E
100
AcDbMaterial
  1
Global
  2

 70
0
 40
1.0
 71
1
 41
1.0
 91
-1023410177
 42
1.0
 72
1
  3

 73
1
 74
1
 75
1
 44
0.5
 73
0
 45
1.0
 46
1.0
 77
1
  4

 78
1
 79
1
170
1
 48
1.0
171
1
  6

172
1
173
1
174
1
140
1.0
141
1.0
175
1
  7

176
1
177
1
178
1
143
1.0
179
1
  8

270
1
271
1
272
1
145
1.0
146
1.0
273
1
  9

274
1
275
1
276
1
 42
1.0
 72
1
  3

 73
1
 74
1
 75
1
 94
63
  0
MLINESTYLE
  5
22
102
{ACAD_REACTORS
330
10
102
}
330
10
100
AcDbMlineStyle
  2
Standard
 70
0
  3

 62
256
 51
90.0
 52
90.0
 71
2
 49
0.5
 62
256
  6
BYLAYER
 49
-0.5
 62
256
  6
BYLAYER
  0
MLEADERSTYLE
  5
2C
102
{ACAD_REACTORS
330
F
102
}
330
F
100
AcDbMLeaderStyle
179
2
170
2
171
1
172
0
 90
2
 40
0.0
 41
0.0
173
1
 91
-1056964608
 92
-2
290
1
 42
2.0
291
1
 43
8.0
  3
Standard
 44
4.0
300

342
29
174
1
175
1
176
0
178
1
 93
-1056964608
 45
4.0
292
0
297
0
 46
4.0
 94
-1056964608
 47
1.0
 49
1.0
140
1.0
294
1
141
0.0
177
0
142
1.0
295
0
296
0
143
3.75
271
0
272
9
273
9
  0
DICTIONARY
  5
2D
330
A
100
AcDbDictionary
280
1
281
1
  3
CREATED_BY_EZDXF
350
2E
  3
WRITTEN_BY_EZDXF
350
4D
  0
DICTIONARYVAR
  5
2E
330
2D
100
DictionaryVariables
280
0
  1
1.4.4 @ 2026-07-29T06:58:30.675681+00:00
  0
DICTIONARYVAR
  5
4D
330
2D
100
DictionaryVariables
280
0
  1
1.4.4 @ 2026-07-29T06:58:30.679680+00:00
  0
ENDSEC
  0
EOF
