  0
SECTION
  2
HEADER
  9
$ACADVER
  1
AC1015
  9
$ACADMAINTVER
 70
6
  9
$DWGCODEPAGE
  3
ANSI_1252
  9
$INSBASE
 10
0.0
 20
0.0
 30
0.0
  9
$EXTMIN
 10
1e+20
 20
1e+20
 30
1e+20
  9
$EXTMAX
 10
-1e+20
 20
-1e+20
 30
-1e+20
  9
$LIMMIN
 10
0.0
 20
0.0
  9
$LIMMAX
 10
420.0
 20
297.0
  9
$ORTHOMODE
 70
0
  9
$REGENMODE
 70
1
  9
$FILLMODE
 70
1
  9
$QTEXTMODE
 70
0
  9
$MIRRTEXT
 70
1
  9
$LTSCALE
 40
1.0
  9
$ATTMODE
 70
1
  9
$TEXTSIZE
 40
2.5
  9
$TRACEWID
 40
1.0
  9
$TEXTSTYLE
  7
Standard
  9
$CLAYER
  8
0
  9
$CELTYPE
  6
ByLayer
  9
$CECOLOR
 62
256
  9
$CELTSCALE
 40
1.0
  9
$DISPSILH
 70
0
  9
$DIMSCALE
 40
1.0
  9
$DIMASZ
 40
2.5
  9
$DIMEXO
 40
0.625
  9
$DIMDLI
 40
3.75
  9
$DIMRND
 40
0.0
  9
$DIMDLE
 40
0.0
  9
$DIMEXE
 40
1.25
  9
$DIMTP
 40
0.0
  9
$DIMTM
 40
0.0
  9
$DIMTXT
 40
2.5
  9
$DIMCEN
 40
2.5
  9
$DIMTSZ
 40
0.0
  9
$DIMTOL
 70
0
  9
$DIMLIM
 70
0
  9
$DIMTIH
 70
0
  9
$DIMTOH
 70
0
  9
$DIMSE1
 70
0
  9
$DIMSE2
 70
0
  9
$DIMTAD
 70
1
  9
$DIMZIN
 70
8
  9
$DIMBLK
  1

  9
$DIMASO
 70
1
  9
$DIMSHO
 70
1
  9
$DIMPOST
  1

  9
$DIMAPOST
  1

  9
$DIMALT
 70
0
  9
$DIMALTD
 70
3
  9
$DIMALTF
 40
0.03937007874
  9
$DIMLFAC
 40
1.0
  9
$DIMTOFL
 70
1
  9
$DIMTVP
 40
0.0
  9
$DIMTIX
 70
0
  9
$DIMSOXD
 70
0
  9
$DIMSAH
 70
0
  9
$DIMBLK1
  1

  9
$DIMBLK2
  1

  9
$DIMSTYLE
  2
ISO-25
  9
$DIMCLRD
 70
0
  9
$DIMCLRE
 70
0
  9
$DIMCLRT
 70
0
  9
$DIMTFAC
 40
1.0
  9
$DIMGAP
 40
0.625
  9
$DIMJUST
 70
0
  9
$DIMSD1
 70
0
  9
$DIMSD2
 70
0
  9
$DIMTOLJ
 70
0
  9
$DIMTZIN
 70
8
  9
$DIMALTZ
 70
0
  9
$DIMALTTZ
 70
0
  9
$DIMUPT
 70
0
  9
$DIMDEC
 70
2
  9
$DIMTDEC
 70
2
  9
$DIMALTU
 70
2
  9
$DIMALTTD
 70
3
  9
$DIMTXSTY
  7
Standard
  9
$DIMAUNIT
 70
0
  9
$DIMADEC
 70
0
  9
$DIMALTRND
 40
0.0
  9
$DIMAZIN
 70
0
  9
$DIMDSEP
 70
44
  9
$DIMATFIT
 70
3
  9
$DIMFRAC
 70
0
  9
$DIMLDRBLK
  1

  9
$DIMLUNIT
 70
2
  9
$DIMLWD
 70
-2
  9
$DIMLWE
 70
-2
  9
$DIMTMOVE
 70
0
  9
$LUNITS
 70
2
  9
$LUPREC
 70
4
  9
$SKETCHINC
 40
1.0
  9
$FILLETRAD
 40
10.0
  9
$AUNITS
 70
0
  9
$AUPREC
 70
2
  9
$MENU
  1
.
  9
$ELEVATION
 40
0.0
  9
$PELEVATION
 40
0.0
  9
$THICKNESS
 40
0.0
  9
$LIMCHECK
 70
0
  9
$CHAMFERA
 40
0.0
  9
$CHAMFERB
 40
0.0
  9
$CHAMFERC
 40
0.0
  9
$CHAMFERD
 40
0.0
  9
$SKPOLY
 70
0
  9
$TDCREATE
 40
2461251.609837963
  9
$TDUCREATE
 40
2458532.153996898
  9
$TDUPDATE
 40
2461251.609837963
  9
$TDUUPDATE
 40
2458532.1544311
  9
$TDINDWG
 40
0.0
  9
$TDUSRTIMER
 40
0.0
  9
$USRTIMER
 70
1
  9
$ANGBASE
 50
0.0
  9
$ANGDIR
 70
0
  9
$PDMODE
 70
0
  9
$PDSIZE
 40
0.0
  9
$PLINEWID
 40
0.0
  9
$SPLFRAME
 70
0
  9
$SPLINETYPE
 70
6
  9
$SPLINESEGS
 70
8
  9
$HANDSEED
  5
3B
  9
$SURFTAB1
 70
6
  9
$SURFTAB2
 70
6
  9
$SURFTYPE
 70
6
  9
$SURFU
 70
6
  9
$SURFV
 70
6
  9
$UCSBASE
  2

  9
$UCSNAME
  2

  9
$UCSORG
 10
0.0
 20
0.0
 30
0.0
  9
$UCSXDIR
 10
1.0
 20
0.0
 30
0.0
  9
$UCSYDIR
 10
0.0
 20
1.0
 30
0.0
  9
$UCSORTHOREF
  2

  9
$UCSORTHOVIEW
 70
0
  9
$UCSORGTOP
 10
0.0
 20
0.0
 30
0.0
  9
$UCSORGBOTTOM
 10
0.0
 20
0.0
 30
0.0
  9
$UCSORGLEFT
 10
0.0
 20
0.0
 30
0.0
  9
$UCSORGRIGHT
 10
0.0
 20
0.0
 30
0.0
  9
$UCSORGFRONT
 10
0.0
 20
0.0
 30
0.0
  9
$UCSORGBACK
 10
0.0
 20
0.0
 30
0.0
  9
$PUCSBASE
  2

  9
$PUCSNAME
  2

  9
$PUCSORG
 10
0.0
 20
0.0
 30
0.0
  9
$PUCSXDIR
 10
1.0
 20
0.0
 30
0.0
  9
$PUCSYDIR
 10
0.0
 20
1.0
 30
0.0
  9
$PUCSORTHOREF
  2

  9
$PUCSORTHOVIEW
 70
0
  9
$PUCSORGTOP
 10
0.0
 20
0.0
 30
0.0
  9
$PUCSORGBOTTOM
 10
0.0
 20
0.0
 30
0.0
  9
$PUCSORGLEFT
 10
0.0
 20
0.0
 30
0.0
  9
$PUCSORGRIGHT
 10
0.0
 20
0.0
 30
0.0
  9
$PUCSORGFRONT
 10
0.0
 20
0.0
 30
0.0
  9
$PUCSORGBACK
 10
0.0
 20
0.0
 30
0.0
  9
$USERI1
 70
0
  9
$USERI2
 70
0
  9
$USERI3
 70
0
  9
$USERI4
 70
0
  9
$USERI5
 70
0
  9
$USERR1
 40
0.0
  9
$USERR2
 40
0.0
  9
$USERR3
 40
0.0
  9
$USERR4
 40
0.0
  9
$USERR5
 40
0.0
  9
$WORLDVIEW
 70
1
  9
$SHADEDGE
 70
3
  9
$SHADEDIF
 70
70
  9
$TILEMODE
 70
1
  9
$MAXACTVP
 70
64
  9
$PINSBASE
 10
0.0
 20
0.0
 30
0.0
  9
$PLIMCHECK
 70
0
  9
$PEXTMIN
 10
1e+20
 20
1e+20
 30
1e+20
  9
$PEXTMAX
 10
-1e+20
 20
-1e+20
 30
-1e+20
  9
$PLIMMIN
 10
0.0
 20
0.0
  9
$PLIMMAX
 10
420.0
 20
297.0
  9
$UNITMODE
 70
0
  9
$VISRETAIN
 70
1
  9
$PLINEGEN
 70
0
  9
$PSLTSCALE
 70
1
  9
$TREEDEPTH
 70
3020
  9
$CMLSTYLE
  2
Standard
  9
$CMLJUST
 70
0
  9
$CMLSCALE
 40
20.0
  9
$PROXYGRAPHICS
 70
1
  9
$MEASUREMENT
 70
1
  9
$CELWEIGHT
370
-1
  9
$ENDCAPS
280
0
  9
$JOINSTYLE
280
0
  9
$LWDISPLAY
290
0
  9
$INSUNITS
 70
4
  9
$HYPERLINKBASE
  1

  9
$STYLESHEET
  1

  9
$XEDIT
290
1
  9
$CEPSNTYPE
380
0
  9
$PSTYLEMODE
290
1
  9
$FINGERPRINTGUID
  2
{4E514B6E-14B5-4B0A-8E37-DBBD42A5AD74}
  9
$VERSIONGUID
  2
{6550DD53-6549-49E3-BDDD-ECFEA01DCE78}
  9
$EXTNAMES
290
1
  9
$PSVPSCALE
 40
0.0
  9
$OLESTARTUP
290
0
  0
ENDSEC
  0
SECTION
  2
CLASSES
  0
CLASS
  1
ACDBDICTIONARYWDFLT
  2
AcDbDictionaryWithDefault
  3
ObjectDBX Classes
 90
0
280
0
281
0
  0
CLASS
  1
SUN
  2
AcDbSun
  3
SCENEOE
 90
1153
280
0
281
0
  0
CLASS
  1
VISUALSTYLE
  2
AcDbVisualStyle
  3
ObjectDBX Classes
 90
4095
280
0
281
0
  0
CLASS
  1
MATERIAL
  2
AcDbMaterial
  3
ObjectDBX Classes
 90
1153
280
0
281
0
  0
CLASS
  1
SCALE
  2
AcDbScale
  3
ObjectDBX Classes
 90
1153
280
0
281
0
  0
CLASS
  1
TABLESTYLE
  2
AcDbTableStyle
  3
ObjectDBX Classes
 90
4095
280
0
281
0
  0
CLASS
  1
MLEADERSTYLE
  2
AcDbMLeaderStyle
  3
ACDB_MLEADERSTYLE_CLASS
 90
4095
280
0
281
0
  0
CLASS
  1
DICTIONARYVAR
  2
AcDbDictionaryVar
  3
ObjectDBX Classes
 90
0
280
0
281
0
  0
CLASS
  1
CELLSTYLEMAP
  2
AcDbCellStyleMap
  3
ObjectDBX Classes
 90
1152
280
0
281
0
  0
CLASS
  1
MENTALRAYRENDERSETTINGS
  2
AcDbMentalRayRenderSettings
  3
SCENEOE
 90
1024
280
0
281
0
  0
CLASS
  1
ACDBDETAILVIEWSTYLE
  2
AcDbDetailViewStyle
  3
ObjectDBX Classes
 90
1025
280
0
281
0
  0
CLASS
  1
ACDBSECTIONVIEWSTYLE
  2
AcDbSectionViewStyle
  3
ObjectDBX Classes
 90
1025
280
0
281
0
  0
CLASS
  1
RASTERVARIABLES
  2
AcDbRasterVariables
  3
ISM
 90
0
280
0
281
0
  0
CLASS
  1
ACDBPLACEHOLDER
  2
AcDbPlaceHolder
  3
ObjectDBX Classes
 90
0
280
0
281
0
  0
CLASS
  1
LAYOUT
  2
AcDbLayout
  3
ObjectDBX Classes
 90
0
280
0
281
0
  0
ENDSEC
  0
SECTION
  2
TABLES
  0
TABLE
  2
VPORT
  5
8
330
0
100
AcDbSymbolTable
 70
1
  0
VPORT
  5
23
330
8
100
AcDbSymbolTableRecord
100
AcDbViewportTableRecord
  2
*Active
 70
0
 10
0.0
 20
0.0
 11
1.0
 21
1.0
 12
0.0
 22
0.0
 13
0.0
 23
0.0
 14
0.5
 24
0.5
 15
0.5
 25
0.5
 16
0.0
 26
0.0
 36
1.0
 17
0.0
 27
0.0
 37
0.0
 40
1000.0
 41
1.34
 42
50.0
 43
0.0
 44
0.0
 50
0.0
 51
0.0
 71
0
 72
1000
 73
1
 74
3
 75
0
 76
0
 77
0
 78
0
281
0
 65
0
146
0.0
  0
ENDTAB
  0
TABLE
  2
LTYPE
  5
2
330
0
100
AcDbSymbolTable
 70
3
  0
LTYPE
  5
24
330
2
100
AcDbSymbolTableRecord
100
AcDbLinetypeTableRecord
  2
ByBlock
 70
0
  3

 72
65
 73
0
 40
0.0
  0
LTYPE
  5
25
330
2
100
AcDbSymbolTableRecord
100
AcDbLinetypeTableRecord
  2
ByLayer
 70
0
  3

 72
65
 73
0
 40
0.0
  0
LTYPE
  5
26
330
2
100
AcDbSymbolTableRecord
100
AcDbLinetypeTableRecord
  2
Continuous
 70
0
  3

 72
65
 73
0
 40
0.0
  0
ENDTAB
  0
TABLE
  2
LAYER
  5
1
330
0
100
AcDbSymbolTable
 70
3
  0
LAYER
  5
27
330
1
100
AcDbSymbolTableRecord
100
AcDbLayerTableRecord
  2
0
 70
0
 62
7
  6
Continuous
370
-3
390
13
  0
LAYER
  5
28
330
1
100
AcDbSymbolTableRecord
100
AcDbLayerTableRecord
  2
Defpoints
 70
0
 62
7
  6
Continuous
290
0
370
-3
390
13
  0
LAYER
  5
2F
330
1
100
AcDbSymbolTableRecord
100
AcDbLayerTableRecord
  2
0.0mm
 70
0
 62
7
  6
Continuous
370
-3
390
13
  0
ENDTAB
  0
TABLE
  2
STYLE
  5
5
330
0
100
AcDbSymbolTable
 70
1
  0
STYLE
  5
29
330
5
100
AcDbSymbolTableRecord
100
AcDbTextStyleTableRecord
  2
Standard
 70
0
 40
0.0
 41
1.0
 50
0.0
 71
0
 42
2.5
  3
txt
  4

  0
ENDTAB
  0
TABLE
  2
VIEW
  5
7
330
0
100
AcDbSymbolTable
 70
0
  0
ENDTAB
  0
TABLE
  2
UCS
  5
6
330
0
100
AcDbSymbolTable
 70
0
  0
ENDTAB
  0
TABLE
  2
APPID
  5
3
330
0
100
AcDbSymbolTable
 70
3
  0
APPID
  5
2A
330
3
100
AcDbSymbolTableRecord
100
AcDbRegAppTableRecord
  2
ACAD
 70
0
  0
APPID
  5
38
330
3
100
AcDbSymbolTableRecord
100
AcDbRegAppTableRecord
  2
HATCHBACKGROUNDCOLOR
 70
0
  0
APPID
  5
39
330
3
100
AcDbSymbolTableRecord
100
AcDbRegAppTableRecord
  2
EZDXF
 70
0
  0
ENDTAB
  0
TABLE
  2
DIMSTYLE
  5
4
330
0
100
AcDbSymbolTable
 70
1
100
AcDbDimStyleTable
  0
DIMSTYLE
105
2B
330
4
100
AcDbSymbolTableRecord
100
AcDbDimStyleTableRecord
  2
Standard
 70
0
  3

  4

 40
1.0
 41
2.5
 42
0.625
 43
3.75
 44
1.25
 45
0.0
 46
0.0
 47
0.0
 48
0.0
140
2.5
141
2.5
142
0.0
143
0.03937007874
144
1.0
145
0.0
146
1.0
147
0.625
148
0.0
 71
0
 72
0
 73
0
 74
0
 75
0
 76
0
 77
1
 78
8
 79
3
170
0
171
3
172
1
173
0
174
0
175
0
176
0
177
0
178
0
179
2
271
2
272
2
273
2
274
3
275
0
276
0
277
2
278
44
279
0
280
0
281
0
282
0
283
0
284
8
285
0
286
0
288
0
289
3
371
-2
372
-2
  0
ENDTAB
  0
TABLE
  2
BLOCK_RECORD
  5
9
330
0
100
AcDbSymbolTable
 70
2
  0
BLOCK_RECORD
  5
17
330
9
100
AcDbSymbolTableRecord
100
AcDbBlockTableRecord
  2
*Model_Space
340
1A
  0
BLOCK_RECORD
  5
1B
330
9
100
AcDbSymbolTableRecord
100
AcDbBlockTableRecord
  2
*Paper_Space
340
1E
  0
ENDTAB
  0
ENDSEC
  0
SECTION
  2
BLOCKS
  0
BLOCK
  5
18
330
17
100
AcDbEntity
  8
0
100
AcDbBlockBegin
  2
*Model_Space
 70
0
 10
0.0
 20
0.0
 30
0.0
  3
*Model_Space
  1

  0
ENDBLK
  5
19
330
17
100
AcDbEntity
  8
0
100
AcDbBlockEnd
  0
BLOCK
  5
1C
330
1B
100
AcDbEntity
  8
0
100
AcDbBlockBegin
  2
*Paper_Space
 70
0
 10
0.0
 20
0.0
 30
0.0
  3
*Paper_Space
  1

  0
ENDBLK
  5
1D
330
1B
100
AcDbEntity
  8
0
100
AcDbBlockEnd
  0
ENDSEC
  0
SECTION
  2
ENTITIES
  0
TEXT
  5
30
330
17
100
AcDbEntity
  8
0.0mm
100
AcDbText
 10
200.0
 20
20.0
 30
0.0
 40
10.0
  1
0.0mm
100
AcDbText
  0
LWPOLYLINE
  5
31
330
17
100
AcDbEntity
  8
0.0mm
100
AcDbPolyline
 90
5
 70
0
 10
0.0
 20
0.0
 10
400.0
 20
0.0
 10
400.0
 20
850.0
 10
0.0
 20
850.0
 10
0.0
 20
0.0
  0
TEXT
  5
32
330
17
100
AcDbEntity
  8
0.0mm
100
AcDbText
 10
5.0
 20
855.0
 30
0.0
 40
5.0
  1
400x850#1
100
AcDbText
  0
LWPOLYLINE
  5
33
330
17
100
AcDbEntity
  8
0.0mm
100
AcDbPolyline
 90
117
 70
0
 10
151.84439999999995
 20
95.2347
 10
153.80909999999994
 20
90.73249999999999
 10
155.94889999999987
 20
86.31929999999997
 10
157.4131
 20
83.58399999999997
 10
162.0193999999999
 20
75.46369999999999
 10
164.0933
 20
71.54349999999997
 10
165.60079999999994
 20
68.19339999999997
 10
166.24289999999996
 20
66.47400000000002
 10
166.78849999999989
 20
64.72569999999999
 10
167.35379999999986
 20
62.33439999999999
 10
167.8485999999998
 20
59.1328
 10
168.18819999999982
 20
54.95779999999999
 10
168.30319999999983
 20
50.96289999999996
 10
168.23079999999982
 20
47.97459999999998
 10
167.93819999999982
 20
44.63129999999998
 10
167.48869999999988
 20
41.8674
 10
166.8209999999999
 20
39.13039999999998
 10
166.0954999999999
 20
36.91759999999999
 10
164.8995
 20
34.083
 10
163.5193999999999
 20
31.50969999999998
 10
162.0918999999999
 20
29.340000000000003
 10
160.90429999999992
 20
27.81049999999999
 10
159.07029999999986
 20
25.82759999999999
 10
156.76869999999985
 20
23.857499999999987
 10
155.0646999999999
 20
22.698999999999984
 10
152.69039999999995
 20
21.3956
 10
149.9749999999999
 20
20.22319999999999
 10
146.7899
 20
19.147199999999998
 10
144.06969999999978
 20
18.40209999999999
 10
141.32399999999984
 20
17.754899999999992
 10
135.38279999999986
 20
16.559799999999996
 10
128.7244999999998
 20
15.456499999999977
 10
115.35169999999994
 20
13.5702
 10
111.38349999999991
 20
17.18689999999998
 10
93.52429999999981
 20
14.097700000000003
 10
81.25009999999997
 20
12.184899999999999
 10
74.99209999999994
 20
11.344399999999979
 10
68.70449999999983
 20
10.642299999999977
 10
62.872899999999845
 20
10.16919999999999
 10
58.490999999999985
 20
10.0
 10
55.20629999999983
 20
10.018699999999995
 10
51.51859999999988
 20
10.224400000000003
 10
48.45539999999983
 20
10.570599999999985
 10
45.40499999999997
 20
11.098399999999998
 10
41.918699999999944
 20
11.959800000000001
 10
39.3605
 20
12.801799999999986
 10
36.5813999999998
 20
13.967899999999986
 10
34.375099999999975
 20
15.129799999999989
 10
32.294599999999946
 20
16.47629999999998
 10
30.4070999999999
 20
17.970199999999977
 10
28.86499999999978
 20
19.412499999999994
 10
26.984899999999925
 20
21.47139999999999
 10
25.117099999999937
 20
23.879599999999982
 10
23.2032999999999
 20
26.758999999999986
 10
21.74219999999991
 20
29.254999999999995
 10
20.386399999999867
 20
31.8022
 10
18.27819999999997
 20
36.18349999999998
 10
16.35669999999982
 20
40.59970000000001
 10
17.828599999999824
 20
42.26789999999997
 10
15.615699999999833
 20
42.446499999999986
 10
13.949599999999919
 20
46.97049999999999
 10
12.442899999999781
 20
51.59869999999998
 10
11.310899999999947
 20
55.7809
 10
10.541799999999967
 20
59.571
 10
10.166799999999967
 20
62.42659999999998
 10
10.0
 20
65.63239999999999
 10
10.102299999999786
 20
68.2841
 10
10.4545999999998
 20
70.90509999999998
 10
11.073599999999942
 20
73.47540000000001
 10
12.021599999999808
 20
76.19929999999997
 10
12.899099999999862
 20
78.19249999999997
 10
14.443199999999933
 20
81.08829999999998
 10
16.211599999999862
 20
83.85369999999998
 10
17.952299999999923
 20
86.21759999999998
 10
20.419599999999946
 20
89.15399999999997
 10
23.291099999999915
 20
92.14919999999998
 10
26.717899999999872
 20
95.32629999999997
 10
29.69069999999988
 20
97.84970000000001
 10
32.73339999999985
 20
100.28829999999996
 10
37.72309999999993
 20
104.09790000000001
 10
45.33939999999984
 20
109.59970000000001
 10
60.551299999999856
 20
120.04080000000002
 10
68.0985999999998
 20
125.059
 10
68.46659999999997
 20
130.4165
 10
80.1232
 20
138.77899999999997
 10
85.04759999999987
 20
142.12749999999997
 10
90.12779999999998
 20
145.34459999999999
 10
93.7942999999998
 20
147.46039999999996
 10
96.61839999999984
 20
148.88929999999996
 10
98.7802999999999
 20
149.82449999999997
 10
101.25949999999989
 20
150.69570000000002
 10
103.36479999999983
 20
151.246
 10
105.50699999999983
 20
151.61029999999997
 10
107.7808
 20
151.7723
 10
109.78999999999996
 20
151.7356
 10
112.43379999999979
 20
151.44910000000002
 10
115.27689999999984
 20
150.8536
 10
117.37419999999997
 20
150.22619999999998
 10
120.24159999999983
 20
149.10299999999998
 10
123.3282999999999
 20
147.5219
 10
125.85569999999984
 20
145.89809999999997
 10
128.4174999999998
 20
143.92350000000002
 10
131.11149999999998
 20
141.48049999999998
 10
133.2301
 20
139.3027
 10
135.25659999999993
 20
137.02939999999998
 10
137.6153999999999
 20
134.14699999999996
 10
139.62739999999985
 20
131.31609999999998
 10
140.99669999999992
 20
129.0031
 10
142.25339999999983
 20
126.3611
 10
143.4192999999998
 20
123.26590000000002
 10
144.97279999999978
 20
117.9469
 10
147.25699999999983
 20
108.8948
 10
148.0895999999998
 20
105.90599999999998
 10
149.5949999999998
 20
101.23409999999998
 10
151.28869999999984
 20
96.619
 10
152.9478999999999
 20
96.4854
 10
151.84439999999995
 20
95.2347
  0
LWPOLYLINE
  5
34
330
17
100
AcDbEntity
  8
0.0mm
100
AcDbPolyline
 90
115
 70
0
 10
316.3634999999998
 20
93.29869999999997
 10
318.27009999999973
 20
88.90630000000002
 10
320.3466999999998
 20
84.6
 10
321.76999999999975
 20
81.9265
 10
326.2476999999998
 20
73.989
 10
328.26379999999983
 20
70.15610000000001
 10
329.7420999999998
 20
66.84900000000002
 10
330.88329999999974
 20
63.49289999999999
 10
331.43309999999974
 20
61.15489999999997
 10
331.9141999999998
 20
58.02529999999999
 10
332.2440999999998
 20
53.9451
 10
332.3557999999998
 20
50.0411
 10
332.28549999999973
 20
47.1207
 10
332.0010999999997
 20
43.852900000000005
 10
331.5640999999998
 20
41.15089999999998
 10
330.91499999999974
 20
38.4744
 10
330.21079999999984
 20
36.313199999999995
 10
329.0500999999998
 20
33.54389999999998
 10
327.70989999999983
 20
31.028899999999993
 10
326.3228999999998
 20
28.90779999999998
 10
325.16849999999977
 20
27.412199999999984
 10
323.3217999999998
 20
25.411900000000003
 10
321.14359999999976
 20
23.54559999999998
 10
319.48879999999974
 20
22.415300000000002
 10
317.1818999999998
 20
21.142499999999984
 10
314.54259999999977
 20
19.996700000000004
 10
311.4459999999998
 20
18.94399999999999
 10
306.13059999999973
 20
17.5805
 10
300.3557999999998
 20
16.41119999999998
 10
293.88369999999975
 20
15.332899999999995
 10
280.88419999999974
 20
13.49029999999999
 10
277.0269999999998
 20
17.02539999999999
 10
259.6668999999998
 20
14.00569999999999
 10
247.59519999999975
 20
12.115799999999979
 10
241.5822999999998
 20
11.305700000000002
 10
235.54079999999976
 20
10.628199999999993
 10
229.87179999999978
 20
10.16549999999998
 10
225.61189999999976
 20
10.0
 10
222.41889999999978
 20
10.018199999999979
 10
218.23789999999974
 20
10.273799999999994
 10
215.55989999999974
 20
10.601100000000002
 10
212.8925999999998
 20
11.073999999999984
 10
209.5021999999998
 20
11.91719999999998
 10
207.01489999999978
 20
12.740899999999982
 10
204.31359999999972
 20
13.881100000000004
 10
202.16959999999983
 20
15.016199999999998
 10
200.1483999999998
 20
16.33069999999998
 10
198.31079999999974
 20
17.792299999999983
 10
196.81039999999973
 20
19.2029
 10
194.98209999999983
 20
21.216199999999986
 10
193.16679999999974
 20
23.570300000000003
 10
191.30799999999977
 20
26.384299999999996
 10
189.88929999999982
 20
28.823099999999982
 10
188.57309999999973
 20
31.31129999999999
 10
186.5288999999998
 20
35.5838
 10
184.6655999999998
 20
39.88899999999998
 10
186.13789999999983
 20
41.561800000000005
 10
183.91999999999973
 20
41.738
 10
182.27199999999982
 20
46.133700000000005
 10
180.77739999999983
 20
50.63179999999997
 10
179.5754999999998
 20
54.9983
 10
178.83439999999973
 20
58.61889999999997
 10
178.47059999999976
 20
61.34639999999999
 10
178.30319999999983
 20
64.4091
 10
178.3911999999998
 20
66.9437
 10
178.71479999999974
 20
69.45079999999999
 10
179.30179999999973
 20
71.95500000000001
 10
180.20809999999983
 20
74.61049999999997
 10
181.0501999999998
 20
76.5547
 10
182.53629999999976
 20
79.38050000000001
 10
184.2421999999998
 20
82.07989999999998
 10
185.9228999999998
 20
84.38589999999996
 10
188.30819999999983
 20
87.251
 10
191.0876999999998
 20
90.17389999999997
 10
194.40739999999983
 20
93.27489999999997
 10
197.28889999999978
 20
95.7381
 10
200.2389999999998
 20
98.11870000000002
 10
205.07809999999984
 20
101.83790000000002
 10
212.46559999999977
 20
107.20950000000002
 10
227.22389999999973
 20
117.40369999999999
 10
234.5474999999998
 20
122.30370000000002
 10
234.87139999999977
 20
127.52680000000001
 10
246.17799999999977
 20
135.6924
 10
250.9559999999998
 20
138.9618
 10
255.88699999999983
 20
142.10240000000002
 10
259.44949999999983
 20
144.1686
 10
262.1941999999998
 20
145.56429999999997
 10
264.29579999999976
 20
146.4781
 10
266.7058999999998
 20
147.32989999999998
 10
268.75279999999975
 20
147.8688
 10
270.83579999999984
 20
148.2266
 10
273.0537999999998
 20
148.388
 10
275.0139999999998
 20
148.3547
 10
277.5935999999998
 20
148.07789999999997
 10
280.36829999999975
 20
147.49960000000002
 10
282.4156999999998
 20
146.8896
 10
285.21579999999983
 20
145.7972
 10
288.23149999999976
 20
144.2596
 10
290.7063999999998
 20
142.67839999999998
 10
293.21609999999976
 20
140.75589999999997
 10
295.8572999999998
 20
138.37730000000002
 10
297.93579999999974
 20
136.25699999999998
 10
299.9250999999998
 20
134.04330000000002
 10
302.24239999999975
 20
131.2365
 10
304.01409999999976
 20
128.7925
 10
305.5714999999998
 20
126.22479999999999
 10
306.8128999999998
 20
123.65130000000002
 10
307.9691999999998
 20
120.6353
 10
309.51819999999975
 20
115.45079999999999
 10
311.80299999999977
 20
106.62839999999997
 10
312.63369999999975
 20
103.71579999999997
 10
314.12779999999975
 20
99.172
 10
315.8042999999998
 20
94.68449999999999
 10
317.46749999999975
 20
94.55229999999997
 10
316.3634999999998
 20
93.29869999999997
  0
LWPOLYLINE
  5
35
330
17
100
AcDbEntity
  8
0.0mm
100
AcDbPolyline
 90
115
 70
0
 10
312.5800999999999
 20
239.74970000000002
 10
314.4282999999999
 20
235.46769999999998
 10
316.44169999999986
 20
231.26870000000002
 10
317.82399999999984
 20
228.65699999999998
 10
322.1729999999999
 20
220.90230000000003
 10
324.13139999999987
 20
217.15679999999998
 10
325.57719999999983
 20
213.90050000000002
 10
326.6752999999999
 20
210.64819999999997
 10
327.2094999999998
 20
208.3635
 10
327.67669999999987
 20
205.306
 10
327.99699999999984
 20
201.3205
 10
328.1053999999999
 20
197.5073
 10
328.03719999999987
 20
194.6548
 10
327.76099999999985
 20
191.4626
 10
327.33659999999986
 20
188.8224
 10
326.7060999999999
 20
186.2063
 10
326.02329999999984
 20
184.0969
 10
324.8975999999999
 20
181.3927
 10
323.49609999999984
 20
178.7657
 10
322.1647999999999
 20
176.7436
 10
320.47299999999984
 20
174.6369
 10
318.91129999999987
 20
173.0437
 10
317.2155999999999
 20
171.6217
 10
315.6098999999999
 20
170.5196
 10
313.3704999999999
 20
169.2776
 10
310.8072999999998
 20
168.1583
 10
307.7991999999999
 20
167.1288
 10
302.6342999999998
 20
165.7941
 10
297.02599999999984
 20
164.6507
 10
290.74009999999987
 20
163.5972
 10
278.11379999999986
 20
161.7984
 10
274.36739999999986
 20
165.2518
 10
257.50649999999985
 20
162.3017
 10
245.7367999999999
 20
160.4489
 10
239.91949999999986
 20
159.6613
 10
234.07399999999984
 20
159.002
 10
228.56759999999986
 20
158.5499
 10
224.4297999999999
 20
158.388
 10
221.32839999999987
 20
158.4057
 10
217.26769999999988
 20
158.6554
 10
214.6670999999999
 20
158.9753
 10
212.07699999999988
 20
159.4376
 10
208.78269999999986
 20
160.2625
 10
206.36639999999989
 20
161.0681
 10
203.74279999999987
 20
162.1822
 10
201.66109999999992
 20
163.2906
 10
199.69929999999988
 20
164.5731
 10
197.9115999999999
 20
166.0023
 10
196.4527999999999
 20
167.3813
 10
194.67629999999986
 20
169.3489
 10
192.91359999999986
 20
171.649
 10
191.10969999999986
 20
174.3976
 10
189.73349999999982
 20
176.7792
 10
188.45679999999993
 20
179.2084
 10
186.4767999999999
 20
183.37199999999999
 10
184.67139999999984
 20
187.5662
 10
186.1439999999999
 20
189.2437
 10
183.92039999999986
 20
189.4171
 10
182.29109999999991
 20
193.6848
 10
180.80869999999993
 20
198.0524
 10
179.60789999999986
 20
202.3013
 10
178.86069999999984
 20
205.8257
 10
178.4872999999999
 20
208.482
 10
178.30319999999983
 20
211.46620000000001
 10
178.3721999999999
 20
213.93740000000003
 10
178.6715999999999
 20
216.3832
 10
179.22649999999987
 20
218.8213
 10
180.09089999999992
 20
221.40839999999997
 10
181.34669999999983
 20
224.23450000000003
 10
182.58609999999987
 20
226.5072
 10
183.9690999999999
 20
228.6925
 10
185.58969999999988
 20
230.94060000000002
 10
187.89319999999987
 20
233.73430000000002
 10
190.58049999999992
 20
236.58479999999997
 10
193.79309999999987
 20
239.6096
 10
196.5832999999999
 20
242.01260000000002
 10
199.44069999999988
 20
244.3351
 10
204.12909999999988
 20
247.964
 10
211.28779999999983
 20
253.20510000000002
 10
225.59249999999986
 20
263.1523
 10
232.69229999999982
 20
267.934
 10
232.97219999999993
 20
273.0217
 10
244.0007999999999
 20
281.0421
 10
248.59719999999993
 20
284.2061
 10
253.34199999999987
 20
287.2453
 10
256.80049999999983
 20
289.2621
 10
259.46579999999983
 20
290.6245
 10
261.50689999999986
 20
291.5168
 10
264.2429999999998
 20
292.4677
 10
266.0373999999998
 20
292.9201
 10
267.8602999999998
 20
293.2282
 10
270.0224999999999
 20
293.389
 10
271.93369999999993
 20
293.359
 10
274.4491999999999
 20
293.092
 10
277.1555999999998
 20
292.531
 10
279.15319999999986
 20
291.9384
 10
281.9750999999999
 20
290.8373
 10
284.83079999999984
 20
289.383
 10
287.25289999999984
 20
287.8445
 10
289.71079999999984
 20
285.9741
 10
292.29909999999984
 20
283.6601
 10
294.33759999999984
 20
281.5973
 10
296.2898999999999
 20
279.4435
 10
298.5656999999999
 20
276.7123
 10
300.3079999999999
 20
274.3334
 10
301.8426999999999
 20
271.8331
 10
303.06889999999987
 20
269.3282
 10
304.2155999999999
 20
266.3916
 10
305.7601999999998
 20
261.34159999999997
 10
308.0457999999999
 20
252.74939999999998
 10
308.8745999999999
 20
249.9131
 10
310.35749999999985
 20
245.4975
 10
312.0167999999999
 20
241.1375
 10
313.68409999999983
 20
241.0072
 10
312.5800999999999
 20
239.74970000000002
  0
LWPOLYLINE
  5
36
330
17
100
AcDbEntity
  8
0.0mm
100
AcDbPolyline
 90
113
 70
0
 10
140.49309999999997
 20
241.198
 10
142.2833
 20
237.02579999999998
 10
144.23360000000002
 20
232.9338
 10
149.79520000000002
 20
222.812
 10
151.6959
 20
219.1539
 10
153.11829999999998
 20
215.9248
 10
154.16429999999997
 20
212.7998
 10
154.68290000000002
 20
210.5685
 10
155.13619999999997
 20
207.583
 10
155.4468
 20
203.6922
 10
155.55200000000002
 20
199.9699
 10
155.48579999999998
 20
197.1853
 10
155.2178
 20
194.0686
 10
154.80599999999998
 20
191.4904
 10
154.1941
 20
188.9347
 10
153.5326
 20
186.8769
 10
152.44209999999998
 20
184.238
 10
151.0836
 20
181.6733
 10
149.7923
 20
179.6986
 10
148.15030000000002
 20
177.6407
 10
146.6331
 20
176.084
 10
144.9846
 20
174.6942
 10
143.42790000000002
 20
173.62030000000001
 10
141.25599999999997
 20
172.409
 10
138.769
 20
171.3163
 10
135.84929999999997
 20
170.31
 10
130.8349
 20
169.0041
 10
125.3931
 20
167.8866
 10
119.29329999999999
 20
166.858
 10
107.04019999999997
 20
165.1028
 10
103.4049
 20
168.4746
 10
87.04309999999998
 20
165.5941
 10
75.53370000000001
 20
163.7722
 10
69.93279999999999
 20
163.0105
 10
64.30430000000001
 20
162.3723
 10
58.960500000000025
 20
161.9306
 10
54.94470000000001
 20
161.7723
 10
51.93489999999997
 20
161.7896
 10
47.994500000000016
 20
162.0334
 10
45.47120000000001
 20
162.346
 10
42.958500000000015
 20
162.7975
 10
39.7602
 20
163.6042
 10
37.41489999999999
 20
164.3916
 10
34.86899999999997
 20
165.4798
 10
32.84949999999998
 20
166.5615
 10
30.94720000000001
 20
167.812
 10
29.20949999999999
 20
169.2088
 10
27.79230000000001
 20
170.5562
 10
26.067499999999995
 20
172.4781
 10
24.357399999999984
 20
174.7241
 10
22.608400000000017
 20
177.4074
 10
21.27460000000002
 20
179.7317
 10
20.037500000000023
 20
182.1019
 10
18.121399999999994
 20
186.157
 10
16.373800000000017
 20
190.2408
 10
17.846900000000005
 20
191.9224
 10
15.617099999999994
 20
192.0942
 10
14.006700000000023
 20
196.2327
 10
12.536900000000003
 20
200.469
 10
11.337199999999996
 20
204.6
 10
10.583700000000022
 20
208.0281
 10
10.200699999999983
 20
210.613
 10
10.0
 20
213.5186
 10
10.049800000000005
 20
215.9262
 10
10.324799999999982
 20
218.3109
 10
10.8476
 20
220.6826
 10
11.670299999999997
 20
223.2012
 10
12.871899999999982
 20
225.95430000000002
 10
14.061800000000005
 20
228.1693
 10
15.39240000000001
 20
230.2999
 10
16.952799999999968
 20
232.48999999999998
 10
19.174300000000017
 20
235.21200000000002
 10
21.769499999999994
 20
237.9902
 10
24.87489999999997
 20
240.9387
 10
27.573800000000006
 20
243.2814
 10
30.33850000000001
 20
245.54569999999998
 10
34.87619999999998
 20
249.0843
 10
41.80619999999999
 20
254.1949
 10
55.657100000000014
 20
263.8949
 10
62.533000000000015
 20
268.55809999999997
 10
62.7688
 20
273.51120000000003
 10
73.445
 20
281.33309999999994
 10
77.89589999999998
 20
284.4185
 10
82.49270000000001
 20
287.3817
 10
85.84719999999999
 20
289.34889999999996
 10
88.43310000000002
 20
290.6779
 10
90.41390000000001
 20
291.5488
 10
93.06939999999997
 20
292.4778
 10
94.81110000000001
 20
292.92060000000004
 10
96.5806
 20
293.22310000000004
 10
98.68709999999999
 20
293.38340000000005
 10
100.54919999999998
 20
293.3568
 10
103.0007
 20
293.0997
 10
105.6388
 20
292.55600000000004
 10
107.58639999999997
 20
291.981
 10
110.38240000000002
 20
290.89250000000004
 10
113.1259
 20
289.50019999999995
 10
115.49549999999999
 20
288.0045
 10
117.9015
 20
286.18629999999996
 10
120.43720000000002
 20
283.9371
 10
122.43560000000002
 20
281.93190000000004
 10
124.35079999999999
 20
279.83810000000005
 10
126.94099999999997
 20
276.7282
 10
128.45960000000002
 20
274.63149999999996
 10
129.81029999999998
 20
272.43629999999996
 10
131.0213
 20
270.0001
 10
132.1585
 20
267.14300000000003
 10
133.6988
 20
262.2279
 10
136.81239999999997
 20
251.1063
 10
138.28390000000002
 20
246.8194
 10
139.9257
 20
242.58739999999997
 10
141.5976
 20
242.45880000000002
 10
140.49309999999997
 20
241.198
  0
LWPOLYLINE
  5
37
330
17
100
AcDbEntity
  8
0.0mm
100
AcDbPolyline
 90
111
 70
0
 10
136.71160000000003
 20
380.87260000000003
 10
138.44350000000003
 20
376.8106
 10
140.3308
 20
372.82560000000007
 10
145.72270000000003
 20
362.94840000000005
 10
147.56580000000002
 20
359.37760000000003
 10
148.9447
 20
356.2266000000001
 10
149.95850000000002
 20
353.17820000000006
 10
150.4615
 20
351.00020000000006
 10
150.901
 20
348.08670000000006
 10
151.20190000000002
 20
344.2907
 10
151.30380000000002
 20
340.65920000000006
 10
151.23970000000003
 20
337.94250000000005
 10
150.98000000000002
 20
334.9014000000001
 10
150.58069999999998
 20
332.38500000000005
 10
149.9875
 20
329.88980000000004
 10
149.3474
 20
327.88360000000006
 10
148.2919
 20
325.3099000000001
 10
146.92849999999999
 20
322.7268
 10
145.6845
 20
320.8233
 10
144.10410000000002
 20
318.8387
 10
142.64460000000003
 20
317.33630000000005
 10
141.0589
 20
315.99340000000007
 10
139.55130000000003
 20
314.94770000000005
 10
137.44670000000002
 20
313.76720000000006
 10
135.03590000000003
 20
312.701
 10
132.2047
 20
311.71790000000004
 10
127.34090000000002
 20
310.4408000000001
 10
122.0656
 20
309.34920000000005
 10
116.1518
 20
308.34540000000004
 10
104.27140000000001
 20
306.63390000000004
 10
100.74760000000002
 20
309.92410000000007
 10
84.885
 20
307.11320000000006
 10
73.5553
 20
305.3104000000001
 10
68.21090000000001
 20
304.58130000000006
 10
62.8399
 20
303.9693000000001
 10
57.65860000000001
 20
303.538
 10
53.76490000000001
 20
303.38340000000005
 10
50.84670000000001
 20
303.40020000000004
 10
47.0266
 20
303.63820000000004
 10
44.580600000000004
 20
303.9433
 10
42.145300000000006
 20
304.3842000000001
 10
39.043000000000006
 20
305.1727000000001
 10
36.76870000000001
 20
305.94190000000003
 10
34.3005
 20
307.00410000000005
 10
32.34330000000001
 20
308.0590000000001
 10
30.500400000000013
 20
309.27750000000003
 10
28.812600000000003
 20
310.64200000000005
 10
27.437000000000012
 20
311.95770000000005
 10
25.49900000000001
 20
314.16130000000004
 10
23.924800000000005
 20
316.28790000000004
 10
21.991500000000002
 20
319.35650000000004
 10
19.923500000000004
 20
323.22210000000007
 10
18.0715
 20
327.16800000000006
 10
16.3819
 20
331.1405000000001
 10
17.855000000000004
 20
332.8280000000001
 10
15.619200000000006
 20
332.9963
 10
14.027600000000007
 20
337.0063
 10
12.570000000000007
 20
341.1118
 10
11.33590000000001
 20
345.2599
 10
10.592400000000012
 20
348.5588
 10
10.209700000000012
 20
351.04670000000004
 10
10.0
 20
353.8446
 10
10.033500000000004
 20
356.16440000000006
 10
10.282600000000002
 20
358.46380000000005
 10
10.773300000000006
 20
360.7691000000001
 10
11.554200000000009
 20
363.21920000000006
 10
12.701600000000013
 20
365.8991000000001
 10
13.84190000000001
 20
368.05640000000005
 10
15.120000000000005
 20
370.13200000000006
 10
16.620400000000004
 20
372.264
 10
18.759800000000013
 20
374.91440000000006
 10
21.26270000000001
 20
377.62000000000006
 10
24.26100000000001
 20
380.4922
 10
29.540600000000012
 20
384.98080000000004
 10
33.92750000000001
 20
388.42890000000006
 10
40.62870000000001
 20
393.40880000000004
 10
54.025800000000004
 20
402.86150000000004
 10
60.6777
 20
407.40620000000007
 10
60.86930000000001
 20
412.2243
 10
71.32800000000002
 20
419.94450000000006
 10
75.56780000000002
 20
422.90130000000005
 10
79.9472
 20
425.74150000000003
 10
83.19770000000001
 20
427.6591000000001
 10
85.7042
 20
428.95490000000007
 10
87.6245
 20
429.80430000000007
 10
90.19940000000001
 20
430.71130000000005
 10
91.8884
 20
431.1444000000001
 10
93.6047
 20
431.44140000000004
 10
95.6553
 20
431.60120000000006
 10
97.46850000000002
 20
431.57810000000006
 10
99.8559
 20
431.33090000000004
 10
102.42570000000002
 20
430.80480000000006
 10
104.32360000000001
 20
430.2474
 10
107.09150000000001
 20
429.17280000000005
 10
109.72510000000001
 20
427.84130000000005
 10
112.04210000000002
 20
426.3885000000001
 10
114.39630000000001
 20
424.62280000000004
 10
116.87930000000001
 20
422.43850000000003
 10
118.8377
 20
420.49100000000004
 10
120.7161
 20
418.45730000000003
 10
123.25860000000002
 20
415.4363000000001
 10
124.75170000000001
 20
413.39880000000005
 10
126.08239999999999
 20
411.26460000000003
 10
127.27830000000002
 20
408.89720000000005
 10
128.406
 20
406.11980000000005
 10
129.94209999999998
 20
401.3398
 10
133.0552
 20
390.52580000000006
 10
134.5152
 20
386.36780000000005
 10
136.13960000000003
 20
382.26410000000004
 10
137.8163
 20
382.13740000000007
 10
136.71160000000003
 20
380.87260000000003
  0
ENDSEC
  0
SECTION
  2
OBJECTS
  0
DICTIONARY
  5
A
330
0
100
AcDbDictionary
281
1
  3
ACAD_COLOR
350
B
  3
ACAD_GROUP
350
C
  3
ACAD_LAYOUT
350
D
  3
ACAD_MATERIAL
350
E
  3
ACAD_MLEADERSTYLE
350
F
  3
ACAD_MLINESTYLE
350
10
  3
ACAD_PLOTSETTINGS
350
11
  3
ACAD_PLOTSTYLENAME
350
12
  3
ACAD_SCALELIST
350
14
  3
ACAD_TABLESTYLE
350
15
  3
ACAD_VISUALSTYLE
350
16
  3
EZDXF_META
350
2D
  0
DICTIONARY
  5
B
330
A
100
AcDbDictionary
281
1
  0
DICTIONARY
  5
C
330
A
100
AcDbDictionary
281
1
  0
DICTIONARY
  5
D
330
A
100
AcDbDictionary
281
1
  3
Model
350
1A
  3
Layout1
350
1E
  0
DICTIONARY
  5
E
330
A
100
AcDbDictionary
281
1
  3
ByBlock
350
1F
  3
ByLayer
350
20
  3
Global
350
21
  0
DICTIONARY
  5
F
330
A
100
AcDbDictionary
281
1
  3
Standard
350
2C
  0
DICTIONARY
  5
10
330
A
100
AcDbDictionary
281
1
  3
Standard
350
22
  0
DICTIONARY
  5
11
330
A
100
AcDbDictionary
281
1
  0
ACDBDICTIONARYWDFLT
  5
12
330
A
100
AcDbDictionary
281
1
  3
Normal
350
13
100
AcDbDictionaryWithDefault
340
13
  0
ACDBPLACEHOLDER
  5
13
330
12
  0
DICTIONARY
  5
14
330
A
100
AcDbDictionary
281
1
  0
DICTIONARY
  5
15
330
A
100
AcDbDictionary
281
1
  0
DICTIONARY
  5
16
330
A
100
AcDbDictionary
281
1
  0
LAYOUT
  5
1A
330
D
100
AcDbPlotSettings
  1

  4
A3
  6

 40
7.5
 41
20.0
 42
7.5
 43
20.0
 44
420.0
 45
297.0
 46
0.0
 47
0.0
 48
0.0
 49
0.0
140
0.0
141
0.0
142
1.0
143
1.0
 70
1024
 72
1
 73
0
 74
5
  7

 75
16
 76
0
 77
2
 78
300
147
1.0
148
0.0
149
0.0
100
AcDbLayout
  1
Model
 70
1
 71
0
 10
0.0
 20
0.0
 11
420.0
 21
297.0
 12
0.0
 22
0.0
 32
0.0
 14
1e+20
 24
1e+20
 34
1e+20
 15
-1e+20
 25
-1e+20
 35
-1e+20
146
0.0
 13
0.0
 23
0.0
 33
0.0
 16
1.0
 26
0.0
 36
0.0
 17
0.0
 27
1.0
 37
0.0
 76
1
330
17
  0
LAYOUT
  5
1E
330
D
100
AcDbPlotSettings
  1

  4
A3
  6

 40
7.5
 41
20.0
 42
7.5
 43
20.0
 44
420.0
 45
297.0
 46
0.0
 47
0.0
 48
0.0
 49
0.0
140
0.0
141
0.0
142
1.0
143
1.0
 70
0
 72
1
 73
0
 74
5
  7

 75
16
 76
0
 77
2
 78
300
147
1.0
148
0.0
149
0.0
100
AcDbLayout
  1
Layout1
 70
1
 71
1
 10
0.0
 20
0.0
 11
420.0
 21
297.0
 12
0.0
 22
0.0
 32
0.0
 14
1e+20
 24
1e+20
 34
1e+20
 15
-1e+20
 25
-1e+20
 35
-1e+20
146
0.0
 13
0.0
 23
0.0
 33
0.0
 16
1.0
 26
0.0
 36
0.0
 17
0.0
 27
1.0
 37
0.0
 76
1
330
1B
  0
MATERIAL
  5
1F
102
{ACAD_REACTORS
330
E
102
}
330
E
100
AcDbMaterial
  1
ByBlock
  2

 70
0
 40
1.0
 71
1
 41
1.0
 91
-1023410177
 42
1.0
 72
1
  3

 73
1
 74
1
 75
1
 44
0.5
 73
0
 45
1.0
 46
1.0
 77
1
  4

 78
1
 79
1
170
1
 48
1.0
171
1
  6

172
1
173
1
174
1
140
1.0
141
1.0
175
1
  7

176
1
177
1
178
1
143
1.0
179
1
  8

270
1
271
1
272
1
145
1.0
146
1.0
273
1
  9

274
1
275
1
276
1
 42
1.0
 72
1
  3

 73
1
 74
1
 75
1
 94
63
  0
MATERIAL
  5
20
102
{ACAD_REACTORS
330
E
102
}
330
E
100
AcDbMaterial
  1
ByLayer
  2

 70
0
 40
1.0
 71
1
 41
1.0
 91
-1023410177
 42
1.0
 72
1
  3

 73
1
 74
1
 75
1
 44
0.5
 73
0
 45
1.0
 46
1.0
 77
1
  4

 78
1
 79
1
170
1
 48
1.0
171
1
  6

172
1
173
1
174
1
140
1.0
141
1.0
175
1
  7

176
1
177
1
178
1
143
1.0
179
1
  8

270
1
271
1
272
1
145
1.0
146
1.0
273
1
  9

274
1
275
1
276
1
 42
1.0
 72
1
  3

 73
1
 74
1
 75
1
 94
63
  0
MATERIAL
  5
21
102
{ACAD_REACTORS
330
E
102
}
330
E
100
AcDbMaterial
  1
Global
  2

 70
0
 40
1.0
 71
1
 41
1.0
 91
-1023410177
 42
1.0
 72
1
  3

 73
1
 74
1
 75
1
 44
0.5
 73
0
 45
1.0
 46
1.0
 77
1
  4

 78
1
 79
1
170
1
 48
1.0
171
1
  6

172
1
173
1
174
1
140
1.0
141
1.0
175
1
  7

176
1
177
1
178
1
143
1.0
179
1
  8

270
1
271
1
272
1
145
1.0
146
1.0
273
1
  9

274
1
275
1
276
1
 42
1.0
 72
1
  3

 73
1
 74
1
 75
1
 94
63
  0
MLINESTYLE
  5
22
102
{ACAD_REACTORS
330
10
102
}
330
10
100
AcDbMlineStyle
  2
Standard
 70
0
  3

 62
256
 51
90.0
 52
90.0
 71
2
 49
0.5
 62
256
  6
BYLAYER
 49
-0.5
 62
256
  6
BYLAYER
  0
MLEADERSTYLE
  5
2C
102
{ACAD_REACTORS
330
F
102
}
330
F
100
AcDbMLeaderStyle
179
2
170
2
171
1
172
0
 90
2
 40
0.0
 41
0.0
173
1
 91
-1056964608
 92
-2
290
1
 42
2.0
291
1
 43
8.0
  3
Standard
 44
4.0
300

342
29
174
1
175
1
176
0
178
1
 93
-1056964608
 45
4.0
292
0
297
0
 46
4.0
 94
-1056964608
 47
1.0
 49
1.0
140
1.0
294
1
141
0.0
177
0
142
1.0
295
0
296
0
143
3.75
271
0
272
9
273
9
  0
DICTIONARY
  5
2D
330
A
100
AcDbDictionary
280
1
281
1
  3
CREATED_BY_EZDXF
350
2E
  3
WRITTEN_BY_EZDXF
350
3A
  0
DICTIONARYVAR
  5
2E
330
2D
100
DictionaryVariables
280
0
  1
1.4.4 @ 2026-07-29T06:38:10.102375+00:00
  0
DICTIONARYVAR
  5
3A
330
2D
100
DictionaryVariables
280
0
  1
1.4.4 @ 2026-07-29T06:38:10.107371+00:00
  0
ENDSEC
  0
EOF
