  0
SECTION
  2
HEADER
  9
$ACADVER
  1
AC1009
  9
$INSBASE
 10
0.0
 20
0.0
 30
0.0
  9
$EXTMIN
 10
457.72106163179251
 20
442.1822026638273
 30
0.0
  9
$EXTMAX
 10
983.72106163179228
 20
1025.232747689822
 30
0.0
  9
$LIMMIN
 10
0.0
 20
0.0
  9
$LIMMAX
 10
420.0
 20
297.0
  9
$ORTHOMODE
 70
     1
  9
$REGENMODE
 70
     1
  9
$FILLMODE
 70
     1
  9
$QTEXTMODE
 70
     0
  9
$MIRRTEXT
 70
     0
  9
$DRAGMODE
 70
     2
  9
$LTSCALE
 40
1.0
  9
$OSMODE
 70
   167
  9
$ATTMODE
 70
     1
  9
$TEXTSIZE
 40
2.5
  9
$TRACEWID
 40
1.0
  9
$TEXTSTYLE
  7
STANDARD
  9
$CLAYER
  8
图层1
  9
$CELTYPE
  6
BYLAYER
  9
$CECOLOR
 62
   256
  9
$DIMSCALE
 40
1.0
  9
$DIMASZ
 40
2.5
  9
$DIMEXO
 40
0.625
  9
$DIMDLI
 40
3.75
  9
$DIMRND
 40
0.0
  9
$DIMDLE
 40
0.0
  9
$DIMEXE
 40
1.25
  9
$DIMTP
 40
0.0
  9
$DIMTM
 40
0.0
  9
$DIMTXT
 40
2.5
  9
$DIMCEN
 40
2.5
  9
$DIMTSZ
 40
0.0
  9
$DIMTOL
 70
     0
  9
$DIMLIM
 70
     0
  9
$DIMTIH
 70
     0
  9
$DIMTOH
 70
     0
  9
$DIMSE1
 70
     0
  9
$DIMSE2
 70
     0
  9
$DIMTAD
 70
     1
  9
$DIMZIN
 70
     8
  9
$DIMBLK
  1

  9
$DIMASO
 70
     1
  9
$DIMSHO
 70
     1
  9
$DIMPOST
  1

  9
$DIMAPOST
  1

  9
$DIMALT
 70
     0
  9
$DIMALTD
 70
     3
  9
$DIMALTF
 40
0.03937007874016
  9
$DIMLFAC
 40
1.0
  9
$DIMTOFL
 70
     1
  9
$DIMTVP
 40
0.0
  9
$DIMTIX
 70
     0
  9
$DIMSOXD
 70
     0
  9
$DIMSAH
 70
     0
  9
$DIMBLK1
  1

  9
$DIMBLK2
  1

  9
$DIMSTYLE
  2
ISO-25
  9
$DIMCLRD
 70
     0
  9
$DIMCLRE
 70
     0
  9
$DIMCLRT
 70
     0
  9
$DIMTFAC
 40
1.0
  9
$DIMGAP
 40
0.625
  9
$LUNITS
 70
     2
  9
$LUPREC
 70
     4
  9
$SKETCHINC
 40
1.0
  9
$FILLETRAD
 40
5.0
  9
$AUNITS
 70
     0
  9
$AUPREC
 70
     0
  9
$MENU
  1
.
  9
$ELEVATION
 40
0.0
  9
$PELEVATION
 40
0.0
  9
$THICKNESS
 40
0.0
  9
$LIMCHECK
 70
     0
  9
$BLIPMODE
 70
     0
  9
$CHAMFERA
 40
0.0
  9
$CHAMFERB
 40
0.0
  9
$SKPOLY
 70
     0
  9
$TDCREATE
 40
2461204.370113912
  9
$TDUPDATE
 40
2461204.4459818401
  9
$TDINDWG
 40
0.0597564931
  9
$TDUSRTIMER
 40
0.0597559838
  9
$USRTIMER
 70
     1
  9
$ANGBASE
 50
0.0
  9
$ANGDIR
 70
     0
  9
$PDMODE
 70
     0
  9
$PDSIZE
 40
0.0
  9
$PLINEWID
 40
0.0
  9
$COORDS
 70
     0
  9
$SPLFRAME
 70
     0
  9
$SPLINETYPE
 70
     6
  9
$SPLINESEGS
 70
     8
  9
$ATTDIA
 70
     0
  9
$ATTREQ
 70
     1
  9
$HANDLING
 70
     1
  9
$HANDSEED
  5
2AFA
  9
$SURFTAB1
 70
     6
  9
$SURFTAB2
 70
     6
  9
$SURFTYPE
 70
     6
  9
$SURFU
 70
     6
  9
$SURFV
 70
     6
  9
$UCSNAME
  2

  9
$UCSORG
 10
0.0
 20
0.0
 30
0.0
  9
$UCSXDIR
 10
1.0
 20
0.0
 30
0.0
  9
$UCSYDIR
 10
0.0
 20
1.0
 30
0.0
  9
$PUCSNAME
  2

  9
$PUCSORG
 10
0.0
 20
0.0
 30
0.0
  9
$PUCSXDIR
 10
1.0
 20
0.0
 30
0.0
  9
$PUCSYDIR
 10
0.0
 20
1.0
 30
0.0
  9
$USERI1
 70
     0
  9
$USERI2
 70
     0
  9
$USERI3
 70
     0
  9
$USERI4
 70
     0
  9
$USERI5
 70
     0
  9
$USERR1
 40
0.0
  9
$USERR2
 40
0.0
  9
$USERR3
 40
0.0
  9
$USERR4
 40
0.0
  9
$USERR5
 40
0.0
  9
$WORLDVIEW
 70
     1
  9
$SHADEDGE
 70
     3
  9
$SHADEDIF
 70
    70
  9
$TILEMODE
 70
     1
  9
$MAXACTVP
 70
    64
  9
$PLIMCHECK
 70
     0
  9
$PEXTMIN
 10
0.0
 20
0.0
 30
0.0
  9
$PEXTMAX
 10
0.0
 20
0.0
 30
0.0
  9
$PLIMMIN
 10
0.0
 20
0.0
  9
$PLIMMAX
 10
12.0
 20
9.0
  9
$UNITMODE
 70
     0
  9
$VISRETAIN
 70
     1
  9
$PLINEGEN
 70
     0
  9
$PSLTSCALE
 70
     1
  0
ENDSEC
  0
SECTION
  2
TABLES
  0
TABLE
  2
VPORT
 70
     1
  0
VPORT
  2
*ACTIVE
 70
     0
 10
0.0
 20
0.0
 11
1.0
 21
1.0
 12
814.92029874038815
 22
645.55150154940452
 13
0.0
 23
0.0
 14
10.0
 24
10.0
 15
10.0
 25
10.0
 16
0.0
 26
0.0
 36
1.0
 17
0.0
 27
0.0
 37
0.0
 40
2203.1337703763702
 41
1.9260606060606049
 42
50.0
 43
0.0
 44
0.0
 50
0.0
 51
0.0
 71
     0
 72
  1000
 73
     1
 74
     3
 75
     0
 76
     0
 77
     0
 78
     0
  0
ENDTAB
  0
TABLE
  2
LTYPE
 70
     3
  0
LTYPE
  2
CONTINUOUS
 70
     0
  3
Solid line
 72
    65
 73
     0
 40
0.0
  0
LTYPE
  2
CENTER
 70
     0
  3
Center ____ _ ____ _ ____ _ ____ _ ____ _ ____
 72
    65
 73
     4
 40
50.799999999999997
 49
31.75
 49
-6.349999999999997
 49
6.349999999999997
 49
-6.349999999999997
  0
ENDTAB
  0
TABLE
  2
LAYER
 70
     4
  0
LAYER
  2
0
 70
     0
 62
     7
  6
CONTINUOUS
  0
LAYER
  2
图层1
 70
     0
 62
    10
  6
CONTINUOUS
  0
LAYER
  2
___挂钉孔___
 70
     0
 62
     3
  6
CONTINUOUS
  0
LAYER
  2
货号文字
 70
     0
 62
     5
  6
CONTINUOUS
  0
ENDTAB
  0
TABLE
  2
STYLE
 70
     2
  0
STYLE
  2
STANDARD
 70
     0
 40
0.0
 41
1.0
 50
0.0
 71
     0
 42
2.5
  3
txt
  4
gbcbig.shx
  0
STYLE
  2
YQ_DIM
 70
     0
 40
0.0
 41
0.8
 50
0.0
 71
     0
 42
95.355691264994675
  3
SUPEROS.SHX
  4
HZDX.SHX
  0
ENDTAB
  0
TABLE
  2
VIEW
 70
     0
  0
ENDTAB
  0
TABLE
  2
UCS
 70
     0
  0
ENDTAB
  0
TABLE
  2
APPID
 70
     4
  0
APPID
  2
ACAD
 70
     0
  0
APPID
  2
ACAD_PSEXT
 70
     0
  0
APPID
  2
ACAD_EXEMPT_FROM_CAD_STANDARDS
 70
     0
  0
APPID
  2
ACAECLAYERSTANDARD
 70
     0
  0
ENDTAB
  0
TABLE
  2
DIMSTYLE
 70
     5
  0
DIMSTYLE
  2
ISO-25
 70
     0
  3

  4

  5

  6

  7

 40
1.0
 41
2.5
 42
0.625
 43
3.75
 44
1.25
 45
0.0
 46
0.0
 47
0.0
 48
0.0
140
2.5
141
2.5
142
0.0
143
0.03937007874016
144
1.0
145
0.0
146
1.0
147
0.625
 71
     0
 72
     0
 73
     0
 74
     0
 75
     0
 76
     0
 77
     1
 78
     8
170
     0
171
     3
172
     1
173
     0
174
     0
175
     0
176
     0
177
     0
178
     0
  0
DIMSTYLE
  2
YQ100
 70
     0
  3

  4

  5

  6

  7

 40
100.0
 41
1.0
 42
3.0
 43
6.0
 44
1.5
 45
0.0
 46
0.0
 47
0.0
 48
0.0
140
3.0
141
0.0
142
0.0
143
25.399999999999999
144
1.0
145
0.0
146
1.0
147
0.5
 71
     0
 72
     0
 73
     0
 74
     0
 75
     0
 76
     0
 77
     1
 78
     8
170
     0
171
     2
172
     1
173
     0
174
     1
175
     0
176
   256
177
   256
178
     7
  0
DIMSTYLE
  2
YQA100
 70
     0
  3

  4

  5

  6

  7

 40
100.0
 41
2.0
 42
3.0
 43
6.0
 44
1.5
 45
0.0
 46
0.0
 47
0.0
 48
0.0
140
3.0
141
0.0
142
0.0
143
25.399999999999999
144
1.0
145
0.0
146
1.0
147
0.5
 71
     0
 72
     0
 73
     0
 74
     0
 75
     0
 76
     0
 77
     1
 78
     8
170
     0
171
     2
172
     0
173
     0
174
     0
175
     0
176
   256
177
   256
178
     7
  0
DIMSTYLE
  2
STANDARD
 70
     0
  3

  4

  5

  6

  7

 40
1.0
 41
30.0
 42
0.0625
 43
0.38
 44
0.18
 45
0.0
 46
0.0
 47
0.0
 48
0.0
140
50.0
141
0.09
142
0.0
143
25.399999999999999
144
1.0
145
0.0
146
1.0
147
0.09
 71
     0
 72
     0
 73
     1
 74
     1
 75
     0
 76
     0
 77
     0
 78
     0
170
     0
171
     2
172
     0
173
     0
174
     0
175
     0
176
     1
177
     1
178
     0
  0
ENDTAB
  0
ENDSEC
  0
SECTION
  2
BLOCKS
  0
BLOCK
  8
0
  2
$MODEL_SPACE
 70
     0
 10
0.0
 20
0.0
 30
0.0
  3
$MODEL_SPACE
  1

  0
ENDBLK
  5
17E6
  8
0
  0
BLOCK
 67
     1
  8
0
  2
$PAPER_SPACE
 70
     0
 10
0.0
 20
0.0
 30
0.0
  3
$PAPER_SPACE
  1

  0
ENDBLK
  5
17E2
 67
     1
  8
0
  0
BLOCK
  8
0
  2
YQTICK
 70
     0
 10
0.0
 20
0.0
 30
0.0
  3
YQTICK
  1

  0
POLYLINE
  5
61C
  8
0
 66
     1
 10
0.0
 20
0.0
 30
0.0
 40
0.4
 41
0.4
  0
VERTEX
  5
26AB
  8
0
 10
0.5303300858899105
 20
0.5303300858899106
 30
0.0
  0
VERTEX
  5
26AC
  8
0
 10
-0.5303300858899106
 20
-0.5303300858899105
 30
0.0
  0
SEQEND
  5
26AD
  8
0
  0
LINE
  5
61D
  8
0
 10
-1.0
 20
0.0000000000000001
 30
0.0
 11
1.0
 21
0.0000000000000001
 31
0.0
  0
ENDBLK
  5
61E
  8
0
  0
ENDSEC
  0
SECTION
  2
ENTITIES
  0
POLYLINE
  5
1D4
  8
0
 66
     1
 10
0.0
 20
0.0
 30
0.0
 70
     1
  0
VERTEX
  5
2643
  8
0
 10
656.7210616317924
 20
478.00282598895461
 30
0.0
  0
VERTEX
  5
2644
  8
0
 10
656.7210616317924
 20
493.00282598895438
 30
0.0
  0
VERTEX
  5
2645
  8
0
 10
784.7210616317924
 20
493.00282598895438
 30
0.0
  0
VERTEX
  5
2646
  8
0
 10
784.7210616317924
 20
478.00282598895461
 30
0.0
  0
SEQEND
  5
2647
  8
0
  0
POLYLINE
  5
238
  8
0
 66
     1
 10
0.0
 20
0.0
 30
0.0
 70
     1
  0
VERTEX
  5
2648
  8
0
 10
660.7210616317924
 20
900.00282598895444
 30
0.0
  0
VERTEX
  5
2649
  8
0
 10
780.7210616317924
 20
900.00282598895433
 30
0.0
  0
VERTEX
  5
264A
  8
0
 10
780.7210616317924
 20
858.00282598895433
 30
0.0
  0
VERTEX
  5
264B
  8
0
 10
783.7210616317924
 20
858.00282598895433
 30
0.0
  0
VERTEX
  5
264C
  8
0
 10
783.7210616317924
 20
843.00282598895444
 30
0.0
  0
VERTEX
  5
264D
  8
0
 10
783.7210616317924
 20
828.00282598895444
 30
0.0
  0
VERTEX
  5
264E
  8
0
 10
780.7210616317924
 20
828.00282598895444
 30
0.0
  0
VERTEX
  5
264F
  8
0
 10
780.7210616317924
 20
780.00282598895444
 30
0.0
  0
VERTEX
  5
2650
  8
0
 10
783.7210616317924
 20
780.00282598895444
 30
0.0
  0
VERTEX
  5
2651
  8
0
 10
783.7210616317924
 20
765.00282598895444
 30
0.0
  0
VERTEX
  5
2652
  8
0
 10
783.7210616317924
 20
750.00282598895444
 30
0.0
  0
VERTEX
  5
2653
  8
0
 10
780.7210616317924
 20
750.00282598895444
 30
0.0
  0
VERTEX
  5
2654
  8
0
 10
780.7210616317924
 20
747.00282598895444
 30
0.0
  0
VERTEX
  5
2655
  8
0
 10
760.7210616317924
 20
747.00282598895444
 30
0.0
  0
VERTEX
  5
2656
  8
0
 10
760.7210616317924
 20
750.00282598895444
 30
0.0
  0
VERTEX
  5
2657
  8
0
 10
730.7210616317924
 20
750.00282598895444
 30
0.0
  0
VERTEX
  5
2658
  8
0
 10
730.7210616317924
 20
747.00282598895444
 30
0.0
  0
VERTEX
  5
2659
  8
0
 10
710.7210616317924
 20
747.00282598895444
 30
0.0
  0
VERTEX
  5
265A
  8
0
 10
710.7210616317924
 20
750.00282598895444
 30
0.0
  0
VERTEX
  5
265B
  8
0
 10
680.72106163179251
 20
750.00282598895444
 30
0.0
  0
VERTEX
  5
265C
  8
0
 10
680.72106163179251
 20
747.00282598895444
 30
0.0
  0
VERTEX
  5
265D
  8
0
 10
660.7210616317924
 20
747.00282598895444
 30
0.0
  0
VERTEX
  5
265E
  8
0
 10
660.7210616317924
 20
750.00282598895444
 30
0.0
  0
VERTEX
  5
265F
  8
0
 10
657.72106163179251
 20
750.00282598895444
 30
0.0
  0
VERTEX
  5
2660
  8
0
 10
657.72106163179251
 20
765.00282598895444
 30
0.0
  0
VERTEX
  5
2661
  8
0
 10
657.72106163179251
 20
780.00282598895444
 30
0.0
  0
VERTEX
  5
2662
  8
0
 10
660.7210616317924
 20
780.00282598895444
 30
0.0
  0
VERTEX
  5
2663
  8
0
 10
660.7210616317924
 20
828.00282598895444
 30
0.0
  0
VERTEX
  5
2664
  8
0
 10
657.72106163179251
 20
828.00282598895444
 30
0.0
  0
VERTEX
  5
2665
  8
0
 10
657.72106163179251
 20
843.00282598895444
 30
0.0
  0
VERTEX
  5
2666
  8
0
 10
657.72106163179251
 20
858.00282598895433
 30
0.0
  0
VERTEX
  5
2667
  8
0
 10
660.7210616317924
 20
858.00282598895433
 30
0.0
  0
SEQEND
  5
2668
  8
0
  0
POLYLINE
  5
244
  8
图层1
 66
     1
 10
0.0
 20
0.0
 30
0.0
 70
     1
  0
VERTEX
  5
2669
  8
图层1
 10
499.57106163179247
 20
703.00282598895444
 30
0.0
  0
VERTEX
  5
266A
  8
图层1
 10
457.72106163179251
 20
703.00282598895444
 30
0.0
  0
VERTEX
  5
266B
  8
图层1
 10
457.72106163179251
 20
700.00282598895444
 30
0.0
 42
-0.3865638838729338
  0
VERTEX
  5
266C
  8
图层1
 10
572.72106163179251
 20
550.00282598895456
 30
0.0
  0
VERTEX
  5
266D
  8
图层1
 10
607.72106163179251
 20
550.00282598895456
 30
0.0
  0
VERTEX
  5
266E
  8
图层1
 10
610.7210616317924
 20
550.00282598895456
 30
0.0
  0
VERTEX
  5
266F
  8
图层1
 10
610.7210616317924
 20
570.00282598895444
 30
0.0
  0
VERTEX
  5
2670
  8
图层1
 10
607.72106163179251
 20
570.00282598895444
 30
0.0
  0
VERTEX
  5
2671
  8
图层1
 10
607.72106163179251
 20
616.50282598895444
 30
0.0
  0
VERTEX
  5
2672
  8
图层1
 10
610.7210616317924
 20
616.50282598895444
 30
0.0
  0
VERTEX
  5
2673
  8
图层1
 10
610.7210616317924
 20
636.50282598895444
 30
0.0
  0
VERTEX
  5
2674
  8
图层1
 10
607.72106163179251
 20
636.50282598895444
 30
0.0
  0
VERTEX
  5
2675
  8
图层1
 10
607.72106163179251
 20
683.00282598895444
 30
0.0
  0
VERTEX
  5
2676
  8
图层1
 10
610.7210616317924
 20
683.00282598895444
 30
0.0
  0
VERTEX
  5
2677
  8
图层1
 10
610.7210616317924
 20
703.00282598895444
 30
0.0
  0
VERTEX
  5
2678
  8
图层1
 10
607.72106163179251
 20
703.00282598895444
 30
0.0
  0
VERTEX
  5
2679
  8
图层1
 10
607.72106163179217
 20
703.00282598895444
 30
0.0
  0
VERTEX
  5
267A
  8
图层1
 10
607.72106163179217
 20
699.85282598895435
 30
0.0
  0
VERTEX
  5
267B
  8
图层1
 10
592.7210616317924
 20
699.85282598895435
 30
0.0
  0
VERTEX
  5
267C
  8
图层1
 10
577.57106163179219
 20
699.85282598895435
 30
0.0
  0
VERTEX
  5
267D
  8
图层1
 10
577.57106163179219
 20
703.00282598895444
 30
0.0
  0
VERTEX
  5
267E
  8
图层1
 10
529.8710616317926
 20
703.00282598895444
 30
0.0
  0
VERTEX
  5
267F
  8
图层1
 10
529.87106163179249
 20
699.85282598895435
 30
0.0
  0
VERTEX
  5
2680
  8
图层1
 10
514.7210616317924
 20
699.85282598895435
 30
0.0
  0
VERTEX
  5
2681
  8
图层1
 10
499.57106163179247
 20
699.85282598895435
 30
0.0
  0
SEQEND
  5
2682
  8
图层1
  0
POLYLINE
  5
25F
  8
图层1
 66
     1
 10
0.0
 20
0.0
 30
0.0
 70
     1
  0
VERTEX
  5
2683
  8
图层1
 10
785.7210616317924
 20
543.00282598895456
 30
0.0
  0
VERTEX
  5
2684
  8
图层1
 10
655.72106163179251
 20
543.00282598895456
 30
0.0
 42
-0.4142135623730953
  0
VERTEX
  5
2685
  8
图层1
 10
650.72106163179251
 20
548.00282598895467
 30
0.0
  0
VERTEX
  5
2686
  8
图层1
 10
650.72106163179262
 20
702.00282598895444
 30
0.0
 42
-0.4142135623730951
  0
VERTEX
  5
2687
  8
图层1
 10
655.72106163179262
 20
707.00282598895444
 30
0.0
  0
VERTEX
  5
2688
  8
图层1
 10
785.7210616317924
 20
707.00282598895444
 30
0.0
 42
-0.4142135623730951
  0
VERTEX
  5
2689
  8
图层1
 10
790.72106163179228
 20
702.00282598895444
 30
0.0
  0
VERTEX
  5
268A
  8
图层1
 10
790.72106163179228
 20
548.00282598895456
 30
0.0
 42
-0.4142135623730951
  0
SEQEND
  5
268B
  8
图层1
  0
POLYLINE
  5
267
  8
图层1
 66
     1
 10
0.0
 20
0.0
 30
0.0
 70
     1
  0
VERTEX
  5
268C
  8
图层1
 10
941.87106163179249
 20
703.00282598895444
 30
0.0
  0
VERTEX
  5
268D
  8
图层1
 10
983.72106163179228
 20
703.00282598895444
 30
0.0
  0
VERTEX
  5
268E
  8
图层1
 10
983.72106163179228
 20
700.00282598895444
 30
0.0
 42
0.3865638838729338
  0
VERTEX
  5
268F
  8
图层1
 10
868.72106163179251
 20
550.00282598895456
 30
0.0
  0
VERTEX
  5
2690
  8
图层1
 10
833.72106163179228
 20
550.00282598895456
 30
0.0
  0
VERTEX
  5
2691
  8
图层1
 10
830.72106163179262
 20
550.00282598895456
 30
0.0
  0
VERTEX
  5
2692
  8
图层1
 10
830.72106163179262
 20
570.00282598895444
 30
0.0
  0
VERTEX
  5
2693
  8
图层1
 10
833.72106163179228
 20
570.00282598895444
 30
0.0
  0
VERTEX
  5
2694
  8
图层1
 10
833.72106163179228
 20
616.50282598895444
 30
0.0
  0
VERTEX
  5
2695
  8
图层1
 10
830.72106163179262
 20
616.50282598895444
 30
0.0
  0
VERTEX
  5
2696
  8
图层1
 10
830.72106163179262
 20
636.50282598895444
 30
0.0
  0
VERTEX
  5
2697
  8
图层1
 10
833.72106163179228
 20
636.50282598895444
 30
0.0
  0
VERTEX
  5
2698
  8
图层1
 10
833.72106163179228
 20
683.00282598895444
 30
0.0
  0
VERTEX
  5
2699
  8
图层1
 10
830.72106163179262
 20
683.00282598895444
 30
0.0
  0
VERTEX
  5
269A
  8
图层1
 10
830.72106163179262
 20
703.00282598895444
 30
0.0
  0
VERTEX
  5
269B
  8
图层1
 10
833.72106163179228
 20
703.00282598895444
 30
0.0
  0
VERTEX
  5
269C
  8
图层1
 10
833.72106163179274
 20
703.00282598895444
 30
0.0
  0
VERTEX
  5
269D
  8
图层1
 10
833.72106163179274
 20
699.85282598895435
 30
0.0
  0
VERTEX
  5
269E
  8
图层1
 10
848.72106163179228
 20
699.85282598895435
 30
0.0
  0
VERTEX
  5
269F
  8
图层1
 10
863.8710616317926
 20
699.85282598895435
 30
0.0
  0
VERTEX
  5
26A0
  8
图层1
 10
863.8710616317926
 20
703.00282598895444
 30
0.0
  0
VERTEX
  5
26A1
  8
图层1
 10
911.57106163179242
 20
703.00282598895444
 30
0.0
  0
VERTEX
  5
26A2
  8
图层1
 10
911.57106163179242
 20
699.85282598895435
 30
0.0
  0
VERTEX
  5
26A3
  8
图层1
 10
926.72106163179228
 20
699.85282598895435
 30
0.0
  0
VERTEX
  5
26A4
  8
图层1
 10
941.87106163179249
 20
699.85282598895435
 30
0.0
  0
SEQEND
  5
26A5
  8
图层1
  0
POLYLINE
  5
499
  8
0
 66
     1
 10
0.0
 20
0.0
 30
0.0
 70
     1
  0
VERTEX
  5
26A6
  8
0
 10
656.7210616317924
 20
442.1822026638273
 30
0.0
  0
VERTEX
  5
26A7
  8
0
 10
656.7210616317924
 20
457.18220266382718
 30
0.0
  0
VERTEX
  5
26A8
  8
0
 10
784.7210616317924
 20
457.18220266382718
 30
0.0
  0
VERTEX
  5
26A9
  8
0
 10
784.7210616317924
 20
442.1822026638273
 30
0.0
  0
SEQEND
  5
26AA
  8
0
  0
POLYLINE
  5
632
  8
货号文字
 62
     1
 66
     1
 10
0.0
 20
0.0
 30
0.0
  0
VERTEX
  5
26AE
  8
货号文字
 62
     1
 10
670.42369503926318
 20
991.99142421972294
 30
0.0
  0
VERTEX
  5
26AF
  8
货号文字
 62
     1
 10
670.46600468955239
 20
991.60976446963446
 30
0.0
  0
VERTEX
  5
26B0
  8
货号文字
 62
     1
 10
670.51685017214629
 20
991.22913808329633
 30
0.0
  0
VERTEX
  5
26B1
  8
货号文字
 62
     1
 10
670.57638300016947
 20
990.84979180034645
 30
0.0
  0
VERTEX
  5
26B2
  8
货号文字
 62
     1
 10
670.64475468673561
 20
990.47197236045747
 30
0.0
  0
VERTEX
  5
26B3
  8
货号文字
 62
     1
 10
670.72211674495406
 20
990.09592650329023
 30
0.0
  0
VERTEX
  5
26B4
  8
货号文字
 62
     1
 10
670.80862068795352
 20
989.72190096850431
 30
0.0
  0
VERTEX
  5
26B5
  8
货号文字
 62
     1
 10
670.90441802883925
 20
989.3501424957683
 30
0.0
  0
VERTEX
  5
26B6
  8
货号文字
 62
     1
 10
671.00966028073071
 20
988.98089782472562
 30
0.0
  0
VERTEX
  5
26B7
  8
货号文字
 62
     1
 10
671.16210947398645
 20
988.50126211034558
 30
0.0
  0
VERTEX
  5
26B8
  8
货号文字
 62
     1
 10
671.24457497453909
 20
988.26348195566948
 30
0.0
  0
VERTEX
  5
26B9
  8
货号文字
 62
     1
 10
671.33123329717716
 20
988.02719882941312
 30
0.0
  0
VERTEX
  5
26BA
  8
货号文字
 62
     1
 10
671.42210860649425
 20
987.79251665165202
 30
0.0
  0
VERTEX
  5
26BB
  8
货号文字
 62
     1
 10
671.51722506708666
 20
987.55953934244974
 30
0.0
  0
VERTEX
  5
26BC
  8
货号文字
 62
     1
 10
671.61660684355479
 20
987.32837082186063
 30
0.0
  0
VERTEX
  5
26BD
  8
货号文字
 62
     1
 10
671.72027810049167
 20
987.09911500995156
 30
0.0
  0
VERTEX
  5
26BE
  8
货号文字
 62
     1
 10
671.8805034263396
 20
986.76571865594849
 30
0.0
  0
VERTEX
  5
26BF
  8
货号文字
 62
     1
 10
672.04988713984926
 20
986.4369001052695
 30
0.0
  0
VERTEX
  5
26C0
  8
货号文字
 62
     1
 10
672.22826276342198
 20
986.11287778741439
 30
0.0
  0
VERTEX
  5
26C1
  8
货号文字
 62
     1
 10
672.41546381945125
 20
985.79387013188125
 30
0.0
  0
VERTEX
  5
26C2
  8
货号文字
 62
     1
 10
672.61132383031395
 20
985.48009556818647
 30
0.0
  0
VERTEX
  5
26C3
  8
货号文字
 62
     1
 10
672.81567631841699
 20
985.17177252582769
 30
0.0
  0
VERTEX
  5
26C4
  8
货号文字
 62
     1
 10
673.02835480614226
 20
984.86911943429948
 30
0.0
  0
VERTEX
  5
26C5
  8
货号文字
 62
     1
 10
673.24919281588404
 20
984.57235472311038
 30
0.0
  0
VERTEX
  5
26C6
  8
货号文字
 62
     1
 10
673.48133946256235
 20
984.2775733682131
 30
0.0
  0
VERTEX
  5
26C7
  8
货号文字
 62
     1
 10
673.7214586037561
 20
983.98922069728746
 30
0.0
  0
VERTEX
  5
26C8
  8
货号文字
 62
     1
 10
673.9692995247251
 20
983.70744273493028
 30
0.0
  0
VERTEX
  5
26C9
  8
货号文字
 62
     1
 10
674.22461151073435
 20
983.43238550577576
 30
0.0
  0
VERTEX
  5
26CA
  8
货号文字
 62
     1
 10
674.48714384705715
 20
983.16419503442717
 30
0.0
  0
VERTEX
  5
26CB
  8
货号文字
 62
     1
 10
674.75664581895853
 20
982.90301734549132
 30
0.0
  0
VERTEX
  5
26CC
  8
货号文字
 62
     1
 10
675.0328667117127
 20
982.64899846359992
 30
0.0
  0
VERTEX
  5
26CD
  8
货号文字
 62
     1
 10
675.31555581057808
 20
982.40228441335921
 30
0.0
  0
VERTEX
  5
26CE
  8
货号文字
 62
     1
 10
675.50902256108645
 20
982.24068779801917
 30
0.0
  0
VERTEX
  5
26CF
  8
货号文字
 62
     1
 10
675.70526599893765
 20
982.08252980849124
 30
0.0
  0
VERTEX
  5
26D0
  8
货号文字
 62
     1
 10
675.9042555599616
 20
981.92788494408751
 30
0.0
  0
VERTEX
  5
26D1
  8
货号文字
 62
     1
 10
676.10596067996732
 20
981.77682770409945
 30
0.0
  0
VERTEX
  5
26D2
  8
货号文字
 62
     1
 10
676.31035079478249
 20
981.6294325878423
 30
0.0
  0
VERTEX
  5
26D3
  8
货号文字
 62
     1
 10
676.51739534022909
 20
981.48577409460404
 30
0.0
  0
VERTEX
  5
26D4
  8
货号文字
 62
     1
 10
676.72706375212408
 20
981.34592672370184
 30
0.0
  0
VERTEX
  5
26D5
  8
货号文字
 62
     1
 10
676.93932546629276
 20
981.20996497442809
 30
0.0
  0
VERTEX
  5
26D6
  8
货号文字
 62
     1
 10
677.26168987935205
 20
981.01391011263865
 30
0.0
  0
VERTEX
  5
26D7
  8
货号文字
 62
     1
 10
677.58947772218653
 20
980.82682262270976
 30
0.0
  0
VERTEX
  5
26D8
  8
货号文字
 62
     1
 10
677.92237411487895
 20
980.6488026417444
 30
0.0
  0
VERTEX
  5
26D9
  8
货号文字
 62
     1
 10
678.2600641775233
 20
980.47995030684388
 30
0.0
  0
VERTEX
  5
26DA
  8
货号文字
 62
     1
 10
678.60223303020848
 20
980.32036575510915
 30
0.0
  0
VERTEX
  5
26DB
  8
货号文字
 62
     1
 10
678.94856579301904
 20
980.17014912364925
 30
0.0
  0
VERTEX
  5
26DC
  8
货号文字
 62
     1
 10
679.2987475860491
 20
980.02940054955639
 30
0.0
  0
VERTEX
  5
26DD
  8
货号文字
 62
     1
 10
679.65246352938902
 20
979.89822016994356
 30
0.0
  0
VERTEX
  5
26DE
  8
货号文字
 62
     1
 10
679.96594199511401
 20
979.79090229178541
 30
0.0
  0
VERTEX
  5
26DF
  8
货号文字
 62
     1
 10
680.28174506686162
 20
979.69094088663758
 30
0.0
  0
VERTEX
  5
26E0
  8
货号文字
 62
     1
 10
680.59971183800633
 20
979.59822776707961
 30
0.0
  0
VERTEX
  5
26E1
  8
货号文字
 62
     1
 10
680.91968140193705
 20
979.51265474569414
 30
0.0
  0
VERTEX
  5
26E2
  8
货号文字
 62
     1
 10
681.24149285203112
 20
979.43411363506357
 30
0.0
  0
VERTEX
  5
26E3
  8
货号文字
 62
     1
 10
681.56498528167594
 20
979.36249624777895
 30
0.0
  0
VERTEX
  5
26E4
  8
货号文字
 62
     1
 10
681.88999778423999
 20
979.29769439642439
 30
0.0
  0
VERTEX
  5
26E5
  8
货号文字
 62
     1
 10
682.21636945311832
 20
979.23959989358275
 30
0.0
  0
VERTEX
  5
26E6
  8
货号文字
 62
     1
 10
682.54393938168778
 20
979.18810455184155
 30
0.0
  0
VERTEX
  5
26E7
  8
货号文字
 62
     1
 10
682.87254666332672
 20
979.14310018378114
 30
0.0
  0
VERTEX
  5
26E8
  8
货号文字
 62
     1
 10
683.20203039141882
 20
979.10447860198644
 30
0.0
  0
VERTEX
  5
26E9
  8
货号文字
 62
     1
 10
683.53222965935402
 20
979.07213161904542
 30
0.0
  0
VERTEX
  5
26EA
  8
货号文字
 62
     1
 10
683.86298356049963
 20
979.04595104754162
 30
0.0
  0
VERTEX
  5
26EB
  8
货号文字
 62
     1
 10
684.19413118825355
 20
979.02582870006552
 30
0.0
  0
VERTEX
  5
26EC
  8
货号文字
 62
     1
 10
684.52551163598298
 20
979.01165638918917
 30
0.0
  0
VERTEX
  5
26ED
  8
货号文字
 62
     1
 10
684.85696399707842
 20
979.00332592751124
 30
0.0
  0
VERTEX
  5
26EE
  8
货号文字
 62
     1
 10
685.28899199536045
 20
979.00107643482238
 30
0.0
  0
VERTEX
  5
26EF
  8
货号文字
 62
     1
 10
685.72079665129127
 20
979.00843650823231
 30
0.0
  0
VERTEX
  5
26F0
  8
货号文字
 62
     1
 10
686.15230589545445
 20
979.02526949521564
 30
0.0
  0
VERTEX
  5
26F1
  8
货号文字
 62
     1
 10
686.58344765841935
 20
979.05143874323949
 30
0.0
  0
VERTEX
  5
26F2
  8
货号文字
 62
     1
 10
687.02605047295128
 20
979.08802793204632
 30
0.0
  0
VERTEX
  5
26F3
  8
货号文字
 62
     1
 10
687.46781627722044
 20
979.13483749765783
 30
0.0
  0
VERTEX
  5
26F4
  8
货号文字
 62
     1
 10
687.90837235490369
 20
979.19237034122159
 30
0.0
  0
VERTEX
  5
26F5
  8
货号文字
 62
     1
 10
688.34734598968032
 20
979.26112936384948
 30
0.0
  0
VERTEX
  5
26F6
  8
货号文字
 62
     1
 10
688.76628468374929
 20
979.33798155563125
 30
0.0
  0
VERTEX
  5
26F7
  8
货号文字
 62
     1
 10
689.1830759116101
 20
979.42569858675552
 30
0.0
  0
VERTEX
  5
26F8
  8
货号文字
 62
     1
 10
689.59736859772511
 20
979.52436867540746
 30
0.0
  0
VERTEX
  5
26F9
  8
货号文字
 62
     1
 10
690.00881166655995
 20
979.63408003978395
 30
0.0
  0
VERTEX
  5
26FA
  8
货号文字
 62
     1
 10
690.41705404257914
 20
979.75492089806335
 30
0.0
  0
VERTEX
  5
26FB
  8
货号文字
 62
     1
 10
690.82174465024468
 20
979.88697946842728
 30
0.0
  0
VERTEX
  5
26FC
  8
货号文字
 62
     1
 10
691.2225324140137
 20
980.0303439690656
 30
0.0
  0
VERTEX
  5
26FD
  8
货号文字
 62
     1
 10
691.61906625835491
 20
980.185102618168
 30
0.0
  0
VERTEX
  5
26FE
  8
货号文字
 62
     1
 10
692.00461948553948
 20
980.34848485911425
 30
0.0
  0
VERTEX
  5
26FF
  8
货号文字
 62
     1
 10
692.38540982456004
 20
980.52280168362745
 30
0.0
  0
VERTEX
  5
2700
  8
货号文字
 62
     1
 10
692.76112977605499
 20
980.70787834551038
 30
0.0
  0
VERTEX
  5
2701
  8
货号文字
 62
     1
 10
693.13147184064189
 20
980.90354009857754
 30
0.0
  0
VERTEX
  5
2702
  8
货号文字
 62
     1
 10
693.49612851895915
 20
981.10961219662556
 30
0.0
  0
VERTEX
  5
2703
  8
货号文字
 62
     1
 10
693.85479231163367
 20
981.32591989344633
 30
0.0
  0
VERTEX
  5
2704
  8
货号文字
 62
     1
 10
694.20715571929475
 20
981.55228844287035
 30
0.0
  0
VERTEX
  5
2705
  8
货号文字
 62
     1
 10
694.55291124257826
 20
981.78854309868393
 30
0.0
  0
VERTEX
  5
2706
  8
货号文字
 62
     1
 10
694.89364035962444
 20
982.03588279507369
 30
0.0
  0
VERTEX
  5
2707
  8
货号文字
 62
     1
 10
695.22722707534831
 20
982.29274984195467
 30
0.0
  0
VERTEX
  5
2708
  8
货号文字
 62
     1
 10
695.55352139472154
 20
982.55885206589301
 30
0.0
  0
VERTEX
  5
2709
  8
货号文字
 62
     1
 10
695.87237332271877
 20
982.83389729345845
 30
0.0
  0
VERTEX
  5
270A
  8
货号文字
 62
     1
 10
696.18363286431929
 20
983.11759335121155
 30
0.0
  0
VERTEX
  5
270B
  8
货号文字
 62
     1
 10
696.4871500244908
 20
983.40964806571924
 30
0.0
  0
VERTEX
  5
270C
  8
货号文字
 62
     1
 10
696.78277480821532
 20
983.70976926354763
 30
0.0
  0
VERTEX
  5
270D
  8
货号文字
 62
     1
 10
697.07035722046112
 20
984.0176647712633
 30
0.0
  0
VERTEX
  5
270E
  8
货号文字
 62
     1
 10
697.34204151062545
 20
984.32419916158392
 30
0.0
  0
VERTEX
  5
270F
  8
货号文字
 62
     1
 10
697.60557746256654
 20
984.63771588347663
 30
0.0
  0
VERTEX
  5
2710
  8
货号文字
 62
     1
 10
697.86055958524855
 20
984.95812568069596
 30
0.0
  0
VERTEX
  5
2711
  8
货号文字
 62
     1
 10
698.10658238763858
 20
985.28533929696289
 30
0.0
  0
VERTEX
  5
2712
  8
货号文字
 62
     1
 10
698.34324037871465
 20
985.6192674760423
 30
0.0
  0
VERTEX
  5
2713
  8
货号文字
 62
     1
 10
698.5701280674391
 20
985.95982096166335
 30
0.0
  0
VERTEX
  5
2714
  8
货号文字
 62
     1
 10
698.78683996279051
 20
986.3069104975707
 30
0.0
  0
VERTEX
  5
2715
  8
货号文字
 62
     1
 10
698.99297057373315
 20
986.66044682750373
 30
0.0
  0
VERTEX
  5
2716
  8
货号文字
 62
     1
 10
699.1843242799705
 20
987.01296144309129
 30
0.0
  0
VERTEX
  5
2717
  8
货号文字
 62
     1
 10
699.36498660470443
 20
987.37120368409148
 30
0.0
  0
VERTEX
  5
2718
  8
货号文字
 62
     1
 10
699.53481365181051
 20
987.73479783493315
 30
0.0
  0
VERTEX
  5
2719
  8
货号文字
 62
     1
 10
699.69366152518785
 20
988.10336818005158
 30
0.0
  0
VERTEX
  5
271A
  8
货号文字
 62
     1
 10
699.84138632871225
 20
988.47653900388173
 30
0.0
  0
VERTEX
  5
271B
  8
货号文字
 62
     1
 10
699.97784416626826
 20
988.85393459083343
 30
0.0
  0
VERTEX
  5
271C
  8
货号文字
 62
     1
 10
700.10289114175146
 20
989.2351792253537
 30
0.0
  0
VERTEX
  5
271D
  8
货号文字
 62
     1
 10
700.21638335903765
 20
989.61989719186749
 30
0.0
  0
VERTEX
  5
271E
  8
货号文字
 62
     1
 10
700.31996099914522
 20
990.01471954627061
 30
0.0
  0
VERTEX
  5
271F
  8
货号文字
 62
     1
 10
700.41163667648561
 20
990.4124113746858
 30
0.0
  0
VERTEX
  5
2720
  8
货号文字
 62
     1
 10
700.49163145675527
 20
990.81263216722789
 30
0.0
  0
VERTEX
  5
2721
  8
货号文字
 62
     1
 10
700.56016640564405
 20
991.21504141399703
 30
0.0
  0
VERTEX
  5
2722
  8
货号文字
 62
     1
 10
700.61746258886251
 20
991.61929860509963
 30
0.0
  0
VERTEX
  5
2723
  8
货号文字
 62
     1
 10
700.66374107210413
 20
992.02506323064574
 30
0.0
  0
VERTEX
  5
2724
  8
货号文字
 62
     1
 10
700.69922292106548
 20
992.43199478073029
 30
0.0
  0
VERTEX
  5
2725
  8
货号文字
 62
     1
 10
700.72412920145052
 20
992.83975274547436
 30
0.0
  0
VERTEX
  5
2726
  8
货号文字
 62
     1
 10
700.73900826524812
 20
993.26600405761951
 30
0.0
  0
VERTEX
  5
2727
  8
货号文字
 62
     1
 10
700.74237572389825
 20
993.69244649925542
 30
0.0
  0
VERTEX
  5
2728
  8
货号文字
 62
     1
 10
700.73400734384165
 20
994.11874151849361
 30
0.0
  0
VERTEX
  5
2729
  8
货号文字
 62
     1
 10
700.71367889151509
 20
994.54455056343647
 30
0.0
  0
VERTEX
  5
272A
  8
货号文字
 62
     1
 10
700.68116613337315
 20
994.96953508218564
 30
0.0
  0
VERTEX
  5
272B
  8
货号文字
 62
     1
 10
700.63624483584749
 20
995.39335652283228
 30
0.0
  0
VERTEX
  5
272C
  8
货号文字
 62
     1
 10
700.57869076539168
 20
995.8156763334855
 30
0.0
  0
VERTEX
  5
272D
  8
货号文字
 62
     1
 10
700.50827968844624
 20
996.23615596224863
 30
0.0
  0
VERTEX
  5
272E
  8
货号文字
 62
     1
 10
700.45293633561505
 20
996.52067931073361
 30
0.0
  0
VERTEX
  5
272F
  8
货号文字
 62
     1
 10
700.39126062102412
 20
996.80392549570388
 30
0.0
  0
VERTEX
  5
2730
  8
货号文字
 62
     1
 10
700.32296249963201
 20
997.08562372609845
 30
0.0
  0
VERTEX
  5
2731
  8
货号文字
 62
     1
 10
700.24775192641107
 20
997.36550321085144
 30
0.0
  0
VERTEX
  5
2732
  8
货号文字
 62
     1
 10
700.16540214147858
 20
997.64331392933764
 30
0.0
  0
VERTEX
  5
2733
  8
货号文字
 62
     1
 10
700.07593952552725
 20
997.91888894270573
 30
0.0
  0
VERTEX
  5
2734
  8
货号文字
 62
     1
 10
699.97945374438018
 20
998.19208208254076
 30
0.0
  0
VERTEX
  5
2735
  8
货号文字
 62
     1
 10
699.87603446388016
 20
998.46274718040968
 30
0.0
  0
VERTEX
  5
2736
  8
货号文字
 62
     1
 10
699.76876486871595
 20
998.72367035191712
 30
0.0
  0
VERTEX
  5
2737
  8
货号文字
 62
     1
 10
699.65502171631942
 20
998.98185294870564
 30
0.0
  0
VERTEX
  5
2738
  8
货号文字
 62
     1
 10
699.53481787384669
 20
999.23708894972845
 30
0.0
  0
VERTEX
  5
2739
  8
货号文字
 62
     1
 10
699.40816620848909
 20
999.48917233396458
 30
0.0
  0
VERTEX
  5
273A
  8
货号文字
 62
     1
 10
699.27507958742615
 20
999.73789708037827
 30
0.0
  0
VERTEX
  5
273B
  8
货号文字
 62
     1
 10
699.13557087783101
 20
999.98305716793425
 30
0.0
  0
VERTEX
  5
273C
  8
货号文字
 62
     1
 10
698.98965294688151
 20
1000.22444657559
 30
0.0
  0
VERTEX
  5
273D
  8
货号文字
 62
     1
 10
698.83733866175953
 20
1000.461859282316
 30
0.0
  0
VERTEX
  5
273E
  8
货号文字
 62
     1
 10
698.68065227490001
 20
1000.692295085102
 30
0.0
  0
VERTEX
  5
273F
  8
货号文字
 62
     1
 10
698.51798406422574
 20
1000.918582852295
 30
0.0
  0
VERTEX
  5
2740
  8
货号文字
 62
     1
 10
698.34958106094484
 20
1001.14065594909
 30
0.0
  0
VERTEX
  5
2741
  8
货号文字
 62
     1
 10
698.1756902962652
 20
1001.358447740669
 30
0.0
  0
VERTEX
  5
2742
  8
货号文字
 62
     1
 10
697.99653235365713
 20
1001.571883042144
 30
0.0
  0
VERTEX
  5
2743
  8
货号文字
 62
     1
 10
697.81222202567642
 20
1001.780852468411
 30
0.0
  0
VERTEX
  5
2744
  8
货号文字
 62
     1
 10
697.62284765715333
 20
1001.985238084298
 30
0.0
  0
VERTEX
  5
2745
  8
货号文字
 62
     1
 10
697.42849759291209
 20
1002.184921954622
 30
0.0
  0
VERTEX
  5
2746
  8
货号文字
 62
     1
 10
697.17341782776816
 20
1002.4326733282639
 30
0.0
  0
VERTEX
  5
2747
  8
货号文字
 62
     1
 10
696.91054488222733
 20
1002.672142374059
 30
0.0
  0
VERTEX
  5
2748
  8
货号文字
 62
     1
 10
696.64007254285843
 20
1002.902946271686
 30
0.0
  0
VERTEX
  5
2749
  8
货号文字
 62
     1
 10
696.36231239268716
 20
1003.1249108779421
 30
0.0
  0
VERTEX
  5
274A
  8
货号文字
 62
     1
 10
696.15700420066332
 20
1003.279919047874
 30
0.0
  0
VERTEX
  5
274B
  8
货号文字
 62
     1
 10
695.94818880569335
 20
1003.4301807833371
 30
0.0
  0
VERTEX
  5
274C
  8
货号文字
 62
     1
 10
695.73599523996825
 20
1003.575640351738
 30
0.0
  0
VERTEX
  5
274D
  8
货号文字
 62
     1
 10
695.52055253568756
 20
1003.716242020492
 30
0.0
  0
VERTEX
  5
274E
  8
货号文字
 62
     1
 10
695.30198828905043
 20
1003.851931519508
 30
0.0
  0
VERTEX
  5
274F
  8
货号文字
 62
     1
 10
695.08042435229709
 20
1003.982660428739
 30
0.0
  0
VERTEX
  5
2750
  8
货号文字
 62
     1
 10
694.8559811416917
 20
1004.108381790622
 30
0.0
  0
VERTEX
  5
2751
  8
货号文字
 62
     1
 10
694.62877907349036
 20
1004.229048647612
 30
0.0
  0
VERTEX
  5
2752
  8
货号文字
 62
     1
 10
694.7754490863324
 20
1004.350771018222
 30
0.0
  0
VERTEX
  5
2753
  8
货号文字
 62
     1
 10
694.93491120700025
 20
1004.488084547655
 30
0.0
  0
VERTEX
  5
2754
  8
货号文字
 62
     1
 10
695.09158273427136
 20
1004.628559330583
 30
0.0
  0
VERTEX
  5
2755
  8
货号文字
 62
     1
 10
695.24539870742865
 20
1004.772143518688
 30
0.0
  0
VERTEX
  5
2756
  8
货号文字
 62
     1
 10
695.39629416575804
 20
1004.918785263657
 30
0.0
  0
VERTEX
  5
2757
  8
货号文字
 62
     1
 10
695.5442041485594
 20
1005.068432717171
 30
0.0
  0
VERTEX
  5
2758
  8
货号文字
 62
     1
 10
695.68906369512013
 20
1005.221034030921
 30
0.0
  0
VERTEX
  5
2759
  8
货号文字
 62
     1
 10
695.83080784472713
 20
1005.37653735659
 30
0.0
  0
VERTEX
  5
275A
  8
货号文字
 62
     1
 10
695.96937163667735
 20
1005.534890845865
 30
0.0
  0
VERTEX
  5
275B
  8
货号文字
 62
     1
 10
696.11612581151235
 20
1005.709965146132
 30
0.0
  0
VERTEX
  5
275C
  8
货号文字
 62
     1
 10
696.25898512998265
 20
1005.888245483422
 30
0.0
  0
VERTEX
  5
275D
  8
货号文字
 62
     1
 10
696.39787959808655
 20
1006.069639860582
 30
0.0
  0
VERTEX
  5
275E
  8
货号文字
 62
     1
 10
696.53273922185588
 20
1006.254056280439
 30
0.0
  0
VERTEX
  5
275F
  8
货号文字
 62
     1
 10
696.66349400730451
 20
1006.441402745842
 30
0.0
  0
VERTEX
  5
2760
  8
货号文字
 62
     1
 10
696.79007396044744
 20
1006.631587259625
 30
0.0
  0
VERTEX
  5
2761
  8
货号文字
 62
     1
 10
696.91240908731095
 20
1006.824517824632
 30
0.0
  0
VERTEX
  5
2762
  8
货号文字
 62
     1
 10
697.03042939390855
 20
1007.020102443709
 30
0.0
  0
VERTEX
  5
2763
  8
货号文字
 62
     1
 10
697.14803274887424
 20
1007.225344461141
 30
0.0
  0
VERTEX
  5
2764
  8
货号文字
 62
     1
 10
697.26089162091273
 20
1007.433222793614
 30
0.0
  0
VERTEX
  5
2765
  8
货号文字
 62
     1
 10
697.36896395007795
 20
1007.643626119748
 30
0.0
  0
VERTEX
  5
2766
  8
货号文字
 62
     1
 10
697.47220767644717
 20
1007.85644311818
 30
0.0
  0
VERTEX
  5
2767
  8
货号文字
 62
     1
 10
697.57058074006363
 20
1008.071562467539
 30
0.0
  0
VERTEX
  5
2768
  8
货号文字
 62
     1
 10
697.66404108099323
 20
1008.288872846438
 30
0.0
  0
VERTEX
  5
2769
  8
货号文字
 62
     1
 10
697.75254663929888
 20
1008.50826293351
 30
0.0
  0
VERTEX
  5
276A
  8
货号文字
 62
     1
 10
697.83605535504012
 20
1008.729621407383
 30
0.0
  0
VERTEX
  5
276B
  8
货号文字
 62
     1
 10
697.91371660819163
 20
1008.950458445637
 30
0.0
  0
VERTEX
  5
276C
  8
货号文字
 62
     1
 10
697.98638790399207
 20
1009.172997306563
 30
0.0
  0
VERTEX
  5
276D
  8
货号文字
 62
     1
 10
698.05401185372375
 20
1009.397121936295
 30
0.0
  0
VERTEX
  5
276E
  8
货号文字
 62
     1
 10
698.11653106867482
 20
1009.62271628095
 30
0.0
  0
VERTEX
  5
276F
  8
货号文字
 62
     1
 10
698.1738881601276
 20
1009.849664286657
 30
0.0
  0
VERTEX
  5
2770
  8
货号文字
 62
     1
 10
698.22602573937093
 20
1010.077849899562
 30
0.0
  0
VERTEX
  5
2771
  8
货号文字
 62
     1
 10
698.27288641768484
 20
1010.307157065768
 30
0.0
  0
VERTEX
  5
2772
  8
货号文字
 62
     1
 10
698.31441280636045
 20
1010.537469731414
 30
0.0
  0
VERTEX
  5
2773
  8
货号文字
 62
     1
 10
698.35633045188365
 20
1010.8089425473991
 30
0.0
  0
VERTEX
  5
2774
  8
货号文字
 62
     1
 10
698.39106114030335
 20
1011.081439785286
 30
0.0
  0
VERTEX
  5
2775
  8
货号文字
 62
     1
 10
698.41884703334176
 20
1011.354760312271
 30
0.0
  0
VERTEX
  5
2776
  8
货号文字
 62
     1
 10
698.43993029275305
 20
1011.628702995539
 30
0.0
  0
VERTEX
  5
2777
  8
货号文字
 62
     1
 10
698.45339929263628
 20
1011.876834497285
 30
0.0
  0
VERTEX
  5
2778
  8
货号文字
 62
     1
 10
698.46159110782435
 20
1012.125197830977
 30
0.0
  0
VERTEX
  5
2779
  8
货号文字
 62
     1
 10
698.46451298139516
 20
1012.373680446868
 30
0.0
  0
VERTEX
  5
277A
  8
货号文字
 62
     1
 10
698.46217215642992
 20
1012.62216979524
 30
0.0
  0
VERTEX
  5
277B
  8
货号文字
 62
     1
 10
698.4545758759914
 20
1012.87055332635
 30
0.0
  0
VERTEX
  5
277C
  8
货号文字
 62
     1
 10
698.44173138317535
 20
1013.118718490471
 30
0.0
  0
VERTEX
  5
277D
  8
货号文字
 62
     1
 10
698.42364592104502
 20
1013.366552737855
 30
0.0
  0
VERTEX
  5
277E
  8
货号文字
 62
     1
 10
698.40032673269047
 20
1013.613943518779
 30
0.0
  0
VERTEX
  5
277F
  8
货号文字
 62
     1
 10
698.37629731849381
 20
1013.824608017365
 30
0.0
  0
VERTEX
  5
2780
  8
货号文字
 62
     1
 10
698.34847788846935
 20
1014.0348016799539
 30
0.0
  0
VERTEX
  5
2781
  8
货号文字
 62
     1
 10
698.31688395947003
 20
1014.244458519781
 30
0.0
  0
VERTEX
  5
2782
  8
货号文字
 62
     1
 10
698.2815310483702
 20
1014.453512550128
 30
0.0
  0
VERTEX
  5
2783
  8
货号文字
 62
     1
 10
698.24243467203542
 20
1014.661897784231
 30
0.0
  0
VERTEX
  5
2784
  8
货号文字
 62
     1
 10
698.19961034732921
 20
1014.86954823535
 30
0.0
  0
VERTEX
  5
2785
  8
货号文字
 62
     1
 10
698.15307359111375
 20
1015.076397916735
 30
0.0
  0
VERTEX
  5
2786
  8
货号文字
 62
     1
 10
698.10283992025404
 20
1015.28238084165
 30
0.0
  0
VERTEX
  5
2787
  8
货号文字
 62
     1
 10
698.04892485162316
 20
1015.487431023347
 30
0.0
  0
VERTEX
  5
2788
  8
货号文字
 62
     1
 10
697.99134390207917
 20
1015.6914824750741
 30
0.0
  0
VERTEX
  5
2789
  8
货号文字
 62
     1
 10
697.93011258848935
 20
1015.894469210087
 30
0.0
  0
VERTEX
  5
278A
  8
货号文字
 62
     1
 10
697.86524642771565
 20
1016.0963252416429
 30
0.0
  0
VERTEX
  5
278B
  8
货号文字
 62
     1
 10
697.79676093662692
 20
1016.296984582997
 30
0.0
  0
VERTEX
  5
278C
  8
货号文字
 62
     1
 10
697.72467163209421
 20
1016.496381247408
 30
0.0
  0
VERTEX
  5
278D
  8
货号文字
 62
     1
 10
697.64899403096467
 20
1016.694449248123
 30
0.0
  0
VERTEX
  5
278E
  8
货号文字
 62
     1
 10
697.56974365012059
 20
1016.891122598406
 30
0.0
  0
VERTEX
  5
278F
  8
货号文字
 62
     1
 10
697.47075218052214
 20
1017.1234708430291
 30
0.0
  0
VERTEX
  5
2790
  8
货号文字
 62
     1
 10
697.36696624798708
 20
1017.35373990102
 30
0.0
  0
VERTEX
  5
2791
  8
货号文字
 62
     1
 10
697.25863748010954
 20
1017.581922546058
 30
0.0
  0
VERTEX
  5
2792
  8
货号文字
 62
     1
 10
697.14601750448196
 20
1017.808011551815
 30
0.0
  0
VERTEX
  5
2793
  8
货号文字
 62
     1
 10
697.02712949461306
 20
1018.036014958655
 30
0.0
  0
VERTEX
  5
2794
  8
货号文字
 62
     1
 10
696.90387317544912
 20
1018.261638293523
 30
0.0
  0
VERTEX
  5
2795
  8
货号文字
 62
     1
 10
696.77606785067735
 20
1018.4846793375031
 30
0.0
  0
VERTEX
  5
2796
  8
货号文字
 62
     1
 10
696.64353282397565
 20
1018.704935871699
 30
0.0
  0
VERTEX
  5
2797
  8
货号文字
 62
     1
 10
696.51991785474718
 20
1018.900898266547
 30
0.0
  0
VERTEX
  5
2798
  8
货号文字
 62
     1
 10
696.39237685172611
 20
1019.094358576442
 30
0.0
  0
VERTEX
  5
2799
  8
货号文字
 62
     1
 10
696.26097215313791
 20
1019.285240626626
 30
0.0
  0
VERTEX
  5
279A
  8
货号文字
 62
     1
 10
696.12576609722123
 20
1019.473468242345
 30
0.0
  0
VERTEX
  5
279B
  8
货号文字
 62
     1
 10
695.98682102217845
 20
1019.658965248835
 30
0.0
  0
VERTEX
  5
279C
  8
货号文字
 62
     1
 10
695.84419926624741
 20
1019.841655471337
 30
0.0
  0
VERTEX
  5
279D
  8
货号文字
 62
     1
 10
695.69796316764484
 20
1020.021462735085
 30
0.0
  0
VERTEX
  5
279E
  8
货号文字
 62
     1
 10
695.54817506460574
 20
1020.198310865321
 30
0.0
  0
VERTEX
  5
279F
  8
货号文字
 62
     1
 10
695.37383520033904
 20
1020.395478013495
 30
0.0
  0
VERTEX
  5
27A0
  8
货号文字
 62
     1
 10
695.19510363898269
 20
1020.588655797531
 30
0.0
  0
VERTEX
  5
27A1
  8
货号文字
 62
     1
 10
695.01208969617517
 20
1020.777769829797
 30
0.0
  0
VERTEX
  5
27A2
  8
货号文字
 62
     1
 10
694.82490268758102
 20
1020.962745722656
 30
0.0
  0
VERTEX
  5
27A3
  8
货号文字
 62
     1
 10
694.63365192883703
 20
1021.143509088469
 30
0.0
  0
VERTEX
  5
27A4
  8
货号文字
 62
     1
 10
694.43844673560216
 20
1021.3199855396
 30
0.0
  0
VERTEX
  5
27A5
  8
货号文字
 62
     1
 10
694.23939642352434
 20
1021.492100688405
 30
0.0
  0
VERTEX
  5
27A6
  8
货号文字
 62
     1
 10
694.03661030825697
 20
1021.659780147247
 30
0.0
  0
VERTEX
  5
27A7
  8
货号文字
 62
     1
 10
693.82698440752858
 20
1021.8254575124409
 30
0.0
  0
VERTEX
  5
27A8
  8
货号文字
 62
     1
 10
693.61378305764174
 20
1021.986521545626
 30
0.0
  0
VERTEX
  5
27A9
  8
货号文字
 62
     1
 10
693.3971703847626
 20
1022.143009633939
 30
0.0
  0
VERTEX
  5
27AA
  8
货号文字
 62
     1
 10
693.17731051508144
 20
1022.294959164502
 30
0.0
  0
VERTEX
  5
27AB
  8
货号文字
 62
     1
 10
692.9543675747708
 20
1022.442407524455
 30
0.0
  0
VERTEX
  5
27AC
  8
货号文字
 62
     1
 10
692.72850569001184
 20
1022.585392100912
 30
0.0
  0
VERTEX
  5
27AD
  8
货号文字
 62
     1
 10
692.49988898698825
 20
1022.723950281008
 30
0.0
  0
VERTEX
  5
27AE
  8
货号文字
 62
     1
 10
692.26868159187575
 20
1022.85811945187
 30
0.0
  0
VERTEX
  5
27AF
  8
货号文字
 62
     1
 10
692.02729224658742
 20
1022.9921281812721
 30
0.0
  0
VERTEX
  5
27B0
  8
货号文字
 62
     1
 10
691.78339920637427
 20
1023.1214528453841
 30
0.0
  0
VERTEX
  5
27B1
  8
货号文字
 62
     1
 10
691.53708792664736
 20
1023.246052567783
 30
0.0
  0
VERTEX
  5
27B2
  8
货号文字
 62
     1
 10
691.28844386281435
 20
1023.365886472056
 30
0.0
  0
VERTEX
  5
27B3
  8
货号文字
 62
     1
 10
691.03755247028027
 20
1023.480913681781
 30
0.0
  0
VERTEX
  5
27B4
  8
货号文字
 62
     1
 10
690.78449920445109
 20
1023.59109332053
 30
0.0
  0
VERTEX
  5
27B5
  8
货号文字
 62
     1
 10
690.52936952074265
 20
1023.696384511891
 30
0.0
  0
VERTEX
  5
27B6
  8
货号文字
 62
     1
 10
690.27224887454827
 20
1023.796746379439
 30
0.0
  0
VERTEX
  5
27B7
  8
货号文字
 62
     1
 10
690.01163283575352
 20
1023.892713112094
 30
0.0
  0
VERTEX
  5
27B8
  8
货号文字
 62
     1
 10
689.74919613211125
 20
1023.983641474435
 30
0.0
  0
VERTEX
  5
27B9
  8
货号文字
 62
     1
 10
689.48504703744288
 20
1024.0695244137421
 30
0.0
  0
VERTEX
  5
27BA
  8
货号文字
 62
     1
 10
689.21929382552571
 20
1024.150354877331
 30
0.0
  0
VERTEX
  5
27BB
  8
货号文字
 62
     1
 10
688.95204477017353
 20
1024.226125812472
 30
0.0
  0
VERTEX
  5
27BC
  8
货号文字
 62
     1
 10
688.68340814518615
 20
1024.2968301664689
 30
0.0
  0
VERTEX
  5
27BD
  8
货号文字
 62
     1
 10
688.41349222435122
 20
1024.362460886603
 30
0.0
  0
VERTEX
  5
27BE
  8
货号文字
 62
     1
 10
688.14240528148446
 20
1024.423010920174
 30
0.0
  0
VERTEX
  5
27BF
  8
货号文字
 62
     1
 10
687.63074447739655
 20
1024.522955741769
 30
0.0
  0
VERTEX
  5
27C0
  8
货号文字
 62
     1
 10
687.1159503810859
 20
1024.605107363273
 30
0.0
  0
VERTEX
  5
27C1
  8
货号文字
 62
     1
 10
686.59863432435213
 20
1024.669599380449
 30
0.0
  0
VERTEX
  5
27C2
  8
货号文字
 62
     1
 10
686.07940763899126
 20
1024.716565389034
 30
0.0
  0
VERTEX
  5
27C3
  8
货号文字
 62
     1
 10
685.77773487828995
 20
1024.735849261607
 30
0.0
  0
VERTEX
  5
27C4
  8
货号文字
 62
     1
 10
685.47574487528686
 20
1024.749477687292
 30
0.0
  0
VERTEX
  5
27C5
  8
货号文字
 62
     1
 10
684.87129119632209
 20
1024.7605320962909
 30
0.0
  0
VERTEX
  5
27C6
  8
货号文字
 62
     1
 10
684.49844043090252
 20
1024.757025633784
 30
0.0
  0
VERTEX
  5
27C7
  8
货号文字
 62
     1
 10
684.12578881773788
 20
1024.745602581193
 30
0.0
  0
VERTEX
  5
27C8
  8
货号文字
 62
     1
 10
683.7534726525364
 20
1024.7260820413121
 30
0.0
  0
VERTEX
  5
27C9
  8
货号文字
 62
     1
 10
683.38162823100265
 20
1024.698283116948
 30
0.0
  0
VERTEX
  5
27CA
  8
货号文字
 62
     1
 10
682.99279916408966
 20
1024.660086208858
 30
0.0
  0
VERTEX
  5
27CB
  8
货号文字
 62
     1
 10
682.60496837760832
 20
1024.6123852477681
 30
0.0
  0
VERTEX
  5
27CC
  8
货号文字
 62
     1
 10
682.21846695819568
 20
1024.5549584417231
 30
0.0
  0
VERTEX
  5
27CD
  8
货号文字
 62
     1
 10
681.83362599249165
 20
1024.487583998746
 30
0.0
  0
VERTEX
  5
27CE
  8
货号文字
 62
     1
 10
681.45077656712681
 20
1024.410040126885
 30
0.0
  0
VERTEX
  5
27CF
  8
货号文字
 62
     1
 10
681.07024976875164
 20
1024.3221050341599
 30
0.0
  0
VERTEX
  5
27D0
  8
货号文字
 62
     1
 10
680.69237668399637
 20
1024.2235569286061
 30
0.0
  0
VERTEX
  5
27D1
  8
货号文字
 62
     1
 10
680.31748839948978
 20
1024.114174018265
 30
0.0
  0
VERTEX
  5
27D2
  8
货号文字
 62
     1
 10
679.95772732992816
 20
1023.99779779972
 30
0.0
  0
VERTEX
  5
27D3
  8
货号文字
 62
     1
 10
679.60140448300342
 20
1023.871132477291
 30
0.0
  0
VERTEX
  5
27D4
  8
货号文字
 62
     1
 10
679.24885050702414
 20
1023.734250939886
 30
0.0
  0
VERTEX
  5
27D5
  8
货号文字
 62
     1
 10
678.90039605031495
 20
1023.58722607639
 30
0.0
  0
VERTEX
  5
27D6
  8
货号文字
 62
     1
 10
678.55637176119762
 20
1023.430130775721
 30
0.0
  0
VERTEX
  5
27D7
  8
货号文字
 62
     1
 10
678.21710828798939
 20
1023.26303792676
 30
0.0
  0
VERTEX
  5
27D8
  8
货号文字
 62
     1
 10
677.8829362790101
 20
1023.086020418422
 30
0.0
  0
VERTEX
  5
27D9
  8
货号文字
 62
     1
 10
677.55418638258459
 20
1022.899151139592
 30
0.0
  0
VERTEX
  5
27DA
  8
货号文字
 62
     1
 10
677.23067306423297
 20
1022.702214733315
 30
0.0
  0
VERTEX
  5
27DB
  8
货号文字
 62
     1
 10
676.91317188882465
 20
1022.495705713965
 30
0.0
  0
VERTEX
  5
27DC
  8
货号文字
 62
     1
 10
676.6019242098472
 20
1022.279860996121
 30
0.0
  0
VERTEX
  5
27DD
  8
货号文字
 62
     1
 10
676.29717138080446
 20
1022.054917494327
 30
0.0
  0
VERTEX
  5
27DE
  8
货号文字
 62
     1
 10
675.99915475516991
 20
1021.82111212317
 30
0.0
  0
VERTEX
  5
27DF
  8
货号文字
 62
     1
 10
675.70811568643217
 20
1021.578681797207
 30
0.0
  0
VERTEX
  5
27E0
  8
货号文字
 62
     1
 10
675.42429552808505
 20
1021.327863431006
 30
0.0
  0
VERTEX
  5
27E1
  8
货号文字
 62
     1
 10
675.14793563362105
 20
1021.06889393913
 30
0.0
  0
VERTEX
  5
27E2
  8
货号文字
 62
     1
 10
674.87761900521286
 20
1020.800315372002
 30
0.0
  0
VERTEX
  5
27E3
  8
货号文字
 62
     1
 10
674.61530934155849
 20
1020.523936625262
 30
0.0
  0
VERTEX
  5
27E4
  8
货号文字
 62
     1
 10
674.36121554800695
 20
1020.239970834598
 30
0.0
  0
VERTEX
  5
27E5
  8
货号文字
 62
     1
 10
674.11554652992254
 20
1019.948631135694
 30
0.0
  0
VERTEX
  5
27E6
  8
货号文字
 62
     1
 10
673.87688768971475
 20
1019.648065304826
 30
0.0
  0
VERTEX
  5
27E7
  8
货号文字
 62
     1
 10
673.64711017280115
 20
1019.340601537383
 30
0.0
  0
VERTEX
  5
27E8
  8
货号文字
 62
     1
 10
673.42634175283365
 20
1019.026602088513
 30
0.0
  0
VERTEX
  5
27E9
  8
货号文字
 62
     1
 10
673.21471020348235
 20
1018.70642921337
 30
0.0
  0
VERTEX
  5
27EA
  8
货号文字
 62
     1
 10
673.00630828621161
 20
1018.370461558512
 30
0.0
  0
VERTEX
  5
27EB
  8
货号文字
 62
     1
 10
672.80763834712957
 20
1018.028691674607
 30
0.0
  0
VERTEX
  5
27EC
  8
货号文字
 62
     1
 10
672.61859693348833
 20
1017.681486524905
 30
0.0
  0
VERTEX
  5
27ED
  8
货号文字
 62
     1
 10
672.43908059256046
 20
1017.329213072676
 30
0.0
  0
VERTEX
  5
27EE
  8
货号文字
 62
     1
 10
672.26898587159565
 20
1016.972238281176
 30
0.0
  0
VERTEX
  5
27EF
  8
货号文字
 62
     1
 10
672.10820931786202
 20
1016.610929113682
 30
0.0
  0
VERTEX
  5
27F0
  8
货号文字
 62
     1
 10
671.95664747862872
 20
1016.2456525334341
 30
0.0
  0
VERTEX
  5
27F1
  8
货号文字
 62
     1
 10
671.81419690114558
 20
1015.876775503726
 30
0.0
  0
VERTEX
  5
27F2
  8
货号文字
 62
     1
 10
671.67312615196431
 20
1015.48256514514
 30
0.0
  0
VERTEX
  5
27F3
  8
货号文字
 62
     1
 10
671.54188895683444
 20
1015.0850173804459
 30
0.0
  0
VERTEX
  5
27F4
  8
货号文字
 62
     1
 10
671.42021536639641
 20
1014.68442160544
 30
0.0
  0
VERTEX
  5
27F5
  8
货号文字
 62
     1
 10
671.30783543129019
 20
1014.281067215937
 30
0.0
  0
VERTEX
  5
27F6
  8
货号文字
 62
     1
 10
671.20447920217418
 20
1013.875243607726
 30
0.0
  0
VERTEX
  5
27F7
  8
货号文字
 62
     1
 10
671.10987672968326
 20
1013.467240176623
 30
0.0
  0
VERTEX
  5
27F8
  8
货号文字
 62
     1
 10
671.0237580644598
 20
1013.057346318414
 30
0.0
  0
VERTEX
  5
27F9
  8
货号文字
 62
     1
 10
670.94585325715798
 20
1012.645851428918
 30
0.0
  0
VERTEX
  5
27FA
  8
货号文字
 62
     1
 10
670.67354550628716
 20
1011.126725499367
 30
0.0
  0
VERTEX
  5
27FB
  8
货号文字
 62
     1
 10
678.73597542313735
 20
1009.9173610118449
 30
0.0
  0
VERTEX
  5
27FC
  8
货号文字
 62
     1
 10
678.96482195192675
 20
1011.392148028523
 30
0.0
  0
VERTEX
  5
27FD
  8
货号文字
 62
     1
 10
679.02366132666873
 20
1011.742951935393
 30
0.0
  0
VERTEX
  5
27FE
  8
货号文字
 62
     1
 10
679.09160854408481
 20
1012.092098008575
 30
0.0
  0
VERTEX
  5
27FF
  8
货号文字
 62
     1
 10
679.169427808808
 20
1012.43913018424
 30
0.0
  0
VERTEX
  5
2800
  8
货号文字
 62
     1
 10
679.25788332547654
 20
1012.783592398533
 30
0.0
  0
VERTEX
  5
2801
  8
货号文字
 62
     1
 10
679.34502242340295
 20
1013.083803493163
 30
0.0
  0
VERTEX
  5
2802
  8
货号文字
 62
     1
 10
679.44155374206525
 20
1013.381114062924
 30
0.0
  0
VERTEX
  5
2803
  8
货号文字
 62
     1
 10
679.49352474073635
 20
1013.528505650998
 30
0.0
  0
VERTEX
  5
2804
  8
货号文字
 62
     1
 10
679.54806370247115
 20
1013.674960907886
 30
0.0
  0
VERTEX
  5
2805
  8
货号文字
 62
     1
 10
679.60524392989191
 20
1013.820409433603
 30
0.0
  0
VERTEX
  5
2806
  8
货号文字
 62
     1
 10
679.66513872563053
 20
1013.964780828146
 30
0.0
  0
VERTEX
  5
2807
  8
货号文字
 62
     1
 10
679.72037508782444
 20
1014.091368167651
 30
0.0
  0
VERTEX
  5
2808
  8
货号文字
 62
     1
 10
679.77785995073555
 20
1014.216958956527
 30
0.0
  0
VERTEX
  5
2809
  8
货号文字
 62
     1
 10
679.83766580301835
 20
1014.341452324625
 30
0.0
  0
VERTEX
  5
280A
  8
货号文字
 62
     1
 10
679.89986513333952
 20
1014.464747401814
 30
0.0
  0
VERTEX
  5
280B
  8
货号文字
 62
     1
 10
679.96453043035115
 20
1014.586743317952
 30
0.0
  0
VERTEX
  5
280C
  8
货号文字
 62
     1
 10
680.0317341827149
 20
1014.707339202908
 30
0.0
  0
VERTEX
  5
280D
  8
货号文字
 62
     1
 10
680.10154887908993
 20
1014.826434186544
 30
0.0
  0
VERTEX
  5
280E
  8
货号文字
 62
     1
 10
680.17404700813415
 20
1014.943927398713
 30
0.0
  0
VERTEX
  5
280F
  8
货号文字
 62
     1
 10
680.24425973634527
 20
1015.052155269317
 30
0.0
  0
VERTEX
  5
2810
  8
货号文字
 62
     1
 10
680.31689246816222
 20
1015.158790983687
 30
0.0
  0
VERTEX
  5
2811
  8
货号文字
 62
     1
 10
680.39195976636165
 20
1015.263728496083
 30
0.0
  0
VERTEX
  5
2812
  8
货号文字
 62
     1
 10
680.46947619372531
 20
1015.366861760776
 30
0.0
  0
VERTEX
  5
2813
  8
货号文字
 62
     1
 10
680.54446655677827
 20
1015.46193124915
 30
0.0
  0
VERTEX
  5
2814
  8
货号文字
 62
     1
 10
680.62159806180784
 20
1015.555263891399
 30
0.0
  0
VERTEX
  5
2815
  8
货号文字
 62
     1
 10
680.70084145970645
 20
1015.646805715703
 30
0.0
  0
VERTEX
  5
2816
  8
货号文字
 62
     1
 10
680.78216750135562
 20
1015.7365027502231
 30
0.0
  0
VERTEX
  5
2817
  8
货号文字
 62
     1
 10
680.86361457729345
 20
1015.822316941985
 30
0.0
  0
VERTEX
  5
2818
  8
货号文字
 62
     1
 10
680.94697600823645
 20
1015.906278840223
 30
0.0
  0
VERTEX
  5
2819
  8
货号文字
 62
     1
 10
681.03220558333942
 20
1015.988349074792
 30
0.0
  0
VERTEX
  5
281A
  8
货号文字
 62
     1
 10
681.11925709176012
 20
1016.068488275519
 30
0.0
  0
VERTEX
  5
281B
  8
货号文字
 62
     1
 10
681.20808432265665
 20
1016.146657072258
 30
0.0
  0
VERTEX
  5
281C
  8
货号文字
 62
     1
 10
681.29864106519267
 20
1016.222816094863
 30
0.0
  0
VERTEX
  5
281D
  8
货号文字
 62
     1
 10
681.39088110851935
 20
1016.296925973168
 30
0.0
  0
VERTEX
  5
281E
  8
货号文字
 62
     1
 10
681.48475824179604
 20
1016.368947337028
 30
0.0
  0
VERTEX
  5
281F
  8
货号文字
 62
     1
 10
681.58022625418084
 20
1016.4388408162901
 30
0.0
  0
VERTEX
  5
2820
  8
货号文字
 62
     1
 10
681.67723893483776
 20
1016.506567040791
 30
0.0
  0
VERTEX
  5
2821
  8
货号文字
 62
     1
 10
681.77575007291568
 20
1016.5720866403821
 30
0.0
  0
VERTEX
  5
2822
  8
货号文字
 62
     1
 10
681.87571345757613
 20
1016.635360244909
 30
0.0
  0
VERTEX
  5
2823
  8
货号文字
 62
     1
 10
681.97708287797559
 20
1016.6963484842109
 30
0.0
  0
VERTEX
  5
2824
  8
货号文字
 62
     1
 10
682.07981212327729
 20
1016.755011988145
 30
0.0
  0
VERTEX
  5
2825
  8
货号文字
 62
     1
 10
682.18385498263251
 20
1016.811311386551
 30
0.0
  0
VERTEX
  5
2826
  8
货号文字
 62
     1
 10
682.289165245199
 20
1016.865207309271
 30
0.0
  0
VERTEX
  5
2827
  8
货号文字
 62
     1
 10
682.39577850074511
 20
1016.916707160878
 30
0.0
  0
VERTEX
  5
2828
  8
货号文字
 62
     1
 10
682.50354800432524
 20
1016.965761749084
 30
0.0
  0
VERTEX
  5
2829
  8
货号文字
 62
     1
 10
682.61240686769156
 20
1017.0123725448331
 30
0.0
  0
VERTEX
  5
282A
  8
货号文字
 62
     1
 10
682.72228820261353
 20
1017.056541019087
 30
0.0
  0
VERTEX
  5
282B
  8
货号文字
 62
     1
 10
682.83312512084649
 20
1017.09826864279
 30
0.0
  0
VERTEX
  5
282C
  8
货号文字
 62
     1
 10
682.94485073416672
 20
1017.137556886886
 30
0.0
  0
VERTEX
  5
282D
  8
货号文字
 62
     1
 10
683.05739815432855
 20
1017.174407222338
 30
0.0
  0
VERTEX
  5
282E
  8
货号文字
 62
     1
 10
683.17070049309848
 20
1017.208821120082
 30
0.0
  0
VERTEX
  5
282F
  8
货号文字
 62
     1
 10
683.29181560382949
 20
1017.242720953627
 30
0.0
  0
VERTEX
  5
2830
  8
货号文字
 62
     1
 10
683.41364230122872
 20
1017.273930767771
 30
0.0
  0
VERTEX
  5
2831
  8
货号文字
 62
     1
 10
683.53611575102036
 20
1017.3025083275591
 30
0.0
  0
VERTEX
  5
2832
  8
货号文字
 62
     1
 10
683.65917111894555
 20
1017.328511398053
 30
0.0
  0
VERTEX
  5
2833
  8
货号文字
 62
     1
 10
683.7827435707286
 20
1017.351997744288
 30
0.0
  0
VERTEX
  5
2834
  8
货号文字
 62
     1
 10
683.90676827210427
 20
1017.3730251313279
 30
0.0
  0
VERTEX
  5
2835
  8
货号文字
 62
     1
 10
684.03118038880427
 20
1017.391651324216
 30
0.0
  0
VERTEX
  5
2836
  8
货号文字
 62
     1
 10
684.15591508655689
 20
1017.407934087997
 30
0.0
  0
VERTEX
  5
2837
  8
货号文字
 62
     1
 10
684.31116244523469
 20
1017.424971650309
 30
0.0
  0
VERTEX
  5
2838
  8
货号文字
 62
     1
 10
684.4667396900395
 20
1017.438556796323
 30
0.0
  0
VERTEX
  5
2839
  8
货号文字
 62
     1
 10
684.62257929085445
 20
1017.448761343919
 30
0.0
  0
VERTEX
  5
283A
  8
货号文字
 62
     1
 10
684.77861371755625
 20
1017.455657110994
 30
0.0
  0
VERTEX
  5
283B
  8
货号文字
 62
     1
 10
684.93477544001587
 20
1017.459315915439
 30
0.0
  0
VERTEX
  5
283C
  8
货号文字
 62
     1
 10
685.09099692812094
 20
1017.459809575131
 30
0.0
  0
VERTEX
  5
283D
  8
货号文字
 62
     1
 10
685.24721065174776
 20
1017.457209907976
 30
0.0
  0
VERTEX
  5
283E
  8
货号文字
 62
     1
 10
685.40334908076954
 20
1017.4515887318551
 30
0.0
  0
VERTEX
  5
283F
  8
货号文字
 62
     1
 10
685.65980509185738
 20
1017.435776478611
 30
0.0
  0
VERTEX
  5
2840
  8
货号文字
 62
     1
 10
685.78776157358595
 20
1017.424632074388
 30
0.0
  0
VERTEX
  5
2841
  8
货号文字
 62
     1
 10
685.91546950492625
 20
1017.4111977264851
 30
0.0
  0
VERTEX
  5
2842
  8
货号文字
 62
     1
 10
686.04287823497259
 20
1017.395375115954
 30
0.0
  0
VERTEX
  5
2843
  8
货号文字
 62
     1
 10
686.16993711285158
 20
1017.377065923855
 30
0.0
  0
VERTEX
  5
2844
  8
货号文字
 62
     1
 10
686.29659548765903
 20
1017.356171831207
 30
0.0
  0
VERTEX
  5
2845
  8
货号文字
 62
     1
 10
686.42280270851086
 20
1017.33259451909
 30
0.0
  0
VERTEX
  5
2846
  8
货号文字
 62
     1
 10
686.53856618489851
 20
1017.308435544824
 30
0.0
  0
VERTEX
  5
2847
  8
货号文字
 62
     1
 10
686.65383462042234
 20
1017.2818919345131
 30
0.0
  0
VERTEX
  5
2848
  8
货号文字
 62
     1
 10
686.76853843681511
 20
1017.252937420209
 30
0.0
  0
VERTEX
  5
2849
  8
货号文字
 62
     1
 10
686.88260805579807
 20
1017.221545733951
 30
0.0
  0
VERTEX
  5
284A
  8
货号文字
 62
     1
 10
686.99597389909366
 20
1017.187690607785
 30
0.0
  0
VERTEX
  5
284B
  8
货号文字
 62
     1
 10
687.10856638843961
 20
1017.151345773755
 30
0.0
  0
VERTEX
  5
284C
  8
货号文字
 62
     1
 10
687.22031594554846
 20
1017.112484963901
 30
0.0
  0
VERTEX
  5
284D
  8
货号文字
 62
     1
 10
687.33115299215456
 20
1017.071081910279
 30
0.0
  0
VERTEX
  5
284E
  8
货号文字
 62
     1
 10
687.43595066694138
 20
1017.029202145864
 30
0.0
  0
VERTEX
  5
284F
  8
货号文字
 62
     1
 10
687.53977920001205
 20
1016.984977996848
 30
0.0
  0
VERTEX
  5
2850
  8
货号文字
 62
     1
 10
687.6425628543393
 20
1016.938401649958
 30
0.0
  0
VERTEX
  5
2851
  8
货号文字
 62
     1
 10
687.74422589292476
 20
1016.8894652919359
 30
0.0
  0
VERTEX
  5
2852
  8
货号文字
 62
     1
 10
687.84469257875651
 20
1016.838161109517
 30
0.0
  0
VERTEX
  5
2853
  8
货号文字
 62
     1
 10
687.94388717482161
 20
1016.78448128944
 30
0.0
  0
VERTEX
  5
2854
  8
货号文字
 62
     1
 10
688.04173394411634
 20
1016.728418018435
 30
0.0
  0
VERTEX
  5
2855
  8
货号文字
 62
     1
 10
688.13815714961936
 20
1016.669963483246
 30
0.0
  0
VERTEX
  5
2856
  8
货号文字
 62
     1
 10
688.23358431311419
 20
1016.608800564839
 30
0.0
  0
VERTEX
  5
2857
  8
货号文字
 62
     1
 10
688.32748350400379
 20
1016.545297987924
 30
0.0
  0
VERTEX
  5
2858
  8
货号文字
 62
     1
 10
688.41984178106645
 20
1016.47954034245
 30
0.0
  0
VERTEX
  5
2859
  8
货号文字
 62
     1
 10
688.51064620308227
 20
1016.4116122183869
 30
0.0
  0
VERTEX
  5
285A
  8
货号文字
 62
     1
 10
688.59988382885865
 20
1016.341598205708
 30
0.0
  0
VERTEX
  5
285B
  8
货号文字
 62
     1
 10
688.68754171717285
 20
1016.269582894355
 30
0.0
  0
VERTEX
  5
285C
  8
货号文字
 62
     1
 10
688.77360692681123
 20
1016.195650874307
 30
0.0
  0
VERTEX
  5
285D
  8
货号文字
 62
     1
 10
688.8580665165656
 20
1016.11988673553
 30
0.0
  0
VERTEX
  5
285E
  8
货号文字
 62
     1
 10
688.94026667384151
 20
1016.042964872839
 30
0.0
  0
VERTEX
  5
285F
  8
货号文字
 62
     1
 10
689.02080123828
 20
1015.964327679593
 30
0.0
  0
VERTEX
  5
2860
  8
货号文字
 62
     1
 10
689.09959837385134
 20
1015.883980573304
 30
0.0
  0
VERTEX
  5
2861
  8
货号文字
 62
     1
 10
689.1765862445327
 20
1015.801928971482
 30
0.0
  0
VERTEX
  5
2862
  8
货号文字
 62
     1
 10
689.25169301428741
 20
1015.718178291628
 30
0.0
  0
VERTEX
  5
2863
  8
货号文字
 62
     1
 10
689.32484684708743
 20
1015.63273395125
 30
0.0
  0
VERTEX
  5
2864
  8
货号文字
 62
     1
 10
689.39597590689937
 20
1015.545601367866
 30
0.0
  0
VERTEX
  5
2865
  8
货号文字
 62
     1
 10
689.46500835769518
 20
1015.456785958969
 30
0.0
  0
VERTEX
  5
2866
  8
货号文字
 62
     1
 10
689.52917939871168
 20
1015.370038756826
 30
0.0
  0
VERTEX
  5
2867
  8
货号文字
 62
     1
 10
689.59130372834716
 20
1015.2817938980691
 30
0.0
  0
VERTEX
  5
2868
  8
货号文字
 62
     1
 10
689.65132910571162
 20
1015.192096555487
 30
0.0
  0
VERTEX
  5
2869
  8
货号文字
 62
     1
 10
689.70920328992986
 20
1015.100991901883
 30
0.0
  0
VERTEX
  5
286A
  8
货号文字
 62
     1
 10
689.76487404013722
 20
1015.0085251100541
 30
0.0
  0
VERTEX
  5
286B
  8
货号文字
 62
     1
 10
689.81828911544005
 20
1014.914741352787
 30
0.0
  0
VERTEX
  5
286C
  8
货号文字
 62
     1
 10
689.86939627497213
 20
1014.819685802884
 30
0.0
  0
VERTEX
  5
286D
  8
货号文字
 62
     1
 10
689.9181432778596
 20
1014.723403633142
 30
0.0
  0
VERTEX
  5
286E
  8
货号文字
 62
     1
 10
689.96489189784256
 20
1014.625064038884
 30
0.0
  0
VERTEX
  5
286F
  8
货号文字
 62
     1
 10
690.00918625931695
 20
1014.525592261727
 30
0.0
  0
VERTEX
  5
2870
  8
货号文字
 62
     1
 10
690.05102800098302
 20
1014.425058869339
 30
0.0
  0
VERTEX
  5
2871
  8
货号文字
 62
     1
 10
690.09041876156061
 20
1014.323534429395
 30
0.0
  0
VERTEX
  5
2872
  8
货号文字
 62
     1
 10
690.12736017975021
 20
1014.221089509574
 30
0.0
  0
VERTEX
  5
2873
  8
货号文字
 62
     1
 10
690.16185389424845
 20
1014.117794677538
 30
0.0
  0
VERTEX
  5
2874
  8
货号文字
 62
     1
 10
690.19390154377356
 20
1014.01372050097
 30
0.0
  0
VERTEX
  5
2875
  8
货号文字
 62
     1
 10
690.22350476703207
 20
1013.908937547538
 30
0.0
  0
VERTEX
  5
2876
  8
货号文字
 62
     1
 10
690.25251027346405
 20
1013.79600240283
 30
0.0
  0
VERTEX
  5
2877
  8
货号文字
 62
     1
 10
690.27876733916025
 20
1013.682403905308
 30
0.0
  0
VERTEX
  5
2878
  8
货号文字
 62
     1
 10
690.30232968268422
 20
1013.568210801753
 30
0.0
  0
VERTEX
  5
2879
  8
货号文字
 62
     1
 10
690.32325102260165
 20
1013.453491838963
 30
0.0
  0
VERTEX
  5
287A
  8
货号文字
 62
     1
 10
690.34158507747179
 20
1013.3383157637199
 30
0.0
  0
VERTEX
  5
287B
  8
货号文字
 62
     1
 10
690.35738556586409
 20
1013.222751322822
 30
0.0
  0
VERTEX
  5
287C
  8
货号文字
 62
     1
 10
690.3707062063412
 20
1013.106867263039
 30
0.0
  0
VERTEX
  5
287D
  8
货号文字
 62
     1
 10
690.38160071745824
 20
1012.990732331176
 30
0.0
  0
VERTEX
  5
287E
  8
货号文字
 62
     1
 10
690.39048469806858
 20
1012.8689653326541
 30
0.0
  0
VERTEX
  5
287F
  8
货号文字
 62
     1
 10
690.3969529598935
 20
1012.747048647224
 30
0.0
  0
VERTEX
  5
2880
  8
货号文字
 62
     1
 10
690.40337779659512
 20
1012.502965728428
 30
0.0
  0
VERTEX
  5
2881
  8
货号文字
 62
     1
 10
690.40344561434995
 20
1012.352004895862
 30
0.0
  0
VERTEX
  5
2882
  8
货号文字
 62
     1
 10
690.40052727017701
 20
1012.201091988681
 30
0.0
  0
VERTEX
  5
2883
  8
货号文字
 62
     1
 10
690.39448759210882
 20
1012.050275012309
 30
0.0
  0
VERTEX
  5
2884
  8
货号文字
 62
     1
 10
690.38519140818869
 20
1011.899601972154
 30
0.0
  0
VERTEX
  5
2885
  8
货号文字
 62
     1
 10
690.37303041132225
 20
1011.75465242016
 30
0.0
  0
VERTEX
  5
2886
  8
货号文字
 62
     1
 10
690.35759911503465
 20
1011.609996407693
 30
0.0
  0
VERTEX
  5
2887
  8
货号文字
 62
     1
 10
690.33877448411545
 20
1011.4657493645
 30
0.0
  0
VERTEX
  5
2888
  8
货号文字
 62
     1
 10
690.31643348336274
 20
1011.32202672032
 30
0.0
  0
VERTEX
  5
2889
  8
货号文字
 62
     1
 10
690.29045307756564
 20
1011.178943904874
 30
0.0
  0
VERTEX
  5
288A
  8
货号文字
 62
     1
 10
690.26071023152417
 20
1011.036616347908
 30
0.0
  0
VERTEX
  5
288B
  8
货号文字
 62
     1
 10
690.22708191001482
 20
1010.895159479157
 30
0.0
  0
VERTEX
  5
288C
  8
货号文字
 62
     1
 10
690.18944507785704
 20
1010.7546887283499
 30
0.0
  0
VERTEX
  5
288D
  8
货号文字
 62
     1
 10
690.15767427449919
 20
1010.647347357151
 30
0.0
  0
VERTEX
  5
288E
  8
货号文字
 62
     1
 10
690.12338874540274
 20
1010.540769319272
 30
0.0
  0
VERTEX
  5
288F
  8
货号文字
 62
     1
 10
690.08652030525889
 20
1010.435065654431
 30
0.0
  0
VERTEX
  5
2890
  8
货号文字
 62
     1
 10
690.0470007687718
 20
1010.330347402358
 30
0.0
  0
VERTEX
  5
2891
  8
货号文字
 62
     1
 10
690.00476195064687
 20
1010.226725602748
 30
0.0
  0
VERTEX
  5
2892
  8
货号文字
 62
     1
 10
689.95973566557677
 20
1010.124311295343
 30
0.0
  0
VERTEX
  5
2893
  8
货号文字
 62
     1
 10
689.91185372827294
 20
1010.023215519844
 30
0.0
  0
VERTEX
  5
2894
  8
货号文字
 62
     1
 10
689.86104795342817
 20
1009.92354931597
 30
0.0
  0
VERTEX
  5
2895
  8
货号文字
 62
     1
 10
689.80429497464036
 20
1009.8201753255501
 30
0.0
  0
VERTEX
  5
2896
  8
货号文字
 62
     1
 10
689.74431796065153
 20
1009.718599747882
 30
0.0
  0
VERTEX
  5
2897
  8
货号文字
 62
     1
 10
689.68121601707844
 20
1009.618909889665
 30
0.0
  0
VERTEX
  5
2898
  8
货号文字
 62
     1
 10
689.61508824951557
 20
1009.5211930575909
 30
0.0
  0
VERTEX
  5
2899
  8
货号文字
 62
     1
 10
689.54377036344954
 20
1009.422510410908
 30
0.0
  0
VERTEX
  5
289A
  8
货号文字
 62
     1
 10
689.46940703988628
 20
1009.326118982098
 30
0.0
  0
VERTEX
  5
289B
  8
货号文字
 62
     1
 10
689.39206988534443
 20
1009.232115671928
 30
0.0
  0
VERTEX
  5
289C
  8
货号文字
 62
     1
 10
689.31183050636605
 20
1009.1405973811831
 30
0.0
  0
VERTEX
  5
289D
  8
货号文字
 62
     1
 10
689.22876050947434
 20
1009.051661010637
 30
0.0
  0
VERTEX
  5
289E
  8
货号文字
 62
     1
 10
689.1429315012
 20
1008.965403461047
 30
0.0
  0
VERTEX
  5
289F
  8
货号文字
 62
     1
 10
689.05441508807485
 20
1008.881921633208
 30
0.0
  0
VERTEX
  5
28A0
  8
货号文字
 62
     1
 10
688.9632828766272
 20
1008.801312427888
 30
0.0
  0
VERTEX
  5
28A1
  8
货号文字
 62
     1
 10
688.86691283517848
 20
1008.72140609889
 30
0.0
  0
VERTEX
  5
28A2
  8
货号文字
 62
     1
 10
688.76821244380233
 20
1008.644325274556
 30
0.0
  0
VERTEX
  5
28A3
  8
货号文字
 62
     1
 10
688.6675445450245
 20
1008.569752026052
 30
0.0
  0
VERTEX
  5
28A4
  8
货号文字
 62
     1
 10
688.56527198135052
 20
1008.497368424561
 30
0.0
  0
VERTEX
  5
28A5
  8
货号文字
 62
     1
 10
688.455789694136
 20
1008.422957377846
 30
0.0
  0
VERTEX
  5
28A6
  8
货号文字
 62
     1
 10
688.34498408942363
 20
1008.3505898328669
 30
0.0
  0
VERTEX
  5
28A7
  8
货号文字
 62
     1
 10
688.11965702425437
 20
1008.211798069442
 30
0.0
  0
VERTEX
  5
28A8
  8
货号文字
 62
     1
 10
687.88979897946319
 20
1008.080618776967
 30
0.0
  0
VERTEX
  5
28A9
  8
货号文字
 62
     1
 10
687.65591814861284
 20
1007.956677598131
 30
0.0
  0
VERTEX
  5
28AA
  8
货号文字
 62
     1
 10
687.39222264371074
 20
1007.827299398737
 30
0.0
  0
VERTEX
  5
28AB
  8
货号文字
 62
     1
 10
687.12442776377338
 20
1007.706672201988
 30
0.0
  0
VERTEX
  5
28AC
  8
货号文字
 62
     1
 10
686.85276172974477
 20
1007.595095514487
 30
0.0
  0
VERTEX
  5
28AD
  8
货号文字
 62
     1
 10
686.57745276257731
 20
1007.492868842846
 30
0.0
  0
VERTEX
  5
28AE
  8
货号文字
 62
     1
 10
686.43559111936975
 20
1007.444381178982
 30
0.0
  0
VERTEX
  5
28AF
  8
货号文字
 62
     1
 10
686.29288850029366
 20
1007.398409787947
 30
0.0
  0
VERTEX
  5
28B0
  8
货号文字
 62
     1
 10
686.14939369554213
 20
1007.354956582014
 30
0.0
  0
VERTEX
  5
28B1
  8
货号文字
 62
     1
 10
686.00515549531769
 20
1007.314023473467
 30
0.0
  0
VERTEX
  5
28B2
  8
货号文字
 62
     1
 10
685.71464406922223
 20
1007.2397251976309
 30
0.0
  0
VERTEX
  5
28B3
  8
货号文字
 62
     1
 10
685.42174454356689
 20
1007.175530258662
 30
0.0
  0
VERTEX
  5
28B4
  8
货号文字
 62
     1
 10
685.20054022096406
 20
1007.133959855069
 30
0.0
  0
VERTEX
  5
28B5
  8
货号文字
 62
     1
 10
684.97836624625495
 20
1007.097920418324
 30
0.0
  0
VERTEX
  5
28B6
  8
货号文字
 62
     1
 10
684.75537870480446
 20
1007.067241117177
 30
0.0
  0
VERTEX
  5
28B7
  8
货号文字
 62
     1
 10
684.53173368197611
 20
1007.041751120399
 30
0.0
  0
VERTEX
  5
28B8
  8
货号文字
 62
     1
 10
684.22926365304647
 20
1007.015357449407
 30
0.0
  0
VERTEX
  5
28B9
  8
货号文字
 62
     1
 10
683.92612821564126
 20
1006.998104716101
 30
0.0
  0
VERTEX
  5
28BA
  8
货号文字
 62
     1
 10
683.69331882467554
 20
1006.991362759716
 30
0.0
  0
VERTEX
  5
28BB
  8
货号文字
 62
     1
 10
683.46043149687546
 20
1006.991755507875
 30
0.0
  0
VERTEX
  5
28BC
  8
货号文字
 62
     1
 10
683.38478910179128
 20
1006.993787031059
 30
0.0
  0
VERTEX
  5
28BD
  8
货号文字
 62
     1
 10
683.30920935008635
 20
1006.997274755386
 30
0.0
  0
VERTEX
  5
28BE
  8
货号文字
 62
     1
 10
683.14261244290628
 20
1007.010355155806
 30
0.0
  0
VERTEX
  5
28BF
  8
货号文字
 62
     1
 10
682.84136222853795
 20
1007.0404163003871
 30
0.0
  0
VERTEX
  5
28C0
  8
货号文字
 62
     1
 10
681.37369454245982
 20
1007.205934385348
 30
0.0
  0
VERTEX
  5
28C1
  8
货号文字
 62
     1
 10
681.18549115537348
 20
1005.741002933606
 30
0.0
  0
VERTEX
  5
28C2
  8
货号文字
 62
     1
 10
680.31866035240364
 20
998.99379329910153
 30
0.0
  0
VERTEX
  5
28C3
  8
货号文字
 62
     1
 10
682.46048617764166
 20
999.54258871377556
 30
0.0
  0
VERTEX
  5
28C4
  8
货号文字
 62
     1
 10
683.21836140760286
 20
999.72408877705118
 30
0.0
  0
VERTEX
  5
28C5
  8
货号文字
 62
     1
 10
683.59956477137439
 20
999.80477033237503
 30
0.0
  0
VERTEX
  5
28C6
  8
货号文字
 62
     1
 10
683.98236970545508
 20
999.87775622136758
 30
0.0
  0
VERTEX
  5
28C7
  8
货号文字
 62
     1
 10
684.29292199747488
 20
999.9304515708194
 30
0.0
  0
VERTEX
  5
28C8
  8
货号文字
 62
     1
 10
684.60452292826335
 20
999.97629850391604
 30
0.0
  0
VERTEX
  5
28C9
  8
货号文字
 62
     1
 10
684.91713063931365
 20
1000.013955821887
 30
0.0
  0
VERTEX
  5
28CA
  8
货号文字
 62
     1
 10
685.23070327212827
 20
1000.042082325952
 30
0.0
  0
VERTEX
  5
28CB
  8
货号文字
 62
     1
 10
685.46025468025164
 20
1000.055870740943
 30
0.0
  0
VERTEX
  5
28CC
  8
货号文字
 62
     1
 10
685.69011092341759
 20
1000.06358446602
 30
0.0
  0
VERTEX
  5
28CD
  8
货号文字
 62
     1
 10
685.92008456507097
 20
1000.064946878701
 30
0.0
  0
VERTEX
  5
28CE
  8
货号文字
 62
     1
 10
686.14998816866046
 20
1000.059681356497
 30
0.0
  0
VERTEX
  5
28CF
  8
货号文字
 62
     1
 10
686.31546080025225
 20
1000.051737711511
 30
0.0
  0
VERTEX
  5
28D0
  8
货号文字
 62
     1
 10
686.48077206360244
 20
1000.040778757744
 30
0.0
  0
VERTEX
  5
28D1
  8
货号文字
 62
     1
 10
686.76595476342754
 20
1000.015634782415
 30
0.0
  0
VERTEX
  5
28D2
  8
货号文字
 62
     1
 10
687.05016747729405
 20
999.98155299041036
 30
0.0
  0
VERTEX
  5
28D3
  8
货号文字
 62
     1
 10
687.19173134382345
 20
999.9606874590778
 30
0.0
  0
VERTEX
  5
28D4
  8
货号文字
 62
     1
 10
687.33288595281283
 20
999.93714622797779
 30
0.0
  0
VERTEX
  5
28D5
  8
货号文字
 62
     1
 10
687.47356558639785
 20
999.91089308708956
 30
0.0
  0
VERTEX
  5
28D6
  8
货号文字
 62
     1
 10
687.61370452670155
 20
999.88189182635358
 30
0.0
  0
VERTEX
  5
28D7
  8
货号文字
 62
     1
 10
687.73852523877656
 20
999.85359975320955
 30
0.0
  0
VERTEX
  5
28D8
  8
货号文字
 62
     1
 10
687.86281412537471
 20
999.82307000020455
 30
0.0
  0
VERTEX
  5
28D9
  8
货号文字
 62
     1
 10
687.98652439953833
 20
999.79029193644715
 30
0.0
  0
VERTEX
  5
28DA
  8
货号文字
 62
     1
 10
688.10960927434553
 20
999.75525493102771
 30
0.0
  0
VERTEX
  5
28DB
  8
货号文字
 62
     1
 10
688.23202196284456
 20
999.71794835305741
 30
0.0
  0
VERTEX
  5
28DC
  8
货号文字
 62
     1
 10
688.35371567809557
 20
999.67836157163026
 30
0.0
  0
VERTEX
  5
28DD
  8
货号文字
 62
     1
 10
688.47464363316146
 20
999.6364839558637
 30
0.0
  0
VERTEX
  5
28DE
  8
货号文字
 62
     1
 10
688.59475904110047
 20
999.59230487484865
 30
0.0
  0
VERTEX
  5
28DF
  8
货号文字
 62
     1
 10
688.71578770165343
 20
999.54510148216639
 30
0.0
  0
VERTEX
  5
28E0
  8
货号文字
 62
     1
 10
688.83586311669285
 20
999.49550694407174
 30
0.0
  0
VERTEX
  5
28E1
  8
货号文字
 62
     1
 10
688.9549172558136
 20
999.44351184597372
 30
0.0
  0
VERTEX
  5
28E2
  8
货号文字
 62
     1
 10
689.07288208860791
 20
999.38910677327635
 30
0.0
  0
VERTEX
  5
28E3
  8
货号文字
 62
     1
 10
689.18968958467394
 20
999.33228231140242
 30
0.0
  0
VERTEX
  5
28E4
  8
货号文字
 62
     1
 10
689.30527171360586
 20
999.27302904576413
 30
0.0
  0
VERTEX
  5
28E5
  8
货号文字
 62
     1
 10
689.41956044499693
 20
999.21133756177323
 30
0.0
  0
VERTEX
  5
28E6
  8
货号文字
 62
     1
 10
689.53248774844087
 20
999.1471984448375
 30
0.0
  0
VERTEX
  5
28E7
  8
货号文字
 62
     1
 10
689.67046137720445
 20
999.06432941534445
 30
0.0
  0
VERTEX
  5
28E8
  8
货号文字
 62
     1
 10
689.80620400871248
 20
998.97783601784181
 30
0.0
  0
VERTEX
  5
28E9
  8
货号文字
 62
     1
 10
689.93968004210069
 20
998.88786747682241
 30
0.0
  0
VERTEX
  5
28EA
  8
货号文字
 62
     1
 10
690.07085387650375
 20
998.79457301677246
 30
0.0
  0
VERTEX
  5
28EB
  8
货号文字
 62
     1
 10
690.17500573041866
 20
998.71695639498955
 30
0.0
  0
VERTEX
  5
28EC
  8
货号文字
 62
     1
 10
690.27761121233095
 20
998.63731304326234
 30
0.0
  0
VERTEX
  5
28ED
  8
货号文字
 62
     1
 10
690.37864639048416
 20
998.55568498343951
 30
0.0
  0
VERTEX
  5
28EE
  8
货号文字
 62
     1
 10
690.47808733311899
 20
998.47211423737133
 30
0.0
  0
VERTEX
  5
28EF
  8
货号文字
 62
     1
 10
690.5759101084758
 20
998.38664282690365
 30
0.0
  0
VERTEX
  5
28F0
  8
货号文字
 62
     1
 10
690.67209078480187
 20
998.29931277389301
 30
0.0
  0
VERTEX
  5
28F1
  8
货号文字
 62
     1
 10
690.76660543034166
 20
998.2101661001816
 30
0.0
  0
VERTEX
  5
28F2
  8
货号文字
 62
     1
 10
690.85943011332972
 20
998.11924482761935
 30
0.0
  0
VERTEX
  5
28F3
  8
货号文字
 62
     1
 10
690.96485320677766
 20
998.01169437928945
 30
0.0
  0
VERTEX
  5
28F4
  8
货号文字
 62
     1
 10
691.06785440205113
 20
997.90182871341767
 30
0.0
  0
VERTEX
  5
28F5
  8
货号文字
 62
     1
 10
691.16831399565763
 20
997.78965990274401
 30
0.0
  0
VERTEX
  5
28F6
  8
货号文字
 62
     1
 10
691.26611228411537
 20
997.67520001999526
 30
0.0
  0
VERTEX
  5
28F7
  8
货号文字
 62
     1
 10
691.36112956394277
 20
997.55846113792836
 30
0.0
  0
VERTEX
  5
28F8
  8
货号文字
 62
     1
 10
691.45324613165644
 20
997.43945532927933
 30
0.0
  0
VERTEX
  5
28F9
  8
货号文字
 62
     1
 10
691.54234228376004
 20
997.31819466678144
 30
0.0
  0
VERTEX
  5
28FA
  8
货号文字
 62
     1
 10
691.62829831678482
 20
997.19469122318833
 30
0.0
  0
VERTEX
  5
28FB
  8
货号文字
 62
     1
 10
691.69454544089706
 20
997.09457383911877
 30
0.0
  0
VERTEX
  5
28FC
  8
货号文字
 62
     1
 10
691.75870313371081
 20
996.99308715281268
 30
0.0
  0
VERTEX
  5
28FD
  8
货号文字
 62
     1
 10
691.82075651928869
 20
996.89028148778061
 30
0.0
  0
VERTEX
  5
28FE
  8
货号文字
 62
     1
 10
691.88069072169935
 20
996.78620716753267
 30
0.0
  0
VERTEX
  5
28FF
  8
货号文字
 62
     1
 10
691.93849086501632
 20
996.68091451556734
 30
0.0
  0
VERTEX
  5
2900
  8
货号文字
 62
     1
 10
691.99414207330733
 20
996.5744538554103
 30
0.0
  0
VERTEX
  5
2901
  8
货号文字
 62
     1
 10
692.04762947064671
 20
996.46687551054686
 30
0.0
  0
VERTEX
  5
2902
  8
货号文字
 62
     1
 10
692.09893818109492
 20
996.35822980449473
 30
0.0
  0
VERTEX
  5
2903
  8
货号文字
 62
     1
 10
692.14805332874039
 20
996.24856706075434
 30
0.0
  0
VERTEX
  5
2904
  8
货号文字
 62
     1
 10
692.19496003762742
 20
996.13793760284284
 30
0.0
  0
VERTEX
  5
2905
  8
货号文字
 62
     1
 10
692.23964343184434
 20
996.02639175425054
 30
0.0
  0
VERTEX
  5
2906
  8
货号文字
 62
     1
 10
692.28208863545365
 20
995.91397983849924
 30
0.0
  0
VERTEX
  5
2907
  8
货号文字
 62
     1
 10
692.32228077253149
 20
995.80075217909871
 30
0.0
  0
VERTEX
  5
2908
  8
货号文字
 62
     1
 10
692.36020496713991
 20
995.68675909953345
 30
0.0
  0
VERTEX
  5
2909
  8
货号文字
 62
     1
 10
692.39584634334926
 20
995.57205092333845
 30
0.0
  0
VERTEX
  5
290A
  8
货号文字
 62
     1
 10
692.42919002523286
 20
995.45667797399165
 30
0.0
  0
VERTEX
  5
290B
  8
货号文字
 62
     1
 10
692.46322762514967
 20
995.32899356923781
 30
0.0
  0
VERTEX
  5
290C
  8
货号文字
 62
     1
 10
692.49453103621545
 20
995.20062660021745
 30
0.0
  0
VERTEX
  5
290D
  8
货号文字
 62
     1
 10
692.52316714519031
 20
995.07163874811908
 30
0.0
  0
VERTEX
  5
290E
  8
货号文字
 62
     1
 10
692.54920283886077
 20
994.94209169411863
 30
0.0
  0
VERTEX
  5
290F
  8
货号文字
 62
     1
 10
692.57270500398135
 20
994.81204711939927
 30
0.0
  0
VERTEX
  5
2910
  8
货号文字
 62
     1
 10
692.59374052732801
 20
994.68156670514145
 30
0.0
  0
VERTEX
  5
2911
  8
货号文字
 62
     1
 10
692.61237629566926
 20
994.55071213253541
 30
0.0
  0
VERTEX
  5
2912
  8
货号文字
 62
     1
 10
692.62867919577639
 20
994.41954508275194
 30
0.0
  0
VERTEX
  5
2913
  8
货号文字
 62
     1
 10
692.64407589206803
 20
994.27409648934724
 30
0.0
  0
VERTEX
  5
2914
  8
货号文字
 62
     1
 10
692.65675238756467
 20
994.12838709097048
 30
0.0
  0
VERTEX
  5
2915
  8
货号文字
 62
     1
 10
692.66676344014468
 20
993.98246321157944
 30
0.0
  0
VERTEX
  5
2916
  8
货号文字
 62
     1
 10
692.67416380768805
 20
993.83637117515025
 30
0.0
  0
VERTEX
  5
2917
  8
货号文字
 62
     1
 10
692.68135151917795
 20
993.54386792706634
 30
0.0
  0
VERTEX
  5
2918
  8
货号文字
 62
     1
 10
692.67875358508809
 20
993.2512479384875
 30
0.0
  0
VERTEX
  5
2919
  8
货号文字
 62
     1
 10
692.66664686025865
 20
992.95884513591784
 30
0.0
  0
VERTEX
  5
291A
  8
货号文字
 62
     1
 10
692.64467456022521
 20
992.66708784135335
 30
0.0
  0
VERTEX
  5
291B
  8
货号文字
 62
     1
 10
692.62982774962518
 20
992.52157363051435
 30
0.0
  0
VERTEX
  5
291C
  8
货号文字
 62
     1
 10
692.6123212613719
 20
992.37636764178342
 30
0.0
  0
VERTEX
  5
291D
  8
货号文字
 62
     1
 10
692.59209066749725
 20
992.23151882354239
 30
0.0
  0
VERTEX
  5
291E
  8
货号文字
 62
     1
 10
692.56907154005876
 20
992.08707612416936
 30
0.0
  0
VERTEX
  5
291F
  8
货号文字
 62
     1
 10
692.54452841834495
 20
991.95007353424035
 30
0.0
  0
VERTEX
  5
2920
  8
货号文字
 62
     1
 10
692.51738103174011
 20
991.81354709205164
 30
0.0
  0
VERTEX
  5
2921
  8
货号文字
 62
     1
 10
692.48760770298281
 20
991.67756100462805
 30
0.0
  0
VERTEX
  5
2922
  8
货号文字
 62
     1
 10
692.45518675484072
 20
991.54217947898735
 30
0.0
  0
VERTEX
  5
2923
  8
货号文字
 62
     1
 10
692.42009651003968
 20
991.40746672217028
 30
0.0
  0
VERTEX
  5
2924
  8
货号文字
 62
     1
 10
692.38231529134191
 20
991.27348694118325
 30
0.0
  0
VERTEX
  5
2925
  8
货号文字
 62
     1
 10
692.3418214214862
 20
991.14030434305437
 30
0.0
  0
VERTEX
  5
2926
  8
货号文字
 62
     1
 10
692.29859322323045
 20
991.00798313480789
 30
0.0
  0
VERTEX
  5
2927
  8
货号文字
 62
     1
 10
692.25392681483845
 20
990.88021844793525
 30
0.0
  0
VERTEX
  5
2928
  8
货号文字
 62
     1
 10
692.20666653886735
 20
990.75338849702905
 30
0.0
  0
VERTEX
  5
2929
  8
货号文字
 62
     1
 10
692.15682379450561
 20
990.62755304639359
 30
0.0
  0
VERTEX
  5
292A
  8
货号文字
 62
     1
 10
692.1044099809742
 20
990.50277186034145
 30
0.0
  0
VERTEX
  5
292B
  8
货号文字
 62
     1
 10
692.04943649745178
 20
990.37910470315535
 30
0.0
  0
VERTEX
  5
292C
  8
货号文字
 62
     1
 10
691.99191474315285
 20
990.25661133915162
 30
0.0
  0
VERTEX
  5
292D
  8
货号文字
 62
     1
 10
691.93185611726847
 20
990.13535153261125
 30
0.0
  0
VERTEX
  5
292E
  8
货号文字
 62
     1
 10
691.86927201900176
 20
990.01538504785992
 30
0.0
  0
VERTEX
  5
292F
  8
货号文字
 62
     1
 10
691.80335718325728
 20
989.8953007134553
 30
0.0
  0
VERTEX
  5
2930
  8
货号文字
 62
     1
 10
691.7349259747798
 20
989.77663167701246
 30
0.0
  0
VERTEX
  5
2931
  8
货号文字
 62
     1
 10
691.66403897065436
 20
989.65940630991611
 30
0.0
  0
VERTEX
  5
2932
  8
货号文字
 62
     1
 10
691.59075674793075
 20
989.54365298355333
 30
0.0
  0
VERTEX
  5
2933
  8
货号文字
 62
     1
 10
691.51513988366696
 20
989.42940006931838
 30
0.0
  0
VERTEX
  5
2934
  8
货号文字
 62
     1
 10
691.43724895494324
 20
989.3166759386113
 30
0.0
  0
VERTEX
  5
2935
  8
货号文字
 62
     1
 10
691.35714453881235
 20
989.20550896280724
 30
0.0
  0
VERTEX
  5
2936
  8
货号文字
 62
     1
 10
691.27488721233829
 20
989.09592751331525
 30
0.0
  0
VERTEX
  5
2937
  8
货号文字
 62
     1
 10
691.18798658514879
 20
988.98475987540451
 30
0.0
  0
VERTEX
  5
2938
  8
货号文字
 62
     1
 10
691.09892304444202
 20
988.87532030475438
 30
0.0
  0
VERTEX
  5
2939
  8
货号文字
 62
     1
 10
691.00775278345714
 20
988.76762518565454
 30
0.0
  0
VERTEX
  5
293A
  8
货号文字
 62
     1
 10
690.91453199543594
 20
988.66169090235712
 30
0.0
  0
VERTEX
  5
293B
  8
货号文字
 62
     1
 10
690.81931687360793
 20
988.55753383915362
 30
0.0
  0
VERTEX
  5
293C
  8
货号文字
 62
     1
 10
690.72216361121991
 20
988.45517038031539
 30
0.0
  0
VERTEX
  5
293D
  8
货号文字
 62
     1
 10
690.62312840150548
 20
988.35461691012131
 30
0.0
  0
VERTEX
  5
293E
  8
货号文字
 62
     1
 10
690.52226743770825
 20
988.25588981283988
 30
0.0
  0
VERTEX
  5
293F
  8
货号文字
 62
     1
 10
690.41950841325047
 20
988.15890535356391
 30
0.0
  0
VERTEX
  5
2940
  8
货号文字
 62
     1
 10
690.31497821443452
 20
988.0638484731976
 30
0.0
  0
VERTEX
  5
2941
  8
货号文字
 62
     1
 10
690.20867931694636
 20
987.97079973514008
 30
0.0
  0
VERTEX
  5
2942
  8
货号文字
 62
     1
 10
690.10061419646149
 20
987.87983970277821
 30
0.0
  0
VERTEX
  5
2943
  8
货号文字
 62
     1
 10
689.99078532864837
 20
987.79104893951671
 30
0.0
  0
VERTEX
  5
2944
  8
货号文字
 62
     1
 10
689.87919518918636
 20
987.70450800873255
 30
0.0
  0
VERTEX
  5
2945
  8
货号文字
 62
     1
 10
689.76584625374653
 20
987.62029747382985
 30
0.0
  0
VERTEX
  5
2946
  8
货号文字
 62
     1
 10
689.65074099801211
 20
987.53849789819844
 30
0.0
  0
VERTEX
  5
2947
  8
货号文字
 62
     1
 10
689.53712174188968
 20
987.46132637645849
 30
0.0
  0
VERTEX
  5
2948
  8
货号文字
 62
     1
 10
689.42189619060525
 20
987.3865453517833
 30
0.0
  0
VERTEX
  5
2949
  8
货号文字
 62
     1
 10
689.3051169206783
 20
987.31418871773315
 30
0.0
  0
VERTEX
  5
294A
  8
货号文字
 62
     1
 10
689.18683650864011
 20
987.24429036785568
 30
0.0
  0
VERTEX
  5
294B
  8
货号文字
 62
     1
 10
689.06710753100094
 20
987.17688419571823
 30
0.0
  0
VERTEX
  5
294C
  8
货号文字
 62
     1
 10
688.94598256428515
 20
987.11200409486275
 30
0.0
  0
VERTEX
  5
294D
  8
货号文字
 62
     1
 10
688.82351418501912
 20
987.04968395884862
 30
0.0
  0
VERTEX
  5
294E
  8
货号文字
 62
     1
 10
688.69975496971426
 20
986.9899576812436
 30
0.0
  0
VERTEX
  5
294F
  8
货号文字
 62
     1
 10
688.57334586784327
 20
986.93222372411606
 30
0.0
  0
VERTEX
  5
2950
  8
货号文字
 62
     1
 10
688.44574235192431
 20
986.87716713898863
 30
0.0
  0
VERTEX
  5
2951
  8
货号文字
 62
     1
 10
688.31701631453961
 20
986.82477802615756
 30
0.0
  0
VERTEX
  5
2952
  8
货号文字
 62
     1
 10
688.18723964826563
 20
986.7750464859655
 30
0.0
  0
VERTEX
  5
2953
  8
货号文字
 62
     1
 10
688.05648424568699
 20
986.72796261871554
 30
0.0
  0
VERTEX
  5
2954
  8
货号文字
 62
     1
 10
687.9248219993741
 20
986.68351652475644
 30
0.0
  0
VERTEX
  5
2955
  8
货号文字
 62
     1
 10
687.79232480191513
 20
986.64169830438971
 30
0.0
  0
VERTEX
  5
2956
  8
货号文字
 62
     1
 10
687.65906454587707
 20
986.60249805794001
 30
0.0
  0
VERTEX
  5
2957
  8
货号文字
 62
     1
 10
687.51360021505457
 20
986.56288530350741
 30
0.0
  0
VERTEX
  5
2958
  8
货号文字
 62
     1
 10
687.36737772112508
 20
986.52629628022964
 30
0.0
  0
VERTEX
  5
2959
  8
货号文字
 62
     1
 10
687.22045358146795
 20
986.4926805703376
 30
0.0
  0
VERTEX
  5
295A
  8
货号文字
 62
     1
 10
687.07288431347934
 20
986.46198775602534
 30
0.0
  0
VERTEX
  5
295B
  8
货号文字
 62
     1
 10
686.92472643455119
 20
986.43416741952069
 30
0.0
  0
VERTEX
  5
295C
  8
货号文字
 62
     1
 10
686.77603646206535
 20
986.40916914302386
 30
0.0
  0
VERTEX
  5
295D
  8
货号文字
 62
     1
 10
686.6268709134082
 20
986.38694250875017
 30
0.0
  0
VERTEX
  5
295E
  8
货号文字
 62
     1
 10
686.47728630597055
 20
986.36743709891925
 30
0.0
  0
VERTEX
  5
295F
  8
货号文字
 62
     1
 10
686.32733915713754
 20
986.35060249572723
 30
0.0
  0
VERTEX
  5
2960
  8
货号文字
 62
     1
 10
686.17708598430249
 20
986.33638828140295
 30
0.0
  0
VERTEX
  5
2961
  8
货号文字
 62
     1
 10
685.87588763617055
 20
986.31561934817125
 30
0.0
  0
VERTEX
  5
2962
  8
货号文字
 62
     1
 10
685.57414340067658
 20
986.30472695692345
 30
0.0
  0
VERTEX
  5
2963
  8
货号文字
 62
     1
 10
685.27230541691722
 20
986.30330776535845
 30
0.0
  0
VERTEX
  5
2964
  8
货号文字
 62
     1
 10
685.0087251448158
 20
986.30965373169943
 30
0.0
  0
VERTEX
  5
2965
  8
货号文字
 62
     1
 10
684.74559287208922
 20
986.32352240869648
 30
0.0
  0
VERTEX
  5
2966
  8
货号文字
 62
     1
 10
684.48308276846626
 20
986.34550665415134
 30
0.0
  0
VERTEX
  5
2967
  8
货号文字
 62
     1
 10
684.22136900369048
 20
986.37619932586745
 30
0.0
  0
VERTEX
  5
2968
  8
货号文字
 62
     1
 10
684.0115030536225
 20
986.40759918521871
 30
0.0
  0
VERTEX
  5
2969
  8
货号文字
 62
     1
 10
683.80256312316737
 20
986.44518860377946
 30
0.0
  0
VERTEX
  5
296A
  8
货号文字
 62
     1
 10
683.59484681177935
 20
986.48913440740421
 30
0.0
  0
VERTEX
  5
296B
  8
货号文字
 62
     1
 10
683.38865171891575
 20
986.53960342195955
 30
0.0
  0
VERTEX
  5
296C
  8
货号文字
 62
     1
 10
683.18427544403028
 20
986.59676247330981
 30
0.0
  0
VERTEX
  5
296D
  8
货号文字
 62
     1
 10
682.98201558658798
 20
986.66077838731951
 30
0.0
  0
VERTEX
  5
296E
  8
货号文字
 62
     1
 10
682.88177231423754
 20
986.69540980089732
 30
0.0
  0
VERTEX
  5
296F
  8
货号文字
 62
     1
 10
682.78216974604481
 20
986.73181798984342
 30
0.0
  0
VERTEX
  5
2970
  8
货号文字
 62
     1
 10
682.68324508193564
 20
986.7700238073835
 30
0.0
  0
VERTEX
  5
2971
  8
货号文字
 62
     1
 10
682.58503552185618
 20
986.8100481067537
 30
0.0
  0
VERTEX
  5
2972
  8
货号文字
 62
     1
 10
682.45457334274647
 20
986.86657484382158
 30
0.0
  0
VERTEX
  5
2973
  8
货号文字
 62
     1
 10
682.32555108306678
 20
986.92637047282062
 30
0.0
  0
VERTEX
  5
2974
  8
货号文字
 62
     1
 10
682.19805684219045
 20
986.98939877206806
 30
0.0
  0
VERTEX
  5
2975
  8
货号文字
 62
     1
 10
682.07217871949695
 20
987.05562351990352
 30
0.0
  0
VERTEX
  5
2976
  8
货号文字
 62
     1
 10
681.94800481435118
 20
987.12500849463595
 30
0.0
  0
VERTEX
  5
2977
  8
货号文字
 62
     1
 10
681.82562322613444
 20
987.19751747460384
 30
0.0
  0
VERTEX
  5
2978
  8
货号文字
 62
     1
 10
681.70512205421892
 20
987.27311423812944
 30
0.0
  0
VERTEX
  5
2979
  8
货号文字
 62
     1
 10
681.58658939798158
 20
987.35176256354555
 30
0.0
  0
VERTEX
  5
297A
  8
货号文字
 62
     1
 10
681.46272211880114
 20
987.43876478410641
 30
0.0
  0
VERTEX
  5
297B
  8
货号文字
 62
     1
 10
681.34130985663353
 20
987.52914629612383
 30
0.0
  0
VERTEX
  5
297C
  8
货号文字
 62
     1
 10
681.22247887923106
 20
987.62287205671441
 30
0.0
  0
VERTEX
  5
297D
  8
货号文字
 62
     1
 10
681.10635545431705
 20
987.71990702301923
 30
0.0
  0
VERTEX
  5
297E
  8
货号文字
 62
     1
 10
681.00226913694405
 20
987.8118271996068
 30
0.0
  0
VERTEX
  5
297F
  8
货号文字
 62
     1
 10
680.90060347815324
 20
987.90641448250472
 30
0.0
  0
VERTEX
  5
2980
  8
货号文字
 62
     1
 10
680.80139257794599
 20
988.00357857607753
 30
0.0
  0
VERTEX
  5
2981
  8
货号文字
 62
     1
 10
680.70467053632728
 20
988.10322918467364
 30
0.0
  0
VERTEX
  5
2982
  8
货号文字
 62
     1
 10
680.61047145329849
 20
988.20527601266383
 30
0.0
  0
VERTEX
  5
2983
  8
货号文字
 62
     1
 10
680.51882942885925
 20
988.30962876441345
 30
0.0
  0
VERTEX
  5
2984
  8
货号文字
 62
     1
 10
680.42977856301241
 20
988.41619714427861
 30
0.0
  0
VERTEX
  5
2985
  8
货号文字
 62
     1
 10
680.34335295576693
 20
988.52489085661193
 30
0.0
  0
VERTEX
  5
2986
  8
货号文字
 62
     1
 10
680.26527205269565
 20
988.62789782900802
 30
0.0
  0
VERTEX
  5
2987
  8
货号文字
 62
     1
 10
680.18941857872835
 20
988.73256060025597
 30
0.0
  0
VERTEX
  5
2988
  8
货号文字
 62
     1
 10
680.11571547553717
 20
988.83877149254749
 30
0.0
  0
VERTEX
  5
2989
  8
货号文字
 62
     1
 10
680.04408568480812
 20
988.94642282809525
 30
0.0
  0
VERTEX
  5
298A
  8
货号文字
 62
     1
 10
679.97445214819982
 20
989.05540692909187
 30
0.0
  0
VERTEX
  5
298B
  8
货号文字
 62
     1
 10
679.90673780739132
 20
989.16561611773
 30
0.0
  0
VERTEX
  5
298C
  8
货号文字
 62
     1
 10
679.77675847989576
 20
989.38927904671664
 30
0.0
  0
VERTEX
  5
298D
  8
货号文字
 62
     1
 10
679.63644462182936
 20
989.64956202035842
 30
0.0
  0
VERTEX
  5
298E
  8
货号文字
 62
     1
 10
679.50454717660705
 20
989.91412212984483
 30
0.0
  0
VERTEX
  5
298F
  8
货号文字
 62
     1
 10
679.38065279439877
 20
990.18251801185943
 30
0.0
  0
VERTEX
  5
2990
  8
货号文字
 62
     1
 10
679.26434812536252
 20
990.45430830312239
 30
0.0
  0
VERTEX
  5
2991
  8
货号文字
 62
     1
 10
679.14032689843134
 20
990.76816277040484
 30
0.0
  0
VERTEX
  5
2992
  8
货号文字
 62
     1
 10
679.02498635564075
 20
991.08537453718645
 30
0.0
  0
VERTEX
  5
2993
  8
货号文字
 62
     1
 10
678.91765656176631
 20
991.40545315902432
 30
0.0
  0
VERTEX
  5
2994
  8
货号文字
 62
     1
 10
678.81766758159472
 20
991.72790819147826
 30
0.0
  0
VERTEX
  5
2995
  8
货号文字
 62
     1
 10
678.71265883121396
 20
992.09497326732514
 30
0.0
  0
VERTEX
  5
2996
  8
货号文字
 62
     1
 10
678.61573847427167
 20
992.46420782293774
 30
0.0
  0
VERTEX
  5
2997
  8
货号文字
 62
     1
 10
678.52645974506129
 20
992.83536830935134
 30
0.0
  0
VERTEX
  5
2998
  8
货号文字
 62
     1
 10
678.44437587787695
 20
993.20821117761454
 30
0.0
  0
VERTEX
  5
2999
  8
货号文字
 62
     1
 10
678.15300979086624
 20
994.59251476326733
 30
0.0
  0
VERTEX
  5
299A
  8
货号文字
 62
     1
 10
676.75402636185845
 20
994.38266724891764
 30
0.0
  0
VERTEX
  5
299B
  8
货号文字
 62
     1
 10
671.693785398008
 20
993.62363110434114
 30
0.0
  0
VERTEX
  5
299C
  8
货号文字
 62
     1
 10
670.28208547160557
 20
993.41187611538226
 30
0.0
  0
VERTEX
  5
299D
  8
货号文字
 62
     1
 10
670.42369503926318
 20
991.99142421972294
 30
0.0
  0
SEQEND
  5
299E
  8
货号文字
 62
     1
  0
POLYLINE
  5
633
  8
货号文字
 62
     1
 66
     1
 10
0.0
 20
0.0
 30
0.0
  0
VERTEX
  5
299F
  8
货号文字
 62
     1
 10
708.18002256284581
 20
985.65093379005305
 30
0.0
  0
VERTEX
  5
29A0
  8
货号文字
 62
     1
 10
716.74628762309385
 20
985.65093379005305
 30
0.0
  0
VERTEX
  5
29A1
  8
货号文字
 62
     1
 10
716.74628762309385
 20
994.21719885029154
 30
0.0
  0
VERTEX
  5
29A2
  8
货号文字
 62
     1
 10
708.18002256284581
 20
994.21719885029154
 30
0.0
  0
VERTEX
  5
29A3
  8
货号文字
 62
     1
 10
708.18002256284581
 20
985.65093379005305
 30
0.0
  0
SEQEND
  5
29A4
  8
货号文字
 62
     1
  0
POLYLINE
  5
634
  8
货号文字
 62
     1
 66
     1
 10
0.0
 20
0.0
 30
0.0
  0
VERTEX
  5
29A5
  8
货号文字
 62
     1
 10
726.54199405862778
 20
1002.338456359471
 30
0.0
  0
VERTEX
  5
29A6
  8
货号文字
 62
     1
 10
726.56013433916155
 20
1000.77248279984
 30
0.0
  0
VERTEX
  5
29A7
  8
货号文字
 62
     1
 10
726.61803538853076
 20
999.20760434856561
 30
0.0
  0
VERTEX
  5
29A8
  8
货号文字
 62
     1
 10
726.72091751838593
 20
997.64524464700389
 30
0.0
  0
VERTEX
  5
29A9
  8
货号文字
 62
     1
 10
726.87400104039716
 20
996.08682733655598
 30
0.0
  0
VERTEX
  5
29AA
  8
货号文字
 62
     1
 10
727.03346105571006
 20
994.86448585732785
 30
0.0
  0
VERTEX
  5
29AB
  8
货号文字
 62
     1
 10
727.23153756755812
 20
993.64791365174256
 30
0.0
  0
VERTEX
  5
29AC
  8
货号文字
 62
     1
 10
727.34640007332462
 20
993.04255554967165
 30
0.0
  0
VERTEX
  5
29AD
  8
货号文字
 62
     1
 10
727.47252837959502
 20
992.43955719374173
 30
0.0
  0
VERTEX
  5
29AE
  8
货号文字
 62
     1
 10
727.61045971182341
 20
991.83922439319736
 30
0.0
  0
VERTEX
  5
29AF
  8
货号文字
 62
     1
 10
727.76073129547069
 20
991.24186295727873
 30
0.0
  0
VERTEX
  5
29B0
  8
货号文字
 62
     1
 10
727.97852069688145
 20
990.46017405185773
 30
0.0
  0
VERTEX
  5
29B1
  8
货号文字
 62
     1
 10
728.22051628495581
 20
989.6856392088016
 30
0.0
  0
VERTEX
  5
29B2
  8
货号文字
 62
     1
 10
728.35117334507868
 20
989.30151324023427
 30
0.0
  0
VERTEX
  5
29B3
  8
货号文字
 62
     1
 10
728.48858028717655
 20
988.91972620273555
 30
0.0
  0
VERTEX
  5
29B4
  8
货号文字
 62
     1
 10
728.63296988967954
 20
988.54046156813843
 30
0.0
  0
VERTEX
  5
29B5
  8
货号文字
 62
     1
 10
728.78457493101894
 20
988.16390280825931
 30
0.0
  0
VERTEX
  5
29B6
  8
货号文字
 62
     1
 10
729.00662256246414
 20
987.64781936506029
 30
0.0
  0
VERTEX
  5
29B7
  8
货号文字
 62
     1
 10
729.24338763724245
 20
987.13822793875761
 30
0.0
  0
VERTEX
  5
29B8
  8
货号文字
 62
     1
 10
729.49533137883645
 20
986.6360902081783
 30
0.0
  0
VERTEX
  5
29B9
  8
货号文字
 62
     1
 10
729.76291501072478
 20
986.14236785214723
 30
0.0
  0
VERTEX
  5
29BA
  8
货号文字
 62
     1
 10
730.04659975636855
 20
985.65802254948755
 30
0.0
  0
VERTEX
  5
29BB
  8
货号文字
 62
     1
 10
730.19462417918726
 20
985.41966681779525
 30
0.0
  0
VERTEX
  5
29BC
  8
货号文字
 62
     1
 10
730.34684683924831
 20
985.18401597900402
 30
0.0
  0
VERTEX
  5
29BD
  8
货号文字
 62
     1
 10
730.50332538948453
 20
984.95119024296775
 30
0.0
  0
VERTEX
  5
29BE
  8
货号文字
 62
     1
 10
730.66411748284122
 20
984.72130981952682
 30
0.0
  0
VERTEX
  5
29BF
  8
货号文字
 62
     1
 10
730.82928077223994
 20
984.49449491855046
 30
0.0
  0
VERTEX
  5
29C0
  8
货号文字
 62
     1
 10
730.998872910616
 20
984.27086574986174
 30
0.0
  0
VERTEX
  5
29C1
  8
货号文字
 62
     1
 10
731.02563509299114
 20
984.2372932868318
 30
0.0
  0
VERTEX
  5
29C2
  8
货号文字
 62
     1
 10
731.29474350034684
 20
983.91926148918742
 30
0.0
  0
VERTEX
  5
29C3
  8
货号文字
 62
     1
 10
731.5733858996017
 20
983.6094576953891
 30
0.0
  0
VERTEX
  5
29C4
  8
货号文字
 62
     1
 10
731.86141556246093
 20
983.30836703101318
 30
0.0
  0
VERTEX
  5
29C5
  8
货号文字
 62
     1
 10
732.1586857606535
 20
983.01647462162543
 30
0.0
  0
VERTEX
  5
29C6
  8
货号文字
 62
     1
 10
732.46504976589222
 20
982.73426559279972
 30
0.0
  0
VERTEX
  5
29C7
  8
货号文字
 62
     1
 10
732.78036084989878
 20
982.46222507010543
 30
0.0
  0
VERTEX
  5
29C8
  8
货号文字
 62
     1
 10
733.10447228438625
 20
982.20083817910961
 30
0.0
  0
VERTEX
  5
29C9
  8
货号文字
 62
     1
 10
733.43723734106504
 20
981.95059004538757
 30
0.0
  0
VERTEX
  5
29CA
  8
货号文字
 62
     1
 10
733.61463957980504
 20
981.82431734966792
 30
0.0
  0
VERTEX
  5
29CB
  8
货号文字
 62
     1
 10
733.79430012016815
 20
981.70124541971973
 30
0.0
  0
VERTEX
  5
29CC
  8
货号文字
 62
     1
 10
733.97615098974245
 20
981.58139638324235
 30
0.0
  0
VERTEX
  5
29CD
  8
货号文字
 62
     1
 10
734.16012421611845
 20
981.4647923679471
 30
0.0
  0
VERTEX
  5
29CE
  8
货号文字
 62
     1
 10
734.34615182687503
 20
981.35145550152265
 30
0.0
  0
VERTEX
  5
29CF
  8
货号文字
 62
     1
 10
734.53416584960632
 20
981.2414079116736
 30
0.0
  0
VERTEX
  5
29D0
  8
货号文字
 62
     1
 10
734.72409831189259
 20
981.1346717261066
 30
0.0
  0
VERTEX
  5
29D1
  8
货号文字
 62
     1
 10
734.9158812413325
 20
981.03126907253125
 30
0.0
  0
VERTEX
  5
29D2
  8
货号文字
 62
     1
 10
735.3047266119911
 20
980.83455287211655
 30
0.0
  0
VERTEX
  5
29D3
  8
货号文字
 62
     1
 10
735.70015818228683
 20
980.65143633205139
 30
0.0
  0
VERTEX
  5
29D4
  8
货号文字
 62
     1
 10
736.10163217291745
 20
980.48209647393753
 30
0.0
  0
VERTEX
  5
29D5
  8
货号文字
 62
     1
 10
736.50860480456754
 20
980.32671031941254
 30
0.0
  0
VERTEX
  5
29D6
  8
货号文字
 62
     1
 10
736.91171703246175
 20
980.18824009358161
 30
0.0
  0
VERTEX
  5
29D7
  8
货号文字
 62
     1
 10
737.31911039925092
 20
980.06301920262729
 30
0.0
  0
VERTEX
  5
29D8
  8
货号文字
 62
     1
 10
737.73032002962191
 20
979.95076186655535
 30
0.0
  0
VERTEX
  5
29D9
  8
货号文字
 62
     1
 10
738.14488104824068
 20
979.85118230537955
 30
0.0
  0
VERTEX
  5
29DA
  8
货号文字
 62
     1
 10
738.56232857979637
 20
979.76399473908134
 30
0.0
  0
VERTEX
  5
29DB
  8
货号文字
 62
     1
 10
738.98219774896745
 20
979.68891338766639
 30
0.0
  0
VERTEX
  5
29DC
  8
货号文字
 62
     1
 10
739.40402368042919
 20
979.62565247114173
 30
0.0
  0
VERTEX
  5
29DD
  8
货号文字
 62
     1
 10
739.8273414988588
 20
979.57392620950316
 30
0.0
  0
VERTEX
  5
29DE
  8
货号文字
 62
     1
 10
740.2897656517589
 20
979.53034306715062
 30
0.0
  0
VERTEX
  5
29DF
  8
货号文字
 62
     1
 10
740.75313963697477
 20
979.49961808521755
 30
0.0
  0
VERTEX
  5
29E0
  8
货号文字
 62
     1
 10
741.21719415632356
 20
979.48125626816955
 30
0.0
  0
VERTEX
  5
29E1
  8
货号文字
 62
     1
 10
741.68165991159822
 20
979.47476262044245
 30
0.0
  0
VERTEX
  5
29E2
  8
货号文字
 62
     1
 10
742.31786802396061
 20
979.48464605891149
 30
0.0
  0
VERTEX
  5
29E3
  8
货号文字
 62
     1
 10
742.63575330989181
 20
979.49798121262234
 30
0.0
  0
VERTEX
  5
29E4
  8
货号文字
 62
     1
 10
742.95332282976506
 20
979.51712233582475
 30
0.0
  0
VERTEX
  5
29E5
  8
货号文字
 62
     1
 10
743.27044914414842
 20
979.54222718841152
 30
0.0
  0
VERTEX
  5
29E6
  8
货号文字
 62
     1
 10
743.58700481361745
 20
979.57345353025426
 30
0.0
  0
VERTEX
  5
29E7
  8
货号文字
 62
     1
 10
743.90286239873706
 20
979.61095912124654
 30
0.0
  0
VERTEX
  5
29E8
  8
货号文字
 62
     1
 10
744.21789446010257
 20
979.65490172127807
 30
0.0
  0
VERTEX
  5
29E9
  8
货号文字
 62
     1
 10
744.53466212401236
 20
979.70589740205469
 30
0.0
  0
VERTEX
  5
29EA
  8
货号文字
 62
     1
 10
744.85025874271253
 20
979.76372767025748
 30
0.0
  0
VERTEX
  5
29EB
  8
货号文字
 62
     1
 10
745.16448271891295
 20
979.82851826563433
 30
0.0
  0
VERTEX
  5
29EC
  8
货号文字
 62
     1
 10
745.47713245530304
 20
979.90039492794392
 30
0.0
  0
VERTEX
  5
29ED
  8
货号文字
 62
     1
 10
745.78800635458981
 20
979.97948339692334
 30
0.0
  0
VERTEX
  5
29EE
  8
货号文字
 62
     1
 10
746.09690281946575
 20
980.06590941231627
 30
0.0
  0
VERTEX
  5
29EF
  8
货号文字
 62
     1
 10
746.4036202526338
 20
980.15979871386628
 30
0.0
  0
VERTEX
  5
29F0
  8
货号文字
 62
     1
 10
746.70795705680302
 20
980.26127704132148
 30
0.0
  0
VERTEX
  5
29F1
  8
货号文字
 62
     1
 10
746.9997033044084
 20
980.36669044451264
 30
0.0
  0
VERTEX
  5
29F2
  8
货号文字
 62
     1
 10
747.28879938664852
 20
980.4793063860875
 30
0.0
  0
VERTEX
  5
29F3
  8
货号文字
 62
     1
 10
747.57500834373695
 20
980.59911761205115
 30
0.0
  0
VERTEX
  5
29F4
  8
货号文字
 62
     1
 10
747.85809321588636
 20
980.72611686842674
 30
0.0
  0
VERTEX
  5
29F5
  8
货号文字
 62
     1
 10
748.13781704330995
 20
980.86029690121359
 30
0.0
  0
VERTEX
  5
29F6
  8
货号文字
 62
     1
 10
748.41394286623006
 20
981.00165045644258
 30
0.0
  0
VERTEX
  5
29F7
  8
货号文字
 62
     1
 10
748.68623372485365
 20
981.15017028011061
 30
0.0
  0
VERTEX
  5
29F8
  8
货号文字
 62
     1
 10
748.9544526593919
 20
981.30584911824235
 30
0.0
  0
VERTEX
  5
29F9
  8
货号文字
 62
     1
 10
749.25632382157255
 20
981.49285331083036
 30
0.0
  0
VERTEX
  5
29FA
  8
货号文字
 62
     1
 10
749.55239557800724
 20
981.6889230190335
 30
0.0
  0
VERTEX
  5
29FB
  8
货号文字
 62
     1
 10
749.84251876704445
 20
981.89374564718105
 30
0.0
  0
VERTEX
  5
29FC
  8
货号文字
 62
     1
 10
750.126544227046
 20
982.10700859959229
 30
0.0
  0
VERTEX
  5
29FD
  8
货号文字
 62
     1
 10
750.40432279636934
 20
982.32839928060343
 30
0.0
  0
VERTEX
  5
29FE
  8
货号文字
 62
     1
 10
750.67570531337253
 20
982.55760509450954
 30
0.0
  0
VERTEX
  5
29FF
  8
货号文字
 62
     1
 10
750.94054261641134
 20
982.79431344565444
 30
0.0
  0
VERTEX
  5
2A00
  8
货号文字
 62
     1
 10
751.19868554384175
 20
983.03821173835433
 30
0.0
  0
VERTEX
  5
2A01
  8
货号文字
 62
     1
 10
751.37986038942563
 20
983.21762347370759
 30
0.0
  0
VERTEX
  5
2A02
  8
货号文字
 62
     1
 10
751.55751013144902
 20
983.40047889164293
 30
0.0
  0
VERTEX
  5
2A03
  8
货号文字
 62
     1
 10
751.73163887481417
 20
983.58667503120182
 30
0.0
  0
VERTEX
  5
2A04
  8
货号文字
 62
     1
 10
751.9022507244307
 20
983.77610893140832
 30
0.0
  0
VERTEX
  5
2A05
  8
货号文字
 62
     1
 10
752.0693497851961
 20
983.96867763130422
 30
0.0
  0
VERTEX
  5
2A06
  8
货号文字
 62
     1
 10
752.23294016202181
 20
984.16427816991029
 30
0.0
  0
VERTEX
  5
2A07
  8
货号文字
 62
     1
 10
752.39302595981189
 20
984.36280758626754
 30
0.0
  0
VERTEX
  5
2A08
  8
货号文字
 62
     1
 10
752.5496112834669
 20
984.5641629193982
 30
0.0
  0
VERTEX
  5
2A09
  8
货号文字
 62
     1
 10
752.85229692800465
 20
984.97493949213276
 30
0.0
  0
VERTEX
  5
2A0A
  8
货号文字
 62
     1
 10
753.14102993487813
 20
985.39578420035878
 30
0.0
  0
VERTEX
  5
2A0B
  8
货号文字
 62
     1
 10
753.41584314331783
 20
985.82587335634685
 30
0.0
  0
VERTEX
  5
2A0C
  8
货号文字
 62
     1
 10
753.67676939257092
 20
986.26438327232552
 30
0.0
  0
VERTEX
  5
2A0D
  8
货号文字
 62
     1
 10
753.84305828460572
 20
986.56103203867849
 30
0.0
  0
VERTEX
  5
2A0E
  8
货号文字
 62
     1
 10
754.00333510585278
 20
986.86088401603445
 30
0.0
  0
VERTEX
  5
2A0F
  8
货号文字
 62
     1
 10
754.15774623222853
 20
987.16376535754375
 30
0.0
  0
VERTEX
  5
2A10
  8
货号文字
 62
     1
 10
754.3064380396454
 20
987.46950221634552
 30
0.0
  0
VERTEX
  5
2A11
  8
货号文字
 62
     1
 10
754.4495569040256
 20
987.77792074560955
 30
0.0
  0
VERTEX
  5
2A12
  8
货号文字
 62
     1
 10
754.58724920128668
 20
988.08884709845563
 30
0.0
  0
VERTEX
  5
2A13
  8
货号文字
 62
     1
 10
754.8469395981308
 20
988.71752788752974
 30
0.0
  0
VERTEX
  5
2A14
  8
货号文字
 62
     1
 10
755.00345703181915
 20
989.12657648437937
 30
0.0
  0
VERTEX
  5
2A15
  8
货号文字
 62
     1
 10
755.15179159326067
 20
989.53868047355024
 30
0.0
  0
VERTEX
  5
2A16
  8
货号文字
 62
     1
 10
755.29202875932674
 20
989.95360231877055
 30
0.0
  0
VERTEX
  5
2A17
  8
货号文字
 62
     1
 10
755.42425400685988
 20
990.37110448379144
 30
0.0
  0
VERTEX
  5
2A18
  8
货号文字
 62
     1
 10
755.63929059732504
 20
991.11631718229751
 30
0.0
  0
VERTEX
  5
2A19
  8
货号文字
 62
     1
 10
755.83121562617168
 20
991.86782961787821
 30
0.0
  0
VERTEX
  5
2A1A
  8
货号文字
 62
     1
 10
756.00178983534624
 20
992.62459013008413
 30
0.0
  0
VERTEX
  5
2A1B
  8
货号文字
 62
     1
 10
756.15277396679721
 20
993.38554705847844
 30
0.0
  0
VERTEX
  5
2A1C
  8
货号文字
 62
     1
 10
756.29943794968949
 20
994.23408808139527
 30
0.0
  0
VERTEX
  5
2A1D
  8
货号文字
 62
     1
 10
756.42568768254853
 20
995.08588872757764
 30
0.0
  0
VERTEX
  5
2A1E
  8
货号文字
 62
     1
 10
756.53308182693843
 20
995.9403330165535
 30
0.0
  0
VERTEX
  5
2A1F
  8
货号文字
 62
     1
 10
756.62317904442443
 20
996.79680496786557
 30
0.0
  0
VERTEX
  5
2A20
  8
货号文字
 62
     1
 10
756.70002747122544
 20
997.68818224562165
 30
0.0
  0
VERTEX
  5
2A21
  8
货号文字
 62
     1
 10
756.76097965556869
 20
998.58077941962347
 30
0.0
  0
VERTEX
  5
2A22
  8
货号文字
 62
     1
 10
756.83956210007375
 20
1000.368417942278
 30
0.0
  0
VERTEX
  5
2A23
  8
货号文字
 62
     1
 10
756.8643982568326
 20
1001.670089879144
 30
0.0
  0
VERTEX
  5
2A24
  8
货号文字
 62
     1
 10
756.86519916117766
 20
1002.97203214583
 30
0.0
  0
VERTEX
  5
2A25
  8
货号文字
 62
     1
 10
756.83000217543031
 20
1004.740170608647
 30
0.0
  0
VERTEX
  5
2A26
  8
货号文字
 62
     1
 10
756.74649757239501
 20
1006.5065559132501
 30
0.0
  0
VERTEX
  5
2A27
  8
货号文字
 62
     1
 10
756.63520657429854
 20
1007.950977087151
 30
0.0
  0
VERTEX
  5
2A28
  8
货号文字
 62
     1
 10
756.56242970833296
 20
1008.671663912674
 30
0.0
  0
VERTEX
  5
2A29
  8
货号文字
 62
     1
 10
756.4767769154704
 20
1009.390965083913
 30
0.0
  0
VERTEX
  5
2A2A
  8
货号文字
 62
     1
 10
756.38285933207476
 20
1010.068311495928
 30
0.0
  0
VERTEX
  5
2A2B
  8
货号文字
 62
     1
 10
756.27394290160294
 20
1010.7433737121989
 30
0.0
  0
VERTEX
  5
2A2C
  8
货号文字
 62
     1
 10
756.16417425894053
 20
1011.333672255308
 30
0.0
  0
VERTEX
  5
2A2D
  8
货号文字
 62
     1
 10
756.04071302796285
 20
1011.92123284385
 30
0.0
  0
VERTEX
  5
2A2E
  8
货号文字
 62
     1
 10
755.9034017858894
 20
1012.505697643724
 30
0.0
  0
VERTEX
  5
2A2F
  8
货号文字
 62
     1
 10
755.75208310994174
 20
1013.08670882083
 30
0.0
  0
VERTEX
  5
2A30
  8
货号文字
 62
     1
 10
755.60558835898053
 20
1013.601601809619
 30
0.0
  0
VERTEX
  5
2A31
  8
货号文字
 62
     1
 10
755.28614090302381
 20
1014.623454161212
 30
0.0
  0
VERTEX
  5
2A32
  8
货号文字
 62
     1
 10
755.1131337891884
 20
1015.129965048763
 30
0.0
  0
VERTEX
  5
2A33
  8
货号文字
 62
     1
 10
754.94149076533085
 20
1015.599872170822
 30
0.0
  0
VERTEX
  5
2A34
  8
货号文字
 62
     1
 10
754.75994453962176
 20
1016.0660829492419
 30
0.0
  0
VERTEX
  5
2A35
  8
货号文字
 62
     1
 10
754.56852116930611
 20
1016.528330660317
 30
0.0
  0
VERTEX
  5
2A36
  8
货号文字
 62
     1
 10
754.36724671160221
 20
1016.986348580356
 30
0.0
  0
VERTEX
  5
2A37
  8
货号文字
 62
     1
 10
754.1724553452832
 20
1017.405354205775
 30
0.0
  0
VERTEX
  5
2A38
  8
货号文字
 62
     1
 10
753.96840316851103
 20
1017.819921897566
 30
0.0
  0
VERTEX
  5
2A39
  8
货号文字
 62
     1
 10
753.7544305196742
 20
1018.229522310762
 30
0.0
  0
VERTEX
  5
2A3A
  8
货号文字
 62
     1
 10
753.53075244037882
 20
1018.633915193795
 30
0.0
  0
VERTEX
  5
2A3B
  8
货号文字
 62
     1
 10
753.36311070306238
 20
1018.922856706134
 30
0.0
  0
VERTEX
  5
2A3C
  8
货号文字
 62
     1
 10
753.18995464207796
 20
1019.20851430674
 30
0.0
  0
VERTEX
  5
2A3D
  8
货号文字
 62
     1
 10
753.01065119584291
 20
1019.4903968868809
 30
0.0
  0
VERTEX
  5
2A3E
  8
货号文字
 62
     1
 10
752.82470968254972
 20
1019.7679469612031
 30
0.0
  0
VERTEX
  5
2A3F
  8
货号文字
 62
     1
 10
752.56581964141765
 20
1020.130514003203
 30
0.0
  0
VERTEX
  5
2A40
  8
货号文字
 62
     1
 10
752.43169817773469
 20
1020.308371214086
 30
0.0
  0
VERTEX
  5
2A41
  8
货号文字
 62
     1
 10
752.29448821956692
 20
1020.483862265233
 30
0.0
  0
VERTEX
  5
2A42
  8
货号文字
 62
     1
 10
752.15421007101122
 20
1020.656921243813
 30
0.0
  0
VERTEX
  5
2A43
  8
货号文字
 62
     1
 10
752.01087784985521
 20
1020.827464444615
 30
0.0
  0
VERTEX
  5
2A44
  8
货号文字
 62
     1
 10
751.86450412727493
 20
1020.995403714356
 30
0.0
  0
VERTEX
  5
2A45
  8
货号文字
 62
     1
 10
751.71510147446747
 20
1021.160650899744
 30
0.0
  0
VERTEX
  5
2A46
  8
货号文字
 62
     1
 10
751.50878753215602
 20
1021.379170893656
 30
0.0
  0
VERTEX
  5
2A47
  8
货号文字
 62
     1
 10
751.29711143928853
 20
1021.592495153929
 30
0.0
  0
VERTEX
  5
2A48
  8
货号文字
 62
     1
 10
751.08020069459315
 20
1021.800487864988
 30
0.0
  0
VERTEX
  5
2A49
  8
货号文字
 62
     1
 10
750.85818279678165
 20
1022.003013211231
 30
0.0
  0
VERTEX
  5
2A4A
  8
货号文字
 62
     1
 10
750.63118524459674
 20
1022.199935377111
 30
0.0
  0
VERTEX
  5
2A4B
  8
货号文字
 62
     1
 10
750.39933553675189
 20
1022.39111854702
 30
0.0
  0
VERTEX
  5
2A4C
  8
货号文字
 62
     1
 10
750.16276117197674
 20
1022.576426905398
 30
0.0
  0
VERTEX
  5
2A4D
  8
货号文字
 62
     1
 10
749.92158964898681
 20
1022.755724636654
 30
0.0
  0
VERTEX
  5
2A4E
  8
货号文字
 62
     1
 10
749.73320134761082
 20
1022.889364046899
 30
0.0
  0
VERTEX
  5
2A4F
  8
货号文字
 62
     1
 10
749.54227921149027
 20
1023.019373827706
 30
0.0
  0
VERTEX
  5
2A50
  8
货号文字
 62
     1
 10
749.34892948678055
 20
1023.145754851176
 30
0.0
  0
VERTEX
  5
2A51
  8
货号文字
 62
     1
 10
749.15325841958395
 20
1023.268507989421
 30
0.0
  0
VERTEX
  5
2A52
  8
货号文字
 62
     1
 10
748.95536496485033
 20
1023.3876259844779
 30
0.0
  0
VERTEX
  5
2A53
  8
货号文字
 62
     1
 10
748.75531891276387
 20
1023.503069058007
 30
0.0
  0
VERTEX
  5
2A54
  8
货号文字
 62
     1
 10
748.55318276232435
 20
1023.614789301589
 30
0.0
  0
VERTEX
  5
2A55
  8
货号文字
 62
     1
 10
748.3490190125259
 20
1023.722738806817
 30
0.0
  0
VERTEX
  5
2A56
  8
货号文字
 62
     1
 10
748.09111742824905
 20
1023.852291910347
 30
0.0
  0
VERTEX
  5
2A57
  8
货号文字
 62
     1
 10
747.83030194454363
 20
1023.97589518672
 30
0.0
  0
VERTEX
  5
2A58
  8
货号文字
 62
     1
 10
747.56672786160095
 20
1024.0935629770479
 30
0.0
  0
VERTEX
  5
2A59
  8
货号文字
 62
     1
 10
747.30055047960832
 20
1024.205309622464
 30
0.0
  0
VERTEX
  5
2A5A
  8
货号文字
 62
     1
 10
747.03192678261701
 20
1024.311139633274
 30
0.0
  0
VERTEX
  5
2A5B
  8
货号文字
 62
     1
 10
746.76102049017834
 20
1024.411018196593
 30
0.0
  0
VERTEX
  5
2A5C
  8
货号文字
 62
     1
 10
746.48799700567815
 20
1024.5049006687129
 30
0.0
  0
VERTEX
  5
2A5D
  8
货号文字
 62
     1
 10
746.2130217325348
 20
1024.592742405935
 30
0.0
  0
VERTEX
  5
2A5E
  8
货号文字
 62
     1
 10
745.98020773666872
 20
1024.6619694121389
 30
0.0
  0
VERTEX
  5
2A5F
  8
货号文字
 62
     1
 10
745.74620493647581
 20
1024.726940042623
 30
0.0
  0
VERTEX
  5
2A60
  8
货号文字
 62
     1
 10
745.51108980744243
 20
1024.7877081379211
 30
0.0
  0
VERTEX
  5
2A61
  8
货号文字
 62
     1
 10
745.2749388250603
 20
1024.844327538523
 30
0.0
  0
VERTEX
  5
2A62
  8
货号文字
 62
     1
 10
744.79983520217775
 20
1024.9453356177639
 30
0.0
  0
VERTEX
  5
2A63
  8
货号文字
 62
     1
 10
744.32150587170793
 20
1025.030395004467
 30
0.0
  0
VERTEX
  5
2A64
  8
货号文字
 62
     1
 10
743.8405626375453
 20
1025.0999364227921
 30
0.0
  0
VERTEX
  5
2A65
  8
货号文字
 62
     1
 10
743.35761730357342
 20
1025.1543905968599
 30
0.0
  0
VERTEX
  5
2A66
  8
货号文字
 62
     1
 10
742.87328167368742
 20
1025.194188250814
 30
0.0
  0
VERTEX
  5
2A67
  8
货号文字
 62
     1
 10
742.38816755177049
 20
1025.219760108806
 30
0.0
  0
VERTEX
  5
2A68
  8
货号文字
 62
     1
 10
741.76908336835652
 20
1025.232747689822
 30
0.0
  0
VERTEX
  5
2A69
  8
货号文字
 62
     1
 10
741.14944138906026
 20
1025.225177602076
 30
0.0
  0
VERTEX
  5
2A6A
  8
货号文字
 62
     1
 10
740.83992308092525
 20
1025.213153582501
 30
0.0
  0
VERTEX
  5
2A6B
  8
货号文字
 62
     1
 10
740.53071657528108
 20
1025.1956168021111
 30
0.0
  0
VERTEX
  5
2A6C
  8
货号文字
 62
     1
 10
740.22182340044401
 20
1025.1726577112979
 30
0.0
  0
VERTEX
  5
2A6D
  8
货号文字
 62
     1
 10
739.91337762889361
 20
1025.1440112330999
 30
0.0
  0
VERTEX
  5
2A6E
  8
货号文字
 62
     1
 10
739.6336396753095
 20
1025.112782989426
 30
0.0
  0
VERTEX
  5
2A6F
  8
货号文字
 62
     1
 10
739.35452102129489
 20
1025.076482363183
 30
0.0
  0
VERTEX
  5
2A70
  8
货号文字
 62
     1
 10
739.07613353358363
 20
1025.0350247990241
 30
0.0
  0
VERTEX
  5
2A71
  8
货号文字
 62
     1
 10
738.79858907890321
 20
1024.988325741584
 30
0.0
  0
VERTEX
  5
2A72
  8
货号文字
 62
     1
 10
738.52199952397405
 20
1024.936300635507
 30
0.0
  0
VERTEX
  5
2A73
  8
货号文字
 62
     1
 10
738.24647673552408
 20
1024.8788649254141
 30
0.0
  0
VERTEX
  5
2A74
  8
货号文字
 62
     1
 10
737.97213258029205
 20
1024.8159340559489
 30
0.0
  0
VERTEX
  5
2A75
  8
货号文字
 62
     1
 10
737.69907892498941
 20
1024.7474234717431
 30
0.0
  0
VERTEX
  5
2A76
  8
货号文字
 62
     1
 10
737.42743949092335
 20
1024.6732540907949
 30
0.0
  0
VERTEX
  5
2A77
  8
货号文字
 62
     1
 10
737.15738541767212
 20
1024.5933687245099
 30
0.0
  0
VERTEX
  5
2A78
  8
货号文字
 62
     1
 10
736.8890996993988
 20
1024.507715657664
 30
0.0
  0
VERTEX
  5
2A79
  8
货号文字
 62
     1
 10
736.62276533025135
 20
1024.4162431750101
 30
0.0
  0
VERTEX
  5
2A7A
  8
货号文字
 62
     1
 10
736.35856530439276
 20
1024.3188995613159
 30
0.0
  0
VERTEX
  5
2A7B
  8
货号文字
 62
     1
 10
736.09668261596835
 20
1024.215633101363
 30
0.0
  0
VERTEX
  5
2A7C
  8
货号文字
 62
     1
 10
735.83730025914974
 20
1024.1063920799061
 30
0.0
  0
VERTEX
  5
2A7D
  8
货号文字
 62
     1
 10
735.58060122808183
 20
1023.991124781723
 30
0.0
  0
VERTEX
  5
2A7E
  8
货号文字
 62
     1
 10
735.3138385883949
 20
1023.86343533914
 30
0.0
  0
VERTEX
  5
2A7F
  8
货号文字
 62
     1
 10
735.05035162671345
 20
1023.729159737127
 30
0.0
  0
VERTEX
  5
2A80
  8
货号文字
 62
     1
 10
734.79024875166851
 20
1023.588427967451
 30
0.0
  0
VERTEX
  5
2A81
  8
货号文字
 62
     1
 10
734.53363837189045
 20
1023.441370021845
 30
0.0
  0
VERTEX
  5
2A82
  8
货号文字
 62
     1
 10
734.2806477948734
 20
1023.288096975268
 30
0.0
  0
VERTEX
  5
2A83
  8
货号文字
 62
     1
 10
734.0314799235739
 20
1023.128644235565
 30
0.0
  0
VERTEX
  5
2A84
  8
货号文字
 62
     1
 10
733.78635655981884
 20
1022.963028293767
 30
0.0
  0
VERTEX
  5
2A85
  8
货号文字
 62
     1
 10
733.54549950543242
 20
1022.7912656409191
 30
0.0
  0
VERTEX
  5
2A86
  8
货号文字
 62
     1
 10
733.30104675954749
 20
1022.607199871601
 30
0.0
  0
VERTEX
  5
2A87
  8
货号文字
 62
     1
 10
733.0613894425868
 20
1022.416894998328
 30
0.0
  0
VERTEX
  5
2A88
  8
货号文字
 62
     1
 10
732.82652104745
 20
1022.220670784112
 30
0.0
  0
VERTEX
  5
2A89
  8
货号文字
 62
     1
 10
732.59643506703378
 20
1022.018846991995
 30
0.0
  0
VERTEX
  5
2A8A
  8
货号文字
 62
     1
 10
732.29567805741044
 20
1021.740149688328
 30
0.0
  0
VERTEX
  5
2A8B
  8
货号文字
 62
     1
 10
732.00367342639311
 20
1021.452323428641
 30
0.0
  0
VERTEX
  5
2A8C
  8
货号文字
 62
     1
 10
731.72060020254048
 20
1021.15571718335
 30
0.0
  0
VERTEX
  5
2A8D
  8
货号文字
 62
     1
 10
731.44663741444015
 20
1020.850679922872
 30
0.0
  0
VERTEX
  5
2A8E
  8
货号文字
 62
     1
 10
731.18192544294902
 20
1020.537581234624
 30
0.0
  0
VERTEX
  5
2A8F
  8
货号文字
 62
     1
 10
730.92645007812177
 20
1020.216873174092
 30
0.0
  0
VERTEX
  5
2A90
  8
货号文字
 62
     1
 10
730.68015846228695
 20
1019.889028413752
 30
0.0
  0
VERTEX
  5
2A91
  8
货号文字
 62
     1
 10
730.44299773778505
 20
1019.554519626094
 30
0.0
  0
VERTEX
  5
2A92
  8
货号文字
 62
     1
 10
730.25957792237455
 20
1019.282086568709
 30
0.0
  0
VERTEX
  5
2A93
  8
货号文字
 62
     1
 10
730.0819102289795
 20
1019.005879212728
 30
0.0
  0
VERTEX
  5
2A94
  8
货号文字
 62
     1
 10
729.90992249168539
 20
1018.726095511107
 30
0.0
  0
VERTEX
  5
2A95
  8
货号文字
 62
     1
 10
729.74354254456284
 20
1018.442933416797
 30
0.0
  0
VERTEX
  5
2A96
  8
货号文字
 62
     1
 10
729.58269817363635
 20
1018.156586600442
 30
0.0
  0
VERTEX
  5
2A97
  8
货号文字
 62
     1
 10
729.4273169727212
 20
1017.867231603413
 30
0.0
  0
VERTEX
  5
2A98
  8
货号文字
 62
     1
 10
729.27732648760411
 20
1017.57504068478
 30
0.0
  0
VERTEX
  5
2A99
  8
货号文字
 62
     1
 10
729.13265426403711
 20
1017.280186103606
 30
0.0
  0
VERTEX
  5
2A9A
  8
货号文字
 62
     1
 10
728.86688779486303
 20
1016.7013869881
 30
0.0
  0
VERTEX
  5
2A9B
  8
货号文字
 62
     1
 10
728.61982231423372
 20
1016.114320506114
 30
0.0
  0
VERTEX
  5
2A9C
  8
货号文字
 62
     1
 10
728.39055366025502
 20
1015.520034257522
 30
0.0
  0
VERTEX
  5
2A9D
  8
货号文字
 62
     1
 10
728.178676641518
 20
1014.919354251858
 30
0.0
  0
VERTEX
  5
2A9E
  8
货号文字
 62
     1
 10
727.94703816049423
 20
1014.191750524334
 30
0.0
  0
VERTEX
  5
2A9F
  8
货号文字
 62
     1
 10
727.73872050342345
 20
1013.457108028176
 30
0.0
  0
VERTEX
  5
2AA0
  8
货号文字
 62
     1
 10
727.55244573307834
 20
1012.716471736092
 30
0.0
  0
VERTEX
  5
2AA1
  8
货号文字
 62
     1
 10
727.38693591224842
 20
1011.970886620811
 30
0.0
  0
VERTEX
  5
2AA2
  8
货号文字
 62
     1
 10
727.22543689708891
 20
1011.136626732974
 30
0.0
  0
VERTEX
  5
2AA3
  8
货号文字
 62
     1
 10
727.08522745252503
 20
1010.298515827409
 30
0.0
  0
VERTEX
  5
2AA4
  8
货号文字
 62
     1
 10
726.96387498498814
 20
1009.457448710092
 30
0.0
  0
VERTEX
  5
2AA5
  8
货号文字
 62
     1
 10
726.86057245145184
 20
1008.613968705005
 30
0.0
  0
VERTEX
  5
2AA6
  8
货号文字
 62
     1
 10
726.747562926196
 20
1007.46603434909
 30
0.0
  0
VERTEX
  5
2AA7
  8
货号文字
 62
     1
 10
726.66139074473085
 20
1006.31577776047
 30
0.0
  0
VERTEX
  5
2AA8
  8
货号文字
 62
     1
 10
726.57011542269811
 20
1004.328074643557
 30
0.0
  0
VERTEX
  5
2AA9
  8
货号文字
 62
     1
 10
726.54199405863164
 20
1002.338456359475
 30
0.0
  0
SEQEND
  5
2AAA
  8
货号文字
 62
     1
  0
POLYLINE
  5
1800
  8
图层1
 66
     1
 10
0.0
 20
0.0
 30
0.0
 70
     1
  0
VERTEX
  5
2ABA
  8
图层1
 10
710.37106163179249
 20
699.65282598895465
 30
0.0
  0
VERTEX
  5
2ABB
  8
图层1
 10
710.37106163179249
 20
703.35282598895435
 30
0.0
  0
VERTEX
  5
2ABC
  8
图层1
 10
731.07106163179242
 20
703.35282598895435
 30
0.0
  0
VERTEX
  5
2ABD
  8
图层1
 10
731.07106163179242
 20
699.65282598895465
 30
0.0
  0
SEQEND
  5
2ABE
  8
图层1
  0
POLYLINE
  5
1803
  8
图层1
 66
     1
 10
0.0
 20
0.0
 30
0.0
 70
     1
  0
VERTEX
  5
2ABF
  8
图层1
 10
780.57106163179242
 20
703.20282598895437
 30
0.0
  0
VERTEX
  5
2AC0
  8
图层1
 10
783.92106163179244
 20
703.20282598895437
 30
0.0
  0
VERTEX
  5
2AC1
  8
图层1
 10
783.92106163179244
 20
682.80282598895451
 30
0.0
  0
VERTEX
  5
2AC2
  8
图层1
 10
780.52106163179235
 20
682.80282598895451
 30
0.0
  0
VERTEX
  5
2AC3
  8
图层1
 10
780.52106163179235
 20
699.80282598895451
 30
0.0
  0
VERTEX
  5
2AC4
  8
图层1
 10
760.52106163179246
 20
699.80282598895451
 30
0.0
  0
VERTEX
  5
2AC5
  8
图层1
 10
760.52106163179246
 20
703.20282598895437
 30
0.0
  0
SEQEND
  5
2AC6
  8
图层1
  0
POLYLINE
  5
1804
  8
图层1
 66
     1
 10
0.0
 20
0.0
 30
0.0
 70
     1
  0
VERTEX
  5
2AC7
  8
图层1
 10
660.92106163179244
 20
699.80282598895451
 30
0.0
  0
VERTEX
  5
2AC8
  8
图层1
 10
680.92106163179244
 20
699.80282598895451
 30
0.0
  0
VERTEX
  5
2AC9
  8
图层1
 10
680.92106163179244
 20
703.20282598895437
 30
0.0
  0
VERTEX
  5
2ACA
  8
图层1
 10
660.57106163179253
 20
703.20282598895437
 30
0.0
  0
VERTEX
  5
2ACB
  8
图层1
 10
657.52106163179246
 20
703.20282598895437
 30
0.0
  0
VERTEX
  5
2ACC
  8
图层1
 10
657.52106163179246
 20
682.80282598895451
 30
0.0
  0
VERTEX
  5
2ACD
  8
图层1
 10
660.92106163179244
 20
682.80282598895451
 30
0.0
  0
SEQEND
  5
2ACE
  8
图层1
  0
POLYLINE
  5
1805
  8
图层1
 66
     1
 10
0.0
 20
0.0
 30
0.0
 70
     1
  0
VERTEX
  5
2ACF
  8
图层1
 10
657.52106163179246
 20
636.70282598895437
 30
0.0
  0
VERTEX
  5
2AD0
  8
图层1
 10
657.52106163179246
 20
616.30282598895451
 30
0.0
  0
VERTEX
  5
2AD1
  8
图层1
 10
660.92106163179244
 20
616.30282598895451
 30
0.0
  0
VERTEX
  5
2AD2
  8
图层1
 10
660.92106163179244
 20
636.70282598895437
 30
0.0
  0
SEQEND
  5
2AD3
  8
图层1
  0
POLYLINE
  5
1806
  8
图层1
 66
     1
 10
0.0
 20
0.0
 30
0.0
 70
     1
  0
VERTEX
  5
2AD4
  8
图层1
 10
783.92106163179244
 20
636.70282598895437
 30
0.0
  0
VERTEX
  5
2AD5
  8
图层1
 10
783.92106163179244
 20
616.30282598895451
 30
0.0
  0
VERTEX
  5
2AD6
  8
图层1
 10
780.52106163179235
 20
616.30282598895451
 30
0.0
  0
VERTEX
  5
2AD7
  8
图层1
 10
780.52106163179235
 20
636.70282598895437
 30
0.0
  0
SEQEND
  5
2AD8
  8
图层1
  0
POLYLINE
  5
1807
  8
图层1
 66
     1
 10
0.0
 20
0.0
 30
0.0
 70
     1
  0
VERTEX
  5
2AD9
  8
图层1
 10
783.92106163179244
 20
570.20282598895426
 30
0.0
  0
VERTEX
  5
2ADA
  8
图层1
 10
783.92106163179244
 20
549.80282598895451
 30
0.0
  0
VERTEX
  5
2ADB
  8
图层1
 10
780.52106163179235
 20
549.80282598895451
 30
0.0
  0
VERTEX
  5
2ADC
  8
图层1
 10
780.52106163179235
 20
570.20282598895426
 30
0.0
  0
SEQEND
  5
2ADD
  8
图层1
  0
POLYLINE
  5
1808
  8
图层1
 66
     1
 10
0.0
 20
0.0
 30
0.0
 70
     1
  0
VERTEX
  5
2ADE
  8
图层1
 10
657.52106163179246
 20
570.20282598895426
 30
0.0
  0
VERTEX
  5
2ADF
  8
图层1
 10
657.52106163179246
 20
549.80282598895451
 30
0.0
  0
VERTEX
  5
2AE0
  8
图层1
 10
660.92106163179244
 20
549.80282598895451
 30
0.0
  0
VERTEX
  5
2AE1
  8
图层1
 10
660.92106163179244
 20
570.20282598895426
 30
0.0
  0
SEQEND
  5
2AE2
  8
图层1
  0
POLYLINE
  5
1809
  8
图层1
 66
     1
 10
0.0
 20
0.0
 30
0.0
 70
     1
  0
VERTEX
  5
2AE3
  8
图层1
 10
547.92106163179233
 20
696.60282598895446
 30
0.0
  0
VERTEX
  5
2AE4
  8
图层1
 10
532.52106163179246
 20
696.60282598895446
 30
0.0
  0
VERTEX
  5
2AE5
  8
图层1
 10
532.52106163179246
 20
700.00282598895444
 30
0.0
  0
VERTEX
  5
2AE6
  8
图层1
 10
547.92106163179244
 20
700.00282598895444
 30
0.0
  0
SEQEND
  5
2AE7
  8
图层1
  0
POLYLINE
  5
180A
  8
图层1
 66
     1
 10
0.0
 20
0.0
 30
0.0
 70
     1
  0
VERTEX
  5
2AE8
  8
图层1
 10
495.44684898151542
 20
696.70282598895449
 30
0.0
  0
VERTEX
  5
2AE9
  8
图层1
 10
480.0468489815155
 20
696.70282598895449
 30
0.0
  0
VERTEX
  5
2AEA
  8
图层1
 10
480.0468489815155
 20
700.10282598895435
 30
0.0
  0
VERTEX
  5
2AEB
  8
图层1
 10
495.44684898151542
 20
700.10282598895435
 30
0.0
  0
SEQEND
  5
2AEC
  8
图层1
  0
POLYLINE
  5
180B
  8
图层1
 66
     1
 10
0.0
 20
0.0
 30
0.0
 70
     1
  0
VERTEX
  5
2AED
  8
图层1
 10
893.52106163179269
 20
696.60282598895446
 30
0.0
  0
VERTEX
  5
2AEE
  8
图层1
 10
908.92106163179244
 20
696.60282598895446
 30
0.0
  0
VERTEX
  5
2AEF
  8
图层1
 10
908.92106163179244
 20
700.00282598895444
 30
0.0
  0
VERTEX
  5
2AF0
  8
图层1
 10
893.52106163179235
 20
700.00282598895444
 30
0.0
  0
SEQEND
  5
2AF1
  8
图层1
  0
POLYLINE
  5
180C
  8
图层1
 66
     1
 10
0.0
 20
0.0
 30
0.0
 70
     1
  0
VERTEX
  5
2AF2
  8
图层1
 10
945.99527428206954
 20
696.70282598895449
 30
0.0
  0
VERTEX
  5
2AF3
  8
图层1
 10
961.39527428206952
 20
696.70282598895449
 30
0.0
  0
VERTEX
  5
2AF4
  8
图层1
 10
961.39527428206952
 20
700.10282598895435
 30
0.0
  0
VERTEX
  5
2AF5
  8
图层1
 10
945.99527428206954
 20
700.10282598895435
 30
0.0
  0
SEQEND
  5
2AF6
  8
图层1
  0
ENDSEC
  0
EOF
