  0
SECTION
  2
HEADER
  9
$ACADVER
  1
AC1015
  9
$ACADMAINTVER
 70
6
  9
$DWGCODEPAGE
  3
ANSI_1252
  9
$INSBASE
 10
0.0
 20
0.0
 30
0.0
  9
$EXTMIN
 10
1e+20
 20
1e+20
 30
1e+20
  9
$EXTMAX
 10
-1e+20
 20
-1e+20
 30
-1e+20
  9
$LIMMIN
 10
0.0
 20
0.0
  9
$LIMMAX
 10
420.0
 20
297.0
  9
$ORTHOMODE
 70
0
  9
$REGENMODE
 70
1
  9
$FILLMODE
 70
1
  9
$QTEXTMODE
 70
0
  9
$MIRRTEXT
 70
1
  9
$LTSCALE
 40
1.0
  9
$ATTMODE
 70
1
  9
$TEXTSIZE
 40
2.5
  9
$TRACEWID
 40
1.0
  9
$TEXTSTYLE
  7
Standard
  9
$CLAYER
  8
0
  9
$CELTYPE
  6
ByLayer
  9
$CECOLOR
 62
256
  9
$CELTSCALE
 40
1.0
  9
$DISPSILH
 70
0
  9
$DIMSCALE
 40
1.0
  9
$DIMASZ
 40
2.5
  9
$DIMEXO
 40
0.625
  9
$DIMDLI
 40
3.75
  9
$DIMRND
 40
0.0
  9
$DIMDLE
 40
0.0
  9
$DIMEXE
 40
1.25
  9
$DIMTP
 40
0.0
  9
$DIMTM
 40
0.0
  9
$DIMTXT
 40
2.5
  9
$DIMCEN
 40
2.5
  9
$DIMTSZ
 40
0.0
  9
$DIMTOL
 70
0
  9
$DIMLIM
 70
0
  9
$DIMTIH
 70
0
  9
$DIMTOH
 70
0
  9
$DIMSE1
 70
0
  9
$DIMSE2
 70
0
  9
$DIMTAD
 70
1
  9
$DIMZIN
 70
8
  9
$DIMBLK
  1

  9
$DIMASO
 70
1
  9
$DIMSHO
 70
1
  9
$DIMPOST
  1

  9
$DIMAPOST
  1

  9
$DIMALT
 70
0
  9
$DIMALTD
 70
3
  9
$DIMALTF
 40
0.03937007874
  9
$DIMLFAC
 40
1.0
  9
$DIMTOFL
 70
1
  9
$DIMTVP
 40
0.0
  9
$DIMTIX
 70
0
  9
$DIMSOXD
 70
0
  9
$DIMSAH
 70
0
  9
$DIMBLK1
  1

  9
$DIMBLK2
  1

  9
$DIMSTYLE
  2
ISO-25
  9
$DIMCLRD
 70
0
  9
$DIMCLRE
 70
0
  9
$DIMCLRT
 70
0
  9
$DIMTFAC
 40
1.0
  9
$DIMGAP
 40
0.625
  9
$DIMJUST
 70
0
  9
$DIMSD1
 70
0
  9
$DIMSD2
 70
0
  9
$DIMTOLJ
 70
0
  9
$DIMTZIN
 70
8
  9
$DIMALTZ
 70
0
  9
$DIMALTTZ
 70
0
  9
$DIMUPT
 70
0
  9
$DIMDEC
 70
2
  9
$DIMTDEC
 70
2
  9
$DIMALTU
 70
2
  9
$DIMALTTD
 70
3
  9
$DIMTXSTY
  7
Standard
  9
$DIMAUNIT
 70
0
  9
$DIMADEC
 70
0
  9
$DIMALTRND
 40
0.0
  9
$DIMAZIN
 70
0
  9
$DIMDSEP
 70
44
  9
$DIMATFIT
 70
3
  9
$DIMFRAC
 70
0
  9
$DIMLDRBLK
  1

  9
$DIMLUNIT
 70
2
  9
$DIMLWD
 70
-2
  9
$DIMLWE
 70
-2
  9
$DIMTMOVE
 70
0
  9
$LUNITS
 70
2
  9
$LUPREC
 70
4
  9
$SKETCHINC
 40
1.0
  9
$FILLETRAD
 40
10.0
  9
$AUNITS
 70
0
  9
$AUPREC
 70
2
  9
$MENU
  1
.
  9
$ELEVATION
 40
0.0
  9
$PELEVATION
 40
0.0
  9
$THICKNESS
 40
0.0
  9
$LIMCHECK
 70
0
  9
$CHAMFERA
 40
0.0
  9
$CHAMFERB
 40
0.0
  9
$CHAMFERC
 40
0.0
  9
$CHAMFERD
 40
0.0
  9
$SKPOLY
 70
0
  9
$TDCREATE
 40
2461250.688622685
  9
$TDUCREATE
 40
2458532.153996898
  9
$TDUPDATE
 40
2461250.688622685
  9
$TDUUPDATE
 40
2458532.1544311
  9
$TDINDWG
 40
0.0
  9
$TDUSRTIMER
 40
0.0
  9
$USRTIMER
 70
1
  9
$ANGBASE
 50
0.0
  9
$ANGDIR
 70
0
  9
$PDMODE
 70
0
  9
$PDSIZE
 40
0.0
  9
$PLINEWID
 40
0.0
  9
$SPLFRAME
 70
0
  9
$SPLINETYPE
 70
6
  9
$SPLINESEGS
 70
8
  9
$HANDSEED
  5
48
  9
$SURFTAB1
 70
6
  9
$SURFTAB2
 70
6
  9
$SURFTYPE
 70
6
  9
$SURFU
 70
6
  9
$SURFV
 70
6
  9
$UCSBASE
  2

  9
$UCSNAME
  2

  9
$UCSORG
 10
0.0
 20
0.0
 30
0.0
  9
$UCSXDIR
 10
1.0
 20
0.0
 30
0.0
  9
$UCSYDIR
 10
0.0
 20
1.0
 30
0.0
  9
$UCSORTHOREF
  2

  9
$UCSORTHOVIEW
 70
0
  9
$UCSORGTOP
 10
0.0
 20
0.0
 30
0.0
  9
$UCSORGBOTTOM
 10
0.0
 20
0.0
 30
0.0
  9
$UCSORGLEFT
 10
0.0
 20
0.0
 30
0.0
  9
$UCSORGRIGHT
 10
0.0
 20
0.0
 30
0.0
  9
$UCSORGFRONT
 10
0.0
 20
0.0
 30
0.0
  9
$UCSORGBACK
 10
0.0
 20
0.0
 30
0.0
  9
$PUCSBASE
  2

  9
$PUCSNAME
  2

  9
$PUCSORG
 10
0.0
 20
0.0
 30
0.0
  9
$PUCSXDIR
 10
1.0
 20
0.0
 30
0.0
  9
$PUCSYDIR
 10
0.0
 20
1.0
 30
0.0
  9
$PUCSORTHOREF
  2

  9
$PUCSORTHOVIEW
 70
0
  9
$PUCSORGTOP
 10
0.0
 20
0.0
 30
0.0
  9
$PUCSORGBOTTOM
 10
0.0
 20
0.0
 30
0.0
  9
$PUCSORGLEFT
 10
0.0
 20
0.0
 30
0.0
  9
$PUCSORGRIGHT
 10
0.0
 20
0.0
 30
0.0
  9
$PUCSORGFRONT
 10
0.0
 20
0.0
 30
0.0
  9
$PUCSORGBACK
 10
0.0
 20
0.0
 30
0.0
  9
$USERI1
 70
0
  9
$USERI2
 70
0
  9
$USERI3
 70
0
  9
$USERI4
 70
0
  9
$USERI5
 70
0
  9
$USERR1
 40
0.0
  9
$USERR2
 40
0.0
  9
$USERR3
 40
0.0
  9
$USERR4
 40
0.0
  9
$USERR5
 40
0.0
  9
$WORLDVIEW
 70
1
  9
$SHADEDGE
 70
3
  9
$SHADEDIF
 70
70
  9
$TILEMODE
 70
1
  9
$MAXACTVP
 70
64
  9
$PINSBASE
 10
0.0
 20
0.0
 30
0.0
  9
$PLIMCHECK
 70
0
  9
$PEXTMIN
 10
1e+20
 20
1e+20
 30
1e+20
  9
$PEXTMAX
 10
-1e+20
 20
-1e+20
 30
-1e+20
  9
$PLIMMIN
 10
0.0
 20
0.0
  9
$PLIMMAX
 10
420.0
 20
297.0
  9
$UNITMODE
 70
0
  9
$VISRETAIN
 70
1
  9
$PLINEGEN
 70
0
  9
$PSLTSCALE
 70
1
  9
$TREEDEPTH
 70
3020
  9
$CMLSTYLE
  2
Standard
  9
$CMLJUST
 70
0
  9
$CMLSCALE
 40
20.0
  9
$PROXYGRAPHICS
 70
1
  9
$MEASUREMENT
 70
1
  9
$CELWEIGHT
370
-1
  9
$ENDCAPS
280
0
  9
$JOINSTYLE
280
0
  9
$LWDISPLAY
290
0
  9
$INSUNITS
 70
4
  9
$HYPERLINKBASE
  1

  9
$STYLESHEET
  1

  9
$XEDIT
290
1
  9
$CEPSNTYPE
380
0
  9
$PSTYLEMODE
290
1
  9
$FINGERPRINTGUID
  2
{43CF4DF1-E1F7-466E-9EE7-E700683259E9}
  9
$VERSIONGUID
  2
{174F43FE-B937-46DA-A447-40C1327C11BD}
  9
$EXTNAMES
290
1
  9
$PSVPSCALE
 40
0.0
  9
$OLESTARTUP
290
0
  0
ENDSEC
  0
SECTION
  2
CLASSES
  0
CLASS
  1
ACDBDICTIONARYWDFLT
  2
AcDbDictionaryWithDefault
  3
ObjectDBX Classes
 90
0
280
0
281
0
  0
CLASS
  1
SUN
  2
AcDbSun
  3
SCENEOE
 90
1153
280
0
281
0
  0
CLASS
  1
VISUALSTYLE
  2
AcDbVisualStyle
  3
ObjectDBX Classes
 90
4095
280
0
281
0
  0
CLASS
  1
MATERIAL
  2
AcDbMaterial
  3
ObjectDBX Classes
 90
1153
280
0
281
0
  0
CLASS
  1
SCALE
  2
AcDbScale
  3
ObjectDBX Classes
 90
1153
280
0
281
0
  0
CLASS
  1
TABLESTYLE
  2
AcDbTableStyle
  3
ObjectDBX Classes
 90
4095
280
0
281
0
  0
CLASS
  1
MLEADERSTYLE
  2
AcDbMLeaderStyle
  3
ACDB_MLEADERSTYLE_CLASS
 90
4095
280
0
281
0
  0
CLASS
  1
DICTIONARYVAR
  2
AcDbDictionaryVar
  3
ObjectDBX Classes
 90
0
280
0
281
0
  0
CLASS
  1
CELLSTYLEMAP
  2
AcDbCellStyleMap
  3
ObjectDBX Classes
 90
1152
280
0
281
0
  0
CLASS
  1
MENTALRAYRENDERSETTINGS
  2
AcDbMentalRayRenderSettings
  3
SCENEOE
 90
1024
280
0
281
0
  0
CLASS
  1
ACDBDETAILVIEWSTYLE
  2
AcDbDetailViewStyle
  3
ObjectDBX Classes
 90
1025
280
0
281
0
  0
CLASS
  1
ACDBSECTIONVIEWSTYLE
  2
AcDbSectionViewStyle
  3
ObjectDBX Classes
 90
1025
280
0
281
0
  0
CLASS
  1
RASTERVARIABLES
  2
AcDbRasterVariables
  3
ISM
 90
0
280
0
281
0
  0
CLASS
  1
ACDBPLACEHOLDER
  2
AcDbPlaceHolder
  3
ObjectDBX Classes
 90
0
280
0
281
0
  0
CLASS
  1
LAYOUT
  2
AcDbLayout
  3
ObjectDBX Classes
 90
0
280
0
281
0
  0
ENDSEC
  0
SECTION
  2
TABLES
  0
TABLE
  2
VPORT
  5
8
330
0
100
AcDbSymbolTable
 70
1
  0
VPORT
  5
23
330
8
100
AcDbSymbolTableRecord
100
AcDbViewportTableRecord
  2
*Active
 70
0
 10
0.0
 20
0.0
 11
1.0
 21
1.0
 12
0.0
 22
0.0
 13
0.0
 23
0.0
 14
0.5
 24
0.5
 15
0.5
 25
0.5
 16
0.0
 26
0.0
 36
1.0
 17
0.0
 27
0.0
 37
0.0
 40
1000.0
 41
1.34
 42
50.0
 43
0.0
 44
0.0
 50
0.0
 51
0.0
 71
0
 72
1000
 73
1
 74
3
 75
0
 76
0
 77
0
 78
0
281
0
 65
0
146
0.0
  0
ENDTAB
  0
TABLE
  2
LTYPE
  5
2
330
0
100
AcDbSymbolTable
 70
3
  0
LTYPE
  5
24
330
2
100
AcDbSymbolTableRecord
100
AcDbLinetypeTableRecord
  2
ByBlock
 70
0
  3

 72
65
 73
0
 40
0.0
  0
LTYPE
  5
25
330
2
100
AcDbSymbolTableRecord
100
AcDbLinetypeTableRecord
  2
ByLayer
 70
0
  3

 72
65
 73
0
 40
0.0
  0
LTYPE
  5
26
330
2
100
AcDbSymbolTableRecord
100
AcDbLinetypeTableRecord
  2
Continuous
 70
0
  3

 72
65
 73
0
 40
0.0
  0
ENDTAB
  0
TABLE
  2
LAYER
  5
1
330
0
100
AcDbSymbolTable
 70
3
  0
LAYER
  5
27
330
1
100
AcDbSymbolTableRecord
100
AcDbLayerTableRecord
  2
0
 70
0
 62
7
  6
Continuous
370
-3
390
13
  0
LAYER
  5
28
330
1
100
AcDbSymbolTableRecord
100
AcDbLayerTableRecord
  2
Defpoints
 70
0
 62
7
  6
Continuous
290
0
370
-3
390
13
  0
LAYER
  5
2F
330
1
100
AcDbSymbolTableRecord
100
AcDbLayerTableRecord
  2
\U+6392\U+7248\U+7ed3\U+679c
 70
0
 62
1
  6
Continuous
370
-3
390
13
  0
ENDTAB
  0
TABLE
  2
STYLE
  5
5
330
0
100
AcDbSymbolTable
 70
1
  0
STYLE
  5
29
330
5
100
AcDbSymbolTableRecord
100
AcDbTextStyleTableRecord
  2
Standard
 70
0
 40
0.0
 41
1.0
 50
0.0
 71
0
 42
2.5
  3
txt
  4

  0
ENDTAB
  0
TABLE
  2
VIEW
  5
7
330
0
100
AcDbSymbolTable
 70
0
  0
ENDTAB
  0
TABLE
  2
UCS
  5
6
330
0
100
AcDbSymbolTable
 70
0
  0
ENDTAB
  0
TABLE
  2
APPID
  5
3
330
0
100
AcDbSymbolTable
 70
3
  0
APPID
  5
2A
330
3
100
AcDbSymbolTableRecord
100
AcDbRegAppTableRecord
  2
ACAD
 70
0
  0
APPID
  5
45
330
3
100
AcDbSymbolTableRecord
100
AcDbRegAppTableRecord
  2
HATCHBACKGROUNDCOLOR
 70
0
  0
APPID
  5
46
330
3
100
AcDbSymbolTableRecord
100
AcDbRegAppTableRecord
  2
EZDXF
 70
0
  0
ENDTAB
  0
TABLE
  2
DIMSTYLE
  5
4
330
0
100
AcDbSymbolTable
 70
1
100
AcDbDimStyleTable
  0
DIMSTYLE
105
2B
330
4
100
AcDbSymbolTableRecord
100
AcDbDimStyleTableRecord
  2
Standard
 70
0
  3

  4

 40
1.0
 41
2.5
 42
0.625
 43
3.75
 44
1.25
 45
0.0
 46
0.0
 47
0.0
 48
0.0
140
2.5
141
2.5
142
0.0
143
0.03937007874
144
1.0
145
0.0
146
1.0
147
0.625
148
0.0
 71
0
 72
0
 73
0
 74
0
 75
0
 76
0
 77
1
 78
8
 79
3
170
0
171
3
172
1
173
0
174
0
175
0
176
0
177
0
178
0
179
2
271
2
272
2
273
2
274
3
275
0
276
0
277
2
278
44
279
0
280
0
281
0
282
0
283
0
284
8
285
0
286
0
288
0
289
3
371
-2
372
-2
  0
ENDTAB
  0
TABLE
  2
BLOCK_RECORD
  5
9
330
0
100
AcDbSymbolTable
 70
2
  0
BLOCK_RECORD
  5
17
330
9
100
AcDbSymbolTableRecord
100
AcDbBlockTableRecord
  2
*Model_Space
340
1A
  0
BLOCK_RECORD
  5
1B
330
9
100
AcDbSymbolTableRecord
100
AcDbBlockTableRecord
  2
*Paper_Space
340
1E
  0
ENDTAB
  0
ENDSEC
  0
SECTION
  2
BLOCKS
  0
BLOCK
  5
18
330
17
100
AcDbEntity
  8
0
100
AcDbBlockBegin
  2
*Model_Space
 70
0
 10
0.0
 20
0.0
 30
0.0
  3
*Model_Space
  1

  0
ENDBLK
  5
19
330
17
100
AcDbEntity
  8
0
100
AcDbBlockEnd
  0
BLOCK
  5
1C
330
1B
100
AcDbEntity
  8
0
100
AcDbBlockBegin
  2
*Paper_Space
 70
0
 10
0.0
 20
0.0
 30
0.0
  3
*Paper_Space
  1

  0
ENDBLK
  5
1D
330
1B
100
AcDbEntity
  8
0
100
AcDbBlockEnd
  0
ENDSEC
  0
SECTION
  2
ENTITIES
  0
LWPOLYLINE
  5
30
330
17
100
AcDbEntity
  8
\U+6392\U+7248\U+7ed3\U+679c
100
AcDbPolyline
 90
26
 70
0
 10
41.849999999999966
 20
152.9999999999999
 10
0.0
 20
152.9999999999999
 10
0.0
 20
149.9999999999999
 10
115.0
 20
0.0
 10
150.0
 20
0.0
 10
152.9999999999999
 20
0.0
 10
152.9999999999999
 20
19.999999999999886
 10
150.0
 20
19.999999999999886
 10
150.0
 20
66.49999999999989
 10
152.9999999999999
 20
66.49999999999989
 10
152.9999999999999
 20
86.49999999999989
 10
150.0
 20
86.49999999999989
 10
150.0
 20
132.9999999999999
 10
152.9999999999999
 20
132.9999999999999
 10
152.9999999999999
 20
152.9999999999999
 10
150.0
 20
152.9999999999999
 10
149.99999999999966
 20
152.9999999999999
 10
149.99999999999966
 20
149.8499999999998
 10
134.9999999999999
 20
149.8499999999998
 10
119.84999999999968
 20
149.8499999999998
 10
119.84999999999968
 20
152.9999999999999
 10
72.15000000000009
 20
152.9999999999999
 10
72.14999999999998
 20
149.8499999999998
 10
56.999999999999886
 20
149.8499999999998
 10
41.849999999999966
 20
149.8499999999998
 10
41.849999999999966
 20
152.9999999999999
  0
LWPOLYLINE
  5
31
330
17
100
AcDbEntity
  8
\U+6392\U+7248\U+7ed3\U+679c
100
AcDbPolyline
 90
26
 70
0
 10
274.14999999999975
 20
152.9999999999999
 10
315.99999999999955
 20
152.9999999999999
 10
315.99999999999955
 20
149.9999999999999
 10
200.99999999999977
 20
0.0
 10
165.99999999999955
 20
0.0
 10
162.9999999999999
 20
0.0
 10
162.9999999999999
 20
19.999999999999886
 10
165.99999999999955
 20
19.999999999999886
 10
165.99999999999955
 20
66.49999999999989
 10
162.9999999999999
 20
66.49999999999989
 10
162.9999999999999
 20
86.49999999999989
 10
165.99999999999955
 20
86.49999999999989
 10
165.99999999999955
 20
132.9999999999999
 10
162.9999999999999
 20
132.9999999999999
 10
162.9999999999999
 20
152.9999999999999
 10
165.99999999999955
 20
152.9999999999999
 10
166.0
 20
152.9999999999999
 10
166.0
 20
149.8499999999998
 10
180.99999999999955
 20
149.8499999999998
 10
196.14999999999986
 20
149.8499999999998
 10
196.14999999999986
 20
152.9999999999999
 10
243.84999999999968
 20
152.9999999999999
 10
243.84999999999968
 20
149.8499999999998
 10
258.99999999999955
 20
149.8499999999998
 10
274.14999999999975
 20
149.8499999999998
 10
274.14999999999975
 20
152.9999999999999
  0
LWPOLYLINE
  5
32
330
17
100
AcDbEntity
  8
\U+6392\U+7248\U+7ed3\U+679c
100
AcDbPolyline
 90
9
 70
0
 10
134.9999999999999
 20
162.9999999999999
 10
5.0
 20
162.9999999999999
 10
0.0
 20
168.0
 10
1.1368683772161603e-13
 20
321.9999999999998
 10
5.000000000000114
 20
326.9999999999998
 10
134.9999999999999
 20
326.9999999999998
 10
139.99999999999977
 20
321.9999999999998
 10
139.99999999999977
 20
167.9999999999999
 10
134.9999999999999
 20
162.9999999999999
  0
LWPOLYLINE
  5
33
330
17
100
AcDbEntity
  8
\U+6392\U+7248\U+7ed3\U+679c
100
AcDbPolyline
 90
33
 70
0
 10
152.99999999999966
 20
315.9999999999999
 10
272.99999999999966
 20
315.9999999999998
 10
272.99999999999966
 20
273.9999999999998
 10
275.99999999999966
 20
273.9999999999998
 10
275.99999999999966
 20
258.9999999999999
 10
275.99999999999966
 20
243.9999999999999
 10
272.99999999999966
 20
243.9999999999999
 10
272.99999999999966
 20
195.9999999999999
 10
275.99999999999966
 20
195.9999999999999
 10
275.99999999999966
 20
180.9999999999999
 10
275.99999999999966
 20
165.9999999999999
 10
272.99999999999966
 20
165.9999999999999
 10
272.99999999999966
 20
162.9999999999999
 10
252.99999999999966
 20
162.9999999999999
 10
252.99999999999966
 20
165.9999999999999
 10
222.99999999999966
 20
165.9999999999999
 10
222.99999999999966
 20
162.9999999999999
 10
202.99999999999966
 20
162.9999999999999
 10
202.99999999999966
 20
165.9999999999999
 10
172.99999999999977
 20
165.9999999999999
 10
172.99999999999977
 20
162.9999999999999
 10
152.99999999999966
 20
162.9999999999999
 10
152.99999999999966
 20
165.9999999999999
 10
149.99999999999977
 20
165.9999999999999
 10
149.99999999999977
 20
180.9999999999999
 10
149.99999999999977
 20
195.9999999999999
 10
152.99999999999966
 20
195.9999999999999
 10
152.99999999999966
 20
243.9999999999999
 10
149.99999999999977
 20
243.9999999999999
 10
149.99999999999977
 20
258.9999999999999
 10
149.99999999999977
 20
273.9999999999998
 10
152.99999999999966
 20
273.9999999999998
 10
152.99999999999966
 20
315.9999999999999
  0
LWPOLYLINE
  5
34
330
17
100
AcDbEntity
  8
\U+6392\U+7248\U+7ed3\U+679c
100
AcDbPolyline
 90
5
 70
0
 10
149.99999999999977
 20
325.9999999999999
 10
149.99999999999977
 20
340.9999999999998
 10
277.9999999999998
 20
340.9999999999998
 10
277.9999999999998
 20
325.9999999999999
 10
149.99999999999977
 20
325.9999999999999
  0
LWPOLYLINE
  5
35
330
17
100
AcDbEntity
  8
\U+6392\U+7248\U+7ed3\U+679c
100
AcDbPolyline
 90
5
 70
0
 10
0.0
 20
336.9999999999998
 10
0.0
 20
351.99999999999955
 10
128.0
 20
351.99999999999955
 10
128.0
 20
336.9999999999998
 10
0.0
 20
336.9999999999998
  0
LWPOLYLINE
  5
36
330
17
100
AcDbEntity
  8
\U+6392\U+7248\U+7ed3\U+679c
100
AcDbPolyline
 90
752
 70
0
 10
326.14160956765716
 20
12.990347784900564
 10
326.18391921794637
 20
12.608688034812076
 10
326.23476470054027
 20
12.228061648473954
 10
326.29429752856345
 20
11.848715365524072
 10
326.3626692151296
 20
11.47089592563509
 10
326.44003127334804
 20
11.09485006846785
 10
326.5265352163475
 20
10.720824533681935
 10
326.6223325572332
 20
10.349066060945916
 10
326.7275748091247
 20
9.979821389903236
 10
326.8800240023804
 20
9.500185675523198
 10
326.96248950293307
 20
9.262405520847096
 10
327.04914782557114
 20
9.026122394590743
 10
327.1400231348882
 20
8.791440216829642
 10
327.23513959548063
 20
8.558462907627359
 10
327.33452137194877
 20
8.32729438703825
 10
327.43819262888564
 20
8.09803857512918
 10
327.5984179547336
 20
7.76464222112611
 10
327.76780166824324
 20
7.435823670447121
 10
327.94617729181596
 20
7.1118013525920105
 10
328.1333783478452
 20
6.792793697058869
 10
328.3292383587079
 20
6.4790191333640905
 10
328.53359084681097
 20
6.170696091005311
 10
328.74626933453624
 20
5.8680429994770975
 10
328.967107344278
 20
5.571278288287999
 10
329.1992539909563
 20
5.2764969333907175
 10
329.4393731321501
 20
4.9881442624650845
 10
329.6872140531191
 20
4.706366300107902
 10
329.9425260391283
 20
4.431309070953375
 10
330.20505837545113
 20
4.163118599604786
 10
330.4745603473525
 20
3.901940910668941
 10
330.7507812401067
 20
3.6479220287775433
 10
331.03347033897205
 20
3.4012079785368314
 10
331.22693708948043
 20
3.2396113631967864
 10
331.4231805273316
 20
3.0814533736688645
 10
331.6221700883556
 20
2.926808509265129
 10
331.8238752083613
 20
2.775751269277066
 10
332.02826532317647
 20
2.628356153019922
 10
332.23530986862306
 20
2.4846976597816592
 10
332.44497828051806
 20
2.3448502888794565
 10
332.65723999468673
 20
2.2088885396057094
 10
332.979604407746
 20
2.0128336778162748
 10
333.3073922505805
 20
1.8257461878873755
 10
333.6402886432729
 20
1.647726206922016
 10
333.9779787059173
 20
1.4788738720214951
 10
334.32014755860246
 20
1.3192893202867708
 10
334.666480321413
 20
1.1690726888268728
 10
335.0166621144431
 20
1.028324114734005
 10
335.370378057783
 20
0.8971437351211762
 10
335.683856523508
 20
0.7898258569630343
 10
335.9996595952556
 20
0.6898644518151968
 10
336.3176263664003
 20
0.5971513322572264
 10
336.63759593033103
 20
0.5115783108717551
 10
336.9594073804251
 20
0.43303720024118775
 10
337.2828998100699
 20
0.36141981295656933
 10
337.60791231263397
 20
0.2966179616020099
 10
337.9342839815123
 20
0.23852345876036907
 10
338.26185391008175
 20
0.18702811701916744
 10
338.5904611917207
 20
0.14202374895876346
 10
338.9199449198128
 20
0.10340216716406303
 10
339.250144187748
 20
0.07105518422304158
 10
339.5808980888936
 20
0.04487461271924076
 10
339.9120457166475
 20
0.024752265243137117
 10
340.24342616437696
 20
0.010579954366789934
 10
340.5748785254724
 20
0.00224949268886121
 10
341.0069065237544
 20
0.0
 10
341.43871117968524
 20
0.007360073409927281
 10
341.8702204238484
 20
0.024193060393258747
 10
342.3013621868133
 20
0.05036230841710676
 10
342.74396500134526
 20
0.0869514972239358
 10
343.1857308056144
 20
0.13376106283544686
 10
343.62628688329767
 20
0.19129390639920985
 10
344.0652605180743
 20
0.260052929027097
 10
344.48419921214327
 20
0.3369051208088649
 10
344.9009904400041
 20
0.4246221519331357
 10
345.3152831261191
 20
0.5232922405850786
 10
345.7267261949539
 20
0.6330036049615728
 10
346.1349685709731
 20
0.7538444632409664
 10
346.53965917863866
 20
0.8859030336049045
 10
346.9404469424077
 20
1.0292675342432176
 10
347.3369807867489
 20
1.1840261833456225
 10
347.72253401393345
 20
1.3474084242918707
 10
348.103324352954
 20
1.521725248805069
 10
348.47904430444896
 20
1.7068019106880001
 10
348.84938636903587
 20
1.9024636637551566
 10
349.21404304735313
 20
2.108535761803182
 10
349.57270684002765
 20
2.3248434586239455
 10
349.9250702476887
 20
2.551212008047969
 10
350.27082577097224
 20
2.787466663861551
 10
350.6115548880184
 20
3.0348063602513093
 10
350.9451416037423
 20
3.2916734071322935
 10
351.2714359231155
 20
3.5577756310706263
 10
351.59028785111275
 20
3.832820858636069
 10
351.90154739271327
 20
4.116516916389173
 10
352.2050645528848
 20
4.4085716308968586
 10
352.5006893366093
 20
4.708692828725248
 10
352.7882717488551
 20
5.016588336440918
 10
353.0599560390194
 20
5.3231227267615395
 10
353.3234919909605
 20
5.63663944865425
 10
353.5784741136425
 20
5.957049245873577
 10
353.82449691603256
 20
6.284262862140508
 10
354.06115490710863
 20
6.618191041219916
 10
354.2880425958331
 20
6.958744526840974
 10
354.5047544911845
 20
7.305834062748318
 10
354.7108851021271
 20
7.659370392681353
 10
354.9022388083645
 20
8.011885008268905
 10
355.0829011330984
 20
8.370127249269103
 10
355.2527281802045
 20
8.733721400110767
 10
355.4115760535818
 20
9.102291745229195
 10
355.5593008571062
 20
9.475462569059346
 10
355.69575869466223
 20
9.852858156011052
 10
355.82080567014543
 20
10.234102790531324
 10
355.9342978874316
 20
10.618820757045114
 10
356.0378755275392
 20
11.013643111448232
 10
356.1295512048796
 20
11.411334939863423
 10
356.20954598514925
 20
11.811555732405509
 10
356.27808093403803
 20
12.213964979174648
 10
356.3353771172565
 20
12.61822217027725
 10
356.3816556004981
 20
13.023986795823362
 10
356.41713744945946
 20
13.430918345907912
 10
356.4420437298445
 20
13.838676310651977
 10
356.4569227936421
 20
14.264927622797131
 10
356.4602902522922
 20
14.691370064433045
 10
356.45192187223563
 20
15.117665083671227
 10
356.43159341990906
 20
15.543474128614093
 10
356.39908066176713
 20
15.968458647363263
 10
356.35415936424147
 20
16.392280088009898
 10
356.29660529378566
 20
16.81459989866312
 10
356.2261942168402
 20
17.23507952742625
 10
356.170850864009
 20
17.519602875911232
 10
356.1091751494181
 20
17.8028490608815
 10
356.040877028026
 20
18.084547291276067
 10
355.96566645480505
 20
18.364426776029063
 10
355.88331666987256
 20
18.642237494515257
 10
355.7938540539212
 20
18.917812507883355
 10
355.69736827277416
 20
19.191005647718384
 10
355.59394899227414
 20
19.4616707455873
 10
355.4866793971099
 20
19.72259391709474
 10
355.3729362447134
 20
19.980776513883256
 10
355.25273240224067
 20
20.236012514906065
 10
355.12608073688307
 20
20.488095899142195
 10
354.9929941158201
 20
20.736820645555895
 10
354.853485406225
 20
20.981980733111868
 10
354.7075674752755
 20
21.223370140767656
 10
354.5552531901535
 20
21.460782847493647
 10
354.398566803294
 20
21.691218650279666
 10
354.2358985926197
 20
21.917506417472623
 10
354.0674955893388
 20
22.139579514267666
 10
353.8936048246592
 20
22.35737130584664
 10
353.7144468820511
 20
22.57080660732163
 10
353.5301365540704
 20
22.779776033588632
 10
353.3407621855473
 20
22.984161649475595
 10
353.14641212130607
 20
23.18384551979966
 10
352.89133235616214
 20
23.431596893441565
 10
352.6284594106213
 20
23.671065939236655
 10
352.3579870712524
 20
23.901869836863625
 10
352.08022692108113
 20
24.123834443119677
 10
351.8749187290573
 20
24.278842613051665
 10
351.6661033340873
 20
24.42910434851467
 10
351.4539097683622
 20
24.574563916915622
 10
351.23846706408153
 20
24.715165585669638
 10
351.0199028174444
 20
24.850855084685577
 10
350.79833888069106
 20
24.981583993916615
 10
350.5738956700857
 20
25.107305355799667
 10
350.34669360188434
 20
25.22797221278961
 10
350.4933636147264
 20
25.349694583399582
 10
350.65282573539423
 20
25.487008112832655
 10
350.80949726266533
 20
25.627482895760636
 10
350.9633132358226
 20
25.77106708386566
 10
351.114208694152
 20
25.917708828834634
 10
351.2621186769534
 20
26.06735628234867
 10
351.4069782235141
 20
26.219957596098652
 10
351.5487223731211
 20
26.375460921767626
 10
351.6872861650713
 20
26.533814411042613
 10
351.8340403399063
 20
26.70888871130967
 10
351.9768996583766
 20
26.887169048599617
 10
352.1157941264805
 20
27.068563425759635
 10
352.25065375024985
 20
27.252979845616665
 10
352.3814085356985
 20
27.44032631101959
 10
352.5079884888414
 20
27.630510824802627
 10
352.6303236157049
 20
27.82344138980966
 10
352.7483439223025
 20
28.019026008886613
 10
352.8659472772682
 20
28.22426802631867
 10
352.9788061493067
 20
28.43214635879167
 10
353.08687847847193
 20
28.642549684925598
 10
353.19012220484115
 20
28.8553666833576
 10
353.2884952684576
 20
29.070486032716644
 10
353.3819556093872
 20
29.28779641161566
 10
353.47046116769286
 20
29.507186498687588
 10
353.5539698834341
 20
29.7285449725606
 10
353.6316311365856
 20
29.94938201081459
 10
353.70430243238604
 20
30.171920871740667
 10
353.7719263821177
 20
30.3960455014726
 10
353.8344455970688
 20
30.621639846127664
 10
353.8918026885216
 20
30.848587851834623
 10
353.9439402677649
 20
31.07677346473963
 10
353.9908009460788
 20
31.306080630945644
 10
354.0323273347544
 20
31.536393296591655
 10
354.0742449802776
 20
31.807866112576676
 10
354.1089756686973
 20
32.080363350463585
 10
354.13676156173574
 20
32.35368387744859
 10
354.157844821147
 20
32.627626560716635
 10
354.17131382103025
 20
32.87575806246264
 10
354.1795056362183
 20
33.12412139615458
 10
354.18242750978914
 20
33.3726040120456
 10
354.1800866848239
 20
33.6210933604176
 10
354.17249040438537
 20
33.8694768915276
 10
354.1596459115693
 20
34.117642055648616
 10
354.141560449439
 20
34.365476303032665
 10
354.11824126108445
 20
34.612867083956644
 10
354.0942118468878
 20
34.823531582542614
 10
354.0663924168633
 20
35.03372524513156
 10
354.034798487864
 20
35.243382084958625
 10
353.9994455767642
 20
35.45243611530566
 10
353.9603492004294
 20
35.66082134940859
 10
353.9175248757232
 20
35.86847180052757
 10
353.87098811950773
 20
36.075321481912624
 10
353.820754448648
 20
36.281304406827644
 10
353.76683938001713
 20
36.48635458852459
 10
353.70925843047314
 20
36.69040604025167
 10
353.6480271168833
 20
36.8933927752646
 10
353.5831609561096
 20
37.095248806820564
 10
353.5146754650209
 20
37.29590814817459
 10
353.4425861604882
 20
37.49530481258557
 10
353.36690855935865
 20
37.693372813300584
 10
353.28765817851456
 20
37.890046163583634
 10
353.1886667089161
 20
38.122394408206674
 10
353.08488077638106
 20
38.35266346619767
 10
352.9765520085035
 20
38.58084611123559
 10
352.86393203287594
 20
38.80693511699258
 10
352.74504402300704
 20
39.03493852383258
 10
352.6217877038431
 20
39.26056185870061
 10
352.4939823790713
 20
39.48360290268067
 10
352.3614473523696
 20
39.703859436876655
 10
352.23783238314115
 20
39.89982183172458
 10
352.1102913801201
 20
40.093282141619625
 10
351.9788866815319
 20
40.2841641918036
 10
351.8436806256152
 20
40.47239180752263
 10
351.7047355505724
 20
40.65788881401261
 10
351.5621137946414
 20
40.84057903651467
 10
351.4158776960388
 20
41.02038630026266
 10
351.2660895929997
 20
41.19723443049861
 10
351.091749728733
 20
41.394401578672614
 10
350.91301816737666
 20
41.58757936270865
 10
350.73000422456914
 20
41.776693394974586
 10
350.542817215975
 20
41.961669287833615
 10
350.351566457231
 20
42.142432653646665
 10
350.15636126399613
 20
42.31890910477762
 10
349.9573109519183
 20
42.49102425358262
 10
349.75452483665094
 20
42.65870371242465
 10
349.54489893592256
 20
42.82438107761857
 10
349.3316975860357
 20
42.98544511080365
 10
349.1150849131566
 20
43.14193319911658
 10
348.8952250434754
 20
43.29388272967958
 10
348.6722821031648
 20
43.44133108963263
 10
348.4464202184058
 20
43.58431566608965
 10
348.21780351538223
 20
43.72287384618562
 10
347.9865961202697
 20
43.85704301704766
 10
347.7452067749814
 20
43.99105174644967
 10
347.50131373476825
 20
44.120376410561676
 10
347.25500245504134
 20
44.24497613296057
 10
347.0063583912083
 20
44.36481003723361
 10
346.75546699867425
 20
44.479837246958596
 10
346.50241373284507
 20
44.590016885707655
 10
346.2472840491366
 20
44.6953080770686
 10
345.99016340294224
 20
44.795669944616634
 10
345.7295473641475
 20
44.89163667727166
 10
345.4671106605052
 20
44.98256503961261
 10
345.20296156583686
 20
45.06844797891972
 10
344.9372083539197
 20
45.1492784425086
 10
344.6699592985675
 20
45.22504937764961
 10
344.4013226735801
 20
45.29575373164653
 10
344.1314067527452
 20
45.36138445178062
 10
343.86031980987843
 20
45.421934485351585
 10
343.3486590057905
 20
45.52187930694663
 10
342.83386490947987
 20
45.604030928450584
 10
342.3165488527461
 20
45.66852294562659
 10
341.79732216738523
 20
45.71548895421165
 10
341.4956494066839
 20
45.73477282678459
 10
341.19365940368084
 20
45.74840125246965
 10
340.58920572471607
 20
45.759455661468564
 10
340.2163549592965
 20
45.755949198961616
 10
339.84370334613186
 20
45.74452614637062
 10
339.4713871809304
 20
45.72500560648973
 10
339.0995427593966
 20
45.697206682125625
 10
338.71071369248364
 20
45.65900977403567
 10
338.3228829060023
 20
45.61130881294571
 10
337.93638148658965
 20
45.55388200690072
 10
337.5515405208856
 20
45.486507563923624
 10
337.1686910955208
 20
45.40896369206257
 10
336.7881642971456
 20
45.321028599337524
 10
336.41029121239035
 20
45.22248049378368
 10
336.03540292788375
 20
45.113097583442595
 10
335.67564185832214
 20
44.99672136489767
 10
335.3193190113974
 20
44.870056042468605
 10
334.9667650354181
 20
44.73317450506363
 10
334.61831057870893
 20
44.58614964156766
 10
334.2742862895916
 20
44.429054340898574
 10
333.93502281638337
 20
44.261961491937655
 10
333.6008508074041
 20
44.0849439835996
 10
333.27210091097857
 20
43.89807470476967
 10
332.94858759262695
 20
43.70113829849265
 10
332.6310864172186
 20
43.4946292791426
 10
332.3198387382412
 20
43.27878456129861
 10
332.01508590919843
 20
43.053841059504634
 10
331.7170692835639
 20
42.820035688347616
 10
331.42603021482614
 20
42.57760536238459
 10
331.14221005647903
 20
42.326786996183614
 10
330.865850162015
 20
42.06781750430764
 10
330.59553353360684
 20
41.799238937179666
 10
330.33322386995246
 20
41.52286019043959
 10
330.07913007640093
 20
41.23889439977563
 10
329.8334610583165
 20
40.94755470087159
 10
329.5948022181087
 20
40.64698887000361
 10
329.3650247011951
 20
40.33952510256063
 10
329.1442562812276
 20
40.02552565369058
 10
328.93262473187633
 20
39.70535277854765
 10
328.7242228146056
 20
39.36938512368965
 10
328.52555287552354
 20
39.02761523978461
 10
328.3365114618823
 20
38.68041009008266
 10
328.15699512095443
 20
38.32813663785362
 10
327.9869003999896
 20
37.97116184635365
 10
327.826123846256
 20
37.609852678859625
 10
327.6745620070227
 20
37.244576098611674
 10
327.53211142953955
 20
36.8756990689036
 10
327.3910406803583
 20
36.48148871031765
 10
327.2598034852284
 20
36.08394094562357
 10
327.1381298947904
 20
35.6833451706176
 10
327.02574995968416
 20
35.279990781114634
 10
326.92239373056816
 20
34.87416717290364
 10
326.82779125807724
 20
34.46616374180064
 10
326.7416725928538
 20
34.05626988359165
 10
326.66376778555195
 20
33.644774994095656
 10
326.39146003468113
 20
32.12564906454463
 10
334.4538899515313
 20
30.916284577022566
 10
334.6827364803207
 20
32.391071593700644
 10
334.7415758550627
 20
32.741875500570586
 10
334.8095230724788
 20
33.09102157375264
 10
334.88734233720197
 20
33.43805374941758
 10
334.9757978538705
 20
33.78251596371058
 10
335.0629369517969
 20
34.08272705834065
 10
335.15946827045923
 20
34.380037628101604
 10
335.2114392691303
 20
34.52742921617562
 10
335.26597823086513
 20
34.673884473063595
 10
335.3231584582859
 20
34.819332998780624
 10
335.3830532540245
 20
34.96370439332361
 10
335.4382896162184
 20
35.09029173282863
 10
335.4957744791295
 20
35.21588252170466
 10
335.55558033141233
 20
35.34037588980266
 10
335.6177796617335
 20
35.46367096699157
 10
335.6824449587451
 20
35.58566688312965
 10
335.7496487111089
 20
35.706262768085594
 10
335.8194634074839
 20
35.82535775172164
 10
335.89196153652813
 20
35.94285096389058
 10
335.96217426473925
 20
36.05107883449466
 10
336.0348069965562
 20
36.15771454886465
 10
336.1098742947556
 20
36.26265206126061
 10
336.1873907221193
 20
36.36578532595365
 10
336.26238108517225
 20
36.460854814327604
 10
336.3395125902018
 20
36.55418745657664
 10
336.41875598810043
 20
36.64572928088057
 10
336.5000820297496
 20
36.73542631540067
 10
336.5815291056874
 20
36.821240507162656
 10
336.6648905366304
 20
36.90520240540059
 10
336.7501201117334
 20
36.98727263996966
 10
336.8371716201541
 20
37.06741184069665
 10
336.9259988510506
 20
37.145580637435614
 10
337.01655559358665
 20
37.22173966004061
 10
337.1087956369133
 20
37.29584953834558
 10
337.20267277019
 20
37.367870902205595
 10
337.2981407825748
 20
37.43776438146767
 10
337.39515346323174
 20
37.50549060596859
 10
337.49366460130966
 20
37.57101020555967
 10
337.5936279859701
 20
37.63428381008657
 10
337.69499740636957
 20
37.695272049388564
 10
337.79772665167127
 20
37.75393555332266
 10
337.9017695110265
 20
37.8102349517286
 10
338.007079773593
 20
37.86413087444862
 10
338.1136930291391
 20
37.91563072605561
 10
338.2214625327192
 20
37.9646853142616
 10
338.33032139608554
 20
38.011296110010676
 10
338.4402027310075
 20
38.055464584264655
 10
338.55103964924047
 20
38.09719220796762
 10
338.6627652625607
 20
38.136480452063665
 10
338.77531268272253
 20
38.173330787515624
 10
338.88861502149246
 20
38.20774468525963
 10
339.00973013222347
 20
38.241644518804605
 10
339.1315568296227
 20
38.27285433294867
 10
339.25403027941434
 20
38.30143189273667
 10
339.3770856473395
 20
38.327434963230644
 10
339.5006580991226
 20
38.35092130946566
 10
339.62468280049825
 20
38.37194869650557
 10
339.74909491719825
 20
38.39057488939363
 10
339.87382961495086
 20
38.4068576531746
 10
340.02907697362866
 20
38.423895215486596
 10
340.1846542184335
 20
38.43748036150066
 10
340.3404938192484
 20
38.447684909096665
 10
340.49652824595023
 20
38.454580676171645
 10
340.65268996840985
 20
38.45823948061661
 10
340.8089114565149
 20
38.458733140308595
 10
340.96512518014174
 20
38.45613347315361
 10
341.1212636091635
 20
38.450512297032674
 10
341.37771962025136
 20
38.434700043788666
 10
341.50567610197993
 20
38.42355563956562
 10
341.6333840333202
 20
38.410121291662676
 10
341.76079276336657
 20
38.39429868113166
 10
341.88785164124556
 20
38.37598948903258
 10
342.014510016053
 20
38.35509539638463
 10
342.14071723690483
 20
38.3315180842676
 10
342.2564807132925
 20
38.307359110001585
 10
342.3717491488163
 20
38.280815499690675
 10
342.4864529652091
 20
38.25186098538666
 10
342.60052258419205
 20
38.22046929912858
 10
342.71388842748763
 20
38.18661417296266
 10
342.8264809168336
 20
38.15026933893262
 10
342.93823047394244
 20
38.11140852907863
 10
343.04906752054853
 20
38.07000547545658
 10
343.15386519533536
 20
38.02812571104164
 10
343.257693728406
 20
37.98390156202561
 10
343.3604773827333
 20
37.937325215135616
 10
343.46214042131874
 20
37.88838885711357
 10
343.5626071071505
 20
37.837084674694665
 10
343.6618017032156
 20
37.78340485461763
 10
343.7596484725103
 20
37.727341583612656
 10
343.85607167801334
 20
37.668887048423585
 10
343.95149884150817
 20
37.60772413001666
 10
344.04539803239777
 20
37.54422155310158
 10
344.1377563094604
 20
37.478463907627656
 10
344.22856073147625
 20
37.41053578356457
 10
344.3177983572526
 20
37.34052177088563
 10
344.4054562455668
 20
37.26850645953266
 10
344.4915214552052
 20
37.194574439484654
 10
344.5759810449596
 20
37.11881030070765
 10
344.6581812022355
 20
37.0418884380166
 10
344.738715766674
 20
36.96325124477062
 10
344.8175129022453
 20
36.88290413848165
 10
344.8945007729267
 20
36.80085253665959
 10
344.9696075426814
 20
36.717101856805584
 10
345.0427613754814
 20
36.631657516427595
 10
345.11389043529334
 20
36.54452493304359
 10
345.18292288608916
 20
36.45570952414664
 10
345.24709392710565
 20
36.368962322003654
 10
345.30921825674113
 20
36.280717463246674
 10
345.3692436341056
 20
36.191020120664575
 10
345.42711781832384
 20
36.09991546706067
 10
345.4827885685312
 20
36.00744867523167
 10
345.536203643834
 20
35.91366491796464
 10
345.5873108033661
 20
35.81860936806163
 10
345.6360578062536
 20
35.72232719831959
 10
345.68280642623654
 20
35.623987604061654
 10
345.7271007877109
 20
35.524515826904576
 10
345.768942529377
 20
35.423982434516574
 10
345.8083332899546
 20
35.322457994572574
 10
345.8452747081442
 20
35.22001307475159
 10
345.8797684226424
 20
35.11671824271559
 10
345.91181607216754
 20
35.01264406614757
 10
345.94141929542604
 20
34.907861112715636
 10
345.97042480185803
 20
34.79492596800765
 10
345.99668186755423
 20
34.6813274704856
 10
346.0202442110782
 20
34.567134366930645
 10
346.04116555099563
 20
34.45241540414065
 10
346.05949960586577
 20
34.33723932889757
 10
346.07530009425807
 20
34.2216748879996
 10
346.0886207347352
 20
34.10579082821664
 10
346.0995152458522
 20
33.98965589635361
 10
346.10839922646255
 20
33.867888897831676
 10
346.1148674882875
 20
33.745972212401625
 10
346.1212923249891
 20
33.501889293605586
 10
346.1213601427439
 20
33.35092846103964
 10
346.118441798571
 20
33.200015553858634
 10
346.1124021205028
 20
33.04919857748666
 10
346.10310593658266
 20
32.89852553733158
 10
346.0909449397162
 20
32.75357598533765
 10
346.0755136434286
 20
32.60891997287058
 10
346.0566890125094
 20
32.46467292967759
 10
346.0343480117567
 20
32.32095028549759
 10
346.0083676059596
 20
32.17786747005164
 10
345.97862475991815
 20
32.035539913085586
 10
345.9449964384088
 20
31.894083044334593
 10
345.907359606251
 20
31.753612293527567
 10
345.87558880289316
 20
31.646270922328654
 10
345.8413032737967
 20
31.539692884449664
 10
345.80443483365286
 20
31.433989219608634
 10
345.76491529716577
 20
31.32927096753565
 10
345.72267647904084
 20
31.225649167925667
 10
345.67765019397075
 20
31.123234860520597
 10
345.6297682566669
 20
31.02213908502165
 10
345.57896248182215
 20
30.922472881147655
 10
345.52220950303433
 20
30.819098890727673
 10
345.4622324890455
 20
30.717523313059587
 10
345.3991305454724
 20
30.61783345484264
 10
345.33300277790954
 20
30.52011662276857
 10
345.2616848918435
 20
30.42143397608561
 10
345.18732156828025
 20
30.325042547275643
 10
345.1099844137384
 20
30.23103923710562
 10
345.02974503476
 20
30.139520946360676
 10
344.9466750378683
 20
30.050584575814582
 10
344.860846029594
 20
29.964327026224623
 10
344.7723296164688
 20
29.8808451983856
 10
344.6811974050212
 20
29.8002359930656
 10
344.58482736357246
 20
29.720329664067663
 10
344.4861269721963
 20
29.643248839733587
 10
344.3854590734185
 20
29.568675591229635
 10
344.2831865097445
 20
29.496291989738666
 10
344.17370422253
 20
29.421880943023666
 10
344.0628986178176
 20
29.349513398044564
 10
343.83757155264834
 20
29.21072163461963
 10
343.60771350785717
 20
29.079542342144578
 10
343.3738326770068
 20
28.955601163308643
 10
343.1101371721047
 20
28.826222963914574
 10
342.84234229216736
 20
28.70559576716562
 10
342.57067625813875
 20
28.594019079664577
 10
342.2953672909713
 20
28.49179240802357
 10
342.1535056477637
 20
28.443304744159605
 10
342.01080302868763
 20
28.397333353124623
 10
341.8673082239361
 20
28.353880147191603
 10
341.72307002371167
 20
28.312947038644666
 10
341.4325585976162
 20
28.238648762808566
 10
341.13965907196086
 20
28.1744538238396
 10
340.91845474935803
 20
28.13288342024657
 10
340.6962807746489
 20
28.09684398350157
 10
340.47329323319843
 20
28.06616468235461
 10
340.2496482103701
 20
28.04067468557662
 10
339.94717818144045
 20
28.01428101458464
 10
339.64404274403523
 20
27.99702828127863
 10
339.4112333530695
 20
27.990286324893646
 10
339.17834602526943
 20
27.99067907305266
 10
339.10270363018526
 20
27.992710596236634
 10
339.0271238784803
 20
27.99619832056362
 10
338.86052697130026
 20
28.009278720983616
 10
338.5592767569319
 20
28.03933986556467
 10
337.0916090708538
 20
28.204857950525593
 10
336.90340568376746
 20
26.739926498783575
 10
336.0365748807976
 20
19.992716864279146
 10
338.17840070603563
 20
20.541512278953178
 10
338.93627593599683
 20
20.7230123422288
 10
339.31747929976837
 20
20.803693897552648
 10
339.70028423384906
 20
20.876679786545196
 10
340.01083652586885
 20
20.92937513599702
 10
340.3224374566573
 20
20.97522206909366
 10
340.63504516770763
 20
21.012879387064572
 10
340.94861780052224
 20
21.041005891129657
 10
341.1781692086456
 20
21.054794306120584
 10
341.40802545181157
 20
21.06250803119758
 10
341.63799909346494
 20
21.063870443878614
 10
341.86790269705443
 20
21.0586049216746
 10
342.03337532864623
 20
21.05066127668863
 10
342.1986865919964
 20
21.039702322921585
 10
342.4838692918215
 20
21.014558347592583
 10
342.76808200568803
 20
20.980476555587984
 10
342.9096458722174
 20
20.959611024255423
 10
343.0508004812068
 20
20.93606979315541
 10
343.19148011479183
 20
20.909816652267182
 10
343.33161905509553
 20
20.8808153915312
 10
343.45643976717054
 20
20.85252331838717
 10
343.5807286537687
 20
20.821993565382172
 10
343.7044389279323
 20
20.789215501624767
 10
343.8275238027395
 20
20.754178496205327
 10
343.94993649123853
 20
20.71687191823503
 10
344.07163020648954
 20
20.677285136807882
 10
344.19255816155544
 20
20.635407521041316
 10
344.31267356949445
 20
20.59122844002627
 10
344.4337022300474
 20
20.544025047344007
 10
344.5537776450868
 20
20.494430509249355
 10
344.6728317842076
 20
20.442435411151337
 10
344.7907966170019
 20
20.388030338453973
 10
344.9076041130679
 20
20.331205876580043
 10
345.02318624199984
 20
20.271952610941753
 10
345.1374749733909
 20
20.210261126950854
 10
345.25040227683485
 20
20.14612201001512
 10
345.3883759055984
 20
20.063252980522066
 10
345.52411853710646
 20
19.97675958301943
 10
345.65759457049467
 20
19.886791042000027
 10
345.7887684048977
 20
19.79349658195008
 10
345.89292025881264
 20
19.71587996016717
 10
345.99552574072493
 20
19.636236608439958
 10
346.09656091887814
 20
19.554608548617125
 10
346.19600186151297
 20
19.47103780254895
 10
346.2938246368698
 20
19.385566392081273
 10
346.39000531319584
 20
19.298236339070627
 10
346.48451995873563
 20
19.209089665359215
 10
346.5773446417237
 20
19.118168392796974
 10
346.68276773517164
 20
19.01061794446707
 10
346.7857689304451
 20
18.90075227859529
 10
346.8862285240516
 20
18.788583467921626
 10
346.98402681250934
 20
18.67412358517288
 10
347.07904409233674
 20
18.55738470310598
 10
347.1711606600504
 20
18.438378894456946
 10
347.260256812154
 20
18.317118231959057
 10
347.3462128451788
 20
18.19361478836595
 10
347.41245996929104
 20
18.093497404296386
 10
347.4766176621048
 20
17.992010717990297
 10
347.53867104768267
 20
17.889205052958232
 10
347.5986052500933
 20
17.785130732710286
 10
347.6564053934103
 20
17.679838080744958
 10
347.7120566017013
 20
17.573377420587917
 10
347.7655439990407
 20
17.465799075724476
 10
347.8168527094889
 20
17.357153369672346
 10
347.86596785713436
 20
17.24749062593196
 10
347.9128745660214
 20
17.13686116802046
 10
347.9575579602383
 20
17.02531531942816
 10
348.0000031638476
 20
16.912903403676864
 10
348.04019530092546
 20
16.79967574427633
 10
348.0781194955339
 20
16.685682664711067
 10
348.11376087174324
 20
16.57097448851607
 10
348.14710455362683
 20
16.455601539169265
 10
348.18114215354365
 20
16.32791713441543
 10
348.2124455646094
 20
16.199550165395067
 10
348.2410816735843
 20
16.070562313296705
 10
348.26711736725474
 20
15.94101525929625
 10
348.29061953237533
 20
15.810970684576887
 10
348.311655055722
 20
15.68049027031907
 10
348.33029082406324
 20
15.549635697713029
 10
348.34659372417036
 20
15.418468647929558
 10
348.361990420462
 20
15.273020054524864
 10
348.37466691595864
 20
15.127310656148097
 10
348.38467796853865
 20
14.981386776757063
 10
348.392078336082
 20
14.835294740327868
 10
348.3992660475719
 20
14.542791492243964
 10
348.39666811348206
 20
14.250171503665115
 10
348.3845613886526
 20
13.95776870109546
 10
348.3625890886192
 20
13.66601140653097
 10
348.34774227801915
 20
13.520497195691974
 10
348.3302357897659
 20
13.375291206961037
 10
348.3100051958912
 20
13.230442388720007
 10
348.28698606845273
 20
13.085999689346977
 10
348.26244294673893
 20
12.948997099417966
 10
348.2352955601341
 20
12.812470657229255
 10
348.2055222313768
 20
12.676484569805666
 10
348.1731012832347
 20
12.54110304416497
 10
348.13801103843366
 20
12.406390287347904
 10
348.1002298197359
 20
12.27241050636087
 10
348.0597359498802
 20
12.139227908231987
 10
348.01650775162443
 20
12.006906699985507
 10
347.9718413432324
 20
11.879142013112869
 10
347.92458106726133
 20
11.75231206220667
 10
347.8747383228996
 20
11.626476611571206
 10
347.8223245093682
 20
11.501695425519074
 10
347.76735102584576
 20
11.378028268332969
 10
347.7098292715468
 20
11.255534904329238
 10
347.64977064566244
 20
11.134275097788873
 10
347.58718654739573
 20
11.014308613037542
 10
347.52127171165125
 20
10.894224278632919
 10
347.4528405031738
 20
10.77555524219008
 10
347.38195349904834
 20
10.658329875093727
 10
347.30867127632473
 20
10.542576548730949
 10
347.23305441206094
 20
10.428323634495996
 10
347.1551634833372
 20
10.315599503788917
 10
347.0750590672063
 20
10.204432527984864
 10
346.99280174073226
 20
10.094851078492866
 10
346.90590111354277
 20
9.983683440582126
 10
346.816837572836
 20
9.874243869932002
 10
346.7256673118511
 20
9.766548750832158
 10
346.6324465238299
 20
9.660614467534742
 10
346.5372314020019
 20
9.55645740433124
 10
346.4400781396139
 20
9.454093945493014
 10
346.34104292989946
 20
9.353540475298928
 10
346.2401819661022
 20
9.254813378017502
 10
346.13742294164445
 20
9.15782891874153
 10
346.0328927428285
 20
9.062772038375215
 10
345.92659384534034
 20
8.969723300317696
 10
345.81852872485547
 20
8.878763267955833
 10
345.70869985704235
 20
8.789972504694333
 10
345.59710971758034
 20
8.703431573910166
 10
345.4837607821405
 20
8.61922103900747
 10
345.3686555264061
 20
8.537421463376063
 10
345.25503627028365
 20
8.460249941636107
 10
345.13981071899923
 20
8.385468916960917
 10
345.0230314490723
 20
8.313112282910765
 10
344.9047510370341
 20
8.243213933033303
 10
344.7850220593949
 20
8.17580776089585
 10
344.6638970926791
 20
8.110927660040375
 10
344.5414287134131
 20
8.048607524026238
 10
344.41766949810824
 20
7.988881246421215
 10
344.29126039623725
 20
7.931147289293676
 10
344.1636568803183
 20
7.876090704166245
 10
344.0349308429336
 20
7.82370159133518
 10
343.9051541766596
 20
7.773970051143124
 10
343.77439877408096
 20
7.726886183893157
 10
343.6427365277681
 20
7.682440089934062
 10
343.5102393303091
 20
7.640621869567326
 10
343.37697907427105
 20
7.601421623117631
 10
343.23151474344854
 20
7.561808868685034
 10
343.08529224951906
 20
7.525219845407264
 10
342.9383681098619
 20
7.491604135515217
 10
342.7907988418733
 20
7.460911321202957
 10
342.64264096294517
 20
7.43309098469831
 10
342.4939509904593
 20
7.40809270820148
 10
342.3447854418022
 20
7.385866073927787
 10
342.1952008343645
 20
7.366360664096874
 10
342.0452536855315
 20
7.34952606090485
 10
341.89500051269647
 20
7.3353118465805665
 10
341.5938021645645
 20
7.314542913348873
 10
341.29205792907055
 20
7.303650522101066
 10
340.9902199453112
 20
7.302231330536074
 10
340.7266396732098
 20
7.308577296877047
 10
340.4635074004832
 20
7.322445973874096
 10
340.20099729686024
 20
7.344430219328956
 10
339.93928353208446
 20
7.375122891045066
 10
339.7294175820165
 20
7.406522750396334
 10
339.52047765156135
 20
7.444112168957076
 10
339.3127613401733
 20
7.488057972581828
 10
339.10656624730973
 20
7.538526987137175
 10
338.90218997242425
 20
7.595686038487429
 10
338.69993011498195
 20
7.65970195249713
 10
338.5996868426315
 20
7.694333366074943
 10
338.5000842744388
 20
7.730741555021041
 10
338.4011596103296
 20
7.768947372561115
 10
338.30295005025016
 20
7.808971671931317
 10
338.17248787114045
 20
7.865498408999201
 10
338.04346561146076
 20
7.925294037998242
 10
337.91597137058443
 20
7.988322337245677
 10
337.7900932478909
 20
8.05454708508114
 10
337.66591934274516
 20
8.12393205981357
 10
337.5435377545284
 20
8.196441039781462
 10
337.4230365826129
 20
8.272037803307057
 10
337.30450392637556
 20
8.350686128723169
 10
337.1806366471951
 20
8.43768834928403
 10
337.0592243850275
 20
8.528069861301447
 10
336.94039340762504
 20
8.621795621892034
 10
336.82426998271103
 20
8.718830588196852
 10
336.720183665338
 20
8.810750764784416
 10
336.6185180065472
 20
8.905338047682335
 10
336.51930710633997
 20
9.00250214125515
 10
336.42258506472126
 20
9.102152749851257
 10
336.32838598169246
 20
9.20419957784145
 10
336.2367439572532
 20
9.308552329591066
 10
336.1476930914064
 20
9.415120709456232
 10
336.0612674841609
 20
9.523814421789552
 10
335.9831865810896
 20
9.62682139418564
 10
335.9073331071223
 20
9.731484165433585
 10
335.83363000393115
 20
9.837695057725114
 10
335.7620002132021
 20
9.945346393272871
 10
335.6923666765938
 20
10.054330494269493
 10
335.6246523357853
 20
10.164539682907616
 10
335.49467300828974
 20
10.388202611894258
 10
335.35435915022333
 20
10.648485585536037
 10
335.222461705001
 20
10.913045695022447
 10
335.09856732279275
 20
11.181441577037049
 10
334.9822626537565
 20
11.453231868300009
 10
334.8582414268253
 20
11.767086335582462
 10
334.7429008840347
 20
12.084298102364073
 10
334.6355710901603
 20
12.404376724201938
 10
334.5355821099887
 20
12.726831756655884
 10
334.43057335960793
 20
13.093896832502764
 10
334.33365300266564
 20
13.463131388115357
 10
334.24437427345526
 20
13.834291874528958
 10
334.1622904062709
 20
14.207134742792164
 10
333.8709243192602
 20
15.591438328444951
 10
332.4719408902524
 20
15.381590814095262
 10
327.411699926402
 20
14.622554669518763
 10
325.99999999999955
 20
14.410799680559876
 10
326.14160956765716
 20
12.990347784900564
  0
LWPOLYLINE
  5
37
330
17
100
AcDbEntity
  8
\U+6392\U+7248\U+7ed3\U+679c
100
AcDbPolyline
 90
261
 70
0
 10
325.99999999999955
 20
78.62314940049714
 10
326.0181402805333
 20
77.05717584086608
 10
326.0760413299025
 20
75.49229738959173
 10
326.1789234597577
 20
73.92993768803001
 10
326.3320069817689
 20
72.3715203775821
 10
326.49146699708183
 20
71.14917889835397
 10
326.6895435089299
 20
69.93260669276867
 10
326.8044060146964
 20
69.32724859069776
 10
326.9305343209668
 20
68.72425023476785
 10
327.0684656531952
 20
68.12391743422347
 10
327.21873723684246
 20
67.52655599830484
 10
327.4365266382532
 20
66.74486709288385
 10
327.6785222263276
 20
65.97033224982772
 10
327.80917928645044
 20
65.58620628126039
 10
327.9465862285483
 20
65.20441924376166
 10
328.0909758310513
 20
64.82515460916454
 10
328.2425808723907
 20
64.44859584928543
 10
328.4646285038359
 20
63.9325124060864
 10
328.7013935786142
 20
63.422920979783726
 10
328.9533373202082
 20
62.92078324920442
 10
329.22092095209655
 20
62.42706089317335
 10
329.5046056977403
 20
61.94271559051367
 10
329.652630120559
 20
61.70435985882136
 10
329.8048527806201
 20
61.46870902003013
 10
329.9613313308563
 20
61.23588328399387
 10
330.122123424213
 20
61.00600286055294
 10
330.2872867136117
 20
60.779187959576575
 10
330.45687885198777
 20
60.55555879088786
 10
330.4836410343629
 20
60.52198632785792
 10
330.7527494417186
 20
60.20395453021354
 10
331.03139184097347
 20
59.89415073641521
 10
331.3194215038327
 20
59.59306007203929
 10
331.61669170202526
 20
59.30116766265155
 10
331.923055707264
 20
59.01895863382583
 10
332.23836679127055
 20
58.74691811113155
 10
332.562478225758
 20
58.48553122013573
 10
332.8952432824368
 20
58.23528308641369
 10
333.0726455211768
 20
58.10901039069404
 10
333.2523060615399
 20
57.98593846074584
 10
333.4341569311142
 20
57.866089424268466
 10
333.6181301574902
 20
57.749485408973214
 10
333.8041577682468
 20
57.63614854254877
 10
333.9921717909781
 20
57.52610095269972
 10
334.18210425326436
 20
57.41936476713272
 10
334.37388718270427
 20
57.31596211355736
 10
334.76273255336287
 20
57.11924591314266
 10
335.1581641236586
 20
56.936129373077506
 10
335.5596381142892
 20
56.76678951496365
 10
335.9666107459393
 20
56.61140336043866
 10
336.3697229738335
 20
56.47293313460773
 10
336.7771163406227
 20
56.347712243653405
 10
337.1883259709937
 20
56.23545490758147
 10
337.60288698961244
 20
56.13587534640567
 10
338.02033452116814
 20
56.04868778010746
 10
338.4402036903392
 20
55.973606428692506
 10
338.86202962180096
 20
55.91034551216785
 10
339.28534744023057
 20
55.85861925052927
 10
339.74777159313066
 20
55.81503610817674
 10
340.21114557834653
 20
55.784311126243665
 10
340.6752000976953
 20
55.76594930919566
 10
341.13966585297
 20
55.759455661468564
 10
341.7758739653324
 20
55.76933909993761
 10
342.0937592512636
 20
55.78267425364845
 10
342.4113287711368
 20
55.80181537685087
 10
342.7284550855202
 20
55.82692022943763
 10
343.0450107549892
 20
55.85814657128037
 10
343.3608683401088
 20
55.895652162272654
 10
343.67590040147434
 20
55.93959476230418
 10
343.9926680653841
 20
55.990590443080805
 10
344.3082646840843
 20
56.0484207112836
 10
344.6224886602847
 20
56.113211306660446
 10
344.9351383966748
 20
56.18508796897004
 10
345.2460122959616
 20
56.26417643794946
 10
345.5549087608375
 20
56.35060245334239
 10
345.86162619400557
 20
56.4444917548924
 10
346.1659629981748
 20
56.545970082347594
 10
346.45770924578017
 20
56.65138348553876
 10
346.7468053280203
 20
56.76399942711362
 10
347.0330142851087
 20
56.88381065307726
 10
347.3160991572581
 20
57.01080990945286
 10
347.5958229846817
 20
57.144989942239704
 10
347.8719488076018
 20
57.28634349746869
 10
348.1442396662254
 20
57.43486332113673
 10
348.41245860076367
 20
57.590542159268466
 10
348.7143297629443
 20
57.77754635185647
 10
349.010401519379
 20
57.97361606005961
 10
349.3005247084162
 20
58.178438688207166
 10
349.58455016841776
 20
58.39170164061841
 10
349.8623287377411
 20
58.61309232162955
 10
350.1337112547443
 20
58.84229813553566
 10
350.3985485577831
 20
59.079006486680555
 10
350.6566914852135
 20
59.32290477938045
 10
350.8378663307974
 20
59.50231651473371
 10
351.0155160728208
 20
59.68517193266905
 10
351.18964481618593
 20
59.87136807222794
 10
351.36025666580247
 20
60.06080197243443
 10
351.52735572656786
 20
60.253370672330334
 10
351.69094610339357
 20
60.448971210936406
 10
351.85103190118366
 20
60.64750062729365
 10
352.00761722483867
 20
60.848855960424316
 10
352.3103028693764
 20
61.25963253315888
 10
352.5990358762499
 20
61.68047724138489
 10
352.8738490846896
 20
62.11056639737296
 10
353.1347753339427
 20
62.549076313351634
 10
353.3010642259775
 20
62.84572507970461
 10
353.46134104722455
 20
63.145577057060564
 10
353.6157521736003
 20
63.44845839856987
 10
353.76444398101717
 20
63.754195257371634
 10
353.90756284539736
 20
64.06261378663567
 10
354.04525514265845
 20
64.37354013948175
 10
354.30494553950257
 20
65.00222092855586
 10
354.4614629731909
 20
65.41126952540549
 10
354.60979753463243
 20
65.82337351457636
 10
354.7500347006985
 20
66.23829535979667
 10
354.88225994823165
 20
66.65579752481756
 10
355.0972965386968
 20
67.40101022332362
 10
355.28922156754345
 20
68.15252265890433
 10
355.459795776718
 20
68.90928317111025
 10
355.610779908169
 20
69.67024009950455
 10
355.75744389106126
 20
70.51878112242139
 10
355.8836936239203
 20
71.37058176860376
 10
355.9910877683102
 20
72.22502605757961
 10
356.0811849857962
 20
73.08149800889169
 10
356.1580334125972
 20
73.97287528664776
 10
356.21898559694046
 20
74.86547246064958
 10
356.2975680414455
 20
76.65311098330415
 10
356.32240419820437
 20
77.95478292017015
 10
356.3232051025494
 20
79.2567251868561
 10
356.2880081168021
 20
81.02486364967308
 10
356.2045035137668
 20
82.79124895427617
 10
356.0932125156703
 20
84.23567012817716
 10
356.0204356497047
 20
84.95635695370015
 10
355.93478285684216
 20
85.6756581249391
 10
355.8408652734465
 20
86.35300453695413
 10
355.7319488429747
 20
87.02806675322506
 10
355.6221802003123
 20
87.6183652963341
 10
355.4987189693346
 20
88.20592588487614
 10
355.36140772726117
 20
88.79039068475015
 10
355.2100890513135
 20
89.37140186185616
 10
355.0635943003523
 20
89.88629485064507
 10
354.7441468443956
 20
90.90814720223807
 10
354.57113973056016
 20
91.4146580897891
 10
354.3994967067026
 20
91.8845652118481
 10
354.2179504809935
 20
92.35077599026806
 10
354.0265271106779
 20
92.81302370134313
 10
353.825252652974
 20
93.2710416213821
 10
353.63046128665496
 20
93.6900472468011
 10
353.4264091098828
 20
94.10461493859214
 10
353.21243646104597
 20
94.51421535178815
 10
352.9887583817506
 20
94.91860823482114
 10
352.82111664443414
 20
95.2075497471601
 10
352.64796058344973
 20
95.49320734776609
 10
352.4686571372147
 20
95.77508992790706
 10
352.2827156239215
 20
96.05264000222917
 10
352.0238255827894
 20
96.41520704422908
 10
351.88970411910645
 20
96.59306425511215
 10
351.7524941609387
 20
96.76855530625915
 10
351.612216012383
 20
96.94161428483915
 10
351.468883791227
 20
97.11215748564109
 10
351.3225100686467
 20
97.28009675538215
 10
351.17310741583924
 20
97.44534394077016
 10
350.9667934735278
 20
97.66386393468213
 10
350.7551173806603
 20
97.87718819495512
 10
350.5382066359649
 20
98.0851809060141
 10
350.3161887381534
 20
98.28770625225707
 10
350.0891911859685
 20
98.48462841813716
 10
349.85734147812366
 20
98.67581158804614
 10
349.6207671133485
 20
98.86111994642408
 10
349.3795955903586
 20
99.04041767768013
 10
349.1912072889826
 20
99.17405708792512
 10
349.00028515286203
 20
99.3040668687321
 10
348.8069354281523
 20
99.4304478922021
 10
348.6112643609557
 20
99.5532010304471
 10
348.4133709062221
 20
99.67231902550407
 10
348.21332485413564
 20
99.7877620990331
 10
348.0111887036961
 20
99.8994823426151
 10
347.80702495389767
 20
100.00743184784312
 10
347.5491233696208
 20
100.13698495137317
 10
347.2883078859154
 20
100.2605882277461
 10
347.0247338029727
 20
100.37825601807401
 10
346.7585564209801
 20
100.49000266349015
 10
346.4899327239888
 20
100.59583267430014
 10
346.2190264315501
 20
100.6957112376191
 10
345.9460029470499
 20
100.78959370973905
 10
345.67102767390656
 20
100.87743544696116
 10
345.4382136780405
 20
100.946662453165
 10
345.2042108778476
 20
101.01163308364914
 10
344.9690957488142
 20
101.07240117894719
 10
344.73294476643207
 20
101.12902057954909
 10
344.2578411435495
 20
101.23002865879005
 10
343.7795118130797
 20
101.3150880454931
 10
343.29856857891707
 20
101.38462946381821
 10
342.8156232449452
 20
101.43908363788603
 10
342.3312876150592
 20
101.47888129184014
 10
341.84617349314226
 20
101.5044531498321
 10
341.2270893097283
 20
101.51744073084808
 10
340.607447330432
 20
101.50987064310209
 10
340.297929022297
 20
101.49784662352715
 10
339.98872251665284
 20
101.4803098431372
 10
339.6798293418158
 20
101.45735075232403
 10
339.3713835702654
 20
101.42870427412606
 10
339.09164561668126
 20
101.39747603045214
 10
338.81252696266665
 20
101.36117540420912
 10
338.5341394749554
 20
101.3197178400502
 10
338.256595020275
 20
101.27301878261017
 10
337.9800054653458
 20
101.22099367653311
 10
337.70448267689585
 20
101.16355796644018
 10
337.4301385216638
 20
101.10062709697502
 10
337.1570848663612
 20
101.03211651276922
 10
336.8854454322951
 20
100.95794713182102
 10
336.6153913590439
 20
100.87806176553602
 10
336.34710564077056
 20
100.79240869869011
 10
336.0807712716231
 20
100.70093621603621
 10
335.8165712457645
 20
100.60359260234202
 10
335.5546885573401
 20
100.5003261423891
 10
335.2953062005215
 20
100.39108512093219
 10
335.0386071694536
 20
100.2758178227491
 10
334.77184452976667
 20
100.1481283801661
 10
334.5083575680852
 20
100.01385277815314
 10
334.2482546930403
 20
99.87312100847714
 10
333.9916443132622
 20
99.72606306287116
 10
333.73865373624517
 20
99.5727900162941
 10
333.48948586494566
 20
99.41333727659116
 10
333.2443625011906
 20
99.24772133479314
 10
333.0035054468042
 20
99.07595868194517
 10
332.75905270091926
 20
98.8918929126271
 10
332.51939538395857
 20
98.70158803935408
 10
332.28452698882177
 20
98.50536382513815
 10
332.05444100840555
 20
98.30354003302114
 10
331.7536839987822
 20
98.02484272935408
 10
331.4616793677649
 20
97.73701646966708
 10
331.17860614391225
 20
97.44041022437614
 10
330.9046433558119
 20
97.13537296389813
 10
330.6399313843208
 20
96.8222742756501
 10
330.38445601949354
 20
96.50156621511815
 10
330.1381644036587
 20
96.17372145477816
 10
329.9010036791568
 20
95.83921266712014
 10
329.7175838637463
 20
95.56677960973514
 10
329.53991617035126
 20
95.29057225375414
 10
329.36792843305716
 20
95.01078855213314
 10
329.2015484859346
 20
94.72762645782313
 10
329.0407041150081
 20
94.4412796414681
 10
328.88532291409297
 20
94.15192464443908
 10
328.7353324289759
 20
93.85973372580611
 10
328.5906602054089
 20
93.56487914463207
 10
328.3248937362348
 20
92.98608002912613
 10
328.0778282556055
 20
92.39901354714016
 10
327.8485596016268
 20
91.80472729854807
 10
327.63668258288976
 20
91.20404729288407
 10
327.405044101866
 20
90.47644356536011
 10
327.1967264447952
 20
89.7418010692021
 10
327.0104516744501
 20
89.0011647771181
 10
326.8449418536202
 20
88.25557966183715
 10
326.6834428384607
 20
87.42131977400015
 10
326.5432333938968
 20
86.58320886843512
 10
326.4218809263599
 20
85.74214175111808
 10
326.3185783928236
 20
84.89866174603117
 10
326.20556886756776
 20
83.75072739011614
 10
326.1193966861026
 20
82.60047080149616
 10
326.0281213640699
 20
80.6127676845831
 10
326.0000000000034
 20
78.62314940050112
  0
LWPOLYLINE
  5
38
330
17
100
AcDbEntity
  8
\U+6392\U+7248\U+7ed3\U+679c
100
AcDbPolyline
 90
8
 70
0
 10
386.5102902522922
 20
20.399999999999864
 10
389.8602902522922
 20
20.399999999999864
 10
389.8602902522922
 20
0.0
 10
386.4602902522921
 20
0.0
 10
386.4602902522921
 20
17.0
 10
366.4602902522922
 20
17.0
 10
366.4602902522922
 20
20.399999999999864
 10
386.5102902522922
 20
20.399999999999864
  0
LWPOLYLINE
  5
39
330
17
100
AcDbEntity
  8
\U+6392\U+7248\U+7ed3\U+679c
100
AcDbPolyline
 90
8
 70
0
 10
369.8602902522922
 20
47.399999999999864
 10
389.8602902522922
 20
47.399999999999864
 10
389.8602902522922
 20
50.79999999999973
 10
369.5102902522923
 20
50.79999999999973
 10
366.4602902522922
 20
50.79999999999973
 10
366.4602902522922
 20
30.399999999999864
 10
369.8602902522922
 20
30.399999999999864
 10
369.8602902522922
 20
47.399999999999864
  0
LWPOLYLINE
  5
3A
330
17
100
AcDbEntity
  8
\U+6392\U+7248\U+7ed3\U+679c
100
AcDbPolyline
 90
5
 70
0
 10
366.4602902522922
 20
60.79999999999973
 10
366.4602902522922
 20
64.49999999999943
 10
387.16029025229216
 20
64.49999999999943
 10
387.16029025229216
 20
60.79999999999973
 10
366.4602902522922
 20
60.79999999999973
  0
LWPOLYLINE
  5
3B
330
17
100
AcDbEntity
  8
\U+6392\U+7248\U+7ed3\U+679c
100
AcDbPolyline
 90
5
 70
0
 10
366.4602902522922
 20
74.49999999999943
 10
375.02655531254027
 20
74.49999999999943
 10
375.02655531254027
 20
83.06626506023792
 10
366.4602902522922
 20
83.06626506023792
 10
366.4602902522922
 20
74.49999999999943
  0
LWPOLYLINE
  5
3C
330
17
100
AcDbEntity
  8
\U+6392\U+7248\U+7ed3\U+679c
100
AcDbPolyline
 90
5
 70
0
 10
388.42655531254036
 20
94.8999999999993
 10
388.42655531254036
 20
74.49999999999943
 10
385.02655531254027
 20
74.49999999999943
 10
385.02655531254027
 20
94.8999999999993
 10
388.42655531254036
 20
94.8999999999993
  0
LWPOLYLINE
  5
3D
330
17
100
AcDbEntity
  8
\U+6392\U+7248\U+7ed3\U+679c
100
AcDbPolyline
 90
5
 70
0
 10
369.8602902522923
 20
113.46626506023767
 10
369.8602902522923
 20
93.06626506023792
 10
366.4602902522922
 20
93.06626506023792
 10
366.4602902522922
 20
113.46626506023767
 10
369.8602902522923
 20
113.46626506023767
  0
LWPOLYLINE
  5
3E
330
17
100
AcDbEntity
  8
\U+6392\U+7248\U+7ed3\U+679c
100
AcDbPolyline
 90
5
 70
0
 10
385.02655531254027
 20
125.29999999999916
 10
385.02655531254027
 20
104.8999999999993
 10
388.42655531254024
 20
104.8999999999993
 10
388.42655531254024
 20
125.29999999999916
 10
385.02655531254027
 20
125.29999999999916
  0
LWPOLYLINE
  5
3F
330
17
100
AcDbEntity
  8
\U+6392\U+7248\U+7ed3\U+679c
100
AcDbPolyline
 90
5
 70
0
 10
325.99999999999955
 20
131.91744073084783
 10
325.99999999999955
 20
111.51744073084808
 10
329.3999999999995
 20
111.51744073084808
 10
329.3999999999995
 20
131.91744073084783
 10
325.99999999999955
 20
131.91744073084783
  0
LWPOLYLINE
  5
40
330
17
100
AcDbEntity
  8
\U+6392\U+7248\U+7ed3\U+679c
100
AcDbPolyline
 90
5
 70
0
 10
339.39999999999986
 20
111.51744073084808
 10
354.7999999999996
 20
111.51744073084808
 10
354.7999999999996
 20
114.91744073084806
 10
339.3999999999995
 20
114.91744073084806
 10
339.39999999999986
 20
111.51744073084808
  0
LWPOLYLINE
  5
41
330
17
100
AcDbEntity
  8
\U+6392\U+7248\U+7ed3\U+679c
100
AcDbPolyline
 90
5
 70
0
 10
354.7999999999994
 20
124.91744073084806
 10
339.3999999999995
 20
124.91744073084806
 10
339.3999999999995
 20
128.31744073084803
 10
354.7999999999995
 20
128.31744073084803
 10
354.7999999999994
 20
124.91744073084806
  0
LWPOLYLINE
  5
42
330
17
100
AcDbEntity
  8
\U+6392\U+7248\U+7ed3\U+679c
100
AcDbPolyline
 90
5
 70
0
 10
339.3999999999995
 20
138.31744073084803
 10
354.7999999999995
 20
138.31744073084803
 10
354.7999999999995
 20
141.7174407308479
 10
339.3999999999995
 20
141.7174407308479
 10
339.3999999999995
 20
138.31744073084803
  0
LWPOLYLINE
  5
43
330
17
100
AcDbEntity
  8
\U+6392\U+7248\U+7ed3\U+679c
100
AcDbPolyline
 90
5
 70
0
 10
380.1999999999994
 20
138.31744073084803
 10
364.7999999999995
 20
138.31744073084803
 10
364.7999999999995
 20
141.7174407308479
 10
380.1999999999994
 20
141.7174407308479
 10
380.1999999999994
 20
138.31744073084803
  0
LWPOLYLINE
  5
44
330
17
100
AcDbEntity
  8
\U+6392\U+7248\U+7ed3\U+679c
 62
2
100
AcDbPolyline
 90
5
 70
0
 10
0.0
 20
0.0
 10
400.0
 20
0.0
 10
400.0
 20
850.0
 10
0.0
 20
850.0
 10
0.0
 20
0.0
  0
ENDSEC
  0
SECTION
  2
OBJECTS
  0
DICTIONARY
  5
A
330
0
100
AcDbDictionary
281
1
  3
ACAD_COLOR
350
B
  3
ACAD_GROUP
350
C
  3
ACAD_LAYOUT
350
D
  3
ACAD_MATERIAL
350
E
  3
ACAD_MLEADERSTYLE
350
F
  3
ACAD_MLINESTYLE
350
10
  3
ACAD_PLOTSETTINGS
350
11
  3
ACAD_PLOTSTYLENAME
350
12
  3
ACAD_SCALELIST
350
14
  3
ACAD_TABLESTYLE
350
15
  3
ACAD_VISUALSTYLE
350
16
  3
EZDXF_META
350
2D
  0
DICTIONARY
  5
B
330
A
100
AcDbDictionary
281
1
  0
DICTIONARY
  5
C
330
A
100
AcDbDictionary
281
1
  0
DICTIONARY
  5
D
330
A
100
AcDbDictionary
281
1
  3
Model
350
1A
  3
Layout1
350
1E
  0
DICTIONARY
  5
E
330
A
100
AcDbDictionary
281
1
  3
ByBlock
350
1F
  3
ByLayer
350
20
  3
Global
350
21
  0
DICTIONARY
  5
F
330
A
100
AcDbDictionary
281
1
  3
Standard
350
2C
  0
DICTIONARY
  5
10
330
A
100
AcDbDictionary
281
1
  3
Standard
350
22
  0
DICTIONARY
  5
11
330
A
100
AcDbDictionary
281
1
  0
ACDBDICTIONARYWDFLT
  5
12
330
A
100
AcDbDictionary
281
1
  3
Normal
350
13
100
AcDbDictionaryWithDefault
340
13
  0
ACDBPLACEHOLDER
  5
13
330
12
  0
DICTIONARY
  5
14
330
A
100
AcDbDictionary
281
1
  0
DICTIONARY
  5
15
330
A
100
AcDbDictionary
281
1
  0
DICTIONARY
  5
16
330
A
100
AcDbDictionary
281
1
  0
LAYOUT
  5
1A
330
D
100
AcDbPlotSettings
  1

  4
A3
  6

 40
7.5
 41
20.0
 42
7.5
 43
20.0
 44
420.0
 45
297.0
 46
0.0
 47
0.0
 48
0.0
 49
0.0
140
0.0
141
0.0
142
1.0
143
1.0
 70
1024
 72
1
 73
0
 74
5
  7

 75
16
 76
0
 77
2
 78
300
147
1.0
148
0.0
149
0.0
100
AcDbLayout
  1
Model
 70
1
 71
0
 10
0.0
 20
0.0
 11
420.0
 21
297.0
 12
0.0
 22
0.0
 32
0.0
 14
1e+20
 24
1e+20
 34
1e+20
 15
-1e+20
 25
-1e+20
 35
-1e+20
146
0.0
 13
0.0
 23
0.0
 33
0.0
 16
1.0
 26
0.0
 36
0.0
 17
0.0
 27
1.0
 37
0.0
 76
1
330
17
  0
LAYOUT
  5
1E
330
D
100
AcDbPlotSettings
  1

  4
A3
  6

 40
7.5
 41
20.0
 42
7.5
 43
20.0
 44
420.0
 45
297.0
 46
0.0
 47
0.0
 48
0.0
 49
0.0
140
0.0
141
0.0
142
1.0
143
1.0
 70
0
 72
1
 73
0
 74
5
  7

 75
16
 76
0
 77
2
 78
300
147
1.0
148
0.0
149
0.0
100
AcDbLayout
  1
Layout1
 70
1
 71
1
 10
0.0
 20
0.0
 11
420.0
 21
297.0
 12
0.0
 22
0.0
 32
0.0
 14
1e+20
 24
1e+20
 34
1e+20
 15
-1e+20
 25
-1e+20
 35
-1e+20
146
0.0
 13
0.0
 23
0.0
 33
0.0
 16
1.0
 26
0.0
 36
0.0
 17
0.0
 27
1.0
 37
0.0
 76
1
330
1B
  0
MATERIAL
  5
1F
102
{ACAD_REACTORS
330
E
102
}
330
E
100
AcDbMaterial
  1
ByBlock
  2

 70
0
 40
1.0
 71
1
 41
1.0
 91
-1023410177
 42
1.0
 72
1
  3

 73
1
 74
1
 75
1
 44
0.5
 73
0
 45
1.0
 46
1.0
 77
1
  4

 78
1
 79
1
170
1
 48
1.0
171
1
  6

172
1
173
1
174
1
140
1.0
141
1.0
175
1
  7

176
1
177
1
178
1
143
1.0
179
1
  8

270
1
271
1
272
1
145
1.0
146
1.0
273
1
  9

274
1
275
1
276
1
 42
1.0
 72
1
  3

 73
1
 74
1
 75
1
 94
63
  0
MATERIAL
  5
20
102
{ACAD_REACTORS
330
E
102
}
330
E
100
AcDbMaterial
  1
ByLayer
  2

 70
0
 40
1.0
 71
1
 41
1.0
 91
-1023410177
 42
1.0
 72
1
  3

 73
1
 74
1
 75
1
 44
0.5
 73
0
 45
1.0
 46
1.0
 77
1
  4

 78
1
 79
1
170
1
 48
1.0
171
1
  6

172
1
173
1
174
1
140
1.0
141
1.0
175
1
  7

176
1
177
1
178
1
143
1.0
179
1
  8

270
1
271
1
272
1
145
1.0
146
1.0
273
1
  9

274
1
275
1
276
1
 42
1.0
 72
1
  3

 73
1
 74
1
 75
1
 94
63
  0
MATERIAL
  5
21
102
{ACAD_REACTORS
330
E
102
}
330
E
100
AcDbMaterial
  1
Global
  2

 70
0
 40
1.0
 71
1
 41
1.0
 91
-1023410177
 42
1.0
 72
1
  3

 73
1
 74
1
 75
1
 44
0.5
 73
0
 45
1.0
 46
1.0
 77
1
  4

 78
1
 79
1
170
1
 48
1.0
171
1
  6

172
1
173
1
174
1
140
1.0
141
1.0
175
1
  7

176
1
177
1
178
1
143
1.0
179
1
  8

270
1
271
1
272
1
145
1.0
146
1.0
273
1
  9

274
1
275
1
276
1
 42
1.0
 72
1
  3

 73
1
 74
1
 75
1
 94
63
  0
MLINESTYLE
  5
22
102
{ACAD_REACTORS
330
10
102
}
330
10
100
AcDbMlineStyle
  2
Standard
 70
0
  3

 62
256
 51
90.0
 52
90.0
 71
2
 49
0.5
 62
256
  6
BYLAYER
 49
-0.5
 62
256
  6
BYLAYER
  0
MLEADERSTYLE
  5
2C
102
{ACAD_REACTORS
330
F
102
}
330
F
100
AcDbMLeaderStyle
179
2
170
2
171
1
172
0
 90
2
 40
0.0
 41
0.0
173
1
 91
-1056964608
 92
-2
290
1
 42
2.0
291
1
 43
8.0
  3
Standard
 44
4.0
300

342
29
174
1
175
1
176
0
178
1
 93
-1056964608
 45
4.0
292
0
297
0
 46
4.0
 94
-1056964608
 47
1.0
 49
1.0
140
1.0
294
1
141
0.0
177
0
142
1.0
295
0
296
0
143
3.75
271
0
272
9
273
9
  0
DICTIONARY
  5
2D
330
A
100
AcDbDictionary
280
1
281
1
  3
CREATED_BY_EZDXF
350
2E
  3
WRITTEN_BY_EZDXF
350
47
  0
DICTIONARYVAR
  5
2E
330
2D
100
DictionaryVariables
280
0
  1
1.4.4 @ 2026-07-28T08:31:37.640999+00:00
  0
DICTIONARYVAR
  5
47
330
2D
100
DictionaryVariables
280
0
  1
1.4.4 @ 2026-07-28T08:31:37.650000+00:00
  0
ENDSEC
  0
EOF
