  0
SECTION
  2
HEADER
  9
$ACADVER
  1
AC1015
  9
$ACADMAINTVER
 70
6
  9
$DWGCODEPAGE
  3
ANSI_1252
  9
$INSBASE
 10
0.0
 20
0.0
 30
0.0
  9
$EXTMIN
 10
1e+20
 20
1e+20
 30
1e+20
  9
$EXTMAX
 10
-1e+20
 20
-1e+20
 30
-1e+20
  9
$LIMMIN
 10
0.0
 20
0.0
  9
$LIMMAX
 10
420.0
 20
297.0
  9
$ORTHOMODE
 70
0
  9
$REGENMODE
 70
1
  9
$FILLMODE
 70
1
  9
$QTEXTMODE
 70
0
  9
$MIRRTEXT
 70
1
  9
$LTSCALE
 40
1.0
  9
$ATTMODE
 70
1
  9
$TEXTSIZE
 40
2.5
  9
$TRACEWID
 40
1.0
  9
$TEXTSTYLE
  7
Standard
  9
$CLAYER
  8
0
  9
$CELTYPE
  6
ByLayer
  9
$CECOLOR
 62
256
  9
$CELTSCALE
 40
1.0
  9
$DISPSILH
 70
0
  9
$DIMSCALE
 40
1.0
  9
$DIMASZ
 40
2.5
  9
$DIMEXO
 40
0.625
  9
$DIMDLI
 40
3.75
  9
$DIMRND
 40
0.0
  9
$DIMDLE
 40
0.0
  9
$DIMEXE
 40
1.25
  9
$DIMTP
 40
0.0
  9
$DIMTM
 40
0.0
  9
$DIMTXT
 40
2.5
  9
$DIMCEN
 40
2.5
  9
$DIMTSZ
 40
0.0
  9
$DIMTOL
 70
0
  9
$DIMLIM
 70
0
  9
$DIMTIH
 70
0
  9
$DIMTOH
 70
0
  9
$DIMSE1
 70
0
  9
$DIMSE2
 70
0
  9
$DIMTAD
 70
1
  9
$DIMZIN
 70
8
  9
$DIMBLK
  1

  9
$DIMASO
 70
1
  9
$DIMSHO
 70
1
  9
$DIMPOST
  1

  9
$DIMAPOST
  1

  9
$DIMALT
 70
0
  9
$DIMALTD
 70
3
  9
$DIMALTF
 40
0.03937007874
  9
$DIMLFAC
 40
1.0
  9
$DIMTOFL
 70
1
  9
$DIMTVP
 40
0.0
  9
$DIMTIX
 70
0
  9
$DIMSOXD
 70
0
  9
$DIMSAH
 70
0
  9
$DIMBLK1
  1

  9
$DIMBLK2
  1

  9
$DIMSTYLE
  2
ISO-25
  9
$DIMCLRD
 70
0
  9
$DIMCLRE
 70
0
  9
$DIMCLRT
 70
0
  9
$DIMTFAC
 40
1.0
  9
$DIMGAP
 40
0.625
  9
$DIMJUST
 70
0
  9
$DIMSD1
 70
0
  9
$DIMSD2
 70
0
  9
$DIMTOLJ
 70
0
  9
$DIMTZIN
 70
8
  9
$DIMALTZ
 70
0
  9
$DIMALTTZ
 70
0
  9
$DIMUPT
 70
0
  9
$DIMDEC
 70
2
  9
$DIMTDEC
 70
2
  9
$DIMALTU
 70
2
  9
$DIMALTTD
 70
3
  9
$DIMTXSTY
  7
Standard
  9
$DIMAUNIT
 70
0
  9
$DIMADEC
 70
0
  9
$DIMALTRND
 40
0.0
  9
$DIMAZIN
 70
0
  9
$DIMDSEP
 70
44
  9
$DIMATFIT
 70
3
  9
$DIMFRAC
 70
0
  9
$DIMLDRBLK
  1

  9
$DIMLUNIT
 70
2
  9
$DIMLWD
 70
-2
  9
$DIMLWE
 70
-2
  9
$DIMTMOVE
 70
0
  9
$LUNITS
 70
2
  9
$LUPREC
 70
4
  9
$SKETCHINC
 40
1.0
  9
$FILLETRAD
 40
10.0
  9
$AUNITS
 70
0
  9
$AUPREC
 70
2
  9
$MENU
  1
.
  9
$ELEVATION
 40
0.0
  9
$PELEVATION
 40
0.0
  9
$THICKNESS
 40
0.0
  9
$LIMCHECK
 70
0
  9
$CHAMFERA
 40
0.0
  9
$CHAMFERB
 40
0.0
  9
$CHAMFERC
 40
0.0
  9
$CHAMFERD
 40
0.0
  9
$SKPOLY
 70
0
  9
$TDCREATE
 40
2461251.4659606484
  9
$TDUCREATE
 40
2458532.153996898
  9
$TDUPDATE
 40
2461251.4659606484
  9
$TDUUPDATE
 40
2458532.1544311
  9
$TDINDWG
 40
0.0
  9
$TDUSRTIMER
 40
0.0
  9
$USRTIMER
 70
1
  9
$ANGBASE
 50
0.0
  9
$ANGDIR
 70
0
  9
$PDMODE
 70
0
  9
$PDSIZE
 40
0.0
  9
$PLINEWID
 40
0.0
  9
$SPLFRAME
 70
0
  9
$SPLINETYPE
 70
6
  9
$SPLINESEGS
 70
8
  9
$HANDSEED
  5
39
  9
$SURFTAB1
 70
6
  9
$SURFTAB2
 70
6
  9
$SURFTYPE
 70
6
  9
$SURFU
 70
6
  9
$SURFV
 70
6
  9
$UCSBASE
  2

  9
$UCSNAME
  2

  9
$UCSORG
 10
0.0
 20
0.0
 30
0.0
  9
$UCSXDIR
 10
1.0
 20
0.0
 30
0.0
  9
$UCSYDIR
 10
0.0
 20
1.0
 30
0.0
  9
$UCSORTHOREF
  2

  9
$UCSORTHOVIEW
 70
0
  9
$UCSORGTOP
 10
0.0
 20
0.0
 30
0.0
  9
$UCSORGBOTTOM
 10
0.0
 20
0.0
 30
0.0
  9
$UCSORGLEFT
 10
0.0
 20
0.0
 30
0.0
  9
$UCSORGRIGHT
 10
0.0
 20
0.0
 30
0.0
  9
$UCSORGFRONT
 10
0.0
 20
0.0
 30
0.0
  9
$UCSORGBACK
 10
0.0
 20
0.0
 30
0.0
  9
$PUCSBASE
  2

  9
$PUCSNAME
  2

  9
$PUCSORG
 10
0.0
 20
0.0
 30
0.0
  9
$PUCSXDIR
 10
1.0
 20
0.0
 30
0.0
  9
$PUCSYDIR
 10
0.0
 20
1.0
 30
0.0
  9
$PUCSORTHOREF
  2

  9
$PUCSORTHOVIEW
 70
0
  9
$PUCSORGTOP
 10
0.0
 20
0.0
 30
0.0
  9
$PUCSORGBOTTOM
 10
0.0
 20
0.0
 30
0.0
  9
$PUCSORGLEFT
 10
0.0
 20
0.0
 30
0.0
  9
$PUCSORGRIGHT
 10
0.0
 20
0.0
 30
0.0
  9
$PUCSORGFRONT
 10
0.0
 20
0.0
 30
0.0
  9
$PUCSORGBACK
 10
0.0
 20
0.0
 30
0.0
  9
$USERI1
 70
0
  9
$USERI2
 70
0
  9
$USERI3
 70
0
  9
$USERI4
 70
0
  9
$USERI5
 70
0
  9
$USERR1
 40
0.0
  9
$USERR2
 40
0.0
  9
$USERR3
 40
0.0
  9
$USERR4
 40
0.0
  9
$USERR5
 40
0.0
  9
$WORLDVIEW
 70
1
  9
$SHADEDGE
 70
3
  9
$SHADEDIF
 70
70
  9
$TILEMODE
 70
1
  9
$MAXACTVP
 70
64
  9
$PINSBASE
 10
0.0
 20
0.0
 30
0.0
  9
$PLIMCHECK
 70
0
  9
$PEXTMIN
 10
1e+20
 20
1e+20
 30
1e+20
  9
$PEXTMAX
 10
-1e+20
 20
-1e+20
 30
-1e+20
  9
$PLIMMIN
 10
0.0
 20
0.0
  9
$PLIMMAX
 10
420.0
 20
297.0
  9
$UNITMODE
 70
0
  9
$VISRETAIN
 70
1
  9
$PLINEGEN
 70
0
  9
$PSLTSCALE
 70
1
  9
$TREEDEPTH
 70
3020
  9
$CMLSTYLE
  2
Standard
  9
$CMLJUST
 70
0
  9
$CMLSCALE
 40
20.0
  9
$PROXYGRAPHICS
 70
1
  9
$MEASUREMENT
 70
1
  9
$CELWEIGHT
370
-1
  9
$ENDCAPS
280
0
  9
$JOINSTYLE
280
0
  9
$LWDISPLAY
290
0
  9
$INSUNITS
 70
4
  9
$HYPERLINKBASE
  1

  9
$STYLESHEET
  1

  9
$XEDIT
290
1
  9
$CEPSNTYPE
380
0
  9
$PSTYLEMODE
290
1
  9
$FINGERPRINTGUID
  2
{57D12F1A-DB17-40CF-BA98-9A57835A8943}
  9
$VERSIONGUID
  2
{38227270-192E-4B4B-867B-4137F7A71544}
  9
$EXTNAMES
290
1
  9
$PSVPSCALE
 40
0.0
  9
$OLESTARTUP
290
0
  0
ENDSEC
  0
SECTION
  2
CLASSES
  0
CLASS
  1
ACDBDICTIONARYWDFLT
  2
AcDbDictionaryWithDefault
  3
ObjectDBX Classes
 90
0
280
0
281
0
  0
CLASS
  1
SUN
  2
AcDbSun
  3
SCENEOE
 90
1153
280
0
281
0
  0
CLASS
  1
VISUALSTYLE
  2
AcDbVisualStyle
  3
ObjectDBX Classes
 90
4095
280
0
281
0
  0
CLASS
  1
MATERIAL
  2
AcDbMaterial
  3
ObjectDBX Classes
 90
1153
280
0
281
0
  0
CLASS
  1
SCALE
  2
AcDbScale
  3
ObjectDBX Classes
 90
1153
280
0
281
0
  0
CLASS
  1
TABLESTYLE
  2
AcDbTableStyle
  3
ObjectDBX Classes
 90
4095
280
0
281
0
  0
CLASS
  1
MLEADERSTYLE
  2
AcDbMLeaderStyle
  3
ACDB_MLEADERSTYLE_CLASS
 90
4095
280
0
281
0
  0
CLASS
  1
DICTIONARYVAR
  2
AcDbDictionaryVar
  3
ObjectDBX Classes
 90
0
280
0
281
0
  0
CLASS
  1
CELLSTYLEMAP
  2
AcDbCellStyleMap
  3
ObjectDBX Classes
 90
1152
280
0
281
0
  0
CLASS
  1
MENTALRAYRENDERSETTINGS
  2
AcDbMentalRayRenderSettings
  3
SCENEOE
 90
1024
280
0
281
0
  0
CLASS
  1
ACDBDETAILVIEWSTYLE
  2
AcDbDetailViewStyle
  3
ObjectDBX Classes
 90
1025
280
0
281
0
  0
CLASS
  1
ACDBSECTIONVIEWSTYLE
  2
AcDbSectionViewStyle
  3
ObjectDBX Classes
 90
1025
280
0
281
0
  0
CLASS
  1
RASTERVARIABLES
  2
AcDbRasterVariables
  3
ISM
 90
0
280
0
281
0
  0
CLASS
  1
ACDBPLACEHOLDER
  2
AcDbPlaceHolder
  3
ObjectDBX Classes
 90
0
280
0
281
0
  0
CLASS
  1
LAYOUT
  2
AcDbLayout
  3
ObjectDBX Classes
 90
0
280
0
281
0
  0
ENDSEC
  0
SECTION
  2
TABLES
  0
TABLE
  2
VPORT
  5
8
330
0
100
AcDbSymbolTable
 70
1
  0
VPORT
  5
23
330
8
100
AcDbSymbolTableRecord
100
AcDbViewportTableRecord
  2
*Active
 70
0
 10
0.0
 20
0.0
 11
1.0
 21
1.0
 12
0.0
 22
0.0
 13
0.0
 23
0.0
 14
0.5
 24
0.5
 15
0.5
 25
0.5
 16
0.0
 26
0.0
 36
1.0
 17
0.0
 27
0.0
 37
0.0
 40
1000.0
 41
1.34
 42
50.0
 43
0.0
 44
0.0
 50
0.0
 51
0.0
 71
0
 72
1000
 73
1
 74
3
 75
0
 76
0
 77
0
 78
0
281
0
 65
0
146
0.0
  0
ENDTAB
  0
TABLE
  2
LTYPE
  5
2
330
0
100
AcDbSymbolTable
 70
3
  0
LTYPE
  5
24
330
2
100
AcDbSymbolTableRecord
100
AcDbLinetypeTableRecord
  2
ByBlock
 70
0
  3

 72
65
 73
0
 40
0.0
  0
LTYPE
  5
25
330
2
100
AcDbSymbolTableRecord
100
AcDbLinetypeTableRecord
  2
ByLayer
 70
0
  3

 72
65
 73
0
 40
0.0
  0
LTYPE
  5
26
330
2
100
AcDbSymbolTableRecord
100
AcDbLinetypeTableRecord
  2
Continuous
 70
0
  3

 72
65
 73
0
 40
0.0
  0
ENDTAB
  0
TABLE
  2
LAYER
  5
1
330
0
100
AcDbSymbolTable
 70
3
  0
LAYER
  5
27
330
1
100
AcDbSymbolTableRecord
100
AcDbLayerTableRecord
  2
0
 70
0
 62
7
  6
Continuous
370
-3
390
13
  0
LAYER
  5
28
330
1
100
AcDbSymbolTableRecord
100
AcDbLayerTableRecord
  2
Defpoints
 70
0
 62
7
  6
Continuous
290
0
370
-3
390
13
  0
LAYER
  5
2F
330
1
100
AcDbSymbolTableRecord
100
AcDbLayerTableRecord
  2
4.5mm
 70
0
 62
7
  6
Continuous
370
-3
390
13
  0
ENDTAB
  0
TABLE
  2
STYLE
  5
5
330
0
100
AcDbSymbolTable
 70
1
  0
STYLE
  5
29
330
5
100
AcDbSymbolTableRecord
100
AcDbTextStyleTableRecord
  2
Standard
 70
0
 40
0.0
 41
1.0
 50
0.0
 71
0
 42
2.5
  3
txt
  4

  0
ENDTAB
  0
TABLE
  2
VIEW
  5
7
330
0
100
AcDbSymbolTable
 70
0
  0
ENDTAB
  0
TABLE
  2
UCS
  5
6
330
0
100
AcDbSymbolTable
 70
0
  0
ENDTAB
  0
TABLE
  2
APPID
  5
3
330
0
100
AcDbSymbolTable
 70
3
  0
APPID
  5
2A
330
3
100
AcDbSymbolTableRecord
100
AcDbRegAppTableRecord
  2
ACAD
 70
0
  0
APPID
  5
36
330
3
100
AcDbSymbolTableRecord
100
AcDbRegAppTableRecord
  2
HATCHBACKGROUNDCOLOR
 70
0
  0
APPID
  5
37
330
3
100
AcDbSymbolTableRecord
100
AcDbRegAppTableRecord
  2
EZDXF
 70
0
  0
ENDTAB
  0
TABLE
  2
DIMSTYLE
  5
4
330
0
100
AcDbSymbolTable
 70
1
100
AcDbDimStyleTable
  0
DIMSTYLE
105
2B
330
4
100
AcDbSymbolTableRecord
100
AcDbDimStyleTableRecord
  2
Standard
 70
0
  3

  4

 40
1.0
 41
2.5
 42
0.625
 43
3.75
 44
1.25
 45
0.0
 46
0.0
 47
0.0
 48
0.0
140
2.5
141
2.5
142
0.0
143
0.03937007874
144
1.0
145
0.0
146
1.0
147
0.625
148
0.0
 71
0
 72
0
 73
0
 74
0
 75
0
 76
0
 77
1
 78
8
 79
3
170
0
171
3
172
1
173
0
174
0
175
0
176
0
177
0
178
0
179
2
271
2
272
2
273
2
274
3
275
0
276
0
277
2
278
44
279
0
280
0
281
0
282
0
283
0
284
8
285
0
286
0
288
0
289
3
371
-2
372
-2
  0
ENDTAB
  0
TABLE
  2
BLOCK_RECORD
  5
9
330
0
100
AcDbSymbolTable
 70
2
  0
BLOCK_RECORD
  5
17
330
9
100
AcDbSymbolTableRecord
100
AcDbBlockTableRecord
  2
*Model_Space
340
1A
  0
BLOCK_RECORD
  5
1B
330
9
100
AcDbSymbolTableRecord
100
AcDbBlockTableRecord
  2
*Paper_Space
340
1E
  0
ENDTAB
  0
ENDSEC
  0
SECTION
  2
BLOCKS
  0
BLOCK
  5
18
330
17
100
AcDbEntity
  8
0
100
AcDbBlockBegin
  2
*Model_Space
 70
0
 10
0.0
 20
0.0
 30
0.0
  3
*Model_Space
  1

  0
ENDBLK
  5
19
330
17
100
AcDbEntity
  8
0
100
AcDbBlockEnd
  0
BLOCK
  5
1C
330
1B
100
AcDbEntity
  8
0
100
AcDbBlockBegin
  2
*Paper_Space
 70
0
 10
0.0
 20
0.0
 30
0.0
  3
*Paper_Space
  1

  0
ENDBLK
  5
1D
330
1B
100
AcDbEntity
  8
0
100
AcDbBlockEnd
  0
ENDSEC
  0
SECTION
  2
ENTITIES
  0
TEXT
  5
30
330
17
100
AcDbEntity
  8
4.5mm
100
AcDbText
 10
200.0
 20
20.0
 30
0.0
 40
10.0
  1
4.5mm
100
AcDbText
  0
LWPOLYLINE
  5
31
330
17
100
AcDbEntity
  8
4.5mm
100
AcDbPolyline
 90
5
 70
0
 10
0.0
 20
0.0
 10
400.0
 20
0.0
 10
400.0
 20
850.0
 10
0.0
 20
850.0
 10
0.0
 20
0.0
  0
TEXT
  5
32
330
17
100
AcDbEntity
  8
4.5mm
100
AcDbText
 10
5.0
 20
855.0
 30
0.0
 40
5.0
  1
400x850#1
100
AcDbText
  0
LWPOLYLINE
  5
33
330
17
100
AcDbEntity
  8
4.5mm
100
AcDbPolyline
 90
74
 70
0
 10
40.63969285118128
 20
14.212234720727793
 10
44.34518315479818
 20
15.844976721497915
 10
48.382296895176296
 20
17.87004504609922
 10
50.6899043866124
 20
19.205138504712522
 10
52.95481694051432
 20
20.697808208103197
 10
55.2360124090892
 20
22.48015169942937
 10
57.15293560346345
 20
24.450582754479
 10
58.57338726183116
 20
26.498500844750197
 10
59.74701745654511
 20
28.872834121943924
 10
60.32131979384394
 20
30.444826842568546
 10
60.74728739074908
 20
32.0776954055209
 10
61.03729021865638
 20
34.197524880705714
 10
61.24981174492859
 20
38.719676455098124
 10
61.15687982050713
 20
41.21590443971945
 10
60.96152046710267
 20
43.37892259297314
 10
60.56218511034422
 20
45.63706077818824
 10
60.027613189020485
 20
47.42637717847447
 10
59.0840940991493
 20
49.558816967288294
 10
58.242579744615796
 20
50.954511803909554
 10
57.25977717344358
 20
52.24603823552843
 10
55.87238695419728
 20
53.65572738222454
 10
54.206419801632364
 20
54.97901620342418
 10
51.53976950244123
 20
56.68716646587109
 10
47.7535715619988
 20
58.81921920888999
 10
44.64557034142035
 20
60.30463582291395
 10
41.19837854892285
 20
61.63808653729029
 10
32.22942812062411
 20
64.62097627180174
 10
29.346534520609566
 20
65.38530373127742
 10
26.432163061568644
 20
66.01131887303927
 10
23.250408130163123
 20
66.50525688510152
 10
20.569863856204393
 20
66.64499697875453
 10
18.293428876257167
 20
66.48781757666075
 10
16.042566779285153
 20
66.03302861722386
 10
14.621059899015563
 20
65.55537318458937
 10
13.15359790878665
 20
64.76901748441105
 10
11.989119803967696
 20
63.77342862544083
 10
11.016295356530463
 20
62.49927770780778
 10
10.294299111893451
 20
60.79087521033125
 10
10.03205762399466
 20
59.01376049418104
 10
10.148570489946906
 20
57.424262346623436
 10
10.544217621004464
 20
55.958979945667124
 10
11.242943871053285
 20
54.49623029292343
 10
13.879679580926677
 20
50.605216523325
 10
14.76713598556853
 20
49.04851543124278
 10
15.296823687041979
 20
47.73932877405514
 10
15.617308728993521
 20
46.46310721086684
 10
15.87857857328163
 20
44.53359613085195
 10
16.093157606751447
 20
40.60082367376526
 10
16.140731932103336
 20
38.65288284296912
 10
16.013633404269058
 20
34.637322221211434
 10
15.882348075253503
 20
32.76081331887235
 10
15.618432934132215
 20
30.80365860618076
 10
15.29832583642019
 20
29.53184352597691
 10
14.763494681258635
 20
28.21768433555735
 10
13.882795580878337
 20
26.667206993734908
 10
11.643799503682203
 20
23.398974894052117
 10
10.686516942167145
 20
21.658050341902708
 10
10.247730519326069
 20
20.42972003763498
 10
10.0
 20
19.06635109673789
 10
10.040510180107958
 20
17.53984386275988
 10
10.37824645962155
 20
16.077477374156842
 10
10.984344952068568
 20
14.701160025611898
 10
11.899241189636086
 20
13.420011404498837
 10
13.088088641099603
 20
12.372783221539976
 10
14.324471152986007
 20
11.621837192776184
 10
16.264982556052928
 20
10.816086630521568
 10
18.25320516253487
 20
10.31781187843535
 10
20.913011474109226
 20
10.0
 10
24.179022385564167
 20
10.026906152186712
 10
27.508461952147627
 20
10.398168406451987
 10
30.71758760177454
 20
11.017872067167445
 10
33.777403479397435
 20
11.804145701920788
 10
36.782830347523486
 20
12.7510975161631
 10
40.63969285118128
 20
14.212234720727793
  0
LWPOLYLINE
  5
34
330
17
100
AcDbEntity
  8
4.5mm
100
AcDbPolyline
 90
92
 70
0
 10
82.66688696849269
 20
16.08687508618368
 10
85.22691722409581
 20
15.996243511106513
 10
85.01463496970064
 20
10.0
 10
82.59899162995862
 20
10.085519911429401
 10
79.38427553833753
 20
10.044491292303974
 10
78.21108841444402
 20
10.41817694089059
 10
76.10675391559926
 20
11.363202065396763
 10
74.80329001118662
 20
12.078732651584687
 10
73.55397133891165
 20
12.973697592664394
 10
72.60242467630997
 20
13.915372051184931
 10
71.82819036778164
 20
15.077226529676409
 10
71.37131399012833
 20
16.4045208555126
 10
71.24981174492859
 20
17.34350420635201
 10
71.2711309064016
 20
18.28247184105203
 10
71.57185189782467
 20
19.66738650753632
 10
72.33407783304756
 20
21.240394312576427
 10
73.18940845330326
 20
22.34309831095743
 10
74.45531343472612
 20
23.50809689507605
 10
76.20575909911531
 20
24.715226175855605
 10
78.46047329211069
 20
25.990961497870558
 10
80.76428847962052
 20
27.088712358842713
 10
83.71914346801532
 20
28.282064922399513
 10
86.7333031412054
 20
29.31482293279896
 10
90.85372900516631
 20
30.509802723616303
 10
95.00387722433697
 20
31.54449182395274
 10
101.80388786988078
 20
33.02723741916543
 10
107.17164233412586
 20
34.08219458585609
 10
109.77770321368189
 20
34.70572333320342
 10
110.94005531871517
 20
35.1054037280046
 10
112.03266821145917
 20
35.61615383991193
 10
113.06207470546542
 20
36.29083280719169
 10
113.57273542134499
 20
36.76099001929015
 10
113.97590922962081
 20
37.28415774573023
 10
114.27502533147526
 20
37.89606825040755
 10
114.51467928231796
 20
38.881531724035995
 10
114.55248522072543
 20
39.50352000047951
 10
114.5086039141006
 20
40.12972400293711
 10
114.25243095390942
 20
41.20933202259312
 10
113.65863355835063
 20
42.59782759485552
 10
112.58487737932955
 20
44.44232488777834
 10
110.93540404740816
 20
46.75320397649011
 10
107.25168461664907
 20
51.52216259803572
 10
106.04623265065311
 20
53.233108136635565
 10
104.74375319769933
 20
55.35802384982435
 10
103.77548283071337
 20
57.387421591441125
 10
103.16060034814836
 20
59.29979324621672
 10
102.84831040356949
 20
61.25295374954203
 10
102.78934226069214
 20
63.025047901741345
 10
102.98812514798556
 20
65.61036820577647
 10
103.09939832445161
 20
66.29028749073768
 10
106.79589243269766
 20
68.7141106273566
 10
110.40945276561433
 20
67.79979524073133
 10
108.93769309067466
 20
61.983101724722474
 10
108.8263979149342
 20
62.01126201049556
 10
108.83247500801554
 20
61.828634907332344
 10
109.01295410390048
 20
60.69986131769019
 10
109.3641702670011
 20
59.60752928016609
 10
110.0235585554583
 20
58.225517448482606
 10
111.06153024451123
 20
56.53213000431515
 10
112.08064123383338
 20
55.085665566329226
 10
115.75308955427136
 20
50.331298571467414
 10
117.63017589906849
 20
47.70153821223357
 10
119.02997680207591
 20
45.296961617777015
 10
119.97150766428967
 20
43.09534968226126
 10
120.45966466506798
 20
41.03807473607503
 10
120.56524936633468
 20
39.53133832338699
 10
120.47117001077459
 20
37.98353237860738
 10
119.95130414649611
 20
35.84583000134353
 10
119.09942843476347
 20
34.10312309438905
 10
118.01301340096143
 20
32.69336563608795
 10
116.76337001434331
 20
31.542838813687013
 10
114.96250726310609
 20
30.36254295555318
 10
113.19231267773648
 20
29.535052186784014
 10
111.45517811244645
 20
28.93773006221363
 10
108.4487938081893
 20
28.2184195296104
 10
103.0216916442514
 20
27.15179840147539
 10
96.36903752091894
 20
25.70118396687576
 10
92.41562726607117
 20
24.71554435020971
 10
88.54235721399164
 20
23.59224312130209
 10
85.81649311036381
 20
22.658265398315052
 10
83.18041704971438
 20
21.59365541337138
 10
81.2316973109937
 20
20.66510490178007
 10
79.39250811340389
 20
19.62447694524326
 10
78.20836635466912
 20
18.807877939261743
 10
77.6222971956995
 20
18.26852486741609
 10
77.45980581647564
 20
18.05903874669366
 10
77.29301278218009
 20
17.71482749298957
 10
77.43561436054733
 20
17.57370539213025
 10
78.00541855901247
 20
17.165519080487684
 10
78.78366626612296
 20
16.738303538742002
 10
80.30145861409983
 20
16.05668571448041
 10
82.66688696849269
 20
16.08687508618368
  0
LWPOLYLINE
  5
35
330
17
100
AcDbEntity
  8
4.5mm
100
AcDbPolyline
 90
92
 70
0
 10
168.46361176417486
 20
16.08687508618368
 10
165.90358150857173
 20
15.996243511106513
 10
166.1158637629669
 20
10.0
 10
168.53150710270893
 20
10.085519911429401
 10
171.74622319433183
 20
10.044491292303974
 10
172.91941031822353
 20
10.41817694089059
 10
175.0237448170701
 20
11.363202065396763
 10
176.32720872148457
 20
12.078732651584687
 10
177.5765273937559
 20
12.973697592664394
 10
178.5280740563594
 20
13.915372051184931
 10
179.30230836488772
 20
15.077226529676409
 10
179.75918474254286
 20
16.4045208555126
 10
179.88068698774077
 20
17.34350420635201
 10
179.85936782626777
 20
18.28247184105203
 10
179.5586468348465
 20
19.66738650753632
 10
178.79642089962
 20
21.240394312576427
 10
177.9410902793661
 20
22.34309831095743
 10
176.6751852979396
 20
23.50809689507605
 10
174.92473963355224
 20
24.715226175855605
 10
172.67002544055867
 20
25.990961497870558
 10
170.36621025304703
 20
27.088712358842713
 10
167.41135526465405
 20
28.282064922399513
 10
164.3971955914658
 20
29.31482293279896
 10
160.27676972750305
 20
30.509802723616303
 10
156.1266215083324
 20
31.54449182395274
 10
149.3266108627904
 20
33.02723741916543
 10
143.95885639854168
 20
34.08219458585609
 10
141.35279551898748
 20
34.70572333320342
 10
140.1904434139542
 20
35.1054037280046
 10
139.09783052121202
 20
35.61615383991193
 10
138.06842402720395
 20
36.29083280719169
 10
137.55776331132074
 20
36.76099001929015
 10
137.15458950304674
 20
37.28415774573023
 10
136.85547340119592
 20
37.89606825040755
 10
136.61581945034777
 20
38.881531724035995
 10
136.57801351194394
 20
39.50352000047951
 10
136.62189481856876
 20
40.12972400293711
 10
136.87806777876176
 20
41.20933202259312
 10
137.47186517431874
 20
42.59782759485552
 10
138.54562135334163
 20
44.44232488777834
 10
140.1950946852594
 20
46.75320397649011
 10
143.87881411601666
 20
51.52216259803572
 10
145.08426608201808
 20
53.233108136635565
 10
146.38674553496458
 20
55.35802384982435
 10
147.355015901956
 20
57.387421591441125
 10
147.96989838451918
 20
59.29979324621672
 10
148.2821883291017
 20
61.25295374954203
 10
148.3411564719754
 20
63.025047901741345
 10
148.1423735846838
 20
65.61036820577647
 10
148.03110040821775
 20
66.29028749073768
 10
144.3346062999699
 20
68.7141106273566
 10
140.72104596705503
 20
67.79979524073133
 10
142.19280564199653
 20
61.983101724722474
 10
142.30410081773698
 20
62.01126201049556
 10
142.29802372465383
 20
61.828634907332344
 10
142.11754462877252
 20
60.69986131769019
 10
141.76632846567009
 20
59.60752928016609
 10
141.10694017720562
 20
58.225517448482606
 10
140.06896848815813
 20
56.53213000431515
 10
139.0498574988378
 20
55.085665566329226
 10
135.37740917839983
 20
50.331298571467414
 10
133.5003228336027
 20
47.70153821223357
 10
132.10052193059528
 20
45.296961617777015
 10
131.1589910683797
 20
43.09534968226126
 10
130.67083406759775
 20
41.03807473607503
 10
130.56524936633468
 20
39.53133832338699
 10
130.65932872189478
 20
37.98353237860738
 10
131.17919458617325
 20
35.84583000134353
 10
132.0310702979059
 20
34.10312309438905
 10
133.11748533170794
 20
32.69336563608795
 10
134.36712871832424
 20
31.542838813687013
 10
136.16799146956328
 20
30.36254295555318
 10
137.93818605493288
 20
29.535052186784014
 10
139.67532062022292
 20
28.93773006221363
 10
142.68170492447825
 20
28.2184195296104
 10
148.10880708841796
 20
27.15179840147539
 10
154.7614612117486
 20
25.70118396687576
 10
158.7148714665982
 20
24.71554435020971
 10
162.5881415186759
 20
23.59224312130209
 10
165.31400562230556
 20
22.658265398315052
 10
167.9500816829568
 20
21.59365541337138
 10
169.89880142167567
 20
20.66510490178007
 10
171.73799061926184
 20
19.62447694524326
 10
172.92213237800024
 20
18.807877939261743
 10
173.50820153697168
 20
18.26852486741609
 10
173.67069291619373
 20
18.05903874669366
 10
173.83748595048382
 20
17.71482749298957
 10
173.69488437212203
 20
17.57370539213025
 10
173.12508017365872
 20
17.165519080487684
 10
172.34683246655004
 20
16.738303538742002
 10
170.82904011856954
 20
16.05668571448041
 10
168.46361176417486
 20
16.08687508618368
  0
ENDSEC
  0
SECTION
  2
OBJECTS
  0
DICTIONARY
  5
A
330
0
100
AcDbDictionary
281
1
  3
ACAD_COLOR
350
B
  3
ACAD_GROUP
350
C
  3
ACAD_LAYOUT
350
D
  3
ACAD_MATERIAL
350
E
  3
ACAD_MLEADERSTYLE
350
F
  3
ACAD_MLINESTYLE
350
10
  3
ACAD_PLOTSETTINGS
350
11
  3
ACAD_PLOTSTYLENAME
350
12
  3
ACAD_SCALELIST
350
14
  3
ACAD_TABLESTYLE
350
15
  3
ACAD_VISUALSTYLE
350
16
  3
EZDXF_META
350
2D
  0
DICTIONARY
  5
B
330
A
100
AcDbDictionary
281
1
  0
DICTIONARY
  5
C
330
A
100
AcDbDictionary
281
1
  0
DICTIONARY
  5
D
330
A
100
AcDbDictionary
281
1
  3
Model
350
1A
  3
Layout1
350
1E
  0
DICTIONARY
  5
E
330
A
100
AcDbDictionary
281
1
  3
ByBlock
350
1F
  3
ByLayer
350
20
  3
Global
350
21
  0
DICTIONARY
  5
F
330
A
100
AcDbDictionary
281
1
  3
Standard
350
2C
  0
DICTIONARY
  5
10
330
A
100
AcDbDictionary
281
1
  3
Standard
350
22
  0
DICTIONARY
  5
11
330
A
100
AcDbDictionary
281
1
  0
ACDBDICTIONARYWDFLT
  5
12
330
A
100
AcDbDictionary
281
1
  3
Normal
350
13
100
AcDbDictionaryWithDefault
340
13
  0
ACDBPLACEHOLDER
  5
13
330
12
  0
DICTIONARY
  5
14
330
A
100
AcDbDictionary
281
1
  0
DICTIONARY
  5
15
330
A
100
AcDbDictionary
281
1
  0
DICTIONARY
  5
16
330
A
100
AcDbDictionary
281
1
  0
LAYOUT
  5
1A
330
D
100
AcDbPlotSettings
  1

  4
A3
  6

 40
7.5
 41
20.0
 42
7.5
 43
20.0
 44
420.0
 45
297.0
 46
0.0
 47
0.0
 48
0.0
 49
0.0
140
0.0
141
0.0
142
1.0
143
1.0
 70
1024
 72
1
 73
0
 74
5
  7

 75
16
 76
0
 77
2
 78
300
147
1.0
148
0.0
149
0.0
100
AcDbLayout
  1
Model
 70
1
 71
0
 10
0.0
 20
0.0
 11
420.0
 21
297.0
 12
0.0
 22
0.0
 32
0.0
 14
1e+20
 24
1e+20
 34
1e+20
 15
-1e+20
 25
-1e+20
 35
-1e+20
146
0.0
 13
0.0
 23
0.0
 33
0.0
 16
1.0
 26
0.0
 36
0.0
 17
0.0
 27
1.0
 37
0.0
 76
1
330
17
  0
LAYOUT
  5
1E
330
D
100
AcDbPlotSettings
  1

  4
A3
  6

 40
7.5
 41
20.0
 42
7.5
 43
20.0
 44
420.0
 45
297.0
 46
0.0
 47
0.0
 48
0.0
 49
0.0
140
0.0
141
0.0
142
1.0
143
1.0
 70
0
 72
1
 73
0
 74
5
  7

 75
16
 76
0
 77
2
 78
300
147
1.0
148
0.0
149
0.0
100
AcDbLayout
  1
Layout1
 70
1
 71
1
 10
0.0
 20
0.0
 11
420.0
 21
297.0
 12
0.0
 22
0.0
 32
0.0
 14
1e+20
 24
1e+20
 34
1e+20
 15
-1e+20
 25
-1e+20
 35
-1e+20
146
0.0
 13
0.0
 23
0.0
 33
0.0
 16
1.0
 26
0.0
 36
0.0
 17
0.0
 27
1.0
 37
0.0
 76
1
330
1B
  0
MATERIAL
  5
1F
102
{ACAD_REACTORS
330
E
102
}
330
E
100
AcDbMaterial
  1
ByBlock
  2

 70
0
 40
1.0
 71
1
 41
1.0
 91
-1023410177
 42
1.0
 72
1
  3

 73
1
 74
1
 75
1
 44
0.5
 73
0
 45
1.0
 46
1.0
 77
1
  4

 78
1
 79
1
170
1
 48
1.0
171
1
  6

172
1
173
1
174
1
140
1.0
141
1.0
175
1
  7

176
1
177
1
178
1
143
1.0
179
1
  8

270
1
271
1
272
1
145
1.0
146
1.0
273
1
  9

274
1
275
1
276
1
 42
1.0
 72
1
  3

 73
1
 74
1
 75
1
 94
63
  0
MATERIAL
  5
20
102
{ACAD_REACTORS
330
E
102
}
330
E
100
AcDbMaterial
  1
ByLayer
  2

 70
0
 40
1.0
 71
1
 41
1.0
 91
-1023410177
 42
1.0
 72
1
  3

 73
1
 74
1
 75
1
 44
0.5
 73
0
 45
1.0
 46
1.0
 77
1
  4

 78
1
 79
1
170
1
 48
1.0
171
1
  6

172
1
173
1
174
1
140
1.0
141
1.0
175
1
  7

176
1
177
1
178
1
143
1.0
179
1
  8

270
1
271
1
272
1
145
1.0
146
1.0
273
1
  9

274
1
275
1
276
1
 42
1.0
 72
1
  3

 73
1
 74
1
 75
1
 94
63
  0
MATERIAL
  5
21
102
{ACAD_REACTORS
330
E
102
}
330
E
100
AcDbMaterial
  1
Global
  2

 70
0
 40
1.0
 71
1
 41
1.0
 91
-1023410177
 42
1.0
 72
1
  3

 73
1
 74
1
 75
1
 44
0.5
 73
0
 45
1.0
 46
1.0
 77
1
  4

 78
1
 79
1
170
1
 48
1.0
171
1
  6

172
1
173
1
174
1
140
1.0
141
1.0
175
1
  7

176
1
177
1
178
1
143
1.0
179
1
  8

270
1
271
1
272
1
145
1.0
146
1.0
273
1
  9

274
1
275
1
276
1
 42
1.0
 72
1
  3

 73
1
 74
1
 75
1
 94
63
  0
MLINESTYLE
  5
22
102
{ACAD_REACTORS
330
10
102
}
330
10
100
AcDbMlineStyle
  2
Standard
 70
0
  3

 62
256
 51
90.0
 52
90.0
 71
2
 49
0.5
 62
256
  6
BYLAYER
 49
-0.5
 62
256
  6
BYLAYER
  0
MLEADERSTYLE
  5
2C
102
{ACAD_REACTORS
330
F
102
}
330
F
100
AcDbMLeaderStyle
179
2
170
2
171
1
172
0
 90
2
 40
0.0
 41
0.0
173
1
 91
-1056964608
 92
-2
290
1
 42
2.0
291
1
 43
8.0
  3
Standard
 44
4.0
300

342
29
174
1
175
1
176
0
178
1
 93
-1056964608
 45
4.0
292
0
297
0
 46
4.0
 94
-1056964608
 47
1.0
 49
1.0
140
1.0
294
1
141
0.0
177
0
142
1.0
295
0
296
0
143
3.75
271
0
272
9
273
9
  0
DICTIONARY
  5
2D
330
A
100
AcDbDictionary
280
1
281
1
  3
CREATED_BY_EZDXF
350
2E
  3
WRITTEN_BY_EZDXF
350
38
  0
DICTIONARYVAR
  5
2E
330
2D
100
DictionaryVariables
280
0
  1
1.4.4 @ 2026-07-29T03:10:59.493480+00:00
  0
DICTIONARYVAR
  5
38
330
2D
100
DictionaryVariables
280
0
  1
1.4.4 @ 2026-07-29T03:10:59.495479+00:00
  0
ENDSEC
  0
EOF
