  0
SECTION
  2
HEADER
  9
$ACADVER
  1
AC1009
  9
$DWGCODEPAGE
  3
ansi_936
  9
$INSBASE
 10
0.0
 20
0.0
 30
0.0
  9
$EXTMIN
 10
67.9891
 20
181.8587
 30
0.0
  9
$EXTMAX
 10
1228.4332
 20
369.8231
 30
0.0
  9
$LIMMIN
 10
73.9942
 20
202.686
  9
$LIMMAX
 10
1228.4333
 20
369.8293
  9
$ORTHOMODE
 70
     0
  9
$REGENMODE
 70
     1
  9
$FILLMODE
 70
     1
  9
$QTEXTMODE
 70
     0
  9
$MIRRTEXT
 70
     1
  9
$DRAGMODE
 70
     2
  9
$LTSCALE
 40
1.0
  9
$OSMODE
 70
  4133
  9
$ATTMODE
 70
     1
  9
$TEXTSIZE
 40
5.0
  9
$TRACEWID
 40
0.05
  9
$TEXTSTYLE
  7
STANDARD
  9
$CLAYER
  8
0
  9
$CELTYPE
  6
CONTINUOUS
  9
$CECOLOR
 62
     0
  9
$DIMSCALE
 40
1.0
  9
$DIMASZ
 40
0.18
  9
$DIMEXO
 40
0.0625
  9
$DIMDLI
 40
0.38
  9
$DIMRND
 40
0.0
  9
$DIMDLE
 40
0.0
  9
$DIMEXE
 40
0.18
  9
$DIMTP
 40
0.0
  9
$DIMTM
 40
0.0
  9
$DIMTXT
 40
0.18
  9
$DIMCEN
 40
0.09
  9
$DIMTSZ
 40
0.0
  9
$DIMTOL
 70
     0
  9
$DIMLIM
 70
     0
  9
$DIMTIH
 70
     1
  9
$DIMTOH
 70
     1
  9
$DIMSE1
 70
     0
  9
$DIMSE2
 70
     0
  9
$DIMTAD
 70
     0
  9
$DIMZIN
 70
     0
  9
$DIMTOFFSET
 70
     1
  9
$DIMBLK
  1

  9
$DIMASO
 70
     0
  9
$DIMSHO
 70
     0
  9
$DIMPOST
  1

  9
$DIMAPOST
  1

  9
$DIMALT
 70
     0
  9
$DIMALTD
 70
     2
  9
$DIMALTF
 40
1.0
  9
$DIMLFAC
 40
1.0
  9
$DIMTOFL
 70
     0
  9
$DIMTVP
 40
0.0
  9
$DIMTIX
 70
     0
  9
$DIMSOXD
 70
     0
  9
$DIMSAH
 70
     0
  9
$DIMBLK1
  1

  9
$DIMBLK2
  1

  9
$DIMSTYLE
  2
STANDARD
  9
$DIMCLRD
 70
     0
  9
$DIMCLRE
 70
     0
  9
$DIMCLRT
 70
     0
  9
$DIMTFAC
 40
1.0
  9
$DIMGAP
 40
0.09
  9
$LUNITS
 70
     1
  9
$LUPREC
 70
     1
  9
$SKETCHINC
 40
0.1
  9
$FILLETRAD
 40
0.5
  9
$AUNITS
 70
     0
  9
$AUPREC
 70
     4
  9
$MENU
  1
.
  9
$ELEVATION
 40
0.0
  9
$PELEVATION
 40
0.0
  9
$THICKNESS
 40
0.0
  9
$LIMCHECK
 70
     1
  9
$CHAMFERA
 40
0.0
  9
$CHAMFERB
 40
0.0
  9
$SKPOLY
 70
     0
  9
$TDCREATE
 40
2461251.369057269
  9
$TDUPDATE
 40
2461251.369171227
  9
$TDINDWG
 40
0.000114375
  9
$TDUSRTIMER
 40
0.0000000116
  9
$USRTIMER
 70
     0
  9
$ANGBASE
 50
0.0
  9
$ANGDIR
 70
     0
  9
$PDMODE
 70
     0
  9
$PDSIZE
 40
0.0
  9
$PLINEWID
 40
0.0
  9
$COORDS
 70
     1
  9
$SPLFRAME
 70
     0
  9
$SPLINETYPE
 70
     6
  9
$SPLINESEGS
 70
     8
  9
$ATTDIA
 70
     1
  9
$ATTREQ
 70
     1
  9
$HANDLING
 70
     1
  9
$HANDSEED
  5
228C
  9
$SURFTAB1
 70
     6
  9
$SURFTAB2
 70
     6
  9
$SURFTYPE
 70
     6
  9
$SURFU
 70
     6
  9
$SURFV
 70
     6
  9
$UCSNAME
  2

  9
$UCSORG
 10
0.0
 20
0.0
 30
0.0
  9
$UCSXDIR
 10
1.0
 20
0.0
 30
0.0
  9
$UCSYDIR
 10
0.0
 20
1.0
 30
0.0
  9
$PUCSNAME
  2

  9
$PUCSORG
 10
0.0
 20
0.0
 30
0.0
  9
$PUCSXDIR
 10
1.0
 20
0.0
 30
0.0
  9
$PUCSYDIR
 10
0.0
 20
1.0
 30
0.0
  9
$USERI1
 70
     0
  9
$USERI2
 70
     0
  9
$USERI3
 70
     0
  9
$USERI4
 70
     0
  9
$USERI5
 70
     0
  9
$USERR1
 40
0.0
  9
$USERR2
 40
0.0
  9
$USERR3
 40
0.0
  9
$USERR4
 40
0.0
  9
$USERR5
 40
0.0
  9
$WORLDVIEW
 70
     1
  9
$SHADEDGE
 70
     3
  9
$SHADEDIF
 70
    70
  9
$TILEMODE
 70
     1
  9
$MAXACTVP
 70
     2
  9
$PLIMCHECK
 70
     0
  9
$PEXTMIN
 10
1.000000000000000E+20
 20
1.000000000000000E+20
 30
1.000000000000000E+20
  9
$PEXTMAX
 10
-1.000000000000000E+20
 20
-1.000000000000000E+20
 30
-1.000000000000000E+20
  9
$PLIMMIN
 10
0.0
 20
0.0
  9
$PLIMMAX
 10
12.0
 20
9.0
  9
$UNITMODE
 70
     0
  9
$VISRETAIN
 70
     1
  9
$PLINEGEN
 70
     0
  9
$PSLTSCALE
 70
     1
  0
ENDSEC
  0
SECTION
  2
TABLES
  0
TABLE
  2
VPORT
 70
     1
  0
VPORT
  2
*ACTIVE
 70
     0
 10
0.0
 20
0.0
 11
1.0
 21
1.0
 12
10.42990654205607
 22
4.5
 13
0.0
 23
0.0
 14
0.5
 24
0.5
 15
0.5
 25
0.5
 16
0.0
 26
0.0
 36
1.0
 17
0.0
 27
0.0
 37
0.0
 40
9.000000000000002
 41
2.404015056461731
 42
50.0
 43
0.0
 44
0.0
 50
0.0
 51
0.0
 71
     0
 72
   100
 73
     1
 74
     3
 75
     0
 76
     0
 77
     0
 78
     0
  0
ENDTAB
  0
TABLE
  2
LTYPE
 70
     4
  0
LTYPE
  2
CONTINUOUS
 70
     0
  3
Solid line
 72
    65
 73
     0
 40
0.0
  0
LTYPE
  2
DASHED
 70
     0
  3
__ __ __ __ __ __ __ __ __
 72
    65
 73
     2
 40
0.75
 49
0.5
 49
-0.25
  0
LTYPE
  2
DASHDOT
 70
     0
  3
__ . __ . __ . __ . __ . __.
 72
    65
 73
     4
 40
1.0
 49
0.5
 49
-0.25
 49
0.0
 49
-0.25
  0
LTYPE
  2
PHANTOM2
 70
     0
  3
Phantom (.5x) ___ _ _ ___ _ _ ___ _ _ ___ _ _ _
 72
    65
 73
     6
 40
31.75
 49
15.875
 49
-3.175
 49
3.175
 49
-3.175
 49
3.175
 49
-3.175
  0
ENDTAB
  0
TABLE
  2
LAYER
 70
     3
  0
LAYER
  2
0
 70
     0
 62
     7
  6
CONTINUOUS
  0
LAYER
  2
NEW_LAYER__1_
 70
     0
 62
     7
  6
CONTINUOUS
  0
LAYER
  2
GSTARFASTVIEW4_2-ABCDEFGHI
 70
     0
 62
     7
  6
CONTINUOUS
  0
ENDTAB
  0
TABLE
  2
STYLE
 70
     2
  0
STYLE
  2
STANDARD
 70
     0
 40
0.0
 41
1.0
 50
0.0
 71
     0
 42
5.0
  3
txt.shx
  4
AllInOneBig.shx
  0
STYLE
  2
GSTARFASTVIEW4_2-ABCDEFGHI
 70
     0
 40
0.0
 41
1.0
 50
0.0
 71
     0
 42
5.0
  3
ARIALUNI.TTF
  4

  0
ENDTAB
  0
TABLE
  2
VIEW
 70
     0
  0
ENDTAB
  0
TABLE
  2
UCS
 70
     0
  0
ENDTAB
  0
TABLE
  2
APPID
 70
     3
  0
APPID
  2
ACAD
 70
     0
  0
APPID
  2
ACADANNOTATIVE
 70
     0
  0
APPID
  2
ACAD_MLEADERVER
 70
     0
  0
ENDTAB
  0
TABLE
  2
DIMSTYLE
 70
     1
  0
DIMSTYLE
  2
STANDARD
 70
     0
  3

  4

  5

  6

  7

 40
1.0
 41
0.18
 42
0.0625
 43
0.38
 44
0.18
 45
0.0
 46
0.0
 47
0.0
 48
0.0
140
0.18
141
0.09
142
0.0
143
25.4
144
1.0
145
0.0
146
1.0
147
0.09
 71
     0
 72
     0
 73
     1
 74
     1
 75
     0
 76
     0
 77
     0
 78
     0
170
     0
171
     2
172
     0
173
     0
174
     0
175
     0
176
     0
177
     0
178
     0
  0
ENDTAB
  0
ENDSEC
  0
SECTION
  2
BLOCKS
  0
BLOCK
  8
0
  2
$MODEL_SPACE
 70
     0
 10
0.0
 20
0.0
 30
0.0
  3
$MODEL_SPACE
  1

  0
ENDBLK
  5
1F58
  8
0
  0
BLOCK
 67
     1
  8
0
  2
$PAPER_SPACE
 70
     0
 10
0.0
 20
0.0
 30
0.0
  3
$PAPER_SPACE
  1

  0
ENDBLK
  5
1F5A
 67
     1
  8
0
  0
BLOCK
  8
0
  2
舌面-6_5
 70
     2
 10
138.635376
 20
245.967712
 30
0.0
  3
舌面-6_5
  1

  0
ATTDEF
  5
2E
  8
0
 10
138.635376
 20
252.653443
 30
0.0
 40
0.15
  1
舌面
  3

  2
PIECE-NAME
 70
     2
  0
ATTDEF
  5
2F
  8
0
 10
138.635376
 20
239.281982
 30
0.0
 40
0.15
  1
6_5
  3

  2
SIZE/WIDTH
 70
     2
  0
ATTDEF
  5
30
  8
0
 10
138.635376
 20
239.281982
 30
0.0
 40
0.15
  1

  3

  2
MATERIAL
 70
     2
  0
POLYLINE
  5
1BF6
  8
0
 62
     7
 66
     1
 10
0.0
 20
0.0
 30
0.0
  0
VERTEX
  5
1F85
  8
0
 62
     7
 10
194.7007
 20
259.3479
 30
0.0
  0
VERTEX
  5
1F86
  8
0
 62
     7
 10
196.4326
 20
255.2859
 30
0.0
  0
VERTEX
  5
1F87
  8
0
 62
     7
 10
198.3199
 20
251.3009
 30
0.0
  0
VERTEX
  5
1F88
  8
0
 62
     7
 10
203.7118
 20
241.4237
 30
0.0
  0
VERTEX
  5
1F89
  8
0
 62
     7
 10
205.5549
 20
237.8529
 30
0.0
  0
VERTEX
  5
1F8A
  8
0
 62
     7
 10
206.9338
 20
234.7019
 30
0.0
  0
VERTEX
  5
1F8B
  8
0
 62
     7
 10
207.9476
 20
231.6535
 30
0.0
  0
VERTEX
  5
1F8C
  8
0
 62
     7
 10
208.4506
 20
229.4755
 30
0.0
  0
VERTEX
  5
1F8D
  8
0
 62
     7
 10
208.8901
 20
226.562
 30
0.0
  0
VERTEX
  5
1F8E
  8
0
 62
     7
 10
209.191
 20
222.766
 30
0.0
  0
VERTEX
  5
1F8F
  8
0
 62
     7
 10
209.2929
 20
219.1345
 30
0.0
  0
VERTEX
  5
1F90
  8
0
 62
     7
 10
209.2288
 20
216.4178
 30
0.0
  0
VERTEX
  5
1F91
  8
0
 62
     7
 10
208.9691
 20
213.3767
 30
0.0
  0
VERTEX
  5
1F92
  8
0
 62
     7
 10
208.5698
 20
210.8603
 30
0.0
  0
VERTEX
  5
1F93
  8
0
 62
     7
 10
207.9766
 20
208.3651
 30
0.0
  0
VERTEX
  5
1F94
  8
0
 62
     7
 10
207.3365
 20
206.3589
 30
0.0
  0
VERTEX
  5
1F95
  8
0
 62
     7
 10
206.281
 20
203.7852
 30
0.0
  0
VERTEX
  5
1F96
  8
0
 62
     7
 10
204.9176
 20
201.2021
 30
0.0
  0
VERTEX
  5
1F97
  8
0
 62
     7
 10
203.6736
 20
199.2986
 30
0.0
  0
VERTEX
  5
1F98
  8
0
 62
     7
 10
202.0932
 20
197.314
 30
0.0
  0
VERTEX
  5
1F99
  8
0
 62
     7
 10
200.6337
 20
195.8116
 30
0.0
  0
VERTEX
  5
1F9A
  8
0
 62
     7
 10
199.048
 20
194.4687
 30
0.0
  0
VERTEX
  5
1F9B
  8
0
 62
     7
 10
197.5404
 20
193.423
 30
0.0
  0
VERTEX
  5
1F9C
  8
0
 62
     7
 10
195.4358
 20
192.2425
 30
0.0
  0
VERTEX
  5
1F9D
  8
0
 62
     7
 10
193.025
 20
191.1763
 30
0.0
  0
VERTEX
  5
1F9E
  8
0
 62
     7
 10
190.1938
 20
190.1932
 30
0.0
  0
VERTEX
  5
1F9F
  8
0
 62
     7
 10
185.33
 20
188.9161
 30
0.0
  0
VERTEX
  5
1FA0
  8
0
 62
     7
 10
180.0547
 20
187.8245
 30
0.0
  0
VERTEX
  5
1FA1
  8
0
 62
     7
 10
174.1409
 20
186.8207
 30
0.0
  0
VERTEX
  5
1FA2
  8
0
 62
     7
 10
162.2605
 20
185.1092
 30
0.0
  0
VERTEX
  5
1FA3
  8
0
 62
     7
 10
158.7367
 20
188.3994
 30
0.0
  0
VERTEX
  5
1FA4
  8
0
 62
     7
 10
142.8741
 20
185.5885
 30
0.0
  0
VERTEX
  5
1FA5
  8
0
 62
     7
 10
131.5444
 20
183.7857
 30
0.0
  0
VERTEX
  5
1FA6
  8
0
 62
     7
 10
126.2
 20
183.0566
 30
0.0
  0
VERTEX
  5
1FA7
  8
0
 62
     7
 10
120.829
 20
182.4446
 30
0.0
  0
VERTEX
  5
1FA8
  8
0
 62
     7
 10
115.6477
 20
182.0133
 30
0.0
  0
VERTEX
  5
1FA9
  8
0
 62
     7
 10
111.754
 20
181.8587
 30
0.0
  0
VERTEX
  5
1FAA
  8
0
 62
     7
 10
108.8358
 20
181.8755
 30
0.0
  0
VERTEX
  5
1FAB
  8
0
 62
     7
 10
105.0157
 20
182.1135
 30
0.0
  0
VERTEX
  5
1FAC
  8
0
 62
     7
 10
102.5697
 20
182.4186
 30
0.0
  0
VERTEX
  5
1FAD
  8
0
 62
     7
 10
100.1344
 20
182.8595
 30
0.0
  0
VERTEX
  5
1FAE
  8
0
 62
     7
 10
97.0321
 20
183.648
 30
0.0
  0
VERTEX
  5
1FAF
  8
0
 62
     7
 10
94.7578
 20
184.4172
 30
0.0
  0
VERTEX
  5
1FB0
  8
0
 62
     7
 10
92.2896
 20
185.4794
 30
0.0
  0
VERTEX
  5
1FB1
  8
0
 62
     7
 10
90.3324
 20
186.5343
 30
0.0
  0
VERTEX
  5
1FB2
  8
0
 62
     7
 10
88.4895
 20
187.7528
 30
0.0
  0
VERTEX
  5
1FB3
  8
0
 62
     7
 10
86.8017
 20
189.1173
 30
0.0
  0
VERTEX
  5
1FB4
  8
0
 62
     7
 10
85.4261
 20
190.433
 30
0.0
  0
VERTEX
  5
1FB5
  8
0
 62
     7
 10
83.4881
 20
192.6366
 30
0.0
  0
VERTEX
  5
1FB6
  8
0
 62
     7
 10
81.9139
 20
194.7632
 30
0.0
  0
VERTEX
  5
1FB7
  8
0
 62
     7
 10
79.9806
 20
197.8318
 30
0.0
  0
VERTEX
  5
1FB8
  8
0
 62
     7
 10
77.9126
 20
201.6974
 30
0.0
  0
VERTEX
  5
1FB9
  8
0
 62
     7
 10
76.0606
 20
205.6433
 30
0.0
  0
VERTEX
  5
1FBA
  8
0
 62
     7
 10
74.371
 20
209.6158
 30
0.0
  0
VERTEX
  5
1FBB
  8
0
 62
     7
 10
75.8441
 20
211.3033
 30
0.0
  0
VERTEX
  5
1FBC
  8
0
 62
     7
 10
73.6083
 20
211.4716
 30
0.0
  0
VERTEX
  5
1FBD
  8
0
 62
     7
 10
72.0167
 20
215.4816
 30
0.0
  0
VERTEX
  5
1FBE
  8
0
 62
     7
 10
70.5591
 20
219.5871
 30
0.0
  0
VERTEX
  5
1FBF
  8
0
 62
     7
 10
69.325
 20
223.7352
 30
0.0
  0
VERTEX
  5
1FC0
  8
0
 62
     7
 10
68.5815
 20
227.0341
 30
0.0
  0
VERTEX
  5
1FC1
  8
0
 62
     7
 10
68.1988
 20
229.522
 30
0.0
  0
VERTEX
  5
1FC2
  8
0
 62
     7
 10
67.9891
 20
232.3199
 30
0.0
  0
VERTEX
  5
1FC3
  8
0
 62
     7
 10
68.0226
 20
234.6397
 30
0.0
  0
VERTEX
  5
1FC4
  8
0
 62
     7
 10
68.2717
 20
236.9391
 30
0.0
  0
VERTEX
  5
1FC5
  8
0
 62
     7
 10
68.7624
 20
239.2444
 30
0.0
  0
VERTEX
  5
1FC6
  8
0
 62
     7
 10
69.5433
 20
241.6945
 30
0.0
  0
VERTEX
  5
1FC7
  8
0
 62
     7
 10
70.6907
 20
244.3744
 30
0.0
  0
VERTEX
  5
1FC8
  8
0
 62
     7
 10
71.831
 20
246.5317
 30
0.0
  0
VERTEX
  5
1FC9
  8
0
 62
     7
 10
73.1091
 20
248.6073
 30
0.0
  0
VERTEX
  5
1FCA
  8
0
 62
     7
 10
74.6095
 20
250.7393
 30
0.0
  0
VERTEX
  5
1FCB
  8
0
 62
     7
 10
76.7489
 20
253.3897
 30
0.0
  0
VERTEX
  5
1FCC
  8
0
 62
     7
 10
79.2518
 20
256.0953
 30
0.0
  0
VERTEX
  5
1FCD
  8
0
 62
     7
 10
82.2501
 20
258.9675
 30
0.0
  0
VERTEX
  5
1FCE
  8
0
 62
     7
 10
87.5297
 20
263.4561
 30
0.0
  0
VERTEX
  5
1FCF
  8
0
 62
     7
 10
91.9166
 20
266.9042
 30
0.0
  0
VERTEX
  5
1FD0
  8
0
 62
     7
 10
98.6178
 20
271.8841
 30
0.0
  0
VERTEX
  5
1FD1
  8
0
 62
     7
 10
112.0149
 20
281.3368
 30
0.0
  0
VERTEX
  5
1FD2
  8
0
 62
     7
 10
118.6668
 20
285.8815
 30
0.0
  0
VERTEX
  5
1FD3
  8
0
 62
     7
 10
118.8584
 20
290.6996
 30
0.0
  0
VERTEX
  5
1FD4
  8
0
 62
     7
 10
129.3171
 20
298.4198
 30
0.0
  0
VERTEX
  5
1FD5
  8
0
 62
     7
 10
133.5569
 20
301.3766
 30
0.0
  0
VERTEX
  5
1FD6
  8
0
 62
     7
 10
137.9363
 20
304.2168
 30
0.0
  0
VERTEX
  5
1FD7
  8
0
 62
     7
 10
141.1868
 20
306.1344
 30
0.0
  0
VERTEX
  5
1FD8
  8
0
 62
     7
 10
143.6933
 20
307.4302
 30
0.0
  0
VERTEX
  5
1FD9
  8
0
 62
     7
 10
145.6136
 20
308.2796
 30
0.0
  0
VERTEX
  5
1FDA
  8
0
 62
     7
 10
148.1885
 20
309.1866
 30
0.0
  0
VERTEX
  5
1FDB
  8
0
 62
     7
 10
149.8775
 20
309.6197
 30
0.0
  0
VERTEX
  5
1FDC
  8
0
 62
     7
 10
151.5938
 20
309.9167
 30
0.0
  0
VERTEX
  5
1FDD
  8
0
 62
     7
 10
153.6444
 20
310.0765
 30
0.0
  0
VERTEX
  5
1FDE
  8
0
 62
     7
 10
155.4576
 20
310.0534
 30
0.0
  0
VERTEX
  5
1FDF
  8
0
 62
     7
 10
157.845
 20
309.8062
 30
0.0
  0
VERTEX
  5
1FE0
  8
0
 62
     7
 10
160.4148
 20
309.2801
 30
0.0
  0
VERTEX
  5
1FE1
  8
0
 62
     7
 10
162.3127
 20
308.7227
 30
0.0
  0
VERTEX
  5
1FE2
  8
0
 62
     7
 10
165.0806
 20
307.6481
 30
0.0
  0
VERTEX
  5
1FE3
  8
0
 62
     7
 10
167.7142
 20
306.3166
 30
0.0
  0
VERTEX
  5
1FE4
  8
0
 62
     7
 10
170.0312
 20
304.8638
 30
0.0
  0
VERTEX
  5
1FE5
  8
0
 62
     7
 10
172.3854
 20
303.0981
 30
0.0
  0
VERTEX
  5
1FE6
  8
0
 62
     7
 10
174.8684
 20
300.9138
 30
0.0
  0
VERTEX
  5
1FE7
  8
0
 62
     7
 10
176.8268
 20
298.9663
 30
0.0
  0
VERTEX
  5
1FE8
  8
0
 62
     7
 10
178.7052
 20
296.9326
 30
0.0
  0
VERTEX
  5
1FE9
  8
0
 62
     7
 10
181.2477
 20
293.9116
 30
0.0
  0
VERTEX
  5
1FEA
  8
0
 62
     7
 10
182.7408
 20
291.8741
 30
0.0
  0
VERTEX
  5
1FEB
  8
0
 62
     7
 10
184.0715
 20
289.7399
 30
0.0
  0
VERTEX
  5
1FEC
  8
0
 62
     7
 10
185.2674
 20
287.3725
 30
0.0
  0
VERTEX
  5
1FED
  8
0
 62
     7
 10
186.3951
 20
284.5951
 30
0.0
  0
VERTEX
  5
1FEE
  8
0
 62
     7
 10
187.9312
 20
279.8151
 30
0.0
  0
VERTEX
  5
1FEF
  8
0
 62
     7
 10
191.0443
 20
269.0011
 30
0.0
  0
VERTEX
  5
1FF0
  8
0
 62
     7
 10
192.5043
 20
264.8431
 30
0.0
  0
VERTEX
  5
1FF1
  8
0
 62
     7
 10
194.1287
 20
260.7394
 30
0.0
  0
VERTEX
  5
1FF2
  8
0
 62
     7
 10
195.8054
 20
260.6127
 30
0.0
  0
VERTEX
  5
1FF3
  8
0
 62
     7
 10
194.7007
 20
259.3479
 30
0.0
  0
SEQEND
  5
2264
  8
0
 62
     7
  0
POLYLINE
  5
1C67
  8
0
 62
     8
 66
     1
 10
0.0
 20
0.0
 30
0.0
  0
VERTEX
  5
1FF4
  8
0
 62
     8
 10
73.9942
 20
210.5429
 30
0.0
  0
VERTEX
  5
1FF5
  8
0
 62
     8
 10
194.4179
 20
260.0424
 30
0.0
  0
SEQEND
  5
2265
  8
0
 62
     8
  0
POLYLINE
  5
1C6B
  8
0
 62
    22
 66
     1
 10
0.0
 20
0.0
 30
0.0
  0
VERTEX
  5
1FF6
  8
0
 62
    22
 10
94.5167
 20
203.8907
 30
0.0
  0
VERTEX
  5
1FF7
  8
0
 62
    22
 10
91.7676
 20
202.9935
 30
0.0
  0
VERTEX
  5
1FF8
  8
0
 62
    22
 10
89.9986
 20
202.6944
 30
0.0
  0
VERTEX
  5
1FF9
  8
0
 62
    22
 10
88.7689
 20
202.7987
 30
0.0
  0
VERTEX
  5
1FFA
  8
0
 62
    22
 10
87.954
 20
203.1387
 30
0.0
  0
VERTEX
  5
1FFB
  8
0
 62
    22
 10
87.3471
 20
203.6307
 30
0.0
  0
VERTEX
  5
1FFC
  8
0
 62
    22
 10
86.6774
 20
204.4689
 30
0.0
  0
VERTEX
  5
1FFD
  8
0
 62
    22
 10
85.1872
 20
207.2166
 30
0.0
  0
VERTEX
  5
1FFE
  8
0
 62
    22
 10
83.759
 20
210.4015
 30
0.0
  0
VERTEX
  5
1FFF
  8
0
 62
    22
 10
81.8864
 20
215.2827
 30
0.0
  0
SEQEND
  5
2266
  8
0
 62
    22
  0
POLYLINE
  5
1C77
  8
0
 62
    29
 66
     1
 10
0.0
 20
0.0
 30
0.0
  0
VERTEX
  5
2000
  8
0
 62
    29
 10
82.9382
 20
212.7236
 30
0.0
  0
VERTEX
  5
2001
  8
0
 62
    29
 10
80.8368
 20
217.5107
 30
0.0
  0
VERTEX
  5
2002
  8
0
 62
    29
 10
79.6123
 20
220.7794
 30
0.0
  0
VERTEX
  5
2003
  8
0
 62
    29
 10
78.7393
 20
223.7808
 30
0.0
  0
VERTEX
  5
2004
  8
0
 62
    29
 10
78.6436
 20
225.2211
 30
0.0
  0
VERTEX
  5
2005
  8
0
 62
    29
 10
78.8605
 20
226.073
 30
0.0
  0
VERTEX
  5
2006
  8
0
 62
    29
 10
79.4797
 20
227.0129
 30
0.0
  0
VERTEX
  5
2007
  8
0
 62
    29
 10
80.2706
 20
227.7243
 30
0.0
  0
VERTEX
  5
2008
  8
0
 62
    29
 10
81.8955
 20
228.73
 30
0.0
  0
VERTEX
  5
2009
  8
0
 62
    29
 10
83.9059
 20
229.7049
 30
0.0
  0
SEQEND
  5
2267
  8
0
 62
    29
  0
POLYLINE
  5
1C83
  8
0
 62
     8
 66
     1
 10
0.0
 20
0.0
 30
0.0
  0
VERTEX
  5
200A
  8
0
 62
     8
 10
200.8969
 20
246.4878
 30
0.0
  0
VERTEX
  5
200B
  8
0
 62
     8
 10
159.6103
 20
229.5172
 30
0.0
  0
VERTEX
  5
200C
  8
0
 62
     8
 10
153.9083
 20
243.3916
 30
0.0
  0
SEQEND
  5
2268
  8
0
 62
     8
  0
POLYLINE
  5
1C88
  8
0
 62
     8
 66
     1
 10
0.0
 20
0.0
 30
0.0
  0
VERTEX
  5
200D
  8
0
 62
     8
 10
153.1887
 20
237.6897
 30
0.0
  0
VERTEX
  5
200E
  8
0
 62
     8
 10
149.6037
 20
247.0275
 30
0.0
  0
SEQEND
  5
2269
  8
0
 62
     8
  0
POLYLINE
  5
1C8C
  8
0
 62
     8
 66
     1
 10
0.0
 20
0.0
 30
0.0
  0
VERTEX
  5
200F
  8
0
 62
     8
 10
136.5356
 20
230.8449
 30
0.0
  0
VERTEX
  5
2010
  8
0
 62
     8
 10
132.9506
 20
240.1828
 30
0.0
  0
SEQEND
  5
226A
  8
0
 62
     8
  0
POLYLINE
  5
1C90
  8
0
 62
    29
 66
     1
 10
0.0
 20
0.0
 30
0.0
  0
VERTEX
  5
2011
  8
0
 62
    29
 10
153.9086
 20
243.3909
 30
0.0
  0
VERTEX
  5
2012
  8
0
 62
    29
 10
148.2051
 20
257.2645
 30
0.0
  0
VERTEX
  5
2013
  8
0
 62
    29
 10
189.4915
 20
274.2352
 30
0.0
  0
SEQEND
  5
226B
  8
0
 62
    29
  0
ENDBLK
  5
1C95
  8
0
  0
BLOCK
  8
0
  2
舌面-7_5
 70
     2
 10
391.298157
 20
259.211853
 30
0.0
  3
舌面-7_5
  1

  0
ATTDEF
  5
1C98
  8
0
 10
391.298157
 20
265.897583
 30
0.0
 40
0.15
  1
舌面
  3

  2
PIECE-NAME
 70
     2
  0
ATTDEF
  5
1C99
  8
0
 10
391.298157
 20
252.526123
 30
0.0
 40
0.15
  1
7_5
  3

  2
SIZE/WIDTH
 70
     2
  0
ATTDEF
  5
1C9A
  8
0
 10
391.298157
 20
252.526123
 30
0.0
 40
0.15
  1

  3

  2
MATERIAL
 70
     2
  0
POLYLINE
  5
1C9B
  8
0
 62
     7
 66
     1
 10
0.0
 20
0.0
 30
0.0
  0
VERTEX
  5
2014
  8
0
 62
     7
 10
449.0189
 20
272.8324
 30
0.0
  0
VERTEX
  5
2015
  8
0
 62
     7
 10
450.8091
 20
268.6602
 30
0.0
  0
VERTEX
  5
2016
  8
0
 62
     7
 10
452.7594
 20
264.5682
 30
0.0
  0
VERTEX
  5
2017
  8
0
 62
     7
 10
458.321
 20
254.4464
 30
0.0
  0
VERTEX
  5
2018
  8
0
 62
     7
 10
460.2217
 20
250.7883
 30
0.0
  0
VERTEX
  5
2019
  8
0
 62
     7
 10
461.6441
 20
247.5592
 30
0.0
  0
VERTEX
  5
201A
  8
0
 62
     7
 10
462.6901
 20
244.4342
 30
0.0
  0
VERTEX
  5
201B
  8
0
 62
     7
 10
463.2087
 20
242.2029
 30
0.0
  0
VERTEX
  5
201C
  8
0
 62
     7
 10
463.662
 20
239.2174
 30
0.0
  0
VERTEX
  5
201D
  8
0
 62
     7
 10
463.9726
 20
235.3266
 30
0.0
  0
VERTEX
  5
201E
  8
0
 62
     7
 10
464.0778
 20
231.6043
 30
0.0
  0
VERTEX
  5
201F
  8
0
 62
     7
 10
464.0116
 20
228.8197
 30
0.0
  0
VERTEX
  5
2020
  8
0
 62
     7
 10
463.7436
 20
225.703
 30
0.0
  0
VERTEX
  5
2021
  8
0
 62
     7
 10
463.3318
 20
223.1248
 30
0.0
  0
VERTEX
  5
2022
  8
0
 62
     7
 10
462.7199
 20
220.5691
 30
0.0
  0
VERTEX
  5
2023
  8
0
 62
     7
 10
462.0584
 20
218.5113
 30
0.0
  0
VERTEX
  5
2024
  8
0
 62
     7
 10
460.9679
 20
215.8724
 30
0.0
  0
VERTEX
  5
2025
  8
0
 62
     7
 10
459.6094
 20
213.3077
 30
0.0
  0
VERTEX
  5
2026
  8
0
 62
     7
 10
458.3181
 20
211.333
 30
0.0
  0
VERTEX
  5
2027
  8
0
 62
     7
 10
456.6761
 20
209.2751
 30
0.0
  0
VERTEX
  5
2028
  8
0
 62
     7
 10
455.1589
 20
207.7184
 30
0.0
  0
VERTEX
  5
2029
  8
0
 62
     7
 10
453.5104
 20
206.3286
 30
0.0
  0
VERTEX
  5
202A
  8
0
 62
     7
 10
451.9537
 20
205.2547
 30
0.0
  0
VERTEX
  5
202B
  8
0
 62
     7
 10
449.7818
 20
204.0434
 30
0.0
  0
VERTEX
  5
202C
  8
0
 62
     7
 10
447.2948
 20
202.9507
 30
0.0
  0
VERTEX
  5
202D
  8
0
 62
     7
 10
444.3751
 20
201.9444
 30
0.0
  0
VERTEX
  5
202E
  8
0
 62
     7
 10
439.3607
 20
200.6385
 30
0.0
  0
VERTEX
  5
202F
  8
0
 62
     7
 10
433.9189
 20
199.521
 30
0.0
  0
VERTEX
  5
2030
  8
0
 62
     7
 10
427.8191
 20
198.4924
 30
0.0
  0
VERTEX
  5
2031
  8
0
 62
     7
 10
415.566
 20
196.7372
 30
0.0
  0
VERTEX
  5
2032
  8
0
 62
     7
 10
411.9307
 20
200.109
 30
0.0
  0
VERTEX
  5
2033
  8
0
 62
     7
 10
395.5689
 20
197.2285
 30
0.0
  0
VERTEX
  5
2034
  8
0
 62
     7
 10
384.0595
 20
195.4066
 30
0.0
  0
VERTEX
  5
2035
  8
0
 62
     7
 10
378.4586
 20
194.6449
 30
0.0
  0
VERTEX
  5
2036
  8
0
 62
     7
 10
372.8301
 20
194.0067
 30
0.0
  0
VERTEX
  5
2037
  8
0
 62
     7
 10
367.4863
 20
193.565
 30
0.0
  0
VERTEX
  5
2038
  8
0
 62
     7
 10
363.4705
 20
193.4067
 30
0.0
  0
VERTEX
  5
2039
  8
0
 62
     7
 10
360.4607
 20
193.424
 30
0.0
  0
VERTEX
  5
203A
  8
0
 62
     7
 10
356.5203
 20
193.6678
 30
0.0
  0
VERTEX
  5
203B
  8
0
 62
     7
 10
353.997
 20
193.9804
 30
0.0
  0
VERTEX
  5
203C
  8
0
 62
     7
 10
351.4843
 20
194.4319
 30
0.0
  0
VERTEX
  5
203D
  8
0
 62
     7
 10
348.286
 20
195.2386
 30
0.0
  0
VERTEX
  5
203E
  8
0
 62
     7
 10
345.9407
 20
196.026
 30
0.0
  0
VERTEX
  5
203F
  8
0
 62
     7
 10
343.3948
 20
197.1142
 30
0.0
  0
VERTEX
  5
2040
  8
0
 62
     7
 10
341.3753
 20
198.1959
 30
0.0
  0
VERTEX
  5
2041
  8
0
 62
     7
 10
339.473
 20
199.4464
 30
0.0
  0
VERTEX
  5
2042
  8
0
 62
     7
 10
337.7353
 20
200.8432
 30
0.0
  0
VERTEX
  5
2043
  8
0
 62
     7
 10
336.3181
 20
202.1906
 30
0.0
  0
VERTEX
  5
2044
  8
0
 62
     7
 10
334.5933
 20
204.1125
 30
0.0
  0
VERTEX
  5
2045
  8
0
 62
     7
 10
332.8832
 20
206.3585
 30
0.0
  0
VERTEX
  5
2046
  8
0
 62
     7
 10
331.1342
 20
209.0418
 30
0.0
  0
VERTEX
  5
2047
  8
0
 62
     7
 10
329.8004
 20
211.3661
 30
0.0
  0
VERTEX
  5
2048
  8
0
 62
     7
 10
328.5633
 20
213.7363
 30
0.0
  0
VERTEX
  5
2049
  8
0
 62
     7
 10
326.6472
 20
217.7914
 30
0.0
  0
VERTEX
  5
204A
  8
0
 62
     7
 10
324.8996
 20
221.8752
 30
0.0
  0
VERTEX
  5
204B
  8
0
 62
     7
 10
326.3727
 20
223.5568
 30
0.0
  0
VERTEX
  5
204C
  8
0
 62
     7
 10
324.1429
 20
223.7286
 30
0.0
  0
VERTEX
  5
204D
  8
0
 62
     7
 10
322.5325
 20
227.8671
 30
0.0
  0
VERTEX
  5
204E
  8
0
 62
     7
 10
321.0627
 20
232.1034
 30
0.0
  0
VERTEX
  5
204F
  8
0
 62
     7
 10
319.863
 20
236.2344
 30
0.0
  0
VERTEX
  5
2050
  8
0
 62
     7
 10
319.1095
 20
239.6625
 30
0.0
  0
VERTEX
  5
2051
  8
0
 62
     7
 10
318.7265
 20
242.2474
 30
0.0
  0
VERTEX
  5
2052
  8
0
 62
     7
 10
318.5258
 20
245.153
 30
0.0
  0
VERTEX
  5
2053
  8
0
 62
     7
 10
318.5756
 20
247.5606
 30
0.0
  0
VERTEX
  5
2054
  8
0
 62
     7
 10
318.8506
 20
249.9453
 30
0.0
  0
VERTEX
  5
2055
  8
0
 62
     7
 10
319.3734
 20
252.317
 30
0.0
  0
VERTEX
  5
2056
  8
0
 62
     7
 10
320.1961
 20
254.8356
 30
0.0
  0
VERTEX
  5
2057
  8
0
 62
     7
 10
321.3977
 20
257.5887
 30
0.0
  0
VERTEX
  5
2058
  8
0
 62
     7
 10
322.5876
 20
259.8037
 30
0.0
  0
VERTEX
  5
2059
  8
0
 62
     7
 10
323.9182
 20
261.9343
 30
0.0
  0
VERTEX
  5
205A
  8
0
 62
     7
 10
325.4786
 20
264.1244
 30
0.0
  0
VERTEX
  5
205B
  8
0
 62
     7
 10
327.7001
 20
266.8464
 30
0.0
  0
VERTEX
  5
205C
  8
0
 62
     7
 10
330.2953
 20
269.6246
 30
0.0
  0
VERTEX
  5
205D
  8
0
 62
     7
 10
333.4007
 20
272.5731
 30
0.0
  0
VERTEX
  5
205E
  8
0
 62
     7
 10
336.0996
 20
274.9158
 30
0.0
  0
VERTEX
  5
205F
  8
0
 62
     7
 10
338.8643
 20
277.1801
 30
0.0
  0
VERTEX
  5
2060
  8
0
 62
     7
 10
343.402
 20
280.7187
 30
0.0
  0
VERTEX
  5
2061
  8
0
 62
     7
 10
350.332
 20
285.8293
 30
0.0
  0
VERTEX
  5
2062
  8
0
 62
     7
 10
364.1829
 20
295.5293
 30
0.0
  0
VERTEX
  5
2063
  8
0
 62
     7
 10
371.0588
 20
300.1925
 30
0.0
  0
VERTEX
  5
2064
  8
0
 62
     7
 10
371.2946
 20
305.1456
 30
0.0
  0
VERTEX
  5
2065
  8
0
 62
     7
 10
381.9708
 20
312.9675
 30
0.0
  0
VERTEX
  5
2066
  8
0
 62
     7
 10
386.4217
 20
316.0529
 30
0.0
  0
VERTEX
  5
2067
  8
0
 62
     7
 10
391.0185
 20
319.0161
 30
0.0
  0
VERTEX
  5
2068
  8
0
 62
     7
 10
394.373
 20
320.9833
 30
0.0
  0
VERTEX
  5
2069
  8
0
 62
     7
 10
396.9589
 20
322.3123
 30
0.0
  0
VERTEX
  5
206A
  8
0
 62
     7
 10
398.9397
 20
323.1832
 30
0.0
  0
VERTEX
  5
206B
  8
0
 62
     7
 10
401.5952
 20
324.1122
 30
0.0
  0
VERTEX
  5
206C
  8
0
 62
     7
 10
403.3369
 20
324.555
 30
0.0
  0
VERTEX
  5
206D
  8
0
 62
     7
 10
405.1064
 20
324.8575
 30
0.0
  0
VERTEX
  5
206E
  8
0
 62
     7
 10
407.2129
 20
325.0178
 30
0.0
  0
VERTEX
  5
206F
  8
0
 62
     7
 10
409.075
 20
324.9912
 30
0.0
  0
VERTEX
  5
2070
  8
0
 62
     7
 10
411.5265
 20
324.7341
 30
0.0
  0
VERTEX
  5
2071
  8
0
 62
     7
 10
414.1646
 20
324.1904
 30
0.0
  0
VERTEX
  5
2072
  8
0
 62
     7
 10
416.1122
 20
323.6154
 30
0.0
  0
VERTEX
  5
2073
  8
0
 62
     7
 10
418.9082
 20
322.5269
 30
0.0
  0
VERTEX
  5
2074
  8
0
 62
     7
 10
421.6517
 20
321.1346
 30
0.0
  0
VERTEX
  5
2075
  8
0
 62
     7
 10
424.0213
 20
319.6389
 30
0.0
  0
VERTEX
  5
2076
  8
0
 62
     7
 10
426.4273
 20
317.8207
 30
0.0
  0
VERTEX
  5
2077
  8
0
 62
     7
 10
428.963
 20
315.5715
 30
0.0
  0
VERTEX
  5
2078
  8
0
 62
     7
 10
430.9614
 20
313.5663
 30
0.0
  0
VERTEX
  5
2079
  8
0
 62
     7
 10
432.8766
 20
311.4725
 30
0.0
  0
VERTEX
  5
207A
  8
0
 62
     7
 10
435.4668
 20
308.3626
 30
0.0
  0
VERTEX
  5
207B
  8
0
 62
     7
 10
436.9854
 20
306.2659
 30
0.0
  0
VERTEX
  5
207C
  8
0
 62
     7
 10
438.3361
 20
304.0707
 30
0.0
  0
VERTEX
  5
207D
  8
0
 62
     7
 10
439.5471
 20
301.6345
 30
0.0
  0
VERTEX
  5
207E
  8
0
 62
     7
 10
440.6843
 20
298.7774
 30
0.0
  0
VERTEX
  5
207F
  8
0
 62
     7
 10
442.2246
 20
293.8623
 30
0.0
  0
VERTEX
  5
2080
  8
0
 62
     7
 10
445.3382
 20
282.7407
 30
0.0
  0
VERTEX
  5
2081
  8
0
 62
     7
 10
446.8097
 20
278.4538
 30
0.0
  0
VERTEX
  5
2082
  8
0
 62
     7
 10
448.4515
 20
274.2218
 30
0.0
  0
VERTEX
  5
2083
  8
0
 62
     7
 10
450.1234
 20
274.0932
 30
0.0
  0
VERTEX
  5
2084
  8
0
 62
     7
 10
449.0189
 20
272.8324
 30
0.0
  0
SEQEND
  5
226C
  8
0
 62
     7
  0
POLYLINE
  5
1D0E
  8
0
 62
     8
 66
     1
 10
0.0
 20
0.0
 30
0.0
  0
VERTEX
  5
2085
  8
0
 62
     8
 10
324.5211
 20
222.8007
 30
0.0
  0
VERTEX
  5
2086
  8
0
 62
     8
 10
448.7347
 20
273.5262
 30
0.0
  0
SEQEND
  5
226D
  8
0
 62
     8
  0
POLYLINE
  5
1D12
  8
0
 62
    22
 66
     1
 10
0.0
 20
0.0
 30
0.0
  0
VERTEX
  5
2087
  8
0
 62
    22
 10
345.3079
 20
215.7838
 30
0.0
  0
VERTEX
  5
2088
  8
0
 62
    22
 10
342.539
 20
214.9072
 30
0.0
  0
VERTEX
  5
2089
  8
0
 62
    22
 10
340.7527
 20
214.626
 30
0.0
  0
VERTEX
  5
208A
  8
0
 62
    22
 10
339.506
 20
214.748
 30
0.0
  0
VERTEX
  5
208B
  8
0
 62
    22
 10
338.675
 20
215.1047
 30
0.0
  0
VERTEX
  5
208C
  8
0
 62
    22
 10
338.0519
 20
215.6134
 30
0.0
  0
VERTEX
  5
208D
  8
0
 62
    22
 10
337.3581
 20
216.4767
 30
0.0
  0
VERTEX
  5
208E
  8
0
 62
    22
 10
335.8154
 20
219.2972
 30
0.0
  0
VERTEX
  5
208F
  8
0
 62
    22
 10
334.3407
 20
222.5682
 30
0.0
  0
VERTEX
  5
2090
  8
0
 62
    22
 10
332.4005
 20
227.5748
 30
0.0
  0
SEQEND
  5
226E
  8
0
 62
    22
  0
POLYLINE
  5
1D1E
  8
0
 62
    29
 66
     1
 10
0.0
 20
0.0
 30
0.0
  0
VERTEX
  5
2091
  8
0
 62
    29
 10
333.4899
 20
224.9069
 30
0.0
  0
VERTEX
  5
2092
  8
0
 62
    29
 10
331.3709
 20
229.8405
 30
0.0
  0
VERTEX
  5
2093
  8
0
 62
    29
 10
330.1343
 20
233.2088
 30
0.0
  0
VERTEX
  5
2094
  8
0
 62
    29
 10
329.2616
 20
236.3029
 30
0.0
  0
VERTEX
  5
2095
  8
0
 62
    29
 10
329.1721
 20
237.7878
 30
0.0
  0
VERTEX
  5
2096
  8
0
 62
    29
 10
329.3927
 20
238.6631
 30
0.0
  0
VERTEX
  5
2097
  8
0
 62
    29
 10
330.016
 20
239.625
 30
0.0
  0
VERTEX
  5
2098
  8
0
 62
    29
 10
330.81
 20
240.3518
 30
0.0
  0
VERTEX
  5
2099
  8
0
 62
    29
 10
332.4392
 20
241.3736
 30
0.0
  0
VERTEX
  5
209A
  8
0
 62
    29
 10
334.4539
 20
242.3626
 30
0.0
  0
SEQEND
  5
226F
  8
0
 62
    29
  0
POLYLINE
  5
1D2A
  8
0
 62
     8
 66
     1
 10
0.0
 20
0.0
 30
0.0
  0
VERTEX
  5
209B
  8
0
 62
     8
 10
455.2273
 20
259.975
 30
0.0
  0
VERTEX
  5
209C
  8
0
 62
     8
 10
413.8637
 20
243.0833
 30
0.0
  0
VERTEX
  5
209D
  8
0
 62
     8
 10
408.1927
 20
256.9702
 30
0.0
  0
SEQEND
  5
2270
  8
0
 62
     8
  0
POLYLINE
  5
1D2F
  8
0
 62
     8
 66
     1
 10
0.0
 20
0.0
 30
0.0
  0
VERTEX
  5
209E
  8
0
 62
     8
 10
406.1619
 20
250.7394
 30
0.0
  0
VERTEX
  5
209F
  8
0
 62
     8
 10
402.5565
 20
260.0695
 30
0.0
  0
SEQEND
  5
2271
  8
0
 62
     8
  0
POLYLINE
  5
1D33
  8
0
 62
     8
 66
     1
 10
0.0
 20
0.0
 30
0.0
  0
VERTEX
  5
20A0
  8
0
 62
     8
 10
389.4948
 20
243.9333
 30
0.0
  0
VERTEX
  5
20A1
  8
0
 62
     8
 10
385.8896
 20
253.2626
 30
0.0
  0
SEQEND
  5
2272
  8
0
 62
     8
  0
POLYLINE
  5
1D37
  8
0
 62
    29
 66
     1
 10
0.0
 20
0.0
 30
0.0
  0
VERTEX
  5
20A2
  8
0
 62
    29
 10
408.193
 20
256.9697
 30
0.0
  0
VERTEX
  5
20A3
  8
0
 62
    29
 10
402.5221
 20
270.8567
 30
0.0
  0
VERTEX
  5
20A4
  8
0
 62
    29
 10
443.8854
 20
287.7484
 30
0.0
  0
SEQEND
  5
2273
  8
0
 62
    29
  0
ENDBLK
  5
1D3C
  8
0
  0
BLOCK
  8
0
  2
舌面-8_5
 70
     2
 10
643.959839
 20
272.454468
 30
0.0
  3
舌面-8_5
  1

  0
ATTDEF
  5
1D3F
  8
0
 10
643.959839
 20
279.140198
 30
0.0
 40
0.15
  1
舌面
  3

  2
PIECE-NAME
 70
     2
  0
ATTDEF
  5
1D40
  8
0
 10
643.959839
 20
265.768737
 30
0.0
 40
0.15
  1
8_5
  3

  2
SIZE/WIDTH
 70
     2
  0
ATTDEF
  5
1D41
  8
0
 10
643.959839
 20
265.768737
 30
0.0
 40
0.15
  1

  3

  2
MATERIAL
 70
     2
  0
POLYLINE
  5
1D42
  8
0
 62
     7
 66
     1
 10
0.0
 20
0.0
 30
0.0
  0
VERTEX
  5
20A5
  8
0
 62
     7
 10
703.3373
 20
286.3165
 30
0.0
  0
VERTEX
  5
20A6
  8
0
 62
     7
 10
705.1855
 20
282.0345
 30
0.0
  0
VERTEX
  5
20A7
  8
0
 62
     7
 10
707.1989
 20
277.8355
 30
0.0
  0
VERTEX
  5
20A8
  8
0
 62
     7
 10
708.5812
 20
275.2238
 30
0.0
  0
VERTEX
  5
20A9
  8
0
 62
     7
 10
712.9302
 20
267.4691
 30
0.0
  0
VERTEX
  5
20AA
  8
0
 62
     7
 10
714.8886
 20
263.7236
 30
0.0
  0
VERTEX
  5
20AB
  8
0
 62
     7
 10
716.3344
 20
260.4673
 30
0.0
  0
VERTEX
  5
20AC
  8
0
 62
     7
 10
717.4325
 20
257.215
 30
0.0
  0
VERTEX
  5
20AD
  8
0
 62
     7
 10
717.9667
 20
254.9303
 30
0.0
  0
VERTEX
  5
20AE
  8
0
 62
     7
 10
718.4339
 20
251.8728
 30
0.0
  0
VERTEX
  5
20AF
  8
0
 62
     7
 10
718.7542
 20
247.8873
 30
0.0
  0
VERTEX
  5
20B0
  8
0
 62
     7
 10
718.8626
 20
244.0741
 30
0.0
  0
VERTEX
  5
20B1
  8
0
 62
     7
 10
718.7944
 20
241.2216
 30
0.0
  0
VERTEX
  5
20B2
  8
0
 62
     7
 10
718.5182
 20
238.0294
 30
0.0
  0
VERTEX
  5
20B3
  8
0
 62
     7
 10
718.0938
 20
235.3892
 30
0.0
  0
VERTEX
  5
20B4
  8
0
 62
     7
 10
717.4633
 20
232.7731
 30
0.0
  0
VERTEX
  5
20B5
  8
0
 62
     7
 10
716.7805
 20
230.6637
 30
0.0
  0
VERTEX
  5
20B6
  8
0
 62
     7
 10
715.6548
 20
227.9595
 30
0.0
  0
VERTEX
  5
20B7
  8
0
 62
     7
 10
714.2533
 20
225.3325
 30
0.0
  0
VERTEX
  5
20B8
  8
0
 62
     7
 10
712.922
 20
223.3104
 30
0.0
  0
VERTEX
  5
20B9
  8
0
 62
     7
 10
711.2302
 20
221.2037
 30
0.0
  0
VERTEX
  5
20BA
  8
0
 62
     7
 10
709.6685
 20
219.6105
 30
0.0
  0
VERTEX
  5
20BB
  8
0
 62
     7
 10
707.9728
 20
218.1885
 30
0.0
  0
VERTEX
  5
20BC
  8
0
 62
     7
 10
706.3671
 20
217.0864
 30
0.0
  0
VERTEX
  5
20BD
  8
0
 62
     7
 10
704.1277
 20
215.8444
 30
0.0
  0
VERTEX
  5
20BE
  8
0
 62
     7
 10
701.5645
 20
214.7251
 30
0.0
  0
VERTEX
  5
20BF
  8
0
 62
     7
 10
698.5564
 20
213.6956
 30
0.0
  0
VERTEX
  5
20C0
  8
0
 62
     7
 10
693.3915
 20
212.3609
 30
0.0
  0
VERTEX
  5
20C1
  8
0
 62
     7
 10
687.7832
 20
211.2175
 30
0.0
  0
VERTEX
  5
20C2
  8
0
 62
     7
 10
681.4973
 20
210.164
 30
0.0
  0
VERTEX
  5
20C3
  8
0
 62
     7
 10
668.871
 20
208.3652
 30
0.0
  0
VERTEX
  5
20C4
  8
0
 62
     7
 10
665.1246
 20
211.8186
 30
0.0
  0
VERTEX
  5
20C5
  8
0
 62
     7
 10
648.2637
 20
208.8685
 30
0.0
  0
VERTEX
  5
20C6
  8
0
 62
     7
 10
636.494
 20
207.0157
 30
0.0
  0
VERTEX
  5
20C7
  8
0
 62
     7
 10
630.6767
 20
206.2281
 30
0.0
  0
VERTEX
  5
20C8
  8
0
 62
     7
 10
624.8312
 20
205.5688
 30
0.0
  0
VERTEX
  5
20C9
  8
0
 62
     7
 10
619.3248
 20
205.1167
 30
0.0
  0
VERTEX
  5
20CA
  8
0
 62
     7
 10
615.187
 20
204.9548
 30
0.0
  0
VERTEX
  5
20CB
  8
0
 62
     7
 10
612.0856
 20
204.9725
 30
0.0
  0
VERTEX
  5
20CC
  8
0
 62
     7
 10
608.0249
 20
205.2222
 30
0.0
  0
VERTEX
  5
20CD
  8
0
 62
     7
 10
605.4243
 20
205.5421
 30
0.0
  0
VERTEX
  5
20CE
  8
0
 62
     7
 10
602.8342
 20
206.0044
 30
0.0
  0
VERTEX
  5
20CF
  8
0
 62
     7
 10
599.5399
 20
206.8293
 30
0.0
  0
VERTEX
  5
20D0
  8
0
 62
     7
 10
597.1236
 20
207.6349
 30
0.0
  0
VERTEX
  5
20D1
  8
0
 62
     7
 10
594.5
 20
208.749
 30
0.0
  0
VERTEX
  5
20D2
  8
0
 62
     7
 10
592.4183
 20
209.8574
 30
0.0
  0
VERTEX
  5
20D3
  8
0
 62
     7
 10
590.4565
 20
211.1399
 30
0.0
  0
VERTEX
  5
20D4
  8
0
 62
     7
 10
588.6688
 20
212.5691
 30
0.0
  0
VERTEX
  5
20D5
  8
0
 62
     7
 10
587.21
 20
213.9481
 30
0.0
  0
VERTEX
  5
20D6
  8
0
 62
     7
 10
585.4335
 20
215.9157
 30
0.0
  0
VERTEX
  5
20D7
  8
0
 62
     7
 10
583.6708
 20
218.2158
 30
0.0
  0
VERTEX
  5
20D8
  8
0
 62
     7
 10
581.8669
 20
220.9644
 30
0.0
  0
VERTEX
  5
20D9
  8
0
 62
     7
 10
580.4907
 20
223.346
 30
0.0
  0
VERTEX
  5
20DA
  8
0
 62
     7
 10
579.214
 20
225.7752
 30
0.0
  0
VERTEX
  5
20DB
  8
0
 62
     7
 10
577.234
 20
229.9388
 30
0.0
  0
VERTEX
  5
20DC
  8
0
 62
     7
 10
575.4286
 20
234.133
 30
0.0
  0
VERTEX
  5
20DD
  8
0
 62
     7
 10
576.9012
 20
235.8105
 30
0.0
  0
VERTEX
  5
20DE
  8
0
 62
     7
 10
574.6776
 20
235.9839
 30
0.0
  0
VERTEX
  5
20DF
  8
0
 62
     7
 10
573.0483
 20
240.2516
 30
0.0
  0
VERTEX
  5
20E0
  8
0
 62
     7
 10
571.5659
 20
244.6192
 30
0.0
  0
VERTEX
  5
20E1
  8
0
 62
     7
 10
570.3651
 20
248.8681
 30
0.0
  0
VERTEX
  5
20E2
  8
0
 62
     7
 10
569.6179
 20
252.3925
 30
0.0
  0
VERTEX
  5
20E3
  8
0
 62
     7
 10
569.2445
 20
255.0488
 30
0.0
  0
VERTEX
  5
20E4
  8
0
 62
     7
 10
569.0604
 20
258.033
 30
0.0
  0
VERTEX
  5
20E5
  8
0
 62
     7
 10
569.1294
 20
260.5042
 30
0.0
  0
VERTEX
  5
20E6
  8
0
 62
     7
 10
569.4288
 20
262.95
 30
0.0
  0
VERTEX
  5
20E7
  8
0
 62
     7
 10
569.9837
 20
265.3881
 30
0.0
  0
VERTEX
  5
20E8
  8
0
 62
     7
 10
570.8481
 20
267.9752
 30
0.0
  0
VERTEX
  5
20E9
  8
0
 62
     7
 10
572.1039
 20
270.8013
 30
0.0
  0
VERTEX
  5
20EA
  8
0
 62
     7
 10
573.3433
 20
273.074
 30
0.0
  0
VERTEX
  5
20EB
  8
0
 62
     7
 10
574.7263
 20
275.2593
 30
0.0
  0
VERTEX
  5
20EC
  8
0
 62
     7
 10
576.3469
 20
277.5074
 30
0.0
  0
VERTEX
  5
20ED
  8
0
 62
     7
 10
578.6504
 20
280.3011
 30
0.0
  0
VERTEX
  5
20EE
  8
0
 62
     7
 10
581.3377
 20
283.1516
 30
0.0
  0
VERTEX
  5
20EF
  8
0
 62
     7
 10
584.5503
 20
286.1764
 30
0.0
  0
VERTEX
  5
20F0
  8
0
 62
     7
 10
587.3405
 20
288.5794
 30
0.0
  0
VERTEX
  5
20F1
  8
0
 62
     7
 10
590.1979
 20
290.9019
 30
0.0
  0
VERTEX
  5
20F2
  8
0
 62
     7
 10
594.8863
 20
294.5308
 30
0.0
  0
VERTEX
  5
20F3
  8
0
 62
     7
 10
602.045
 20
299.7719
 30
0.0
  0
VERTEX
  5
20F4
  8
0
 62
     7
 10
616.3497
 20
309.7191
 30
0.0
  0
VERTEX
  5
20F5
  8
0
 62
     7
 10
623.4495
 20
314.5008
 30
0.0
  0
VERTEX
  5
20F6
  8
0
 62
     7
 10
623.7294
 20
319.5885
 30
0.0
  0
VERTEX
  5
20F7
  8
0
 62
     7
 10
634.758
 20
327.6089
 30
0.0
  0
VERTEX
  5
20F8
  8
0
 62
     7
 10
639.3544
 20
330.7729
 30
0.0
  0
VERTEX
  5
20F9
  8
0
 62
     7
 10
644.0992
 20
333.8121
 30
0.0
  0
VERTEX
  5
20FA
  8
0
 62
     7
 10
647.5577
 20
335.8289
 30
0.0
  0
VERTEX
  5
20FB
  8
0
 62
     7
 10
650.223
 20
337.1913
 30
0.0
  0
VERTEX
  5
20FC
  8
0
 62
     7
 10
652.2641
 20
338.0836
 30
0.0
  0
VERTEX
  5
20FD
  8
0
 62
     7
 10
655.0002
 20
339.0345
 30
0.0
  0
VERTEX
  5
20FE
  8
0
 62
     7
 10
656.7946
 20
339.4869
 30
0.0
  0
VERTEX
  5
20FF
  8
0
 62
     7
 10
658.6175
 20
339.795
 30
0.0
  0
VERTEX
  5
2100
  8
0
 62
     7
 10
660.7797
 20
339.9558
 30
0.0
  0
VERTEX
  5
2101
  8
0
 62
     7
 10
662.6909
 20
339.9258
 30
0.0
  0
VERTEX
  5
2102
  8
0
 62
     7
 10
665.2064
 20
339.6588
 30
0.0
  0
VERTEX
  5
2103
  8
0
 62
     7
 10
667.9128
 20
339.0978
 30
0.0
  0
VERTEX
  5
2104
  8
0
 62
     7
 10
669.9104
 20
338.5052
 30
0.0
  0
VERTEX
  5
2105
  8
0
 62
     7
 10
672.7323
 20
337.4041
 30
0.0
  0
VERTEX
  5
2106
  8
0
 62
     7
 10
675.588
 20
335.9498
 30
0.0
  0
VERTEX
  5
2107
  8
0
 62
     7
 10
678.0101
 20
334.4113
 30
0.0
  0
VERTEX
  5
2108
  8
0
 62
     7
 10
680.468
 20
332.5409
 30
0.0
  0
VERTEX
  5
2109
  8
0
 62
     7
 10
683.0563
 20
330.2269
 30
0.0
  0
VERTEX
  5
210A
  8
0
 62
     7
 10
685.0948
 20
328.1641
 30
0.0
  0
VERTEX
  5
210B
  8
0
 62
     7
 10
687.0471
 20
326.0103
 30
0.0
  0
VERTEX
  5
210C
  8
0
 62
     7
 10
689.3229
 20
323.2791
 30
0.0
  0
VERTEX
  5
210D
  8
0
 62
     7
 10
691.0652
 20
320.9002
 30
0.0
  0
VERTEX
  5
210E
  8
0
 62
     7
 10
692.5999
 20
318.3999
 30
0.0
  0
VERTEX
  5
210F
  8
0
 62
     7
 10
693.8261
 20
315.895
 30
0.0
  0
VERTEX
  5
2110
  8
0
 62
     7
 10
694.9728
 20
312.9584
 30
0.0
  0
VERTEX
  5
2111
  8
0
 62
     7
 10
696.5174
 20
307.9084
 30
0.0
  0
VERTEX
  5
2112
  8
0
 62
     7
 10
698.803
 20
299.3162
 30
0.0
  0
VERTEX
  5
2113
  8
0
 62
     7
 10
699.6318
 20
296.4799
 30
0.0
  0
VERTEX
  5
2114
  8
0
 62
     7
 10
701.1147
 20
292.0643
 30
0.0
  0
VERTEX
  5
2115
  8
0
 62
     7
 10
702.774
 20
287.7043
 30
0.0
  0
VERTEX
  5
2116
  8
0
 62
     7
 10
704.4413
 20
287.574
 30
0.0
  0
VERTEX
  5
2117
  8
0
 62
     7
 10
703.3373
 20
286.3165
 30
0.0
  0
SEQEND
  5
2274
  8
0
 62
     7
  0
POLYLINE
  5
1DB7
  8
0
 62
     8
 66
     1
 10
0.0
 20
0.0
 30
0.0
  0
VERTEX
  5
2118
  8
0
 62
     8
 10
575.048
 20
235.0584
 30
0.0
  0
VERTEX
  5
2119
  8
0
 62
     8
 10
703.0514
 20
287.01
 30
0.0
  0
SEQEND
  5
2275
  8
0
 62
     8
  0
POLYLINE
  5
1DBB
  8
0
 62
    22
 66
     1
 10
0.0
 20
0.0
 30
0.0
  0
VERTEX
  5
211A
  8
0
 62
    22
 10
596.0992
 20
227.6768
 30
0.0
  0
VERTEX
  5
211B
  8
0
 62
    22
 10
593.3104
 20
226.8208
 30
0.0
  0
VERTEX
  5
211C
  8
0
 62
    22
 10
591.5068
 20
226.5575
 30
0.0
  0
VERTEX
  5
211D
  8
0
 62
    22
 10
590.2431
 20
226.6973
 30
0.0
  0
VERTEX
  5
211E
  8
0
 62
    22
 10
589.396
 20
227.0707
 30
0.0
  0
VERTEX
  5
211F
  8
0
 62
    22
 10
588.7568
 20
227.5961
 30
0.0
  0
VERTEX
  5
2120
  8
0
 62
    22
 10
588.0388
 20
228.4844
 30
0.0
  0
VERTEX
  5
2121
  8
0
 62
    22
 10
586.4437
 20
231.3778
 30
0.0
  0
VERTEX
  5
2122
  8
0
 62
    22
 10
584.9225
 20
234.7348
 30
0.0
  0
VERTEX
  5
2123
  8
0
 62
    22
 10
582.9145
 20
239.8669
 30
0.0
  0
SEQEND
  5
2276
  8
0
 62
    22
  0
POLYLINE
  5
1DC7
  8
0
 62
    29
 66
     1
 10
0.0
 20
0.0
 30
0.0
  0
VERTEX
  5
2124
  8
0
 62
    29
 10
584.0406
 20
237.0924
 30
0.0
  0
VERTEX
  5
2125
  8
0
 62
    29
 10
581.9039
 20
242.1723
 30
0.0
  0
VERTEX
  5
2126
  8
0
 62
    29
 10
580.6552
 20
245.6399
 30
0.0
  0
VERTEX
  5
2127
  8
0
 62
    29
 10
579.7827
 20
248.8266
 30
0.0
  0
VERTEX
  5
2128
  8
0
 62
    29
 10
579.6993
 20
250.3562
 30
0.0
  0
VERTEX
  5
2129
  8
0
 62
    29
 10
579.9237
 20
251.2549
 30
0.0
  0
VERTEX
  5
212A
  8
0
 62
    29
 10
580.551
 20
252.2389
 30
0.0
  0
VERTEX
  5
212B
  8
0
 62
    29
 10
581.348
 20
252.9812
 30
0.0
  0
VERTEX
  5
212C
  8
0
 62
    29
 10
582.9816
 20
254.0195
 30
0.0
  0
VERTEX
  5
212D
  8
0
 62
    29
 10
585.0004
 20
255.0232
 30
0.0
  0
SEQEND
  5
2277
  8
0
 62
    29
  0
POLYLINE
  5
1DD3
  8
0
 62
     8
 66
     1
 10
0.0
 20
0.0
 30
0.0
  0
VERTEX
  5
212E
  8
0
 62
     8
 10
709.5563
 20
273.4617
 30
0.0
  0
VERTEX
  5
212F
  8
0
 62
     8
 10
668.1215
 20
256.645
 30
0.0
  0
VERTEX
  5
2130
  8
0
 62
     8
 10
662.4796
 20
270.5435
 30
0.0
  0
SEQEND
  5
2278
  8
0
 62
     8
  0
POLYLINE
  5
1DD8
  8
0
 62
     8
 66
     1
 10
0.0
 20
0.0
 30
0.0
  0
VERTEX
  5
2131
  8
0
 62
     8
 10
659.1342
 20
263.79
 30
0.0
  0
VERTEX
  5
2132
  8
0
 62
     8
 10
655.5098
 20
273.1114
 30
0.0
  0
SEQEND
  5
2279
  8
0
 62
     8
  0
POLYLINE
  5
1DDC
  8
0
 62
     8
 66
     1
 10
0.0
 20
0.0
 30
0.0
  0
VERTEX
  5
2133
  8
0
 62
     8
 10
642.4539
 20
257.0197
 30
0.0
  0
VERTEX
  5
2134
  8
0
 62
     8
 10
638.8295
 20
266.3411
 30
0.0
  0
SEQEND
  5
227A
  8
0
 62
     8
  0
POLYLINE
  5
1DE0
  8
0
 62
    29
 66
     1
 10
0.0
 20
0.0
 30
0.0
  0
VERTEX
  5
2135
  8
0
 62
    29
 10
662.4796
 20
270.5435
 30
0.0
  0
VERTEX
  5
2136
  8
0
 62
    29
 10
656.8395
 20
284.4425
 30
0.0
  0
VERTEX
  5
2137
  8
0
 62
    29
 10
698.2743
 20
301.2595
 30
0.0
  0
SEQEND
  5
227B
  8
0
 62
    29
  0
ENDBLK
  5
1DE5
  8
0
  0
BLOCK
  8
0
  2
舌面-9_5
 70
     2
 10
896.621582
 20
285.695587
 30
0.0
  3
舌面-9_5
  1

  0
ATTDEF
  5
1DE8
  8
0
 10
896.621582
 20
292.381318
 30
0.0
 40
0.15
  1
舌面
  3

  2
PIECE-NAME
 70
     2
  0
ATTDEF
  5
1DE9
  8
0
 10
896.621582
 20
279.009857
 30
0.0
 40
0.15
  1
9_5
  3

  2
SIZE/WIDTH
 70
     2
  0
ATTDEF
  5
1DEA
  8
0
 10
896.621582
 20
279.009857
 30
0.0
 40
0.15
  1

  3

  2
MATERIAL
 70
     2
  0
POLYLINE
  5
1DEB
  8
0
 62
     7
 66
     1
 10
0.0
 20
0.0
 30
0.0
  0
VERTEX
  5
2138
  8
0
 62
     7
 10
957.6561
 20
299.8015
 30
0.0
  0
VERTEX
  5
2139
  8
0
 62
     7
 10
959.5627
 20
295.4091
 30
0.0
  0
VERTEX
  5
213A
  8
0
 62
     7
 10
961.6393
 20
291.1028
 30
0.0
  0
VERTEX
  5
213B
  8
0
 62
     7
 10
963.0626
 20
288.4293
 30
0.0
  0
VERTEX
  5
213C
  8
0
 62
     7
 10
967.5403
 20
280.4918
 30
0.0
  0
VERTEX
  5
213D
  8
0
 62
     7
 10
969.5564
 20
276.6589
 30
0.0
  0
VERTEX
  5
213E
  8
0
 62
     7
 10
971.0347
 20
273.3518
 30
0.0
  0
VERTEX
  5
213F
  8
0
 62
     7
 10
972.1759
 20
269.9957
 30
0.0
  0
VERTEX
  5
2140
  8
0
 62
     7
 10
972.7257
 20
267.6577
 30
0.0
  0
VERTEX
  5
2141
  8
0
 62
     7
 10
973.2068
 20
264.5281
 30
0.0
  0
VERTEX
  5
2142
  8
0
 62
     7
 10
973.5367
 20
260.4479
 30
0.0
  0
VERTEX
  5
2143
  8
0
 62
     7
 10
973.6484
 20
256.5439
 30
0.0
  0
VERTEX
  5
2144
  8
0
 62
     7
 10
973.5781
 20
253.6235
 30
0.0
  0
VERTEX
  5
2145
  8
0
 62
     7
 10
973.2937
 20
250.3557
 30
0.0
  0
VERTEX
  5
2146
  8
0
 62
     7
 10
972.8567
 20
247.6537
 30
0.0
  0
VERTEX
  5
2147
  8
0
 62
     7
 10
972.2076
 20
244.9772
 30
0.0
  0
VERTEX
  5
2148
  8
0
 62
     7
 10
971.5034
 20
242.816
 30
0.0
  0
VERTEX
  5
2149
  8
0
 62
     7
 10
970.3427
 20
240.0467
 30
0.0
  0
VERTEX
  5
214A
  8
0
 62
     7
 10
969.0025
 20
237.5317
 30
0.0
  0
VERTEX
  5
214B
  8
0
 62
     7
 10
967.6155
 20
235.4106
 30
0.0
  0
VERTEX
  5
214C
  8
0
 62
     7
 10
966.4611
 20
233.915
 30
0.0
  0
VERTEX
  5
214D
  8
0
 62
     7
 10
964.6144
 20
231.9147
 30
0.0
  0
VERTEX
  5
214E
  8
0
 62
     7
 10
962.4362
 20
230.0484
 30
0.0
  0
VERTEX
  5
214F
  8
0
 62
     7
 10
960.7814
 20
228.9181
 30
0.0
  0
VERTEX
  5
2150
  8
0
 62
     7
 10
958.4745
 20
227.6453
 30
0.0
  0
VERTEX
  5
2151
  8
0
 62
     7
 10
955.8352
 20
226.4995
 30
0.0
  0
VERTEX
  5
2152
  8
0
 62
     7
 10
952.7386
 20
225.4468
 30
0.0
  0
VERTEX
  5
2153
  8
0
 62
     7
 10
947.4232
 20
224.0833
 30
0.0
  0
VERTEX
  5
2154
  8
0
 62
     7
 10
941.6484
 20
222.914
 30
0.0
  0
VERTEX
  5
2155
  8
0
 62
     7
 10
935.1763
 20
221.8357
 30
0.0
  0
VERTEX
  5
2156
  8
0
 62
     7
 10
922.1768
 20
219.9931
 30
0.0
  0
VERTEX
  5
2157
  8
0
 62
     7
 10
918.3196
 20
223.5282
 30
0.0
  0
VERTEX
  5
2158
  8
0
 62
     7
 10
900.9595
 20
220.5085
 30
0.0
  0
VERTEX
  5
2159
  8
0
 62
     7
 10
888.8878
 20
218.6186
 30
0.0
  0
VERTEX
  5
215A
  8
0
 62
     7
 10
882.8749
 20
217.8085
 30
0.0
  0
VERTEX
  5
215B
  8
0
 62
     7
 10
876.8334
 20
217.131
 30
0.0
  0
VERTEX
  5
215C
  8
0
 62
     7
 10
871.1644
 20
216.6683
 30
0.0
  0
VERTEX
  5
215D
  8
0
 62
     7
 10
866.9045
 20
216.5028
 30
0.0
  0
VERTEX
  5
215E
  8
0
 62
     7
 10
863.7115
 20
216.521
 30
0.0
  0
VERTEX
  5
215F
  8
0
 62
     7
 10
859.5305
 20
216.7766
 30
0.0
  0
VERTEX
  5
2160
  8
0
 62
     7
 10
856.8525
 20
217.1039
 30
0.0
  0
VERTEX
  5
2161
  8
0
 62
     7
 10
854.1852
 20
217.5768
 30
0.0
  0
VERTEX
  5
2162
  8
0
 62
     7
 10
850.7948
 20
218.42
 30
0.0
  0
VERTEX
  5
2163
  8
0
 62
     7
 10
848.3075
 20
219.2437
 30
0.0
  0
VERTEX
  5
2164
  8
0
 62
     7
 10
845.6062
 20
220.3839
 30
0.0
  0
VERTEX
  5
2165
  8
0
 62
     7
 10
843.4622
 20
221.519
 30
0.0
  0
VERTEX
  5
2166
  8
0
 62
     7
 10
841.441
 20
222.8335
 30
0.0
  0
VERTEX
  5
2167
  8
0
 62
     7
 10
839.6034
 20
224.2951
 30
0.0
  0
VERTEX
  5
2168
  8
0
 62
     7
 10
838.103
 20
225.7057
 30
0.0
  0
VERTEX
  5
2169
  8
0
 62
     7
 10
836.2747
 20
227.719
 30
0.0
  0
VERTEX
  5
216A
  8
0
 62
     7
 10
834.4594
 20
230.0731
 30
0.0
  0
VERTEX
  5
216B
  8
0
 62
     7
 10
832.6006
 20
232.8871
 30
0.0
  0
VERTEX
  5
216C
  8
0
 62
     7
 10
831.1819
 20
235.3259
 30
0.0
  0
VERTEX
  5
216D
  8
0
 62
     7
 10
829.8657
 20
237.8141
 30
0.0
  0
VERTEX
  5
216E
  8
0
 62
     7
 10
827.8215
 20
242.0866
 30
0.0
  0
VERTEX
  5
216F
  8
0
 62
     7
 10
825.9582
 20
246.3918
 30
0.0
  0
VERTEX
  5
2170
  8
0
 62
     7
 10
827.4305
 20
248.0646
 30
0.0
  0
VERTEX
  5
2171
  8
0
 62
     7
 10
825.2126
 20
248.2408
 30
0.0
  0
VERTEX
  5
2172
  8
0
 62
     7
 10
823.5646
 20
252.6365
 30
0.0
  0
VERTEX
  5
2173
  8
0
 62
     7
 10
822.07
 20
257.1346
 30
0.0
  0
VERTEX
  5
2174
  8
0
 62
     7
 10
820.8681
 20
261.5011
 30
0.0
  0
VERTEX
  5
2175
  8
0
 62
     7
 10
820.127
 20
265.1217
 30
0.0
  0
VERTEX
  5
2176
  8
0
 62
     7
 10
819.7632
 20
267.8492
 30
0.0
  0
VERTEX
  5
2177
  8
0
 62
     7
 10
819.5958
 20
270.9119
 30
0.0
  0
VERTEX
  5
2178
  8
0
 62
     7
 10
819.6838
 20
273.4465
 30
0.0
  0
VERTEX
  5
2179
  8
0
 62
     7
 10
820.0074
 20
275.9536
 30
0.0
  0
VERTEX
  5
217A
  8
0
 62
     7
 10
820.5944
 20
278.4578
 30
0.0
  0
VERTEX
  5
217B
  8
0
 62
     7
 10
821.5007
 20
281.1133
 30
0.0
  0
VERTEX
  5
217C
  8
0
 62
     7
 10
822.3428
 20
283.0575
 30
0.0
  0
VERTEX
  5
217D
  8
0
 62
     7
 10
823.8289
 20
285.8833
 30
0.0
  0
VERTEX
  5
217E
  8
0
 62
     7
 10
825.5348
 20
288.5827
 30
0.0
  0
VERTEX
  5
217F
  8
0
 62
     7
 10
827.2155
 20
290.8887
 30
0.0
  0
VERTEX
  5
2180
  8
0
 62
     7
 10
829.6008
 20
293.7538
 30
0.0
  0
VERTEX
  5
2181
  8
0
 62
     7
 10
832.3803
 20
296.6767
 30
0.0
  0
VERTEX
  5
2182
  8
0
 62
     7
 10
835.7
 20
299.7777
 30
0.0
  0
VERTEX
  5
2183
  8
0
 62
     7
 10
838.5815
 20
302.2409
 30
0.0
  0
VERTEX
  5
2184
  8
0
 62
     7
 10
841.5316
 20
304.6215
 30
0.0
  0
VERTEX
  5
2185
  8
0
 62
     7
 10
846.3707
 20
308.3407
 30
0.0
  0
VERTEX
  5
2186
  8
0
 62
     7
 10
853.7582
 20
313.7123
 30
0.0
  0
VERTEX
  5
2187
  8
0
 62
     7
 10
868.5165
 20
323.9065
 30
0.0
  0
VERTEX
  5
2188
  8
0
 62
     7
 10
875.8401
 20
328.8065
 30
0.0
  0
VERTEX
  5
2189
  8
0
 62
     7
 10
876.164
 20
334.0296
 30
0.0
  0
VERTEX
  5
218A
  8
0
 62
     7
 10
887.4706
 20
342.1952
 30
0.0
  0
VERTEX
  5
218B
  8
0
 62
     7
 10
892.2486
 20
345.4646
 30
0.0
  0
VERTEX
  5
218C
  8
0
 62
     7
 10
897.1796
 20
348.6052
 30
0.0
  0
VERTEX
  5
218D
  8
0
 62
     7
 10
900.7421
 20
350.6714
 30
0.0
  0
VERTEX
  5
218E
  8
0
 62
     7
 10
903.4868
 20
352.0671
 30
0.0
  0
VERTEX
  5
218F
  8
0
 62
     7
 10
905.5884
 20
352.9809
 30
0.0
  0
VERTEX
  5
2190
  8
0
 62
     7
 10
907.9985
 20
353.8327
 30
0.0
  0
VERTEX
  5
2191
  8
0
 62
     7
 10
910.0454
 20
354.3716
 30
0.0
  0
VERTEX
  5
2192
  8
0
 62
     7
 10
912.1284
 20
354.7294
 30
0.0
  0
VERTEX
  5
2193
  8
0
 62
     7
 10
914.3464
 20
354.8908
 30
0.0
  0
VERTEX
  5
2194
  8
0
 62
     7
 10
916.3066
 20
354.8575
 30
0.0
  0
VERTEX
  5
2195
  8
0
 62
     7
 10
918.8862
 20
354.5807
 30
0.0
  0
VERTEX
  5
2196
  8
0
 62
     7
 10
921.6609
 20
354.0024
 30
0.0
  0
VERTEX
  5
2197
  8
0
 62
     7
 10
923.7083
 20
353.3924
 30
0.0
  0
VERTEX
  5
2198
  8
0
 62
     7
 10
926.5084
 20
352.3
 30
0.0
  0
VERTEX
  5
2199
  8
0
 62
     7
 10
929.5241
 20
350.7624
 30
0.0
  0
VERTEX
  5
219A
  8
0
 62
     7
 10
931.999
 20
349.1812
 30
0.0
  0
VERTEX
  5
219B
  8
0
 62
     7
 10
934.5087
 20
347.2587
 30
0.0
  0
VERTEX
  5
219C
  8
0
 62
     7
 10
937.1499
 20
344.8801
 30
0.0
  0
VERTEX
  5
219D
  8
0
 62
     7
 10
939.2284
 20
342.7598
 30
0.0
  0
VERTEX
  5
219E
  8
0
 62
     7
 10
941.2177
 20
340.5461
 30
0.0
  0
VERTEX
  5
219F
  8
0
 62
     7
 10
943.535
 20
337.7393
 30
0.0
  0
VERTEX
  5
21A0
  8
0
 62
     7
 10
945.3067
 20
335.2953
 30
0.0
  0
VERTEX
  5
21A1
  8
0
 62
     7
 10
946.8641
 20
332.7276
 30
0.0
  0
VERTEX
  5
21A2
  8
0
 62
     7
 10
948.1055
 20
330.1541
 30
0.0
  0
VERTEX
  5
21A3
  8
0
 62
     7
 10
949.2618
 20
327.1381
 30
0.0
  0
VERTEX
  5
21A4
  8
0
 62
     7
 10
950.8108
 20
321.9536
 30
0.0
  0
VERTEX
  5
21A5
  8
0
 62
     7
 10
953.0956
 20
313.1312
 30
0.0
  0
VERTEX
  5
21A6
  8
0
 62
     7
 10
953.9263
 20
310.2186
 30
0.0
  0
VERTEX
  5
21A7
  8
0
 62
     7
 10
955.4204
 20
305.6748
 30
0.0
  0
VERTEX
  5
21A8
  8
0
 62
     7
 10
957.0969
 20
301.1873
 30
0.0
  0
VERTEX
  5
21A9
  8
0
 62
     7
 10
958.7601
 20
301.0551
 30
0.0
  0
VERTEX
  5
21AA
  8
0
 62
     7
 10
957.6561
 20
299.8015
 30
0.0
  0
SEQEND
  5
227C
  8
0
 62
     7
  0
POLYLINE
  5
1E60
  8
0
 62
     8
 66
     1
 10
0.0
 20
0.0
 30
0.0
  0
VERTEX
  5
21AB
  8
0
 62
     8
 10
825.5757
 20
247.3161
 30
0.0
  0
VERTEX
  5
21AC
  8
0
 62
     8
 10
957.3691
 20
300.4938
 30
0.0
  0
SEQEND
  5
227D
  8
0
 62
     8
  0
POLYLINE
  5
1E64
  8
0
 62
    22
 66
     1
 10
0.0
 20
0.0
 30
0.0
  0
VERTEX
  5
21AD
  8
0
 62
    22
 10
846.8914
 20
239.5699
 30
0.0
  0
VERTEX
  5
21AE
  8
0
 62
    22
 10
844.0828
 20
238.7345
 30
0.0
  0
VERTEX
  5
21AF
  8
0
 62
    22
 10
842.262
 20
238.4891
 30
0.0
  0
VERTEX
  5
21B0
  8
0
 62
    22
 10
840.9811
 20
238.6465
 30
0.0
  0
VERTEX
  5
21B1
  8
0
 62
    22
 10
840.1179
 20
239.0367
 30
0.0
  0
VERTEX
  5
21B2
  8
0
 62
    22
 10
839.4626
 20
239.5789
 30
0.0
  0
VERTEX
  5
21B3
  8
0
 62
    22
 10
838.7205
 20
240.4922
 30
0.0
  0
VERTEX
  5
21B4
  8
0
 62
    22
 10
837.7251
 20
242.175
 30
0.0
  0
VERTEX
  5
21B5
  8
0
 62
    22
 10
836.2862
 20
245.1207
 30
0.0
  0
VERTEX
  5
21B6
  8
0
 62
    22
 10
834.629
 20
249.0478
 30
0.0
  0
VERTEX
  5
21B7
  8
0
 62
    22
 10
833.4296
 20
252.1591
 30
0.0
  0
SEQEND
  5
227E
  8
0
 62
    22
  0
POLYLINE
  5
1E71
  8
0
 62
    29
 66
     1
 10
0.0
 20
0.0
 30
0.0
  0
VERTEX
  5
21B8
  8
0
 62
    29
 10
834.5913
 20
249.2799
 30
0.0
  0
VERTEX
  5
21B9
  8
0
 62
    29
 10
832.437
 20
254.5058
 30
0.0
  0
VERTEX
  5
21BA
  8
0
 62
    29
 10
831.1761
 20
258.0726
 30
0.0
  0
VERTEX
  5
21BB
  8
0
 62
    29
 10
830.4573
 20
260.5804
 30
0.0
  0
VERTEX
  5
21BC
  8
0
 62
    29
 10
830.2259
 20
261.9709
 30
0.0
  0
VERTEX
  5
21BD
  8
0
 62
    29
 10
830.2267
 20
262.9259
 30
0.0
  0
VERTEX
  5
21BE
  8
0
 62
    29
 10
830.4547
 20
263.848
 30
0.0
  0
VERTEX
  5
21BF
  8
0
 62
    29
 10
831.0861
 20
264.8543
 30
0.0
  0
VERTEX
  5
21C0
  8
0
 62
    29
 10
831.886
 20
265.6124
 30
0.0
  0
VERTEX
  5
21C1
  8
0
 62
    29
 10
833.5238
 20
266.6676
 30
0.0
  0
VERTEX
  5
21C2
  8
0
 62
    29
 10
835.5467
 20
267.6863
 30
0.0
  0
SEQEND
  5
227F
  8
0
 62
    29
  0
POLYLINE
  5
1E7E
  8
0
 62
     8
 66
     1
 10
0.0
 20
0.0
 30
0.0
  0
VERTEX
  5
21C3
  8
0
 62
     8
 10
963.8857
 20
286.9482
 30
0.0
  0
VERTEX
  5
21C4
  8
0
 62
     8
 10
922.3818
 20
270.2017
 30
0.0
  0
VERTEX
  5
21C5
  8
0
 62
     8
 10
916.7695
 20
284.1125
 30
0.0
  0
SEQEND
  5
2280
  8
0
 62
     8
  0
POLYLINE
  5
1E83
  8
0
 62
     8
 66
     1
 10
0.0
 20
0.0
 30
0.0
  0
VERTEX
  5
21C6
  8
0
 62
     8
 10
912.1074
 20
276.8394
 30
0.0
  0
VERTEX
  5
21C7
  8
0
 62
     8
 10
908.4648
 20
286.1529
 30
0.0
  0
SEQEND
  5
2281
  8
0
 62
     8
  0
POLYLINE
  5
1E87
  8
0
 62
     8
 66
     1
 10
0.0
 20
0.0
 30
0.0
  0
VERTEX
  5
21C8
  8
0
 62
     8
 10
895.4141
 20
270.1039
 30
0.0
  0
VERTEX
  5
21C9
  8
0
 62
     8
 10
891.7714
 20
279.4174
 30
0.0
  0
SEQEND
  5
2282
  8
0
 62
     8
  0
POLYLINE
  5
1E8B
  8
0
 62
    29
 66
     1
 10
0.0
 20
0.0
 30
0.0
  0
VERTEX
  5
21CA
  8
0
 62
    29
 10
916.7698
 20
284.1119
 30
0.0
  0
VERTEX
  5
21CB
  8
0
 62
    29
 10
911.1567
 20
298.0226
 30
0.0
  0
VERTEX
  5
21CC
  8
0
 62
    29
 10
952.6603
 20
314.7689
 30
0.0
  0
SEQEND
  5
2283
  8
0
 62
    29
  0
ENDBLK
  5
1E90
  8
0
  0
BLOCK
  8
0
  2
舌面-10_5
 70
     2
 10
1149.281494
 20
298.935364
 30
0.0
  3
舌面-10_5
  1

  0
ATTDEF
  5
1E93
  8
0
 10
1149.281494
 20
305.621094
 30
0.0
 40
0.15
  1
舌面
  3

  2
PIECE-NAME
 70
     2
  0
ATTDEF
  5
1E94
  8
0
 10
1149.281494
 20
292.249633
 30
0.0
 40
0.15
  1
10_5
  3

  2
SIZE/WIDTH
 70
     2
  0
ATTDEF
  5
1E95
  8
0
 10
1149.281494
 20
292.249633
 30
0.0
 40
0.15
  1

  3

  2
MATERIAL
 70
     2
  0
POLYLINE
  5
1E96
  8
0
 62
     7
 66
     1
 10
0.0
 20
0.0
 30
0.0
  0
VERTEX
  5
21CD
  8
0
 62
     7
 10
1211.9744
 20
313.2855
 30
0.0
  0
VERTEX
  5
21CE
  8
0
 62
     7
 10
1213.9391
 20
308.7833
 30
0.0
  0
VERTEX
  5
21CF
  8
0
 62
     7
 10
1216.0789
 20
304.3701
 30
0.0
  0
VERTEX
  5
21D0
  8
0
 62
     7
 10
1217.5431
 20
301.6348
 30
0.0
  0
VERTEX
  5
21D1
  8
0
 62
     7
 10
1222.1494
 20
293.5145
 30
0.0
  0
VERTEX
  5
21D2
  8
0
 62
     7
 10
1224.2233
 20
289.5943
 30
0.0
  0
VERTEX
  5
21D3
  8
0
 62
     7
 10
1225.7308
 20
286.2442
 30
0.0
  0
VERTEX
  5
21D4
  8
0
 62
     7
 10
1226.3729
 20
284.5248
 30
0.0
  0
VERTEX
  5
21D5
  8
0
 62
     7
 10
1226.9185
 20
282.7765
 30
0.0
  0
VERTEX
  5
21D6
  8
0
 62
     7
 10
1227.4838
 20
280.3852
 30
0.0
  0
VERTEX
  5
21D7
  8
0
 62
     7
 10
1227.9786
 20
277.1836
 30
0.0
  0
VERTEX
  5
21D8
  8
0
 62
     7
 10
1228.3182
 20
273.0086
 30
0.0
  0
VERTEX
  5
21D9
  8
0
 62
     7
 10
1228.4332
 20
269.0137
 30
0.0
  0
VERTEX
  5
21DA
  8
0
 62
     7
 10
1228.3608
 20
266.0254
 30
0.0
  0
VERTEX
  5
21DB
  8
0
 62
     7
 10
1228.0682
 20
262.6821
 30
0.0
  0
VERTEX
  5
21DC
  8
0
 62
     7
 10
1227.6187
 20
259.9182
 30
0.0
  0
VERTEX
  5
21DD
  8
0
 62
     7
 10
1226.951
 20
257.1812
 30
0.0
  0
VERTEX
  5
21DE
  8
0
 62
     7
 10
1226.2255
 20
254.9684
 30
0.0
  0
VERTEX
  5
21DF
  8
0
 62
     7
 10
1225.0295
 20
252.1338
 30
0.0
  0
VERTEX
  5
21E0
  8
0
 62
     7
 10
1223.6494
 20
249.5605
 30
0.0
  0
VERTEX
  5
21E1
  8
0
 62
     7
 10
1222.2219
 20
247.3908
 30
0.0
  0
VERTEX
  5
21E2
  8
0
 62
     7
 10
1221.0343
 20
245.8613
 30
0.0
  0
VERTEX
  5
21E3
  8
0
 62
     7
 10
1219.2003
 20
243.8784
 30
0.0
  0
VERTEX
  5
21E4
  8
0
 62
     7
 10
1216.8987
 20
241.9083
 30
0.0
  0
VERTEX
  5
21E5
  8
0
 62
     7
 10
1215.1947
 20
240.7498
 30
0.0
  0
VERTEX
  5
21E6
  8
0
 62
     7
 10
1212.8204
 20
239.4464
 30
0.0
  0
VERTEX
  5
21E7
  8
0
 62
     7
 10
1210.105
 20
238.274
 30
0.0
  0
VERTEX
  5
21E8
  8
0
 62
     7
 10
1206.9199
 20
237.198
 30
0.0
  0
VERTEX
  5
21E9
  8
0
 62
     7
 10
1204.1997
 20
236.4529
 30
0.0
  0
VERTEX
  5
21EA
  8
0
 62
     7
 10
1201.454
 20
235.8057
 30
0.0
  0
VERTEX
  5
21EB
  8
0
 62
     7
 10
1195.5128
 20
234.6106
 30
0.0
  0
VERTEX
  5
21EC
  8
0
 62
     7
 10
1188.8545
 20
233.5073
 30
0.0
  0
VERTEX
  5
21ED
  8
0
 62
     7
 10
1175.4817
 20
231.621
 30
0.0
  0
VERTEX
  5
21EE
  8
0
 62
     7
 10
1171.5135
 20
235.2377
 30
0.0
  0
VERTEX
  5
21EF
  8
0
 62
     7
 10
1153.6543
 20
232.1485
 30
0.0
  0
VERTEX
  5
21F0
  8
0
 62
     7
 10
1141.3801
 20
230.2357
 30
0.0
  0
VERTEX
  5
21F1
  8
0
 62
     7
 10
1135.1221
 20
229.3952
 30
0.0
  0
VERTEX
  5
21F2
  8
0
 62
     7
 10
1128.8345
 20
228.6931
 30
0.0
  0
VERTEX
  5
21F3
  8
0
 62
     7
 10
1123.0029
 20
228.22
 30
0.0
  0
VERTEX
  5
21F4
  8
0
 62
     7
 10
1118.621
 20
228.0508
 30
0.0
  0
VERTEX
  5
21F5
  8
0
 62
     7
 10
1115.3363
 20
228.0695
 30
0.0
  0
VERTEX
  5
21F6
  8
0
 62
     7
 10
1111.6486
 20
228.2752
 30
0.0
  0
VERTEX
  5
21F7
  8
0
 62
     7
 10
1108.5854
 20
228.6214
 30
0.0
  0
VERTEX
  5
21F8
  8
0
 62
     7
 10
1105.535
 20
229.1492
 30
0.0
  0
VERTEX
  5
21F9
  8
0
 62
     7
 10
1102.0487
 20
230.0106
 30
0.0
  0
VERTEX
  5
21FA
  8
0
 62
     7
 10
1099.4905
 20
230.8526
 30
0.0
  0
VERTEX
  5
21FB
  8
0
 62
     7
 10
1096.7114
 20
232.0187
 30
0.0
  0
VERTEX
  5
21FC
  8
0
 62
     7
 10
1094.5051
 20
233.1806
 30
0.0
  0
VERTEX
  5
21FD
  8
0
 62
     7
 10
1092.4246
 20
234.5271
 30
0.0
  0
VERTEX
  5
21FE
  8
0
 62
     7
 10
1090.5371
 20
236.021
 30
0.0
  0
VERTEX
  5
21FF
  8
0
 62
     7
 10
1088.995
 20
237.4633
 30
0.0
  0
VERTEX
  5
2200
  8
0
 62
     7
 10
1087.1149
 20
239.5222
 30
0.0
  0
VERTEX
  5
2201
  8
0
 62
     7
 10
1085.2471
 20
241.9304
 30
0.0
  0
VERTEX
  5
2202
  8
0
 62
     7
 10
1083.3333
 20
244.8098
 30
0.0
  0
VERTEX
  5
2203
  8
0
 62
     7
 10
1081.8722
 20
247.3058
 30
0.0
  0
VERTEX
  5
2204
  8
0
 62
     7
 10
1080.5164
 20
249.853
 30
0.0
  0
VERTEX
  5
2205
  8
0
 62
     7
 10
1078.4082
 20
254.2343
 30
0.0
  0
VERTEX
  5
2206
  8
0
 62
     7
 10
1076.4867
 20
258.6505
 30
0.0
  0
VERTEX
  5
2207
  8
0
 62
     7
 10
1077.9586
 20
260.3187
 30
0.0
  0
VERTEX
  5
2208
  8
0
 62
     7
 10
1075.7457
 20
260.4973
 30
0.0
  0
VERTEX
  5
2209
  8
0
 62
     7
 10
1074.0796
 20
265.0213
 30
0.0
  0
VERTEX
  5
220A
  8
0
 62
     7
 10
1072.5729
 20
269.6495
 30
0.0
  0
VERTEX
  5
220B
  8
0
 62
     7
 10
1071.4409
 20
273.8317
 30
0.0
  0
VERTEX
  5
220C
  8
0
 62
     7
 10
1070.6718
 20
277.6218
 30
0.0
  0
VERTEX
  5
220D
  8
0
 62
     7
 10
1070.2968
 20
280.4774
 30
0.0
  0
VERTEX
  5
220E
  8
0
 62
     7
 10
1070.13
 20
283.6832
 30
0.0
  0
VERTEX
  5
220F
  8
0
 62
     7
 10
1070.2323
 20
286.3349
 30
0.0
  0
VERTEX
  5
2210
  8
0
 62
     7
 10
1070.5846
 20
288.9559
 30
0.0
  0
VERTEX
  5
2211
  8
0
 62
     7
 10
1071.2036
 20
291.5262
 30
0.0
  0
VERTEX
  5
2212
  8
0
 62
     7
 10
1072.1516
 20
294.2501
 30
0.0
  0
VERTEX
  5
2213
  8
0
 62
     7
 10
1073.0291
 20
296.2433
 30
0.0
  0
VERTEX
  5
2214
  8
0
 62
     7
 10
1074.5732
 20
299.1391
 30
0.0
  0
VERTEX
  5
2215
  8
0
 62
     7
 10
1076.3416
 20
301.9045
 30
0.0
  0
VERTEX
  5
2216
  8
0
 62
     7
 10
1078.0823
 20
304.2684
 30
0.0
  0
VERTEX
  5
2217
  8
0
 62
     7
 10
1080.5496
 20
307.2048
 30
0.0
  0
VERTEX
  5
2218
  8
0
 62
     7
 10
1083.4211
 20
310.2
 30
0.0
  0
VERTEX
  5
2219
  8
0
 62
     7
 10
1086.8479
 20
313.3771
 30
0.0
  0
VERTEX
  5
221A
  8
0
 62
     7
 10
1089.8207
 20
315.9005
 30
0.0
  0
VERTEX
  5
221B
  8
0
 62
     7
 10
1092.8634
 20
318.3391
 30
0.0
  0
VERTEX
  5
221C
  8
0
 62
     7
 10
1097.8531
 20
322.1487
 30
0.0
  0
VERTEX
  5
221D
  8
0
 62
     7
 10
1105.4694
 20
327.6505
 30
0.0
  0
VERTEX
  5
221E
  8
0
 62
     7
 10
1120.6813
 20
338.0916
 30
0.0
  0
VERTEX
  5
221F
  8
0
 62
     7
 10
1128.2286
 20
343.1098
 30
0.0
  0
VERTEX
  5
2220
  8
0
 62
     7
 10
1128.5966
 20
348.4673
 30
0.0
  0
VERTEX
  5
2221
  8
0
 62
     7
 10
1140.2532
 20
356.8298
 30
0.0
  0
VERTEX
  5
2222
  8
0
 62
     7
 10
1145.1776
 20
360.1783
 30
0.0
  0
VERTEX
  5
2223
  8
0
 62
     7
 10
1150.2578
 20
363.3954
 30
0.0
  0
VERTEX
  5
2224
  8
0
 62
     7
 10
1153.9243
 20
365.5112
 30
0.0
  0
VERTEX
  5
2225
  8
0
 62
     7
 10
1156.7484
 20
366.9401
 30
0.0
  0
VERTEX
  5
2226
  8
0
 62
     7
 10
1158.9103
 20
367.8753
 30
0.0
  0
VERTEX
  5
2227
  8
0
 62
     7
 10
1161.3895
 20
368.7465
 30
0.0
  0
VERTEX
  5
2228
  8
0
 62
     7
 10
1163.4948
 20
369.2968
 30
0.0
  0
VERTEX
  5
2229
  8
0
 62
     7
 10
1165.637
 20
369.6611
 30
0.0
  0
VERTEX
  5
222A
  8
0
 62
     7
 10
1167.9108
 20
369.8231
 30
0.0
  0
VERTEX
  5
222B
  8
0
 62
     7
 10
1169.92
 20
369.7864
 30
0.0
  0
VERTEX
  5
222C
  8
0
 62
     7
 10
1172.5638
 20
369.4999
 30
0.0
  0
VERTEX
  5
222D
  8
0
 62
     7
 10
1175.4069
 20
368.9044
 30
0.0
  0
VERTEX
  5
222E
  8
0
 62
     7
 10
1177.5042
 20
368.277
 30
0.0
  0
VERTEX
  5
222F
  8
0
 62
     7
 10
1180.3716
 20
367.1538
 30
0.0
  0
VERTEX
  5
2230
  8
0
 62
     7
 10
1183.4583
 20
365.5727
 30
0.0
  0
VERTEX
  5
2231
  8
0
 62
     7
 10
1185.9857
 20
363.9489
 30
0.0
  0
VERTEX
  5
2232
  8
0
 62
     7
 10
1188.5475
 20
361.9743
 30
0.0
  0
VERTEX
  5
2233
  8
0
 62
     7
 10
1191.2415
 20
359.5313
 30
0.0
  0
VERTEX
  5
2234
  8
0
 62
     7
 10
1193.3601
 20
357.3535
 30
0.0
  0
VERTEX
  5
2235
  8
0
 62
     7
 10
1195.3866
 20
355.0802
 30
0.0
  0
VERTEX
  5
2236
  8
0
 62
     7
 10
1197.7454
 20
352.1978
 30
0.0
  0
VERTEX
  5
2237
  8
0
 62
     7
 10
1199.7574
 20
349.3669
 30
0.0
  0
VERTEX
  5
2238
  8
0
 62
     7
 10
1201.1267
 20
347.0539
 30
0.0
  0
VERTEX
  5
2239
  8
0
 62
     7
 10
1202.3834
 20
344.4119
 30
0.0
  0
VERTEX
  5
223A
  8
0
 62
     7
 10
1203.5493
 20
341.3167
 30
0.0
  0
VERTEX
  5
223B
  8
0
 62
     7
 10
1205.1028
 20
335.9977
 30
0.0
  0
VERTEX
  5
223C
  8
0
 62
     7
 10
1207.387
 20
326.9456
 30
0.0
  0
VERTEX
  5
223D
  8
0
 62
     7
 10
1208.2196
 20
323.9568
 30
0.0
  0
VERTEX
  5
223E
  8
0
 62
     7
 10
1209.725
 20
319.2849
 30
0.0
  0
VERTEX
  5
223F
  8
0
 62
     7
 10
1211.4187
 20
314.6698
 30
0.0
  0
VERTEX
  5
2240
  8
0
 62
     7
 10
1213.0779
 20
314.5362
 30
0.0
  0
VERTEX
  5
2241
  8
0
 62
     7
 10
1211.9744
 20
313.2855
 30
0.0
  0
SEQEND
  5
2284
  8
0
 62
     7
  0
POLYLINE
  5
1F0D
  8
0
 62
     8
 66
     1
 10
0.0
 20
0.0
 30
0.0
  0
VERTEX
  5
2242
  8
0
 62
     8
 10
1076.1025
 20
259.5739
 30
0.0
  0
VERTEX
  5
2243
  8
0
 62
     8
 10
1211.6858
 20
313.9775
 30
0.0
  0
SEQEND
  5
2285
  8
0
 62
     8
  0
POLYLINE
  5
1F11
  8
0
 62
    22
 66
     1
 10
0.0
 20
0.0
 30
0.0
  0
VERTEX
  5
2244
  8
0
 62
    22
 10
1097.6827
 20
251.463
 30
0.0
  0
VERTEX
  5
2245
  8
0
 62
    22
 10
1094.8541
 20
250.6482
 30
0.0
  0
VERTEX
  5
2246
  8
0
 62
    22
 10
1093.0161
 20
250.4207
 30
0.0
  0
VERTEX
  5
2247
  8
0
 62
    22
 10
1091.7183
 20
250.5958
 30
0.0
  0
VERTEX
  5
2248
  8
0
 62
    22
 10
1090.8389
 20
251.0027
 30
0.0
  0
VERTEX
  5
2249
  8
0
 62
    22
 10
1090.1674
 20
251.5616
 30
0.0
  0
VERTEX
  5
224A
  8
0
 62
    22
 10
1089.4012
 20
252.4999
 30
0.0
  0
VERTEX
  5
224B
  8
0
 62
    22
 10
1088.3712
 20
254.2224
 30
0.0
  0
VERTEX
  5
224C
  8
0
 62
    22
 10
1086.8921
 20
257.2427
 30
0.0
  0
VERTEX
  5
224D
  8
0
 62
    22
 10
1085.1827
 20
261.2664
 30
0.0
  0
VERTEX
  5
224E
  8
0
 62
    22
 10
1083.9436
 20
264.4512
 30
0.0
  0
SEQEND
  5
2286
  8
0
 62
    22
  0
POLYLINE
  5
1F1E
  8
0
 62
    29
 66
     1
 10
0.0
 20
0.0
 30
0.0
  0
VERTEX
  5
224F
  8
0
 62
    29
 10
1085.1401
 20
261.4693
 30
0.0
  0
VERTEX
  5
2250
  8
0
 62
    29
 10
1082.9681
 20
266.8409
 30
0.0
  0
VERTEX
  5
2251
  8
0
 62
    29
 10
1081.6951
 20
270.5069
 30
0.0
  0
VERTEX
  5
2252
  8
0
 62
    29
 10
1080.9735
 20
273.0843
 30
0.0
  0
VERTEX
  5
2253
  8
0
 62
    29
 10
1080.7476
 20
274.5159
 30
0.0
  0
VERTEX
  5
2254
  8
0
 62
    29
 10
1080.7522
 20
275.4969
 30
0.0
  0
VERTEX
  5
2255
  8
0
 62
    29
 10
1080.9838
 20
276.4425
 30
0.0
  0
VERTEX
  5
2256
  8
0
 62
    29
 10
1081.6191
 20
277.4711
 30
0.0
  0
VERTEX
  5
2257
  8
0
 62
    29
 10
1082.4221
 20
278.2451
 30
0.0
  0
VERTEX
  5
2258
  8
0
 62
    29
 10
1084.064
 20
279.3176
 30
0.0
  0
VERTEX
  5
2259
  8
0
 62
    29
 10
1086.0908
 20
280.3519
 30
0.0
  0
SEQEND
  5
2287
  8
0
 62
    29
  0
POLYLINE
  5
1F2B
  8
0
 62
     8
 66
     1
 10
0.0
 20
0.0
 30
0.0
  0
VERTEX
  5
225A
  8
0
 62
     8
 10
1218.2125
 20
300.4339
 30
0.0
  0
VERTEX
  5
225B
  8
0
 62
     8
 10
1176.6467
 20
283.7554
 30
0.0
  0
VERTEX
  5
225C
  8
0
 62
     8
 10
1171.0607
 20
297.6765
 30
0.0
  0
SEQEND
  5
2288
  8
0
 62
     8
  0
POLYLINE
  5
1F30
  8
0
 62
     8
 66
     1
 10
0.0
 20
0.0
 30
0.0
  0
VERTEX
  5
225D
  8
0
 62
     8
 10
1165.0791
 20
289.8888
 30
0.0
  0
VERTEX
  5
225E
  8
0
 62
     8
 10
1161.4191
 20
299.1952
 30
0.0
  0
SEQEND
  5
2289
  8
0
 62
     8
  0
POLYLINE
  5
1F34
  8
0
 62
     8
 66
     1
 10
0.0
 20
0.0
 30
0.0
  0
VERTEX
  5
225F
  8
0
 62
     8
 10
1148.3735
 20
283.1854
 30
0.0
  0
VERTEX
  5
2260
  8
0
 62
     8
 10
1144.7134
 20
292.4918
 30
0.0
  0
SEQEND
  5
228A
  8
0
 62
     8
  0
POLYLINE
  5
1F38
  8
0
 62
    29
 66
     1
 10
0.0
 20
0.0
 30
0.0
  0
VERTEX
  5
2261
  8
0
 62
    29
 10
1171.0607
 20
297.6764
 30
0.0
  0
VERTEX
  5
2262
  8
0
 62
    29
 10
1165.4751
 20
311.5973
 30
0.0
  0
VERTEX
  5
2263
  8
0
 62
    29
 10
1207.0406
 20
328.2762
 30
0.0
  0
SEQEND
  5
228B
  8
0
 62
    29
  0
ENDBLK
  5
1F3D
  8
0
  0
ENDSEC
  0
SECTION
  2
ENTITIES
  0
TEXT
  5
1F3E
  8
0
 62
     7
 10
73.9942
 20
209.3717
 30
0.0
 40
3.3429
  1
PATTERN: 陈QDL043271430
  0
TEXT
  5
1F3F
  8
0
 62
     7
 10
73.9942
 20
202.686
 30
0.0
 40
3.3429
  1
UNITS: mm
  0
INSERT
  5
1F40
  8
0
  2
舌面-6_5
 10
138.635376
 20
245.967712
 30
0.0
  0
INSERT
  5
1F41
  8
0
  2
舌面-7_5
 10
391.298157
 20
259.211853
 30
0.0
  0
INSERT
  5
1F42
  8
0
  2
舌面-8_5
 10
643.959839
 20
272.454468
 30
0.0
  0
INSERT
  5
1F43
  8
0
  2
舌面-9_5
 10
896.621582
 20
285.695587
 30
0.0
  0
INSERT
  5
1F44
  8
0
  2
舌面-10_5
 10
1149.281494
 20
298.935364
 30
0.0
  0
ENDSEC
  0
EOF
